<svg width="21" height="21" viewBox="0 0 21 21" fill="none" xmlns="http://www.w3.org/2000/svg">
<path d="M8.12672 18.946H13.2744C17.5641 18.946 19.28 17.2302 19.28 12.9404V7.79274C19.28 3.503 17.5641 1.78711 13.2744 1.78711H8.12672C3.83699 1.78711 2.12109 3.503 2.12109 7.79274V12.9404C2.12109 17.2302 3.83699 18.946 8.12672 18.946Z" fill="#B78AF7" stroke="#360083" stroke-width="0.96519" stroke-linecap="round" stroke-linejoin="round"/>
<g opacity="0.44">
<path d="M6.69434 12.503L8.73625 9.85199C9.02795 9.47449 9.56846 9.40586 9.94595 9.69756L11.516 10.933C11.8935 11.2247 12.434 11.1561 12.7257 10.7871L14.7076 8.23047" fill="#B78AF7"/>
<path d="M6.69434 12.503L8.73625 9.85199C9.02795 9.47449 9.56846 9.40586 9.94595 9.69756L11.516 10.933C11.8935 11.2247 12.434 11.1561 12.7257 10.7871L14.7076 8.23047" stroke="#360083" stroke-width="0.96519" stroke-linecap="round" stroke-linejoin="round"/>
</g>
</svg>
