<svg width="11" height="11" viewBox="0 0 11 11" fill="none" xmlns="http://www.w3.org/2000/svg">
<path d="M2.15411 4.46011H3.01205C3.87 4.46011 4.29897 4.03113 4.29897 3.17319V2.31524C4.29897 1.45729 3.87 1.02832 3.01205 1.02832H2.15411C1.29616 1.02832 0.867188 1.45729 0.867188 2.31524V3.17319C0.867188 4.03113 1.29616 4.46011 2.15411 4.46011Z" stroke="#8094AE" stroke-width="0.96519" stroke-miterlimit="10" stroke-linecap="round" stroke-linejoin="round"/>
<path d="M7.30255 4.46011H8.16049C9.01844 4.46011 9.44741 4.03113 9.44741 3.17319V2.31524C9.44741 1.45729 9.01844 1.02832 8.16049 1.02832H7.30255C6.4446 1.02832 6.01562 1.45729 6.01562 2.31524V3.17319C6.01562 4.03113 6.4446 4.46011 7.30255 4.46011Z" stroke="#8094AE" stroke-width="0.96519" stroke-miterlimit="10" stroke-linecap="round" stroke-linejoin="round"/>
<path d="M7.30255 9.60757H8.16049C9.01844 9.60757 9.44741 9.1786 9.44741 8.32065V7.4627C9.44741 6.60475 9.01844 6.17578 8.16049 6.17578H7.30255C6.4446 6.17578 6.01562 6.60475 6.01562 7.4627V8.32065C6.01562 9.1786 6.4446 9.60757 7.30255 9.60757Z" stroke="#8094AE" stroke-width="0.96519" stroke-miterlimit="10" stroke-linecap="round" stroke-linejoin="round"/>
<path d="M2.15411 9.60757H3.01205C3.87 9.60757 4.29897 9.1786 4.29897 8.32065V7.4627C4.29897 6.60475 3.87 6.17578 3.01205 6.17578H2.15411C1.29616 6.17578 0.867188 6.60475 0.867188 7.4627V8.32065C0.867188 9.1786 1.29616 9.60757 2.15411 9.60757Z" stroke="#8094AE" stroke-width="0.96519" stroke-miterlimit="10" stroke-linecap="round" stroke-linejoin="round"/>
</svg>
