<svg width="15" height="16" viewBox="0 0 15 16" fill="none" xmlns="http://www.w3.org/2000/svg">
<path d="M7.56507 14.3723C4.05565 14.3723 1.20312 11.5198 1.20312 8.01039C1.20312 4.50096 4.05565 1.64844 7.56507 1.64844C11.0745 1.64844 13.927 4.50096 13.927 8.01039C13.927 11.5198 11.0745 14.3723 7.56507 14.3723ZM7.56507 2.53615C4.54685 2.53615 2.09084 4.99216 2.09084 8.01039C2.09084 11.0286 4.54685 13.4846 7.56507 13.4846C10.5833 13.4846 13.0393 11.0286 13.0393 8.01039C13.0393 4.99216 10.5833 2.53615 7.56507 2.53615Z" fill="#8094AE"/>
<path d="M5.88964 10.1285C5.7772 10.1285 5.66476 10.087 5.57598 9.99825C5.40436 9.82663 5.40436 9.54256 5.57598 9.37094L8.92562 6.0213C9.09725 5.84967 9.38132 5.84967 9.55294 6.0213C9.72457 6.19292 9.72457 6.47699 9.55294 6.64861L6.2033 9.99825C6.12045 10.087 6.00209 10.1285 5.88964 10.1285Z" fill="#8094AE"/>
<path d="M9.23928 10.1285C9.12684 10.1285 9.0144 10.087 8.92562 9.99825L5.57598 6.64861C5.40436 6.47699 5.40436 6.19292 5.57598 6.0213C5.74761 5.84967 6.03168 5.84967 6.2033 6.0213L9.55294 9.37094C9.72457 9.54256 9.72457 9.82663 9.55294 9.99825C9.46417 10.087 9.35173 10.1285 9.23928 10.1285Z" fill="#8094AE"/>
</svg>
