<svg width="16" height="17" viewBox="0 0 16 17" fill="none" xmlns="http://www.w3.org/2000/svg">
<path d="M8.00709 15.8433C4.11674 15.8433 0.95459 12.6811 0.95459 8.79078C0.95459 4.90043 4.11674 1.73828 8.00709 1.73828C11.8975 1.73828 15.0596 4.90043 15.0596 8.79078C15.0596 12.6811 11.8975 15.8433 8.00709 15.8433ZM8.00709 2.72235C4.66125 2.72235 1.93866 5.44495 1.93866 8.79078C1.93866 12.1366 4.66125 14.8592 8.00709 14.8592C11.3529 14.8592 14.0755 12.1366 14.0755 8.79078C14.0755 5.44495 11.3529 2.72235 8.00709 2.72235Z" fill="#8094AE"/>
<path d="M6.15055 11.139C6.0259 11.139 5.90125 11.0931 5.80285 10.9947C5.61259 10.8044 5.61259 10.4895 5.80285 10.2993L9.51607 6.58605C9.70633 6.3958 10.0212 6.3958 10.2115 6.58605C10.4017 6.7763 10.4017 7.09121 10.2115 7.28146L6.49826 10.9947C6.40641 11.0931 6.2752 11.139 6.15055 11.139Z" fill="#8094AE"/>
<path d="M9.86378 11.139C9.73913 11.139 9.61448 11.0931 9.51607 10.9947L5.80285 7.28146C5.61259 7.09121 5.61259 6.7763 5.80285 6.58605C5.9931 6.3958 6.308 6.3958 6.49826 6.58605L10.2115 10.2993C10.4017 10.4895 10.4017 10.8044 10.2115 10.9947C10.1131 11.0931 9.98842 11.139 9.86378 11.139Z" fill="#8094AE"/>
</svg>
