<svg width="16" height="16" viewBox="0 0 16 16" fill="none" xmlns="http://www.w3.org/2000/svg">
<path d="M8.12488 14.6619C4.3589 14.6619 1.29785 11.6008 1.29785 7.83485C1.29785 4.06886 4.3589 1.00781 8.12488 1.00781C11.8909 1.00781 14.9519 4.06886 14.9519 7.83485C14.9519 11.6008 11.8909 14.6619 8.12488 14.6619ZM8.12488 1.96042C4.88601 1.96042 2.25046 4.59597 2.25046 7.83485C2.25046 11.0737 4.88601 13.7093 8.12488 13.7093C11.3638 13.7093 13.9993 11.0737 13.9993 7.83485C13.9993 4.59597 11.3638 1.96042 8.12488 1.96042Z" fill="#8094AE"/>
<path d="M6.32823 10.108C6.20757 10.108 6.0869 10.0636 5.99164 9.96832C5.80747 9.78415 5.80747 9.47931 5.99164 9.29514L9.58616 5.70063C9.77033 5.51646 10.0752 5.51646 10.2593 5.70063C10.4435 5.8848 10.4435 6.18963 10.2593 6.37381L6.66482 9.96832C6.57591 10.0636 6.4489 10.108 6.32823 10.108Z" fill="#8094AE"/>
<path d="M9.92274 10.108C9.80208 10.108 9.68142 10.0636 9.58616 9.96832L5.99164 6.37381C5.80747 6.18963 5.80747 5.8848 5.99164 5.70063C6.17582 5.51646 6.48065 5.51646 6.66482 5.70063L10.2593 9.29514C10.4435 9.47931 10.4435 9.78415 10.2593 9.96832C10.1641 10.0636 10.0434 10.108 9.92274 10.108Z" fill="#8094AE"/>
</svg>
