<svg width="8" height="9" viewBox="0 0 8 9" fill="none" xmlns="http://www.w3.org/2000/svg">
<path d="M4.25804 7.76998C2.41718 7.76998 0.920898 6.2737 0.920898 4.43284C0.920898 2.59198 2.41718 1.0957 4.25804 1.0957C6.0989 1.0957 7.59517 2.59198 7.59517 4.43284C7.59517 6.2737 6.0989 7.76998 4.25804 7.76998ZM4.25804 1.56135C2.67484 1.56135 1.38655 2.84964 1.38655 4.43284C1.38655 6.01604 2.67484 7.30433 4.25804 7.30433C5.84124 7.30433 7.12953 6.01604 7.12953 4.43284C7.12953 2.84964 5.84124 1.56135 4.25804 1.56135Z" fill="#8094AE"/>
<path d="M3.37951 5.54418C3.32053 5.54418 3.26154 5.52245 3.21498 5.47588C3.12495 5.38586 3.12495 5.23685 3.21498 5.14683L4.97202 3.38978C5.06205 3.29976 5.21105 3.29976 5.30108 3.38978C5.3911 3.47981 5.3911 3.62882 5.30108 3.71884L3.54404 5.47588C3.50058 5.52245 3.43849 5.54418 3.37951 5.54418Z" fill="#8094AE"/>
<path d="M5.13655 5.54418C5.07757 5.54418 5.01859 5.52245 4.97202 5.47588L3.21498 3.71884C3.12495 3.62882 3.12495 3.47981 3.21498 3.38978C3.305 3.29976 3.45401 3.29976 3.54404 3.38978L5.30108 5.14683C5.3911 5.23685 5.3911 5.38586 5.30108 5.47588C5.25451 5.52245 5.19553 5.54418 5.13655 5.54418Z" fill="#8094AE"/>
</svg>
