<svg width="16" height="16" viewBox="0 0 16 16" fill="none" xmlns="http://www.w3.org/2000/svg">
<path d="M5.45482 9.73743C5.33416 9.73743 5.2135 9.69299 5.11823 9.59773L3.84809 8.32758C3.66392 8.14341 3.66392 7.83854 3.84809 7.65437L5.11823 6.38422C5.30241 6.20005 5.60724 6.20005 5.79141 6.38422C5.97558 6.56839 5.97558 6.87327 5.79141 7.05744L4.85785 7.99097L5.79141 8.92451C5.97558 9.10868 5.97558 9.41356 5.79141 9.59773C5.69615 9.69299 5.57549 9.73743 5.45482 9.73743Z" fill="#EE8100"/>
<path d="M10.5362 9.73743C10.4156 9.73743 10.2949 9.69299 10.1997 9.59773C10.0155 9.41356 10.0155 9.10868 10.1997 8.92451L11.1332 7.99097L10.1997 7.05744C10.0155 6.87327 10.0155 6.56839 10.1997 6.38422C10.3838 6.20005 10.6887 6.20005 10.8728 6.38422L12.143 7.65437C12.3271 7.83854 12.3271 8.14341 12.143 8.32758L10.8728 9.59773C10.7776 9.69299 10.6569 9.73743 10.5362 9.73743Z" fill="#EE8100"/>
<path d="M7.99598 14.8181C4.23 14.8181 1.16895 11.7571 1.16895 7.9911C1.16895 4.22511 4.23 1.16406 7.99598 1.16406C11.762 1.16406 14.823 4.22511 14.823 7.9911C14.823 11.7571 11.762 14.8181 7.99598 14.8181ZM7.99598 2.11667C4.75711 2.11667 2.12155 4.75222 2.12155 7.9911C2.12155 11.23 4.75711 13.8655 7.99598 13.8655C11.2348 13.8655 13.8704 11.23 13.8704 7.9911C13.8704 4.75222 11.2348 2.11667 7.99598 2.11667Z" fill="#EE8100"/>
<path d="M7.36133 9.94848C7.29782 9.94848 7.23432 9.93578 7.17716 9.91038C6.93584 9.80876 6.82152 9.52934 6.92948 9.28166L8.19963 6.31584C8.30124 6.07452 8.58067 5.96019 8.822 6.06816C9.06333 6.16977 9.17764 6.44923 9.06968 6.69691L7.79953 9.66269C7.72332 9.84051 7.5455 9.94848 7.36133 9.94848Z" fill="#EE8100"/>
</svg>
