<svg width="17" height="16" viewBox="0 0 17 16" fill="none" xmlns="http://www.w3.org/2000/svg">
<path d="M10.0767 10.5749C10.0767 11.7361 9.57151 12.7858 8.76457 13.5008C8.06916 14.1307 7.15069 14.5112 6.14038 14.5112C3.96887 14.5112 2.2041 12.7464 2.2041 10.5749C2.2041 8.76419 3.43747 7.22904 5.10383 6.77637C5.5565 7.91789 6.52745 8.79699 7.72802 9.12501C8.05604 9.21686 8.40374 9.26278 8.76457 9.26278C9.1254 9.26278 9.4731 9.21686 9.80112 9.12501C9.97826 9.57113 10.0767 10.0632 10.0767 10.5749Z" stroke="#8094AE" stroke-width="0.98407" stroke-linecap="round" stroke-linejoin="round"/>
<path d="M12.7007 5.32593C12.7007 5.83765 12.6023 6.32968 12.4251 6.77579C11.9725 7.91731 11.0015 8.79642 9.80096 9.12444C9.47294 9.21629 9.12523 9.26221 8.76441 9.26221C8.40358 9.26221 8.05588 9.21629 7.72785 9.12444C6.52729 8.79642 5.55634 7.91731 5.10366 6.77579C4.92653 6.32968 4.82812 5.83765 4.82812 5.32593C4.82812 3.15441 6.59289 1.38965 8.76441 1.38965C10.9359 1.38965 12.7007 3.15441 12.7007 5.32593Z" stroke="#8094AE" stroke-width="0.98407" stroke-linecap="round" stroke-linejoin="round"/>
<path d="M15.3251 10.5749C15.3251 12.7464 13.5604 14.5112 11.3888 14.5112C10.3785 14.5112 9.46006 14.1307 8.76465 13.5008C9.57159 12.7858 10.0767 11.7361 10.0767 10.5749C10.0767 10.0632 9.97833 9.57113 9.8012 9.12501C11.0018 8.79699 11.9727 7.91789 12.4254 6.77637C14.0917 7.22904 15.3251 8.76419 15.3251 10.5749Z" stroke="#8094AE" stroke-width="0.98407" stroke-linecap="round" stroke-linejoin="round"/>
</svg>
