<svg width="20" height="20" viewBox="0 0 20 20" fill="none" xmlns="http://www.w3.org/2000/svg">
<path d="M11.667 13.3339C11.667 14.8089 11.0253 16.1422 10.0003 17.0505C9.11699 17.8505 7.95033 18.3339 6.66699 18.3339C3.90866 18.3339 1.66699 16.0922 1.66699 13.3339C1.66699 11.6809 2.47798 10.2125 3.71875 9.30409C3.96357 9.12485 4.29944 9.24457 4.43757 9.51473C5.2332 11.0708 6.65964 12.2338 8.35033 12.6922C8.87533 12.8422 9.42533 12.9172 10.0003 12.9172C10.3744 12.9172 10.7339 12.8845 11.0837 12.8239C11.3728 12.7739 11.6601 12.9586 11.6661 13.2519C11.6667 13.2793 11.667 13.3067 11.667 13.3339Z" fill="white"/>
<path d="M15 6.66602C15 7.31602 14.875 7.94102 14.65 8.50768C14.075 9.95768 12.8417 11.0743 11.3167 11.491C10.9 11.6077 10.4583 11.666 10 11.666C9.54167 11.666 9.1 11.6077 8.68333 11.491C7.15833 11.0743 5.925 9.95768 5.35 8.50768C5.125 7.94102 5 7.31602 5 6.66602C5 3.90768 7.24167 1.66602 10 1.66602C12.7583 1.66602 15 3.90768 15 6.66602Z" fill="white"/>
<path d="M18.3337 13.3339C18.3337 16.0922 16.092 18.3339 13.3337 18.3339C12.7539 18.3339 12.1947 18.2351 11.6763 18.052C11.3548 17.9384 11.295 17.5304 11.512 17.2674C12.4168 16.1704 12.917 14.783 12.917 13.3339C12.917 13.0505 12.892 12.7672 12.8503 12.5005C12.8255 12.3468 12.904 12.1957 13.0402 12.1203C14.1159 11.5248 14.9993 10.6202 15.5633 9.51556C15.7014 9.24511 16.0375 9.12509 16.2825 9.30451C17.5229 10.2129 18.3337 11.6811 18.3337 13.3339Z" fill="white"/>
</svg>
