<svg width="23" height="24" viewBox="0 0 23 24" fill="none" xmlns="http://www.w3.org/2000/svg">
<path d="M20.6693 10.2998V14.9622C20.6693 19.6247 18.8043 21.4896 14.1419 21.4896H8.54696C3.88451 21.4896 2.01953 19.6247 2.01953 14.9622V9.36727C2.01953 4.70482 3.88451 2.83984 8.54696 2.83984H13.2094" fill="#B78AF7"/>
<path d="M20.6693 10.2998V14.9622C20.6693 19.6247 18.8043 21.4896 14.1419 21.4896H8.54696C3.88451 21.4896 2.01953 19.6247 2.01953 14.9622V9.36727C2.01953 4.70482 3.88451 2.83984 8.54696 2.83984H13.2094" stroke="#360083" stroke-width="1.04905" stroke-linecap="round" stroke-linejoin="round"/>
<path d="M20.6689 10.2998H16.9389C14.1415 10.2998 13.209 9.36727 13.209 6.5698V2.83984L20.6689 10.2998Z" fill="#B78AF7" stroke="#360083" stroke-width="1.04905" stroke-linecap="round" stroke-linejoin="round"/>
<path opacity="0.4" d="M6.68164 13.0967H12.2766" stroke="#360083" stroke-width="1.04905" stroke-linecap="round" stroke-linejoin="round"/>
<path opacity="0.4" d="M6.68164 16.8271H10.4116" stroke="#360083" stroke-width="1.04905" stroke-linecap="round" stroke-linejoin="round"/>
</svg>
