<svg width="22" height="21" viewBox="0 0 22 21" fill="none" xmlns="http://www.w3.org/2000/svg">
<path d="M19.6511 8.65068V12.9404C19.6511 17.2302 17.9352 18.946 13.6455 18.946H8.49781C4.20808 18.946 2.49219 17.2302 2.49219 12.9404V7.79274C2.49219 3.503 4.20808 1.78711 8.49781 1.78711H12.7875" fill="#B78AF7"/>
<path d="M19.6511 8.65068V12.9404C19.6511 17.2302 17.9352 18.946 13.6455 18.946H8.49781C4.20808 18.946 2.49219 17.2302 2.49219 12.9404V7.79274C2.49219 3.503 4.20808 1.78711 8.49781 1.78711H12.7875" stroke="#360083" stroke-width="0.96519" stroke-linecap="round" stroke-linejoin="round"/>
<path d="M19.6517 8.65068H16.2199C13.646 8.65068 12.7881 7.79274 12.7881 5.2189V1.78711L19.6517 8.65068Z" fill="#B78AF7" stroke="#360083" stroke-width="0.96519" stroke-linecap="round" stroke-linejoin="round"/>
<path opacity="0.4" d="M6.78223 11.2246H11.9299" stroke="#360083" stroke-width="0.96519" stroke-linecap="round" stroke-linejoin="round"/>
<path opacity="0.4" d="M6.78223 14.6562H10.214" stroke="#360083" stroke-width="0.96519" stroke-linecap="round" stroke-linejoin="round"/>
</svg>
