<svg width="17" height="16" viewBox="0 0 17 16" fill="none" xmlns="http://www.w3.org/2000/svg">
<path d="M4.33797 12.9885C3.93778 12.9885 3.56384 12.8508 3.29486 12.5949C2.95371 12.2734 2.7897 11.788 2.84874 11.2631L3.09148 9.13754C3.13741 8.73735 3.38014 8.20595 3.66224 7.91729L9.04839 2.21624C10.3933 0.79262 11.7972 0.753258 13.2208 2.09815C14.6445 3.44305 14.6838 4.84699 13.3389 6.27061L7.95279 11.9717C7.67725 12.2669 7.16553 12.5424 6.76534 12.608L4.65287 12.9688C4.54135 12.9754 4.44294 12.9885 4.33797 12.9885ZM11.1543 2.09159C10.6491 2.09159 10.2096 2.4065 9.76348 2.87885L4.37733 8.58646C4.24612 8.72423 4.09523 9.05225 4.06899 9.2425L3.82625 11.3681C3.80001 11.5846 3.8525 11.7617 3.97058 11.8733C4.08867 11.9848 4.26581 12.0241 4.4823 11.9913L6.59477 11.6305C6.78503 11.5977 7.09993 11.4271 7.23114 11.2894L12.6173 5.58832C13.4308 4.72234 13.726 3.92196 12.5386 2.80668C12.0137 2.30153 11.561 2.09159 11.1543 2.09159Z" fill="#11002A"/>
<path d="M12.0792 7.36732C12.0661 7.36732 12.0464 7.36732 12.0333 7.36732C9.98642 7.16394 8.33974 5.60911 8.02484 3.57537C7.98548 3.30639 8.16917 3.05709 8.43815 3.01117C8.70713 2.97181 8.95643 3.1555 9.00235 3.42448C9.25165 5.01211 10.5375 6.23236 12.1383 6.38981C12.4072 6.41605 12.604 6.65879 12.5778 6.92777C12.545 7.17706 12.3285 7.36732 12.0792 7.36732Z" fill="#11002A"/>
<path d="M14.4806 15.1081H2.67172C2.40274 15.1081 2.17969 14.885 2.17969 14.6161C2.17969 14.3471 2.40274 14.124 2.67172 14.124H14.4806C14.7495 14.124 14.9726 14.3471 14.9726 14.6161C14.9726 14.885 14.7495 15.1081 14.4806 15.1081Z" fill="#11002A"/>
</svg>
