<svg width="20" height="20" viewBox="0 0 20 20" fill="none" xmlns="http://www.w3.org/2000/svg">
<path d="M12.8288 18.4538H7.48201C3.45552 18.4538 1.7334 16.7317 1.7334 12.7052V12.5986C1.7334 8.9575 3.1685 7.20258 6.38313 6.89916C6.71115 6.87455 7.02278 7.12057 7.05558 7.4568C7.08838 7.79302 6.84236 8.09644 6.49794 8.12924C3.92295 8.36706 2.96349 9.58075 2.96349 12.6068V12.7134C2.96349 16.051 4.14437 17.2319 7.48201 17.2319H12.8288C16.1664 17.2319 17.3473 16.051 17.3473 12.7134V12.6068C17.3473 9.56435 16.3714 8.35066 13.7473 8.12924C13.411 8.09644 13.1568 7.80122 13.1896 7.465C13.2224 7.12877 13.5094 6.87455 13.8539 6.90736C17.1177 7.18618 18.5774 8.9493 18.5774 12.615V12.7216C18.5774 16.7317 16.8553 18.4538 12.8288 18.4538Z" fill="#8094AE"/>
<path d="M10.1551 13.1239C9.81886 13.1239 9.54004 12.8451 9.54004 12.5088V3.17657C9.54004 2.84034 9.81886 2.56152 10.1551 2.56152C10.4913 2.56152 10.7701 2.84034 10.7701 3.17657V12.5088C10.7701 12.8451 10.4913 13.1239 10.1551 13.1239Z" fill="#8094AE"/>
<path d="M12.9023 5.62074C12.7465 5.62074 12.5907 5.56334 12.4677 5.44033L10.1551 3.12776L7.84255 5.44033C7.60473 5.67815 7.2111 5.67815 6.97328 5.44033C6.73547 5.20251 6.73547 4.80888 6.97328 4.57107L9.72048 1.82387C9.9583 1.58605 10.3519 1.58605 10.5897 1.82387L13.3369 4.57107C13.5748 4.80888 13.5748 5.20251 13.3369 5.44033C13.2221 5.56334 13.0581 5.62074 12.9023 5.62074Z" fill="#8094AE"/>
</svg>
