<svg width="17" height="17" viewBox="0 0 17 17" fill="none" xmlns="http://www.w3.org/2000/svg">
<path d="M11 8.24318C11 9.54215 9.95035 10.5918 8.65138 10.5918C7.35241 10.5918 6.30273 9.54215 6.30273 8.24318C6.30273 6.94421 7.35241 5.89453 8.65138 5.89453C9.95035 5.89453 11 6.94421 11 8.24318Z" stroke="#C5CEDA" stroke-width="0.98407" stroke-linecap="round" stroke-linejoin="round"/>
<path d="M8.65135 13.6691C10.9672 13.6691 13.1256 12.3045 14.6279 9.94275C15.2184 9.01773 15.2184 7.46289 14.6279 6.53787C13.1256 4.1761 10.9672 2.81152 8.65135 2.81152C6.33551 2.81152 4.17711 4.1761 2.67477 6.53787C2.08432 7.46289 2.08432 9.01773 2.67477 9.94275C4.17711 12.3045 6.33551 13.6691 8.65135 13.6691Z" stroke="#C5CEDA" stroke-width="0.98407" stroke-linecap="round" stroke-linejoin="round"/>
</svg>
