<svg width="17" height="17" viewBox="0 0 17 17" fill="none" xmlns="http://www.w3.org/2000/svg">
<path d="M11.1465 8.65334C11.1465 9.95231 10.0968 11.002 8.79787 11.002C7.49889 11.002 6.44922 9.95231 6.44922 8.65334C6.44922 7.35436 7.49889 6.30469 8.79787 6.30469C10.0968 6.30469 11.1465 7.35436 11.1465 8.65334Z" stroke="#11002A" stroke-width="0.98407" stroke-linecap="round" stroke-linejoin="round"/>
<path d="M8.79832 14.0793C11.1142 14.0793 13.2726 12.7147 14.7749 10.3529C15.3654 9.42788 15.3654 7.87305 14.7749 6.94803C13.2726 4.58626 11.1142 3.22168 8.79832 3.22168C6.48248 3.22168 4.32408 4.58626 2.82174 6.94803C2.2313 7.87305 2.2313 9.42788 2.82174 10.3529C4.32408 12.7147 6.48248 14.0793 8.79832 14.0793Z" stroke="#11002A" stroke-width="0.98407" stroke-linecap="round" stroke-linejoin="round"/>
</svg>
