<svg width="11" height="11" viewBox="0 0 11 11" fill="none" xmlns="http://www.w3.org/2000/svg">
<path d="M5.54552 9.79026C7.96102 9.79026 9.91917 7.83211 9.91917 5.41661C9.91917 3.00112 7.96102 1.04297 5.54552 1.04297C3.13002 1.04297 1.17188 3.00112 1.17188 5.41661C1.17188 7.83211 3.13002 9.79026 5.54552 9.79026Z" stroke="#5B697C" stroke-width="0.98407" stroke-linecap="round" stroke-linejoin="round"/>
<path d="M3.79603 1.48047H4.2334C3.38053 4.03468 3.38053 6.79882 4.2334 9.35303H3.79603" stroke="#5B697C" stroke-width="0.98407" stroke-linecap="round" stroke-linejoin="round"/>
<path d="M6.85742 1.48047C7.71028 4.03468 7.71028 6.79882 6.85742 9.35303" stroke="#5B697C" stroke-width="0.98407" stroke-linecap="round" stroke-linejoin="round"/>
<path d="M1.60938 7.16588V6.72852C4.16358 7.58138 6.92773 7.58138 9.48194 6.72852V7.16588" stroke="#5B697C" stroke-width="0.98407" stroke-linecap="round" stroke-linejoin="round"/>
<path d="M1.60938 4.10449C4.16358 3.25163 6.92773 3.25163 9.48194 4.10449" stroke="#5B697C" stroke-width="0.98407" stroke-linecap="round" stroke-linejoin="round"/>
</svg>
