<svg width="59" height="58" viewBox="0 0 59 58" fill="none" xmlns="http://www.w3.org/2000/svg">
<rect x="1.11543" y="0.501175" width="56.6289" height="56.6289" rx="28.3145" fill="#EFE6FD" fill-opacity="0.6" stroke="url(#paint0_linear_1_11052)" stroke-width="0.820709"/>
<g clip-path="url(#clip0_1_11052)">
<path d="M31.9989 21.0459L23.0889 21.6276L30.1398 28.2261V36.0702L30.326 36.146L36.066 33.7419V32.2991C37.5604 31.9632 38.6772 30.629 38.6772 29.0331V21.939L31.9989 21.0459Z" fill="#FECDBF"/>
<path d="M40.4174 16.4561L45.4208 19.8138C45.9884 20.1947 45.985 21.0307 45.4143 21.407L40.4092 24.7072L40.4174 16.4561Z" fill="#ECE6F2"/>
<path d="M40.4133 20.583H45.8427C45.8513 20.8968 45.7092 21.2139 45.4143 21.4084L40.4092 24.7086L40.4133 20.583Z" fill="#DFD5E8"/>
<path d="M19.9433 24.7071L21.2252 20.5816L19.9433 16.4561H17.1421C14.8637 16.456 13.0166 18.3031 13.0166 20.5815C13.0166 22.86 14.8637 24.7071 17.1421 24.7071L19.9433 24.7071Z" fill="#009D94"/>
<path d="M13.0166 20.583H21.2252L19.9433 24.7085H17.1421C14.8637 24.7085 13.0166 22.8615 13.0166 20.583Z" fill="#00DDD0"/>
<path d="M40.4089 24.6955L40.4172 16.4443L19.9424 16.4739V24.725L40.4089 24.6955Z" fill="#4600A9"/>
<path d="M19.9424 20.585H40.413L40.4089 24.6958L19.9424 24.7253V20.585Z" fill="#6200EE"/>
<path d="M40.4141 19.6104L40.4121 21.5333L19.9424 21.5593V19.6363L40.4141 19.6104Z" fill="#807F8D"/>
<path d="M19.9424 20.5869H40.413L40.4121 21.5355L19.9424 21.5614V20.5869Z" fill="#513A4B"/>
<path d="M23.5682 18.7885C22.3693 18.7885 21.3975 17.8165 21.3975 16.6177V14.5819C21.3975 13.383 22.3694 12.4111 23.5682 12.4111C24.7671 12.4111 25.739 13.383 25.739 14.5819V16.6177C25.739 17.8166 24.7671 18.7885 23.5682 18.7885Z" fill="#FECDBF"/>
<path d="M27.9081 18.7885C26.7092 18.7885 25.7373 17.8165 25.7373 16.6177V14.5819C25.7373 13.383 26.7092 12.4111 27.9081 12.4111C29.107 12.4111 30.0789 13.383 30.0789 14.5819V16.6177C30.079 17.8166 29.1071 18.7885 27.9081 18.7885Z" fill="#FECDBF"/>
<path d="M32.2499 18.7885C31.051 18.7885 30.0791 17.8165 30.0791 16.6177V14.5819C30.0791 13.383 31.051 12.4111 32.2499 12.4111C33.4488 12.4111 34.4207 13.383 34.4207 14.5819V16.6177C34.4207 17.8166 33.4488 18.7885 32.2499 18.7885Z" fill="#FEBEAC"/>
<path d="M36.5917 18.7885C35.3928 18.7885 34.4209 17.8165 34.4209 16.6177V14.5819C34.4209 13.383 35.3928 12.4111 36.5917 12.4111C37.7906 12.4111 38.7625 13.383 38.7625 14.5819V16.6177C38.7625 17.8166 37.7906 18.7885 36.5917 18.7885Z" fill="#FEBEAC"/>
<path d="M26.6096 24.8794L29.8115 21.6775C30.8251 20.6639 30.8251 19.0207 29.8115 18.0072C28.798 16.9937 27.1548 16.9937 26.1413 18.0072L21.4447 22.6923C20.5823 23.5526 20.0977 24.7206 20.0977 25.9387V27.6891C20.0977 29.1112 20.8411 30.4298 22.0579 31.1659C22.7414 31.5794 24.2388 32.0964 24.2388 32.0964V33.6719L26.6096 34.6375L30.1401 36.0755V28.2314L26.6096 25.6274V24.8794Z" fill="#FEDED0"/>
<path d="M29.1786 29.1911C28.6475 29.1911 28.2171 28.7606 28.2171 28.2296C28.2172 27.3471 27.4992 26.6291 26.6167 26.629C26.0857 26.629 25.6553 26.1985 25.6553 25.6675C25.6553 25.1365 26.0858 24.7061 26.6168 24.7061C28.5596 24.7062 30.1402 26.2869 30.1401 28.2297C30.1401 28.7607 29.7096 29.1911 29.1786 29.1911Z" fill="#FEBEAC"/>
<path d="M23.5762 35.458H36.6775V45.2253H23.5762V35.458Z" fill="#513A4B"/>
<path d="M30.1406 35.458H36.6776V45.2253H30.1406V35.458Z" fill="#2E272C"/>
<path d="M37.3528 39.6933H22.9009C22.3699 39.6933 21.9395 39.2629 21.9395 38.7319V34.6421C21.9395 34.1112 22.3699 33.6807 22.9009 33.6807H37.3529C37.8839 33.6807 38.3144 34.1112 38.3144 34.6421V38.7319C38.3143 39.2629 37.8839 39.6933 37.3528 39.6933Z" fill="#807F8D"/>
<path d="M37.3529 33.6807H30.1406V39.6933H37.3529C37.8838 39.6933 38.3143 39.2629 38.3143 38.7319V34.6421C38.3144 34.1112 37.8839 33.6807 37.3529 33.6807Z" fill="#6A5E6D"/>
<path d="M33.0107 33.6807H34.9337V39.6933H33.0107V33.6807Z" fill="#513A4B"/>
<path d="M25.3193 33.6807H27.2423V39.6933H25.3193V33.6807Z" fill="#6A5E6D"/>
<path d="M29.165 33.6807H31.088V39.6933H29.165V33.6807Z" fill="#6A5E6D"/>
<path d="M30.1396 33.6807H31.0874V39.6933H30.1396V33.6807Z" fill="#513A4B"/>
</g>
<defs>
<linearGradient id="paint0_linear_1_11052" x1="-39.5097" y1="-38.0722" x2="56.5133" y2="57.5405" gradientUnits="userSpaceOnUse">
<stop stop-color="#6100DD"/>
<stop offset="1" stop-color="#6100DD" stop-opacity="0"/>
</linearGradient>
<clipPath id="clip0_1_11052">
<rect width="32.8284" height="32.8284" fill="white" transform="translate(13.0156 12.3994)"/>
</clipPath>
</defs>
</svg>
