<svg width="59" height="58" viewBox="0 0 59 58" fill="none" xmlns="http://www.w3.org/2000/svg">
<rect x="1.11543" y="0.475784" width="56.6289" height="56.6289" rx="28.3145" fill="#EFE6FD" fill-opacity="0.6" stroke="url(#paint0_linear_1_11100)" stroke-width="0.820709"/>
<path d="M38.9262 15.8927V42.8586C38.9262 44.1542 37.8768 45.2035 36.5813 45.2035H17.8224C16.5269 45.2035 15.4775 44.1542 15.4775 42.8586V15.8927C15.4775 14.5972 16.5269 13.5479 17.8224 13.5479H36.5813C37.8768 13.5479 38.9262 14.5972 38.9262 15.8927Z" fill="#290064"/>
<path d="M37.754 17.6497V43.4432C37.754 43.7656 37.4902 44.0294 37.1678 44.0294H19.5813C19.2589 44.0294 18.9951 43.7656 18.9951 43.4432V42.857H35.9954C36.3178 42.857 36.5816 42.5932 36.5816 42.2708V17.0635H37.1678C37.4902 17.0635 37.754 17.3273 37.754 17.6497Z" fill="#00325A"/>
<path d="M36.5812 16.4778V42.2713C36.5812 42.5937 36.3174 42.8575 35.9949 42.8575H18.4085C18.0861 42.8575 17.8223 42.5937 17.8223 42.2713V16.4778C17.8223 16.1554 18.0861 15.8916 18.4085 15.8916H35.9949C36.3174 15.8916 36.5812 16.1554 36.5812 16.4778Z" fill="#F0F0F0"/>
<path d="M21.3398 13.5479H22.5123V15.8927H21.3398V13.5479Z" fill="#00325A"/>
<path d="M34.2363 13.5479H35.4088V15.8927H34.2363V13.5479Z" fill="#00325A"/>
<path d="M35.409 15.8916V19.4089C35.409 20.0537 34.8814 20.5813 34.2366 20.5813H22.5123C21.8674 20.5813 21.3398 20.0537 21.3398 19.4089V15.8916H22.5123V17.6502C22.5123 17.9727 22.7761 18.2365 23.0985 18.2365H33.6504C33.9728 18.2365 34.2366 17.9727 34.2366 17.6502V15.8916H35.409Z" fill="#D2D2D2"/>
<path d="M38.9259 29.8154V34.7865L36.5811 37.1314V32.1603L38.9259 29.8154Z" fill="#00325A"/>
<path d="M36.5813 32.1641V37.1352L32.812 40.9104C30.6078 41.6432 32.4016 41.0452 30.1916 41.7839C29.7343 41.9363 29.3005 41.4966 29.453 41.0394C30.385 38.2373 29.5468 40.7756 30.3264 38.4248L36.5813 32.1641Z" fill="#D2D2D2"/>
<path d="M41.6167 30.9318C33.9718 38.5691 35.979 36.5636 32.8117 39.7309L30.3262 37.2454C34.9672 32.6043 33.0146 34.5582 39.1253 28.4404L41.6167 30.9318Z" fill="#00DDD0"/>
<path d="M32.812 39.7316L30.1916 40.6051C29.7343 40.7575 29.3005 40.3237 29.453 39.8665C30.1353 37.827 29.9425 38.4062 30.3264 37.2461L32.812 39.7316Z" fill="#F2C8A0"/>
<path d="M31.5672 40.1471L30.1925 40.6055C29.7341 40.7585 29.2985 40.3224 29.4509 39.8639L29.9093 38.4893L31.5672 40.1471Z" fill="#00143C"/>
<path d="M43.2723 27.6166L42.4434 26.7877C41.9855 26.3299 41.2434 26.3299 40.7856 26.7877L39.9561 27.6166L42.4434 30.1039L43.2723 29.275C43.7301 28.8166 43.7301 28.0745 43.2723 27.6166Z" fill="#6200EE"/>
<path d="M31.1494 38.0771L39.9508 29.2758L40.7797 30.1047L31.9783 38.9061L31.1494 38.0771Z" fill="#00325A"/>
<path d="M39.9551 27.6113L42.4422 30.0984L41.6131 30.9275L39.126 28.4404L39.9551 27.6113Z" fill="#F2C8A0"/>
<path d="M33.65 12.374C33.3264 12.374 33.0637 12.6366 33.0637 12.9602V16.4775C33.0637 16.8011 32.8011 17.0637 32.4775 17.0637H21.9256C21.602 17.0637 21.3394 16.8011 21.3394 16.4775V12.9602C21.3394 12.6366 21.0768 12.374 20.7532 12.374C20.4296 12.374 20.167 12.6366 20.167 12.9602V18.2362C20.167 18.8839 20.6917 19.4086 21.3394 19.4086H33.0637C33.7115 19.4086 34.2362 18.8839 34.2362 18.2362V12.9602C34.2362 12.6366 33.9735 12.374 33.65 12.374Z" fill="#00DDD0"/>
<path d="M22.5119 21.7529H21.3394C20.6917 21.7529 20.167 22.2776 20.167 22.9254V24.0978C20.167 24.7456 20.6917 25.2702 21.3394 25.2702H22.5119C23.1596 25.2702 23.6843 24.7456 23.6843 24.0978V22.9254C23.6843 22.2776 23.1596 21.7529 22.5119 21.7529ZM23.0981 24.0978C23.0981 24.4214 22.8354 24.684 22.5119 24.684H21.3394C21.0158 24.684 20.7532 24.4214 20.7532 24.0978V22.9254C20.7532 22.6018 21.0158 22.3391 21.3394 22.3391H22.5119C22.8354 22.3391 23.0981 22.6018 23.0981 22.9254V24.0978Z" fill="#6200EE"/>
<path d="M22.3049 24.3118L21.4256 23.4325C21.3113 23.3182 21.3113 23.1324 21.4256 23.0181C21.5399 22.9038 21.7257 22.9038 21.84 23.0181L22.5124 23.6899L24.6498 21.5525C24.7641 21.4382 24.9499 21.4382 25.0642 21.5525C25.1785 21.6668 25.1785 21.8527 25.0642 21.967L22.7194 24.3118C22.605 24.4262 22.4198 24.4262 22.3049 24.3118Z" fill="#00143C"/>
<path d="M31.8916 23.513H26.0294C25.8676 23.513 25.7363 23.3817 25.7363 23.2199C25.7363 23.0581 25.8676 22.9268 26.0294 22.9268H31.8916C32.0534 22.9268 32.1847 23.0581 32.1847 23.2199C32.1847 23.3817 32.0534 23.513 31.8916 23.513Z" fill="#6200EE"/>
<path d="M33.064 24.6848H26.0294C25.8676 24.6848 25.7363 24.5535 25.7363 24.3917C25.7363 24.2299 25.8676 24.0986 26.0294 24.0986H33.064C33.2258 24.0986 33.3571 24.2299 33.3571 24.3917C33.3571 24.5535 33.2258 24.6848 33.064 24.6848Z" fill="#6200EE"/>
<path d="M22.5128 27.6143H21.3404C20.6926 27.6143 20.168 28.1389 20.168 28.7867V29.9591C20.168 30.6069 20.6926 31.1316 21.3404 31.1316H22.5128C23.1606 31.1316 23.6853 30.6069 23.6853 29.9591V28.7867C23.6853 28.1389 23.1606 27.6143 22.5128 27.6143ZM23.099 29.9591C23.099 30.2827 22.8364 30.5453 22.5128 30.5453H21.3404C21.0168 30.5453 20.7542 30.2827 20.7542 29.9591V28.7867C20.7542 28.4631 21.0168 28.2005 21.3404 28.2005H22.5128C22.8364 28.2005 23.099 28.4631 23.099 28.7867V29.9591Z" fill="#6200EE"/>
<path d="M22.3049 30.1712L21.4256 29.2919C21.3113 29.1776 21.3113 28.9918 21.4256 28.8774C21.5399 28.7631 21.7257 28.7631 21.84 28.8774L22.5124 29.5492L24.6498 27.4119C24.7641 27.2976 24.9499 27.2976 25.0642 27.4119C25.1785 27.5262 25.1785 27.712 25.0642 27.8264L22.7194 30.1712C22.605 30.2855 22.4198 30.2855 22.3049 30.1712Z" fill="#00143C"/>
<path d="M31.8916 29.3723H26.0294C25.8676 29.3723 25.7363 29.241 25.7363 29.0792C25.7363 28.9174 25.8676 28.7861 26.0294 28.7861H31.8916C32.0534 28.7861 32.1847 28.9174 32.1847 29.0792C32.1847 29.241 32.0534 29.3723 31.8916 29.3723Z" fill="#6200EE"/>
<path d="M33.064 30.5491H26.0294C25.8676 30.5491 25.7363 30.4178 25.7363 30.256C25.7363 30.0942 25.8676 29.9629 26.0294 29.9629H33.064C33.2258 29.9629 33.3571 30.0942 33.3571 30.256C33.3571 30.4178 33.2258 30.5491 33.064 30.5491Z" fill="#6200EE"/>
<path d="M22.5119 33.4727H21.3394C20.6917 33.4727 20.167 33.9973 20.167 34.6451V35.8175C20.167 36.4653 20.6917 36.99 21.3394 36.99H22.5119C23.1596 36.99 23.6843 36.4653 23.6843 35.8175V34.6451C23.6843 33.9973 23.1596 33.4727 22.5119 33.4727ZM23.0981 35.8175C23.0981 36.1411 22.8354 36.4037 22.5119 36.4037H21.3394C21.0158 36.4037 20.7532 36.1411 20.7532 35.8175V34.6451C20.7532 34.3215 21.0158 34.0589 21.3394 34.0589H22.5119C22.8354 34.0589 23.0981 34.3215 23.0981 34.6451V35.8175Z" fill="#6200EE"/>
<path d="M22.3039 36.0238L21.4246 35.1444C21.3103 35.0301 21.3103 34.8443 21.4246 34.73C21.5389 34.6157 21.7247 34.6157 21.8391 34.73L22.5114 35.4018L24.6488 33.2644C24.7631 33.1501 24.9489 33.1501 25.0632 33.2644C25.1776 33.3788 25.1776 33.5646 25.0632 33.6789L22.7184 36.0238C22.6041 36.1381 22.4188 36.1381 22.3039 36.0238Z" fill="#00143C"/>
<path d="M30.4261 35.2356H26.0294C25.8676 35.2356 25.7363 35.1043 25.7363 34.9425C25.7363 34.7807 25.8676 34.6494 26.0294 34.6494H30.4261C30.5878 34.6494 30.7192 34.7807 30.7192 34.9425C30.7192 35.1043 30.5878 35.2356 30.4261 35.2356Z" fill="#6200EE"/>
<path d="M29.2536 36.4095H26.0294C25.8676 36.4095 25.7363 36.2781 25.7363 36.1164C25.7363 35.9546 25.8676 35.8232 26.0294 35.8232H29.2536C29.4154 35.8232 29.5467 35.9546 29.5467 36.1164C29.5467 36.2781 29.4154 36.4095 29.2536 36.4095Z" fill="#6200EE"/>
<defs>
<linearGradient id="paint0_linear_1_11100" x1="-39.5097" y1="-38.0975" x2="56.5133" y2="57.5151" gradientUnits="userSpaceOnUse">
<stop stop-color="#6100DD"/>
<stop offset="1" stop-color="#6100DD" stop-opacity="0"/>
</linearGradient>
</defs>
</svg>
