<svg width="59" height="58" viewBox="0 0 59 58" fill="none" xmlns="http://www.w3.org/2000/svg">
<rect x="1.11543" y="0.45137" width="56.6289" height="56.6289" rx="28.3145" fill="#EFE6FD" fill-opacity="0.6" stroke="url(#paint0_linear_1_11165)" stroke-width="0.820709"/>
<g clip-path="url(#clip0_1_11165)">
<path d="M22.6315 33.4583H43.3735C43.3735 32.6202 43.3249 31.7931 43.1536 31.0004C42.2215 26.6879 39.5776 22.9717 35.5654 21.0417C34.1595 20.3663 32.6487 19.9354 31.098 19.7676H28.1141C22.0973 20.4165 17.2416 24.9432 16.0967 30.8005L22.6315 33.4583Z" fill="#D2DCFD"/>
<path d="M14.3671 18.214C15.074 17.5068 16.2225 17.5068 16.9294 18.214C17.6381 18.9211 17.6381 20.0701 16.9294 20.7772C16.2225 21.4862 15.074 21.4862 14.3671 20.7772C13.6602 20.0701 13.6602 18.9211 14.3671 18.214ZM44.8477 18.214C44.139 17.5068 42.9923 17.5068 42.2835 18.214C41.5766 18.9211 41.5766 20.0701 42.2835 20.7772C42.9923 21.4862 44.1389 21.4862 44.8477 20.7772C45.5547 20.0701 45.5547 18.9211 44.8477 18.214Z" fill="#6200EE"/>
<path d="M28.7467 18.2188H30.4658C30.8147 18.2188 31.0982 18.5024 31.0982 18.8514V21.0947C31.0982 21.4419 30.8147 21.7255 30.4658 21.7255H28.7467C28.3996 21.7255 28.1143 21.4419 28.1143 21.0947V18.8514C28.1143 18.5023 28.3996 18.2188 28.7467 18.2188Z" fill="#007A72"/>
<path d="M24.5996 30.4883H34.6144V33.4569H24.5996V30.4883Z" fill="white"/>
<path d="M27.9375 30.4883H31.2758V33.4569H27.9375V30.4883Z" fill="#D2DCFD"/>
<path d="M24.9236 27.1315C25.7759 27.1315 26.4682 26.4371 26.4682 25.5863C26.4682 24.7354 25.7759 24.041 24.9236 24.041C24.0731 24.041 23.3789 24.7354 23.3789 25.5863C23.3789 26.4371 24.0731 27.1315 24.9236 27.1315ZM34.3678 27.1315C35.2182 27.1315 35.9125 26.4371 35.9125 25.5863C35.9125 24.7354 35.2183 24.041 34.3678 24.041C33.5173 24.041 32.8231 24.7354 32.8231 25.5863C32.8231 26.4371 33.5173 27.1315 34.3678 27.1315Z" fill="#6200EE"/>
<path opacity="0.45" d="M21.458 27.9238H16.9991C16.5928 28.8477 16.2901 29.8138 16.0967 30.8044L22.6315 33.4622H25.2603V31.7274C25.2603 29.6361 23.5487 27.9238 21.458 27.9238Z" fill="#93B2F4"/>
<path d="M19.8734 23.7222L16.9294 20.7772M16.9294 20.7772C17.6381 20.0701 17.6381 18.9211 16.9294 18.214C16.2225 17.5068 15.074 17.5068 14.3671 18.214C13.6602 18.9211 13.6602 20.0701 14.3671 20.7772C15.074 21.4862 16.2225 21.4862 16.9294 20.7772ZM39.3415 23.7222L42.2836 20.7772M42.2836 20.7772C41.5767 20.0701 41.5766 18.9211 42.2835 18.214C42.9923 17.5068 44.139 17.5068 44.8477 18.214C45.5547 18.9211 45.5547 20.0701 44.8477 20.7772C44.1389 21.4862 42.9923 21.4862 42.2836 20.7772ZM34.6148 33.459V30.4903H24.6V33.459M24.9235 27.1308C25.7758 27.1308 26.4681 26.4364 26.4681 25.5855C26.4681 24.7347 25.7758 24.0403 24.9235 24.0403C24.073 24.0403 23.3788 24.7347 23.3788 25.5855C23.3788 26.4364 24.073 27.1308 24.9235 27.1308ZM34.3677 27.1308C35.2181 27.1308 35.9123 26.4364 35.9123 25.5855C35.9123 24.7347 35.2182 24.0403 34.3677 24.0403C33.5171 24.0403 32.823 24.7347 32.823 25.5855C32.823 26.4364 33.5172 27.1308 34.3677 27.1308Z" stroke="#290064" stroke-width="1.28739" stroke-miterlimit="10" stroke-linecap="round" stroke-linejoin="round"/>
<path d="M28.1141 19.7676C22.0973 20.4165 17.2416 24.9432 16.0967 30.8005M22.6315 33.4583H43.3734C43.3734 32.6202 43.3248 31.7931 43.1536 31.0004C42.2214 26.6879 39.5776 22.9717 35.5653 21.0417C34.1594 20.3663 32.6486 19.9354 31.098 19.7676" stroke="#290064" stroke-width="1.28739" stroke-miterlimit="10" stroke-linecap="round" stroke-linejoin="round"/>
<path d="M34.8714 37.1454H28.8037L26.8065 39.576L24.2696 35.5547L21.7328 39.576L19.7356 37.1454H17.2969" stroke="#007A72" stroke-width="1.28739" stroke-miterlimit="10" stroke-linecap="round" stroke-linejoin="round"/>
</g>
<defs>
<linearGradient id="paint0_linear_1_11165" x1="-39.5097" y1="-38.122" x2="56.5133" y2="57.4906" gradientUnits="userSpaceOnUse">
<stop stop-color="#6100DD"/>
<stop offset="1" stop-color="#6100DD" stop-opacity="0"/>
</linearGradient>
<clipPath id="clip0_1_11165">
<rect width="32.8284" height="32.8284" fill="white" transform="translate(13.0156 12.3496)"/>
</clipPath>
</defs>
</svg>
