<svg width="16" height="17" viewBox="0 0 16 17" fill="none" xmlns="http://www.w3.org/2000/svg">
<path d="M6.08439 14.4609C5.03017 14.4609 3.9696 14.0608 3.16306 13.2542C1.55632 11.6412 1.55632 9.02465 3.16306 7.41792C3.34723 7.23375 3.65206 7.23375 3.83624 7.41792C4.02041 7.60209 4.02041 7.90692 3.83624 8.09109C2.59784 9.32949 2.59784 11.3427 3.83624 12.5811C5.07463 13.8195 7.08781 13.8195 8.3262 12.5811C8.92317 11.9841 9.25341 11.1839 9.25341 10.3329C9.25341 9.48825 8.92317 8.68806 8.3262 8.08474C8.14203 7.90057 8.14203 7.59574 8.3262 7.41157C8.51037 7.22739 8.81521 7.22739 8.99938 7.41157C9.78052 8.19271 10.206 9.22787 10.206 10.3329C10.206 11.4379 9.77417 12.4731 8.99938 13.2542C8.19919 14.0608 7.14497 14.4609 6.08439 14.4609Z" fill="#007CEE"/>
<path d="M12.4863 9.79865C12.3656 9.79865 12.245 9.75419 12.1497 9.65893C11.9655 9.47476 11.9655 9.16993 12.1497 8.98575C13.4516 7.68386 13.4516 5.56906 12.1497 4.27351C10.8478 2.97162 8.73301 2.97162 7.43746 4.27351C6.80874 4.90224 6.45945 5.74053 6.45945 6.62963C6.45945 7.51874 6.80874 8.35703 7.43746 8.98575C7.62163 9.16993 7.62163 9.47476 7.43746 9.65893C7.25329 9.8431 6.94845 9.8431 6.76428 9.65893C5.95774 8.85239 5.50684 7.77277 5.50684 6.62963C5.50684 5.4865 5.95139 4.40688 6.76428 3.60034C8.43452 1.9301 11.1526 1.9301 12.8292 3.60034C14.4995 5.27058 14.4995 7.99504 12.8292 9.66528C12.734 9.75419 12.6069 9.79865 12.4863 9.79865Z" fill="#007CEE"/>
</svg>
