<svg width="22" height="21" viewBox="0 0 22 21" fill="none" xmlns="http://www.w3.org/2000/svg">
<path d="M7.95556 16.3722H7.52659C4.0948 16.3722 2.37891 15.5143 2.37891 11.2245V6.93479C2.37891 3.503 4.0948 1.78711 7.52659 1.78711H14.3902C17.8219 1.78711 19.5378 3.503 19.5378 6.93479V11.2245C19.5378 14.6563 17.8219 16.3722 14.3902 16.3722H13.9612C13.6952 16.3722 13.4378 16.5009 13.2748 16.7154L11.9879 18.4313C11.4217 19.1863 10.4951 19.1863 9.92884 18.4313L8.64192 16.7154C8.50465 16.5266 8.18721 16.3722 7.95556 16.3722Z" fill="#B78AF7" stroke="#360083" stroke-width="0.96519" stroke-miterlimit="10" stroke-linecap="round" stroke-linejoin="round"/>
<g opacity="0.4">
<path fill-rule="evenodd" clip-rule="evenodd" d="M14.3872 9.50905H14.3949H14.3872Z" fill="#B78AF7"/>
<path d="M14.3872 9.50905H14.3949" stroke="#360083" stroke-width="1.28692" stroke-linecap="round" stroke-linejoin="round"/>
</g>
<path opacity="0.4" d="M10.9545 9.50905H10.9622" stroke="#360083" stroke-width="1.28692" stroke-linecap="round" stroke-linejoin="round"/>
<path opacity="0.4" d="M7.52192 9.50905H7.52962" stroke="#360083" stroke-width="1.28692" stroke-linecap="round" stroke-linejoin="round"/>
</svg>
