<svg width="15" height="15" viewBox="0 0 15 15" fill="none" xmlns="http://www.w3.org/2000/svg">
<path d="M9.79356 8.17873H5.05909C4.81645 8.17873 4.61523 7.97751 4.61523 7.73487C4.61523 7.49223 4.81645 7.29102 5.05909 7.29102H9.79356C10.0362 7.29102 10.2374 7.49223 10.2374 7.73487C10.2374 7.97751 10.0362 8.17873 9.79356 8.17873Z" fill="#8094AE"/>
<path d="M9.20183 14.0969H5.65097C2.43745 14.0969 1.06445 12.7239 1.06445 9.51042V5.95957C1.06445 2.74604 2.43745 1.37305 5.65097 1.37305H9.20183C12.4154 1.37305 13.7884 2.74604 13.7884 5.95957V9.51042C13.7884 12.7239 12.4154 14.0969 9.20183 14.0969ZM5.65097 2.26076C2.92273 2.26076 1.95217 3.23133 1.95217 5.95957V9.51042C1.95217 12.2387 2.92273 13.2092 5.65097 13.2092H9.20183C11.9301 13.2092 12.9006 12.2387 12.9006 9.51042V5.95957C12.9006 3.23133 11.9301 2.26076 9.20183 2.26076H5.65097Z" fill="#8094AE"/>
</svg>
