<svg width="17" height="17" viewBox="0 0 17 17" fill="none" xmlns="http://www.w3.org/2000/svg">
<path d="M10.8859 8.76239H5.63754C5.36856 8.76239 5.14551 8.53933 5.14551 8.27036C5.14551 8.00138 5.36856 7.77832 5.63754 7.77832H10.8859C11.1549 7.77832 11.378 8.00138 11.378 8.27036C11.378 8.53933 11.1549 8.76239 10.8859 8.76239Z" fill="#8094AE"/>
<path d="M10.2296 15.3228H6.29335C2.73101 15.3228 1.20898 13.8008 1.20898 10.2384V6.30214C1.20898 2.7398 2.73101 1.21777 6.29335 1.21777H10.2296C13.792 1.21777 15.314 2.7398 15.314 6.30214V10.2384C15.314 13.8008 13.792 15.3228 10.2296 15.3228ZM6.29335 2.20184C3.26897 2.20184 2.19305 3.27776 2.19305 6.30214V10.2384C2.19305 13.2628 3.26897 14.3387 6.29335 14.3387H10.2296C13.254 14.3387 14.3299 13.2628 14.3299 10.2384V6.30214C14.3299 3.27776 13.254 2.20184 10.2296 2.20184H6.29335Z" fill="#8094AE"/>
</svg>
