<svg width="17" height="17" viewBox="0 0 17 17" fill="none" xmlns="http://www.w3.org/2000/svg">
<path d="M4.08983 10.1728C3.11177 10.1728 2.32031 9.38136 2.32031 8.4033C2.32031 7.42524 3.11177 6.63379 4.08983 6.63379C5.06789 6.63379 5.85934 7.42524 5.85934 8.4033C5.85934 9.38136 5.06789 10.1728 4.08983 10.1728ZM4.08983 7.59898C3.64584 7.59898 3.2855 7.95932 3.2855 8.4033C3.2855 8.84729 3.64584 9.20763 4.08983 9.20763C4.53381 9.20763 4.89415 8.84729 4.89415 8.4033C4.89415 7.95932 4.53381 7.59898 4.08983 7.59898Z" fill="#11002A"/>
<path d="M13.0976 10.1728C12.1196 10.1728 11.3281 9.38136 11.3281 8.4033C11.3281 7.42524 12.1196 6.63379 13.0976 6.63379C14.0757 6.63379 14.8672 7.42524 14.8672 8.4033C14.8672 9.38136 14.0757 10.1728 13.0976 10.1728ZM13.0976 7.59898C12.6537 7.59898 12.2933 7.95932 12.2933 8.4033C12.2933 8.84729 12.6537 9.20763 13.0976 9.20763C13.5416 9.20763 13.902 8.84729 13.902 8.4033C13.902 7.95932 13.5416 7.59898 13.0976 7.59898Z" fill="#11002A"/>
<path d="M8.59373 10.1728C7.61567 10.1728 6.82422 9.38136 6.82422 8.4033C6.82422 7.42524 7.61567 6.63379 8.59373 6.63379C9.57179 6.63379 10.3632 7.42524 10.3632 8.4033C10.3632 9.38136 9.57179 10.1728 8.59373 10.1728ZM8.59373 7.59898C8.14975 7.59898 7.78941 7.95932 7.78941 8.4033C7.78941 8.84729 8.14975 9.20763 8.59373 9.20763C9.03772 9.20763 9.39806 8.84729 9.39806 8.4033C9.39806 7.95932 9.03772 7.59898 8.59373 7.59898Z" fill="#11002A"/>
</svg>
