<svg width="16" height="17" viewBox="0 0 16 17" fill="none" xmlns="http://www.w3.org/2000/svg">
<path d="M13.4136 9.8969L12.6864 8.6872C12.5256 8.42338 12.384 7.91504 12.384 7.60618V6.40291C12.384 4.06715 10.4858 2.16895 8.15648 2.16895C5.82072 2.17538 3.92252 4.06715 3.92252 6.40291V7.59975C3.92252 7.90861 3.78096 8.41694 3.62652 8.68076L2.89941 9.89047C2.62273 10.3602 2.55838 10.8943 2.73212 11.3576C2.90585 11.8273 3.29836 12.2005 3.81313 12.3678C4.50806 12.5994 5.20944 12.7667 5.92368 12.889C5.99446 12.9019 6.06524 12.9083 6.13602 12.9212C6.2261 12.934 6.32262 12.9469 6.41914 12.9598C6.58644 12.9855 6.75374 13.0048 6.92747 13.0177C7.33285 13.0563 7.74467 13.0756 8.15648 13.0756C8.56186 13.0756 8.96724 13.0563 9.36619 13.0177C9.51418 13.0048 9.66218 12.9919 9.80374 12.9726C9.91956 12.9598 10.0354 12.9469 10.1512 12.9276C10.222 12.9212 10.2928 12.9083 10.3636 12.8954C11.0842 12.7796 11.7985 12.5994 12.4934 12.3678C12.9889 12.2005 13.3685 11.8273 13.5487 11.3511C13.7288 10.8685 13.6774 10.3409 13.4136 9.8969ZM8.62621 7.28445C8.62621 7.55471 8.40743 7.77348 8.13718 7.77348C7.86693 7.77348 7.64815 7.55471 7.64815 7.28445V5.28973C7.64815 5.01947 7.86693 4.8007 8.13718 4.8007C8.40743 4.8007 8.62621 5.01947 8.62621 5.28973V7.28445Z" fill="white"/>
<path d="M9.96465 13.7252C9.6944 14.4716 8.98016 15.0057 8.14366 15.0057C7.63533 15.0057 7.13343 14.7998 6.77952 14.433C6.57362 14.24 6.41919 13.9826 6.3291 13.7188C6.41275 13.7316 6.4964 13.7381 6.58649 13.7509C6.73448 13.7702 6.88891 13.7895 7.04334 13.8024C7.41011 13.8346 7.78332 13.8539 8.15653 13.8539C8.5233 13.8539 8.89007 13.8346 9.25041 13.8024C9.38554 13.7895 9.52066 13.7831 9.64936 13.7638C9.75231 13.7509 9.85526 13.7381 9.96465 13.7252Z" fill="white"/>
</svg>
