<svg width="195" height="195" viewBox="0 0 195 195" fill="none" xmlns="http://www.w3.org/2000/svg">
<path d="M3.09011 117.75C0.0797843 103.634 0.266646 89.0219 3.637 74.9866C7.00735 60.9513 13.4758 47.848 22.5681 36.6374C31.6604 25.4267 43.1462 16.3928 56.1835 10.1978C69.2209 4.0028 83.4792 0.80377 97.9135 0.83519L97.7029 97.575L3.09011 117.75Z" fill="#EFE6FD"/>
<path d="M166.108 165.981C153.819 178.27 138.445 187.022 121.604 191.316C104.762 195.61 87.0746 195.288 70.4008 190.383C53.727 185.477 38.6826 176.171 26.8491 163.441C15.0155 150.712 6.82994 135.029 3.15279 118.042L97.7029 97.575L166.108 165.981Z" fill="#B78AF7"/>
<path d="M154.977 175.539C171.359 163.504 183.533 146.615 189.773 127.27C196.012 107.924 195.999 87.1044 189.736 67.7665C183.473 48.4285 171.277 31.5548 154.881 19.5406C138.484 7.5265 118.72 0.98244 98.3931 0.837423L97.7029 97.575L154.977 175.539Z" fill="#6200EE"/>
</svg>
