<svg width="11" height="11" viewBox="0 0 11 11" fill="none" xmlns="http://www.w3.org/2000/svg">
<path d="M9.76194 4.49403V6.68086C9.76194 8.86768 8.88721 9.74241 6.70039 9.74241H4.0762C1.88938 9.74241 1.01465 8.86768 1.01465 6.68086V4.05667C1.01465 1.86985 1.88938 0.995117 4.0762 0.995117H6.26302" stroke="#11002A" stroke-width="0.787256" stroke-linecap="round" stroke-linejoin="round"/>
<path d="M9.76161 4.49403H8.01215C6.70006 4.49403 6.2627 4.05667 6.2627 2.74458V0.995117L9.76161 4.49403Z" stroke="#11002A" stroke-width="0.787256" stroke-linecap="round" stroke-linejoin="round"/>
<path d="M3.03518 6.99964C2.89085 6.54915 3.06142 5.9937 3.5294 5.84062C3.7787 5.7619 4.08485 5.8275 4.25542 6.06805C4.41725 5.81876 4.73653 5.7619 4.98145 5.84062C5.4538 5.9937 5.62 6.54915 5.48005 6.99964C5.25699 7.71254 4.47411 8.0843 4.25542 8.0843C4.04112 8.07993 3.26698 7.71692 3.03518 6.99964Z" stroke="#11002A" stroke-width="0.787256" stroke-linecap="round" stroke-linejoin="round"/>
</svg>
