<svg width="11" height="12" viewBox="0 0 11 12" fill="none" xmlns="http://www.w3.org/2000/svg">
<path d="M7.96578 10.416C7.91969 10.416 7.86689 10.4117 7.80708 10.401C7.96586 10.4279 8.15292 10.4211 8.30077 10.3155C8.33076 10.2941 8.35719 10.2699 8.38047 10.2437C8.35396 10.2739 8.32804 10.2964 8.30598 10.3128C8.23985 10.36 8.13096 10.416 7.96578 10.416ZM8.51475 9.36645C8.55485 9.58799 8.55339 9.75807 8.53322 9.88712C8.53439 9.8796 8.53545 9.87214 8.53643 9.86475C8.55512 9.72365 8.54868 9.55702 8.51475 9.36645ZM9.65594 4.85197C9.73631 4.92368 9.78348 4.99748 9.8111 5.05794C9.7434 4.91751 9.62537 4.81876 9.51041 4.75287C9.37411 4.67476 9.2096 4.62314 9.0336 4.5946C9.03335 4.59456 9.0331 4.59451 9.03284 4.59447L7.63988 4.36304C7.63975 4.36302 7.63963 4.363 7.6395 4.36297C7.53214 4.34477 7.40337 4.28827 7.28277 4.19911C7.24231 4.1692 7.20511 4.13734 7.17168 4.10452C7.20731 4.1388 7.24407 4.1691 7.27888 4.19481C7.37044 4.26242 7.4989 4.33547 7.63631 4.35837L7.63648 4.3584L9.0312 4.59012C9.03127 4.59014 9.03134 4.59015 9.03141 4.59016C9.35759 4.64487 9.54618 4.75403 9.65594 4.85197ZM5.0249 1.948C4.90994 2.05823 4.8119 2.20427 4.73259 2.36749L4.27646 3.2746L4.73385 2.3624L4.73385 2.3624L4.73438 2.36134C4.88603 2.05614 5.04883 1.9046 5.17642 1.82731C5.30471 1.7496 5.41837 1.73427 5.49029 1.73427C5.56222 1.73427 5.67588 1.7496 5.80417 1.82731C5.88292 1.87502 5.97508 1.95101 6.06976 2.07395C6.03365 2.02791 5.99552 1.98541 5.95543 1.94722C5.8445 1.84158 5.68535 1.73865 5.49029 1.73865C5.29519 1.73865 5.13587 1.84159 5.0249 1.948ZM1.94969 4.59445L2.76615 4.4588L1.9513 4.59461C1.77533 4.62315 1.61083 4.67477 1.47456 4.75287C1.34207 4.8288 1.20551 4.94837 1.1466 5.12509C1.08542 5.30865 1.13135 5.49044 1.19583 5.62785C1.26258 5.7701 1.36779 5.90684 1.49378 6.03048L2.5773 7.114C2.66165 7.19835 2.73676 7.32962 2.78097 7.48369C2.82512 7.63758 2.83123 7.78913 2.80447 7.90634C2.80445 7.90644 2.80442 7.90654 2.8044 7.90664L2.49411 9.24832C2.4941 9.24836 2.49409 9.24841 2.49408 9.24846C2.43778 9.49083 2.42369 9.69785 2.44711 9.86805C2.46888 10.0262 2.53177 10.2066 2.6842 10.3155C2.83394 10.4225 3.02174 10.4264 3.178 10.399C3.23691 10.3887 3.29881 10.3728 3.36363 10.3511C3.21022 10.4033 3.08832 10.4173 2.99516 10.4145C2.83735 10.4097 2.7348 10.3561 2.67486 10.313C2.61765 10.2704 2.53537 10.189 2.48299 10.0396C2.42975 9.88768 2.39828 9.63928 2.49002 9.24889L2.49029 9.24776L2.8003 7.90727C2.83618 7.75994 2.81307 7.60253 2.77885 7.48416C2.74398 7.36359 2.67909 7.21958 2.57322 7.11371L1.48855 6.02905C1.25484 5.79534 1.16538 5.59752 1.1333 5.45445C1.10099 5.31035 1.12168 5.19828 1.14415 5.12956C1.16703 5.05956 1.21683 4.95548 1.32793 4.85634C1.4381 4.75804 1.62584 4.64912 1.94928 4.59452C1.94942 4.59449 1.94956 4.59447 1.94969 4.59445ZM5.49084 9.28975C5.39848 9.28975 5.28888 9.30182 5.18449 9.33777C5.27395 9.30614 5.37937 9.28756 5.49029 9.28756C5.58249 9.28756 5.67169 9.30042 5.75218 9.32345C5.66216 9.29875 5.57061 9.28975 5.49084 9.28975Z" fill="#11002A" stroke="#11002A" stroke-width="0.656047"/>
</svg>
