<svg width="17" height="16" viewBox="0 0 17 16" fill="none" xmlns="http://www.w3.org/2000/svg">
<path d="M8.37079 14.7399H5.87781C4.47902 14.7399 3.54057 14.4268 2.94679 13.8331C2.35301 13.2393 2.03994 12.3008 2.03994 10.902V8.40906C2.03994 7.01027 2.35301 6.07182 2.94679 5.47804C3.54057 4.88426 4.47902 4.57119 5.87781 4.57119H7.84595C7.93377 4.57119 8.00996 4.64738 8.00996 4.7352C8.00996 4.82302 7.93377 4.89921 7.84595 4.89921H5.87781C4.68056 4.89921 3.77154 5.10812 3.17421 5.70546C2.57687 6.30279 2.36796 7.21181 2.36796 8.40906V10.902C2.36796 12.0993 2.57687 13.0083 3.17421 13.6056C3.77154 14.203 4.68056 14.4119 5.87781 14.4119H8.37079C9.56804 14.4119 10.4771 14.203 11.0744 13.6056C11.6717 13.0083 11.8806 12.0993 11.8806 10.902V8.9339C11.8806 8.84608 11.9568 8.76989 12.0447 8.76989C12.1325 8.76989 12.2087 8.84608 12.2087 8.9339V10.902C12.2087 12.3008 11.8956 13.2393 11.3018 13.8331C10.708 14.4268 9.76958 14.7399 8.37079 14.7399Z" fill="#11002A" stroke="#11002A" stroke-width="0.656047"/>
<path d="M7.77524 4.58784L7.7753 4.58799L7.78451 4.58404C7.83711 4.5615 7.90779 4.56997 7.96462 4.62276L12.16 8.81815C12.2056 8.86376 12.2198 8.93799 12.1954 8.99495L12.1953 8.99488L12.1916 9.00422C12.1716 9.05507 12.1142 9.09792 12.0443 9.09792H9.9449C9.05664 9.09792 8.51612 8.91589 8.18985 8.58961C7.86357 8.26333 7.68154 7.72282 7.68154 6.83456V4.73521C7.68154 4.66523 7.72438 4.60782 7.77524 4.58784ZM8.56953 5.6907L8.00956 5.13073L8.00956 5.92265V6.83456C8.00956 7.47985 8.0752 8.01522 8.41972 8.35974C8.76424 8.70425 9.29961 8.7699 9.9449 8.7699H10.8568H11.6487L11.0888 8.20992L8.56953 5.6907Z" fill="#11002A" stroke="#11002A" stroke-width="0.656047"/>
<path d="M11.126 1.94696H8.5018C8.23282 1.94696 8.00977 1.7239 8.00977 1.45493C8.00977 1.18595 8.23282 0.962891 8.5018 0.962891H11.126C11.395 0.962891 11.618 1.18595 11.618 1.45493C11.618 1.7239 11.395 1.94696 11.126 1.94696Z" fill="#11002A"/>
<path d="M5.48422 3.9151C5.21524 3.9151 4.99219 3.69205 4.99219 3.42307C4.99219 2.06505 6.09435 0.962891 7.45236 0.962891H9.17121C9.44019 0.962891 9.66324 1.18595 9.66324 1.45493C9.66324 1.7239 9.44019 1.94696 9.17121 1.94696H7.45236C6.63887 1.94696 5.97626 2.60957 5.97626 3.42307C5.97626 3.69205 5.7532 3.9151 5.48422 3.9151Z" fill="#11002A"/>
<path d="M13.4813 11.7869C13.2123 11.7869 12.9893 11.5639 12.9893 11.2949C12.9893 11.0259 13.2123 10.8029 13.4813 10.8029C14.2292 10.8029 14.8327 10.1927 14.8327 9.4514V5.39047C14.8327 5.12149 15.0558 4.89844 15.3248 4.89844C15.5938 4.89844 15.8168 5.12149 15.8168 5.39047V9.4514C15.8168 10.7373 14.7671 11.7869 13.4813 11.7869Z" fill="#11002A"/>
<path d="M15.3248 5.88325H13.3567C11.6116 5.88325 10.8965 5.16816 10.8965 3.42307V1.45493C10.8965 1.25812 11.0146 1.07443 11.1983 1.00226C11.382 0.923536 11.5919 0.969459 11.7362 1.10723L15.6725 5.04351C15.8103 5.18128 15.8562 5.39778 15.7775 5.58147C15.7053 5.76516 15.5216 5.88325 15.3248 5.88325ZM11.8806 2.64238V3.42307C11.8806 4.62364 12.1561 4.89918 13.3567 4.89918H14.1374L11.8806 2.64238Z" fill="#11002A"/>
</svg>
