<svg width="11" height="12" viewBox="0 0 11 12" fill="none" xmlns="http://www.w3.org/2000/svg">
<path d="M6.8373 3.11759C6.8373 3.11685 6.83731 3.11612 6.83731 3.11539C6.83968 2.52441 7.3217 2.04384 7.91321 2.04384C8.50473 2.04384 8.98676 2.52442 8.98912 3.11539C8.98913 3.11684 8.98913 3.1183 8.98913 3.11976C8.98913 3.71273 8.50619 4.19568 7.91321 4.19568C7.32024 4.19568 6.8373 3.71273 6.8373 3.11976C6.8373 3.11904 6.8373 3.11831 6.8373 3.11759ZM6.8373 3.11759C6.8373 3.11685 6.8373 3.11612 6.8373 3.11539C6.8373 2.5231 7.32093 2.03947 7.91321 2.03947C8.5055 2.03947 8.98913 2.5231 8.98913 3.11539C8.98913 3.70767 8.5055 4.1913 7.91321 4.1913C7.32166 4.1913 6.8385 3.70887 6.8373 3.11759Z" fill="#11002A" stroke="#11002A" stroke-width="0.656047"/>
<mask id="path-2-inside-1_18_4567" fill="white">
<path d="M3.06703 4.5237C2.29289 4.5237 1.66309 3.8939 1.66309 3.11976C1.66309 2.34563 2.29289 1.71582 3.06703 1.71582C3.84116 1.71582 4.47097 2.34563 4.47097 3.11976C4.47097 3.8939 3.84116 4.5237 3.06703 4.5237ZM3.06703 2.36749C2.65591 2.36749 2.31913 2.70426 2.31913 3.11539C2.31913 3.52651 2.65591 3.86328 3.06703 3.86328C3.47815 3.86328 3.81492 3.52651 3.81492 3.11539C3.81492 2.70426 3.48253 2.36749 3.06703 2.36749Z"/>
</mask>
<path d="M3.06703 4.5237C2.29289 4.5237 1.66309 3.8939 1.66309 3.11976C1.66309 2.34563 2.29289 1.71582 3.06703 1.71582C3.84116 1.71582 4.47097 2.34563 4.47097 3.11976C4.47097 3.8939 3.84116 4.5237 3.06703 4.5237ZM3.06703 2.36749C2.65591 2.36749 2.31913 2.70426 2.31913 3.11539C2.31913 3.52651 2.65591 3.86328 3.06703 3.86328C3.47815 3.86328 3.81492 3.52651 3.81492 3.11539C3.81492 2.70426 3.48253 2.36749 3.06703 2.36749Z" fill="#11002A"/>
<path d="M3.06703 3.86765C2.65522 3.86765 2.31913 3.53157 2.31913 3.11976H1.00704C1.00704 4.25622 1.93057 5.17975 3.06703 5.17975V3.86765ZM2.31913 3.11976C2.31913 2.70795 2.65522 2.37187 3.06703 2.37187V1.05977C1.93057 1.05977 1.00704 1.9833 1.00704 3.11976H2.31913ZM3.06703 2.37187C3.47884 2.37187 3.81492 2.70795 3.81492 3.11976H5.12701C5.12701 1.9833 4.20349 1.05977 3.06703 1.05977V2.37187ZM3.81492 3.11976C3.81492 3.53157 3.47884 3.86765 3.06703 3.86765V5.17975C4.20349 5.17975 5.12701 4.25622 5.12701 3.11976H3.81492ZM3.06703 1.71145C2.29359 1.71145 1.66309 2.34194 1.66309 3.11539H2.97518C2.97518 3.09247 2.984 3.06997 3.0028 3.05117C3.02161 3.03236 3.04411 3.02354 3.06703 3.02354V1.71145ZM1.66309 3.11539C1.66309 3.88884 2.29359 4.51933 3.06703 4.51933V3.20723C3.04411 3.20723 3.02161 3.19841 3.0028 3.17961C2.984 3.1608 2.97518 3.1383 2.97518 3.11539H1.66309ZM3.06703 4.51933C3.84048 4.51933 4.47097 3.88883 4.47097 3.11539H3.15887C3.15887 3.13831 3.15005 3.16081 3.13125 3.17961C3.11245 3.19841 3.08995 3.20723 3.06703 3.20723V4.51933ZM4.47097 3.11539C4.47097 2.34445 3.84735 1.71145 3.06703 1.71145V3.02354C3.1177 3.02354 3.15887 3.06408 3.15887 3.11539H4.47097Z" fill="#11002A" mask="url(#path-2-inside-1_18_4567)"/>
<path d="M7.91321 9.90847C7.13908 9.90847 6.50928 9.27866 6.50928 8.50453C6.50928 7.73039 7.13908 7.10059 7.91321 7.10059C8.68735 7.10059 9.31716 7.73039 9.31716 8.50453C9.31716 9.27866 8.68735 9.90847 7.91321 9.90847ZM7.91321 7.75226C7.50209 7.75226 7.16532 8.08903 7.16532 8.50015C7.16532 8.91128 7.50209 9.24805 7.91321 9.24805C8.32434 9.24805 8.66111 8.91128 8.66111 8.50015C8.66111 8.08903 8.32434 7.75226 7.91321 7.75226Z" fill="#11002A"/>
<path d="M3.06703 9.90847C2.29289 9.90847 1.66309 9.27866 1.66309 8.50453C1.66309 7.73039 2.29289 7.10059 3.06703 7.10059C3.84116 7.10059 4.47097 7.73039 4.47097 8.50453C4.47097 9.27866 3.84116 9.90847 3.06703 9.90847ZM3.06703 7.75226C2.65591 7.75226 2.31913 8.08903 2.31913 8.50015C2.31913 8.91128 2.65591 9.24805 3.06703 9.24805C3.47815 9.24805 3.81492 8.91128 3.81492 8.50015C3.81492 8.08903 3.48253 7.75226 3.06703 7.75226Z" fill="#292D32"/>
</svg>
