<svg width="11" height="11" viewBox="0 0 11 11" fill="none" xmlns="http://www.w3.org/2000/svg">
<g clip-path="url(#clip0_18_4527)">
<mask id="path-1-inside-1_18_4527" fill="white">
<path d="M3.17228 7.97025L0.701172 5.49914L1.32442 4.88683L3.18322 6.74563L3.79553 7.35794L3.17228 7.97025ZM5.64339 7.97025L3.17228 5.49914L3.78459 4.87589L5.64339 6.73469L9.66714 2.71094L10.2795 3.33418L5.64339 7.97025ZM5.64339 5.49914L5.02015 4.88683L7.1851 2.72187L7.80835 3.33418L5.64339 5.49914Z"/>
</mask>
<path d="M3.17228 7.97025L0.701172 5.49914L1.32442 4.88683L3.18322 6.74563L3.79553 7.35794L3.17228 7.97025ZM5.64339 7.97025L3.17228 5.49914L3.78459 4.87589L5.64339 6.73469L9.66714 2.71094L10.2795 3.33418L5.64339 7.97025ZM5.64339 5.49914L5.02015 4.88683L7.1851 2.72187L7.80835 3.33418L5.64339 5.49914Z" fill="#11002A"/>
<path d="M3.17228 7.97025L-6.72415 17.8667L3.08509 27.6759L12.9807 17.9539L3.17228 7.97025ZM0.701172 5.49914L-9.1073 -4.48448L-19.1797 5.41117L-9.19526 15.3956L0.701172 5.49914ZM1.32442 4.88683L11.2208 -5.0096L1.41161 -14.8188L-8.48405 -5.09679L1.32442 4.88683ZM3.18322 6.74563L-6.71321 16.6421H-6.71321L3.18322 6.74563ZM3.79553 7.35794L13.604 17.3416L23.6764 7.4459L13.692 -2.5385L3.79553 7.35794ZM5.64339 7.97025L-4.25304 17.8667L5.64339 27.7631L15.5398 17.8667L5.64339 7.97025ZM3.17228 5.49914L-6.81134 -4.30933L-16.5334 5.58633L-6.72415 15.3956L3.17228 5.49914ZM3.78459 4.87589L13.681 -5.02054L3.69663 -15.0049L-6.19902 -4.93258L3.78459 4.87589ZM5.64339 6.73469L-4.25304 16.6311L5.64339 26.5276L15.5398 16.6311L5.64339 6.73469ZM9.66714 2.71094L19.6508 -7.09753L9.75511 -17.1699L-0.229285 -7.18549L9.66714 2.71094ZM10.2795 3.33418L20.1759 13.2306L29.9851 3.42137L20.2631 -6.47429L10.2795 3.33418ZM5.64339 5.49914L-4.16508 15.4828L5.73058 25.2048L15.5398 15.3956L5.64339 5.49914ZM5.02015 4.88683L-4.87628 -5.0096L-14.8607 4.97479L-4.78832 14.8704L5.02015 4.88683ZM7.1851 2.72187L16.9936 -7.26175L7.09791 -16.9838L-2.71133 -7.17456L7.1851 2.72187ZM7.80835 3.33418L17.7048 13.2306L27.6892 3.24621L17.6168 -6.64944L7.80835 3.33418ZM13.0687 -1.92619L10.5976 -4.39729L-9.19526 15.3956L-6.72415 17.8667L13.0687 -1.92619ZM10.5096 15.4828L11.1329 14.8704L-8.48405 -5.09679L-9.1073 -4.48448L10.5096 15.4828ZM-8.57201 14.7833L-6.71321 16.6421L13.0796 -3.1508L11.2208 -5.0096L-8.57201 14.7833ZM-6.71321 16.6421L-6.1009 17.2544L13.692 -2.5385L13.0796 -3.1508L-6.71321 16.6421ZM-6.01294 -2.62568L-6.63618 -2.01337L12.9807 17.9539L13.604 17.3416L-6.01294 -2.62568ZM15.5398 -1.92619L13.0687 -4.39729L-6.72415 15.3956L-4.25304 17.8667L15.5398 -1.92619ZM13.1559 15.3076L13.7682 14.6844L-6.19902 -4.93258L-6.81134 -4.30933L13.1559 15.3076ZM-6.11184 14.7723L-4.25304 16.6311L15.5398 -3.16174L13.681 -5.02054L-6.11184 14.7723ZM15.5398 16.6311L19.5636 12.6074L-0.229285 -7.18549L-4.25304 -3.16174L15.5398 16.6311ZM-0.316468 12.5194L0.295843 13.1427L20.2631 -6.47429L19.6508 -7.09753L-0.316468 12.5194ZM0.383027 -6.56225L-4.25304 -1.92619L15.5398 17.8667L20.1759 13.2306L0.383027 -6.56225ZM15.4519 -4.48448L14.8286 -5.09679L-4.78832 14.8704L-4.16508 15.4828L15.4519 -4.48448ZM14.9166 14.7833L17.0815 12.6183L-2.71133 -7.17456L-4.87628 -5.0096L14.9166 14.7833ZM-2.62336 12.7055L-2.00012 13.3178L17.6168 -6.64944L16.9936 -7.26175L-2.62336 12.7055ZM-2.08808 -6.56225L-4.25304 -4.39729L15.5398 15.3956L17.7048 13.2306L-2.08808 -6.56225Z" fill="#11002A" mask="url(#path-1-inside-1_18_4527)"/>
</g>
<defs>
<clipPath id="clip0_18_4527">
<rect width="10.4967" height="10.4967" fill="white" transform="translate(0.241699 0.0976562)"/>
</clipPath>
</defs>
</svg>
