<svg width="11" height="11" viewBox="0 0 11 11" fill="none" xmlns="http://www.w3.org/2000/svg">
<mask id="path-1-inside-1_18_4580" fill="white">
<path d="M7.67707 9.7221H3.30342C1.70704 9.7221 0.788574 8.80364 0.788574 7.20726V4.14571C0.788574 2.54932 1.70704 1.63086 3.30342 1.63086H7.67707C9.27345 1.63086 10.1919 2.54932 10.1919 4.14571V7.20726C10.1919 8.80364 9.27345 9.7221 7.67707 9.7221ZM3.30342 2.28691C2.05256 2.28691 1.44462 2.89484 1.44462 4.14571V7.20726C1.44462 8.45812 2.05256 9.06606 3.30342 9.06606H7.67707C8.92793 9.06606 9.53587 8.45812 9.53587 7.20726V4.14571C9.53587 2.89484 8.92793 2.28691 7.67707 2.28691H3.30342Z"/>
</mask>
<path d="M7.67707 9.7221H3.30342C1.70704 9.7221 0.788574 8.80364 0.788574 7.20726V4.14571C0.788574 2.54932 1.70704 1.63086 3.30342 1.63086H7.67707C9.27345 1.63086 10.1919 2.54932 10.1919 4.14571V7.20726C10.1919 8.80364 9.27345 9.7221 7.67707 9.7221ZM3.30342 2.28691C2.05256 2.28691 1.44462 2.89484 1.44462 4.14571V7.20726C1.44462 8.45812 2.05256 9.06606 3.30342 9.06606H7.67707C8.92793 9.06606 9.53587 8.45812 9.53587 7.20726V4.14571C9.53587 2.89484 8.92793 2.28691 7.67707 2.28691H3.30342Z" fill="#11002A"/>
<path d="M7.67707 9.06606H3.30342V10.3782H7.67707V9.06606ZM3.30342 9.06606C2.62976 9.06606 2.18634 8.87452 1.91125 8.59943C1.63616 8.32434 1.44462 7.88092 1.44462 7.20726H0.132527C0.132527 8.12998 0.400218 8.94398 0.983459 9.52722C1.5667 10.1105 2.3807 10.3782 3.30342 10.3782V9.06606ZM1.44462 7.20726V4.14571H0.132527V7.20726H1.44462ZM1.44462 4.14571C1.44462 3.47205 1.63616 3.02862 1.91125 2.75353C2.18634 2.47845 2.62976 2.28691 3.30342 2.28691V0.974813C2.3807 0.974813 1.5667 1.2425 0.983459 1.82574C0.400218 2.40899 0.132527 3.22298 0.132527 4.14571H1.44462ZM3.30342 2.28691H7.67707V0.974813H3.30342V2.28691ZM7.67707 2.28691C8.35073 2.28691 8.79415 2.47845 9.06924 2.75353C9.34432 3.02862 9.53587 3.47205 9.53587 4.14571H10.848C10.848 3.22298 10.5803 2.40899 9.99703 1.82574C9.41379 1.2425 8.59979 0.974813 7.67707 0.974813V2.28691ZM9.53587 4.14571V7.20726H10.848V4.14571H9.53587ZM9.53587 7.20726C9.53587 7.88092 9.34432 8.32434 9.06924 8.59943C8.79415 8.87452 8.35073 9.06606 7.67707 9.06606V10.3782C8.59979 10.3782 9.41379 10.1105 9.99703 9.52722C10.5803 8.94398 10.848 8.12998 10.848 7.20726H9.53587ZM3.30342 1.63086C2.58156 1.63086 1.91815 1.80624 1.44105 2.28334C0.963958 2.76043 0.788574 3.42385 0.788574 4.14571H2.10067C2.10067 3.6167 2.22925 3.35072 2.36884 3.21113C2.50843 3.07154 2.77441 2.94295 3.30342 2.94295V1.63086ZM0.788574 4.14571V7.20726H2.10067V4.14571H0.788574ZM0.788574 7.20726C0.788574 7.92911 0.963958 8.59253 1.44105 9.06963C1.91815 9.54672 2.58156 9.7221 3.30342 9.7221V8.41001C2.77441 8.41001 2.50843 8.28143 2.36884 8.14184C2.22925 8.00225 2.10067 7.73626 2.10067 7.20726H0.788574ZM3.30342 9.7221H7.67707V8.41001H3.30342V9.7221ZM7.67707 9.7221C8.39892 9.7221 9.06234 9.54672 9.53943 9.06963C10.0165 8.59253 10.1919 7.92911 10.1919 7.20726H8.87982C8.87982 7.73626 8.75123 8.00225 8.61164 8.14184C8.47205 8.28143 8.20607 8.41001 7.67707 8.41001V9.7221ZM10.1919 7.20726V4.14571H8.87982V7.20726H10.1919ZM10.1919 4.14571C10.1919 3.42385 10.0165 2.76043 9.53943 2.28334C9.06234 1.80624 8.39892 1.63086 7.67707 1.63086V2.94295C8.20607 2.94295 8.47205 3.07154 8.61164 3.21113C8.75123 3.35072 8.87982 3.6167 8.87982 4.14571H10.1919ZM7.67707 1.63086H3.30342V2.94295H7.67707V1.63086Z" fill="#11002A" mask="url(#path-1-inside-1_18_4580)"/>
<path d="M5.48796 5.72726C5.72474 5.72726 5.97298 5.66911 6.18504 5.54071C5.98779 5.66312 5.74238 5.72835 5.49015 5.72835C5.30905 5.72835 5.13082 5.69469 4.97032 5.62986C5.13665 5.69636 5.31535 5.72726 5.48796 5.72726Z" fill="#11002A" stroke="#11002A" stroke-width="0.656047"/>
</svg>
