<svg width="11" height="11" viewBox="0 0 11 11" fill="none" xmlns="http://www.w3.org/2000/svg">
<mask id="path-1-inside-1_18_4601" fill="white">
<path d="M3.74062 2.67517C3.5613 2.67517 3.4126 2.52647 3.4126 2.34715V1.03505C3.4126 0.855735 3.5613 0.707031 3.74062 0.707031C3.91994 0.707031 4.06864 0.855735 4.06864 1.03505V2.34715C4.06864 2.52647 3.91994 2.67517 3.74062 2.67517Z"/>
</mask>
<path d="M3.74062 2.67517C3.5613 2.67517 3.4126 2.52647 3.4126 2.34715V1.03505C3.4126 0.855735 3.5613 0.707031 3.74062 0.707031C3.91994 0.707031 4.06864 0.855735 4.06864 1.03505V2.34715C4.06864 2.52647 3.91994 2.67517 3.74062 2.67517Z" fill="#11002A"/>
<path d="M3.74062 2.01912C3.92363 2.01912 4.06864 2.16414 4.06864 2.34715H2.75655C2.75655 2.88879 3.19898 3.33122 3.74062 3.33122V2.01912ZM4.06864 2.34715V1.03505H2.75655V2.34715H4.06864ZM4.06864 1.03505C4.06864 1.21806 3.92363 1.36308 3.74062 1.36308V0.0509844C3.19898 0.0509844 2.75655 0.49341 2.75655 1.03505H4.06864ZM3.74062 1.36308C3.55762 1.36308 3.4126 1.21806 3.4126 1.03505H4.72469C4.72469 0.49341 4.28227 0.0509844 3.74062 0.0509844V1.36308ZM3.4126 1.03505V2.34715H4.72469V1.03505H3.4126ZM3.4126 2.34715C3.4126 2.16414 3.55762 2.01912 3.74062 2.01912V3.33122C4.28227 3.33122 4.72469 2.88879 4.72469 2.34715H3.4126Z" fill="#11002A" mask="url(#path-1-inside-1_18_4601)"/>
<mask id="path-3-inside-2_18_4601" fill="white">
<path d="M7.23964 2.67517C7.06033 2.67517 6.91162 2.52647 6.91162 2.34715V1.03505C6.91162 0.855735 7.06033 0.707031 7.23964 0.707031C7.41896 0.707031 7.56767 0.855735 7.56767 1.03505V2.34715C7.56767 2.52647 7.41896 2.67517 7.23964 2.67517Z"/>
</mask>
<path d="M7.23964 2.67517C7.06033 2.67517 6.91162 2.52647 6.91162 2.34715V1.03505C6.91162 0.855735 7.06033 0.707031 7.23964 0.707031C7.41896 0.707031 7.56767 0.855735 7.56767 1.03505V2.34715C7.56767 2.52647 7.41896 2.67517 7.23964 2.67517Z" fill="#11002A"/>
<path d="M7.23964 2.01912C7.42265 2.01912 7.56767 2.16414 7.56767 2.34715H6.25557C6.25557 2.88879 6.698 3.33122 7.23964 3.33122V2.01912ZM7.56767 2.34715V1.03505H6.25557V2.34715H7.56767ZM7.56767 1.03505C7.56767 1.21806 7.42265 1.36308 7.23964 1.36308V0.0509844C6.698 0.0509844 6.25557 0.49341 6.25557 1.03505H7.56767ZM7.23964 1.36308C7.05664 1.36308 6.91162 1.21806 6.91162 1.03505H8.22371C8.22371 0.49341 7.78129 0.0509844 7.23964 0.0509844V1.36308ZM6.91162 1.03505V2.34715H8.22371V1.03505H6.91162ZM6.91162 2.34715C6.91162 2.16414 7.05664 2.01912 7.23964 2.01912V3.33122C7.78129 3.33122 8.22371 2.88879 8.22371 2.34715H6.91162Z" fill="#11002A" mask="url(#path-3-inside-2_18_4601)"/>
<path d="M3.95934 6.50219C3.90248 6.50219 3.84562 6.48907 3.79314 6.4672C3.73628 6.44533 3.69255 6.41471 3.64881 6.37535C3.57008 6.29225 3.52197 6.18291 3.52197 6.06482C3.52197 6.00796 3.53509 5.9511 3.55696 5.89862C3.57883 5.84614 3.60945 5.79803 3.64881 5.7543C3.69255 5.71493 3.73628 5.68431 3.79314 5.66244C3.95059 5.59684 4.1474 5.63183 4.26987 5.7543C4.34859 5.8374 4.3967 5.95111 4.3967 6.06482C4.3967 6.09106 4.39233 6.12168 4.38795 6.1523C4.38358 6.17854 4.37483 6.20478 4.36171 6.23102C4.35296 6.25726 4.33985 6.2835 4.32235 6.30974C4.30923 6.33161 4.28736 6.35348 4.26987 6.37535C4.18677 6.45407 4.07305 6.50219 3.95934 6.50219Z" fill="#11002A"/>
<path d="M5.4901 6.50218C5.43324 6.50218 5.37638 6.48906 5.3239 6.46719C5.26704 6.44532 5.22331 6.4147 5.17957 6.37534C5.10084 6.29224 5.05273 6.1829 5.05273 6.06481C5.05273 6.00795 5.06586 5.95109 5.08772 5.89861C5.10959 5.84613 5.14021 5.79802 5.17957 5.75429C5.22331 5.71492 5.26704 5.6843 5.3239 5.66243C5.48135 5.59245 5.67817 5.63182 5.80063 5.75429C5.87935 5.83739 5.92746 5.9511 5.92746 6.06481C5.92746 6.09105 5.92309 6.12167 5.91872 6.15229C5.91434 6.17853 5.90559 6.20477 5.89247 6.23101C5.88373 6.25725 5.87061 6.28349 5.85311 6.30973C5.83999 6.3316 5.81812 6.35347 5.80063 6.37534C5.71753 6.45406 5.60381 6.50218 5.4901 6.50218Z" fill="#292D32"/>
<path d="M7.02086 6.50218C6.964 6.50218 6.90715 6.48906 6.85466 6.46719C6.7978 6.44532 6.75407 6.4147 6.71033 6.37534C6.69284 6.35347 6.67534 6.3316 6.65785 6.30973C6.64035 6.28349 6.62723 6.25725 6.61849 6.23101C6.60537 6.20477 6.59662 6.17853 6.59224 6.15229C6.58787 6.12167 6.5835 6.09105 6.5835 6.06481C6.5835 5.9511 6.63161 5.83739 6.71033 5.75429C6.75407 5.71492 6.7978 5.6843 6.85466 5.66243C7.01649 5.59245 7.20893 5.63182 7.33139 5.75429C7.41011 5.83739 7.45822 5.9511 7.45822 6.06481C7.45822 6.09105 7.45385 6.12167 7.44948 6.15229C7.4451 6.17853 7.43636 6.20477 7.42323 6.23101C7.41449 6.25725 7.40137 6.28349 7.38387 6.30973C7.37075 6.3316 7.34888 6.35347 7.33139 6.37534C7.24829 6.45406 7.13458 6.50218 7.02086 6.50218Z" fill="#292D32"/>
<path d="M3.95934 8.03234C3.90248 8.03234 3.84562 8.01923 3.79314 7.99736C3.74065 7.97549 3.69255 7.94487 3.64881 7.90551C3.57008 7.82241 3.52197 7.70869 3.52197 7.59498C3.52197 7.53812 3.53509 7.48126 3.55696 7.42878C3.57883 7.37192 3.60945 7.32382 3.64881 7.28445C3.81063 7.12263 4.10804 7.12263 4.26987 7.28445C4.34859 7.36755 4.3967 7.48127 4.3967 7.59498C4.3967 7.70869 4.34859 7.82241 4.26987 7.90551C4.18677 7.98423 4.07305 8.03234 3.95934 8.03234Z" fill="#292D32"/>
<path d="M5.4901 8.03234C5.37638 8.03234 5.26267 7.98423 5.17957 7.90551C5.10084 7.82241 5.05273 7.70869 5.05273 7.59498C5.05273 7.53812 5.06586 7.48126 5.08772 7.42878C5.10959 7.37192 5.14021 7.32382 5.17957 7.28445C5.3414 7.12263 5.6388 7.12263 5.80063 7.28445C5.83999 7.32382 5.87061 7.37192 5.89247 7.42878C5.91434 7.48126 5.92746 7.53812 5.92746 7.59498C5.92746 7.70869 5.87935 7.82241 5.80063 7.90551C5.71753 7.98423 5.60381 8.03234 5.4901 8.03234Z" fill="#292D32"/>
<path d="M7.02086 8.03234C6.90715 8.03234 6.79343 7.98423 6.71033 7.90551C6.67097 7.86614 6.64035 7.81804 6.61849 7.76118C6.59662 7.7087 6.5835 7.65184 6.5835 7.59498C6.5835 7.53812 6.59662 7.48126 6.61849 7.42878C6.64035 7.37192 6.67097 7.32382 6.71033 7.28446C6.81093 7.18386 6.964 7.13574 7.10396 7.16636C7.13457 7.17073 7.16082 7.17948 7.18706 7.1926C7.2133 7.20135 7.23954 7.21448 7.26579 7.23197C7.28765 7.24509 7.30952 7.26696 7.33139 7.28446C7.41011 7.36755 7.45822 7.48127 7.45822 7.59498C7.45822 7.70869 7.41011 7.82241 7.33139 7.90551C7.24829 7.98423 7.13458 8.03234 7.02086 8.03234Z" fill="#292D32"/>
<path d="M9.20756 4.46366H1.77236C1.59304 4.46366 1.44434 4.31496 1.44434 4.13564C1.44434 3.95632 1.59304 3.80762 1.77236 3.80762H9.20756C9.38688 3.80762 9.53558 3.95632 9.53558 4.13564C9.53558 4.31496 9.38688 4.46366 9.20756 4.46366Z" fill="#292D32"/>
<path d="M7.23935 10.1106H3.74043C2.14405 10.1106 1.22559 9.19211 1.22559 7.59573V3.87813C1.22559 2.28175 2.14405 1.36328 3.74043 1.36328H7.23935C8.83573 1.36328 9.75419 2.28175 9.75419 3.87813V7.59573C9.75419 9.19211 8.83573 10.1106 7.23935 10.1106ZM3.74043 2.01933C2.48957 2.01933 1.88163 2.62726 1.88163 3.87813V7.59573C1.88163 8.84659 2.48957 9.45453 3.74043 9.45453H7.23935C8.49021 9.45453 9.09815 8.84659 9.09815 7.59573V3.87813C9.09815 2.62726 8.49021 2.01933 7.23935 2.01933H3.74043Z" fill="#292D32"/>
</svg>
