<svg width="11" height="12" viewBox="0 0 11 12" fill="none" xmlns="http://www.w3.org/2000/svg">
<path d="M3.88511 6.71665L3.88507 6.71668L3.88874 6.72119C4.11364 6.9972 4.43262 7.21779 4.80661 7.18185C5.17384 7.15109 5.45439 6.89231 5.63231 6.57309L5.63269 6.57241L6.45931 5.081L6.45944 5.08076C6.76801 4.52297 7.12634 4.32204 7.4466 4.33553C7.75994 4.35302 8.09633 4.58993 8.35098 5.17854C8.35105 5.1787 8.35112 5.17886 8.35119 5.17901L9.71967 8.37507L9.71983 8.37544C9.77845 8.51188 9.81678 8.65369 9.83516 8.79695C9.8155 8.6588 9.77691 8.52137 9.71898 8.3875C9.71887 8.38723 9.71875 8.38696 9.71863 8.38669L8.35089 5.19239C8.35078 5.19213 8.35067 5.19186 8.35056 5.1916C8.25677 4.96967 8.13766 4.77363 7.9955 4.62637C7.85665 4.48253 7.66954 4.35961 7.44444 4.34945C7.22274 4.33679 7.02485 4.44635 6.87735 4.57006C6.72172 4.70059 6.57909 4.88171 6.45973 5.09308L6.45972 5.09308L6.45845 5.09536L5.63225 6.58602C5.6322 6.58612 5.63214 6.58622 5.63208 6.58633C5.42013 6.96619 5.10903 7.1693 4.80601 7.19747C4.50258 7.22137 4.16145 7.07621 3.88846 6.73457L3.79435 6.61479C3.57471 6.32797 3.27925 6.12473 2.93591 6.12473C2.93516 6.12473 2.9342 6.12473 2.93305 6.12472C2.91954 6.12462 2.87963 6.12434 2.83271 6.13274C2.46367 6.17785 2.1922 6.46383 2.02674 6.78974L2.02673 6.78973L2.02566 6.79187L1.27423 8.29913C1.27408 8.29943 1.27393 8.29972 1.27378 8.30002C1.24956 8.348 1.22797 8.3968 1.209 8.44625C1.22818 8.39549 1.25005 8.34528 1.2746 8.29579C1.27464 8.29572 1.27468 8.29564 1.27471 8.29557L2.02655 6.78752C2.02658 6.78746 2.02661 6.78741 2.02664 6.78735C2.23452 6.3717 2.54393 6.15603 2.84896 6.1228C3.15206 6.08979 3.50038 6.23617 3.79008 6.5957L3.88511 6.71665Z" fill="#11002A" stroke="#11002A" stroke-width="0.656047"/>
<path d="M3.29002 1.83877C2.56725 1.83877 1.98022 2.42438 1.97793 3.14662C1.98023 2.42507 2.56794 1.83877 3.29002 1.83877ZM3.29002 1.83877C4.0142 1.83877 4.60211 2.42668 4.60211 3.15086M3.29002 1.83877C4.01351 1.83877 4.60211 2.42736 4.60211 3.15086M4.60211 3.15086C4.60211 3.87504 4.0142 4.46295 3.29002 4.46295C4.01351 4.46295 4.60211 3.87435 4.60211 3.15086Z" fill="#11002A" stroke="#11002A" stroke-width="0.656047"/>
</svg>
