<svg width="17" height="17" viewBox="0 0 17 17" fill="none" xmlns="http://www.w3.org/2000/svg">
<path d="M5.8123 4.41305V4.74107H6.14032H11.3887H11.7167V4.41305V3.59299C11.7167 3.01942 11.6285 2.53249 11.3008 2.20476C10.9731 1.87703 10.4862 1.78886 9.91259 1.78886H7.61643C7.04286 1.78886 6.55592 1.87703 6.2282 2.20476C5.90047 2.53249 5.8123 3.01942 5.8123 3.59299V4.41305ZM11.8807 5.06909H5.64829C5.56047 5.06909 5.48427 4.9929 5.48427 4.90508V3.59299C5.48427 2.79779 5.66952 2.28401 5.98848 1.96504C6.30744 1.64608 6.82122 1.46084 7.61643 1.46084H9.91259C10.7078 1.46084 11.2216 1.64608 11.5405 1.96504C11.8595 2.28401 12.0447 2.79779 12.0447 3.59299V4.90508C12.0447 4.9929 11.9685 5.06909 11.8807 5.06909Z" fill="#8094AE" stroke="#8094AE" stroke-width="0.656047"/>
<path d="M6.63153 10.3172H6.30351V10.6452V12.7774C6.30351 13.3327 6.41989 13.807 6.74893 14.1361C7.07796 14.4651 7.55231 14.5815 8.10764 14.5815H9.41973C9.97505 14.5815 10.4494 14.4651 10.7784 14.1361C11.1075 13.807 11.2239 13.3327 11.2239 12.7774V10.6452V10.3172H10.8958H6.63153ZM9.41973 14.9095H8.10764C7.37226 14.9095 6.85159 14.7083 6.51413 14.3709C6.17667 14.0334 5.97548 13.5127 5.97548 12.7774V10.1532C5.97548 10.0654 6.05168 9.98916 6.1395 9.98916H11.3879C11.4757 9.98916 11.5519 10.0654 11.5519 10.1532V12.7774C11.5519 13.5127 11.3507 14.0334 11.0132 14.3709C10.6758 14.7083 10.1551 14.9095 9.41973 14.9095Z" fill="#8094AE" stroke="#8094AE" stroke-width="0.656047"/>
<path d="M12.7009 12.6137H11.3888C11.1198 12.6137 10.8968 12.3906 10.8968 12.1216V10.6455H6.63247V12.1216C6.63247 12.3906 6.40941 12.6137 6.14043 12.6137H4.82834C3.24071 12.6137 2.36816 11.7411 2.36816 10.1535V6.87326C2.36816 5.28563 3.24071 4.41309 4.82834 4.41309H12.7009C14.2885 4.41309 15.1611 5.28563 15.1611 6.87326V10.1535C15.1611 11.7411 14.2885 12.6137 12.7009 12.6137ZM11.8808 11.6296H12.7009C13.7375 11.6296 14.177 11.19 14.177 10.1535V6.87326C14.177 5.83671 13.7375 5.39716 12.7009 5.39716H4.82834C3.79179 5.39716 3.35223 5.83671 3.35223 6.87326V10.1535C3.35223 11.19 3.79179 11.6296 4.82834 11.6296H5.6484V10.1535C5.6484 9.88452 5.87145 9.66146 6.14043 9.66146H11.3888C11.6578 9.66146 11.8808 9.88452 11.8808 10.1535V11.6296Z" fill="#8094AE"/>
<path d="M12.0447 10.6452H5.48422C5.21524 10.6452 4.99219 10.4221 4.99219 10.1532C4.99219 9.88419 5.21524 9.66113 5.48422 9.66113H12.0447C12.3137 9.66113 12.5367 9.88419 12.5367 10.1532C12.5367 10.4221 12.3137 10.6452 12.0447 10.6452Z" fill="#8094AE"/>
<path d="M7.45236 8.02118H5.48422C5.21524 8.02118 4.99219 7.79812 4.99219 7.52914C4.99219 7.26017 5.21524 7.03711 5.48422 7.03711H7.45236C7.72134 7.03711 7.9444 7.26017 7.9444 7.52914C7.9444 7.79812 7.72134 8.02118 7.45236 8.02118Z" fill="#8094AE"/>
</svg>
