<svg width="11" height="11" viewBox="0 0 11 11" fill="none" xmlns="http://www.w3.org/2000/svg">
<path d="M4.17837 4.83631C4.17836 4.83632 4.17835 4.83633 4.17834 4.83634L4.17837 4.83631Z" fill="#11002A" stroke="#11002A" stroke-width="0.656047"/>
<mask id="path-2-inside-1_18_4620" fill="white">
<path d="M5.05273 6.03945C4.96963 6.03945 4.88653 6.00883 4.82093 5.94323L3.9462 5.0685C3.81937 4.94166 3.81937 4.73173 3.9462 4.60489C4.07304 4.47806 4.28297 4.47806 4.40981 4.60489L5.28454 5.47962C5.41137 5.60646 5.41137 5.81639 5.28454 5.94323C5.21893 6.00883 5.13583 6.03945 5.05273 6.03945Z"/>
</mask>
<path d="M5.05273 6.03945C4.96963 6.03945 4.88653 6.00883 4.82093 5.94323L3.9462 5.0685C3.81937 4.94166 3.81937 4.73173 3.9462 4.60489C4.07304 4.47806 4.28297 4.47806 4.40981 4.60489L5.28454 5.47962C5.41137 5.60646 5.41137 5.81639 5.28454 5.94323C5.21893 6.00883 5.13583 6.03945 5.05273 6.03945Z" fill="#11002A"/>
<path d="M4.82093 5.94323L4.35703 6.40712L4.82093 5.94323ZM3.9462 5.0685L4.4101 4.6046L3.9462 5.0685ZM4.40981 4.60489L3.94591 5.06879L4.40981 4.60489ZM5.28454 5.47962L5.74843 5.01573L5.28454 5.47962ZM5.05273 5.3834C5.13424 5.3834 5.22091 5.41542 5.28483 5.47933L4.35703 6.40712C4.55216 6.60224 4.80503 6.69549 5.05273 6.69549V5.3834ZM5.28483 5.47933L4.4101 4.6046L3.48231 5.53239L4.35703 6.40712L5.28483 5.47933ZM4.4101 4.6046C4.53946 4.73397 4.53946 4.93942 4.4101 5.06879L3.48231 4.141C3.09927 4.52404 3.09927 5.14936 3.48231 5.53239L4.4101 4.6046ZM4.4101 5.06879C4.28073 5.19815 4.07528 5.19815 3.94591 5.06879L4.8737 4.141C4.49066 3.75796 3.86534 3.75796 3.48231 4.141L4.4101 5.06879ZM3.94591 5.06879L4.82064 5.94352L5.74843 5.01573L4.8737 4.141L3.94591 5.06879ZM4.82064 5.94352C4.69127 5.81415 4.69127 5.6087 4.82064 5.47933L5.74843 6.40712C6.13147 6.02408 6.13147 5.39876 5.74843 5.01573L4.82064 5.94352ZM4.82064 5.47933C4.88455 5.41542 4.97123 5.3834 5.05273 5.3834V6.69549C5.30044 6.69549 5.55331 6.60224 5.74843 6.40712L4.82064 5.47933Z" fill="#11002A" mask="url(#path-2-inside-1_18_4620)"/>
<path d="M6.80234 9.9756H4.17815C1.80326 9.9756 0.788574 8.96092 0.788574 6.58603V3.96184C0.788574 1.58695 1.80326 0.572266 4.17815 0.572266H6.36497C6.54429 0.572266 6.693 0.72097 6.693 0.900289C6.693 1.07961 6.54429 1.22831 6.36497 1.22831H4.17815C2.1619 1.22831 1.44462 1.94559 1.44462 3.96184V6.58603C1.44462 8.60228 2.1619 9.31956 4.17815 9.31956H6.80234C8.81859 9.31956 9.53587 8.60228 9.53587 6.58603V4.39921C9.53587 4.21989 9.68457 4.07118 9.86389 4.07118C10.0432 4.07118 10.1919 4.21989 10.1919 4.39921V6.58603C10.1919 8.96092 9.17723 9.9756 6.80234 9.9756Z" fill="#11002A"/>
<path d="M9.86356 4.72658H8.1141C6.61832 4.72658 6.03662 4.14489 6.03662 2.6491V0.899643C6.03662 0.768434 6.11535 0.645972 6.23781 0.597862C6.36027 0.545378 6.50023 0.575994 6.59645 0.66784L10.0954 4.16676C10.1872 4.2586 10.2178 4.40293 10.1653 4.5254C10.1129 4.64786 9.99477 4.72658 9.86356 4.72658ZM6.69267 1.69127V2.6491C6.69267 3.7775 6.9857 4.07054 8.1141 4.07054H9.07193L6.69267 1.69127Z" fill="#292D32"/>
</svg>
