<svg width="11" height="12" viewBox="0 0 11 12" fill="none" xmlns="http://www.w3.org/2000/svg">
<mask id="path-1-inside-1_18_4555" fill="white">
<path d="M5.49001 8.23979C4.22603 8.23979 3.19385 7.21198 3.19385 5.94362C3.19385 4.67527 4.22603 3.64746 5.49001 3.64746C6.75399 3.64746 7.78618 4.67527 7.78618 5.94362C7.78618 7.21198 6.75399 8.23979 5.49001 8.23979ZM5.49001 4.30351C4.58467 4.30351 3.84989 5.03828 3.84989 5.94362C3.84989 6.84897 4.58467 7.58374 5.49001 7.58374C6.39536 7.58374 7.13013 6.84897 7.13013 5.94362C7.13013 5.03828 6.39536 4.30351 5.49001 4.30351Z"/>
</mask>
<path d="M5.49001 8.23979C4.22603 8.23979 3.19385 7.21198 3.19385 5.94362C3.19385 4.67527 4.22603 3.64746 5.49001 3.64746C6.75399 3.64746 7.78618 4.67527 7.78618 5.94362C7.78618 7.21198 6.75399 8.23979 5.49001 8.23979ZM5.49001 4.30351C4.58467 4.30351 3.84989 5.03828 3.84989 5.94362C3.84989 6.84897 4.58467 7.58374 5.49001 7.58374C6.39536 7.58374 7.13013 6.84897 7.13013 5.94362C7.13013 5.03828 6.39536 4.30351 5.49001 4.30351Z" fill="#11002A"/>
<path d="M5.49001 7.58374C4.58754 7.58374 3.84989 6.84884 3.84989 5.94362H2.5378C2.5378 7.57512 3.86452 8.89584 5.49001 8.89584V7.58374ZM3.84989 5.94362C3.84989 5.03841 4.58754 4.30351 5.49001 4.30351V2.99141C3.86452 2.99141 2.5378 4.31213 2.5378 5.94362H3.84989ZM5.49001 4.30351C6.39248 4.30351 7.13013 5.03841 7.13013 5.94362H8.44222C8.44222 4.31213 7.11551 2.99141 5.49001 2.99141V4.30351ZM7.13013 5.94362C7.13013 6.84884 6.39248 7.58374 5.49001 7.58374V8.89584C7.11551 8.89584 8.44222 7.57512 8.44222 5.94362H7.13013ZM5.49001 3.64746C4.22234 3.64746 3.19385 4.67596 3.19385 5.94362H4.50594C4.50594 5.4006 4.94699 4.95955 5.49001 4.95955V3.64746ZM3.19385 5.94362C3.19385 7.21129 4.22234 8.23979 5.49001 8.23979V6.92769C4.94699 6.92769 4.50594 6.48664 4.50594 5.94362H3.19385ZM5.49001 8.23979C6.75768 8.23979 7.78618 7.21129 7.78618 5.94362H6.47408C6.47408 6.48664 6.03303 6.92769 5.49001 6.92769V8.23979ZM7.78618 5.94362C7.78618 4.67596 6.75768 3.64746 5.49001 3.64746V4.95955C6.03303 4.95955 6.47408 5.4006 6.47408 5.94362H7.78618Z" fill="#11002A" mask="url(#path-1-inside-1_18_4555)"/>
<mask id="path-3-inside-2_18_4555" fill="white">
<path d="M3.30342 6.27128H1.1166C0.937278 6.27128 0.788574 6.12258 0.788574 5.94326C0.788574 5.76394 0.937278 5.61523 1.1166 5.61523H3.30342C3.48274 5.61523 3.63144 5.76394 3.63144 5.94326C3.63144 6.12258 3.48274 6.27128 3.30342 6.27128Z"/>
</mask>
<path d="M3.30342 6.27128H1.1166C0.937278 6.27128 0.788574 6.12258 0.788574 5.94326C0.788574 5.76394 0.937278 5.61523 1.1166 5.61523H3.30342C3.48274 5.61523 3.63144 5.76394 3.63144 5.94326C3.63144 6.12258 3.48274 6.27128 3.30342 6.27128Z" fill="#11002A"/>
<path d="M3.30342 5.61523H1.1166V6.92733H3.30342V5.61523ZM1.1166 5.61523C1.2996 5.61523 1.44462 5.76025 1.44462 5.94326H0.132527C0.132527 6.4849 0.574953 6.92733 1.1166 6.92733V5.61523ZM1.44462 5.94326C1.44462 6.12626 1.2996 6.27128 1.1166 6.27128V4.95919C0.574953 4.95919 0.132527 5.40161 0.132527 5.94326H1.44462ZM1.1166 6.27128H3.30342V4.95919H1.1166V6.27128ZM3.30342 6.27128C3.12041 6.27128 2.9754 6.12626 2.9754 5.94326H4.28749C4.28749 5.40161 3.84506 4.95919 3.30342 4.95919V6.27128ZM2.9754 5.94326C2.9754 5.76025 3.12041 5.61523 3.30342 5.61523V6.92733C3.84506 6.92733 4.28749 6.4849 4.28749 5.94326H2.9754Z" fill="#11002A" mask="url(#path-3-inside-2_18_4555)"/>
<path d="M9.86397 6.27128H7.67714C7.49783 6.27128 7.34912 6.12258 7.34912 5.94326C7.34912 5.76394 7.49783 5.61523 7.67714 5.61523H9.86397C10.0433 5.61523 10.192 5.76394 10.192 5.94326C10.192 6.12258 10.0433 6.27128 9.86397 6.27128Z" fill="#11002A"/>
</svg>
