<svg width="11" height="11" viewBox="0 0 11 11" fill="none" xmlns="http://www.w3.org/2000/svg">
<mask id="path-1-inside-1_18_4520" fill="white">
<path d="M4.41876 8.10403L1.92578 5.61106L2.54903 4.98781L4.41876 6.85755L8.43158 2.84473L9.05482 3.46797L4.41876 8.10403Z"/>
</mask>
<path d="M4.41876 8.10403L1.92578 5.61106L2.54903 4.98781L4.41876 6.85755L8.43158 2.84473L9.05482 3.46797L4.41876 8.10403Z" fill="#11002A"/>
<path d="M4.41876 8.10403L-5.47767 18.0005L4.41876 27.8969L14.3152 18.0005L4.41876 8.10403ZM1.92578 5.61106L-7.97065 -4.28537L-17.8671 5.61106L-7.97065 15.5075L1.92578 5.61106ZM2.54903 4.98781L12.4455 -4.90862L2.54902 -14.805L-7.3474 -4.90862L2.54903 4.98781ZM4.41876 6.85755L-5.47767 16.754L4.41876 26.6504L14.3152 16.754L4.41876 6.85755ZM8.43158 2.84473L18.328 -7.0517L8.43158 -16.9481L-1.46485 -7.0517L8.43158 2.84473ZM9.05482 3.46797L18.9513 13.3644L28.8477 3.46797L18.9513 -6.42846L9.05482 3.46797ZM14.3152 -1.7924L11.8222 -4.28537L-7.97065 15.5075L-5.47767 18.0005L14.3152 -1.7924ZM11.8222 15.5075L12.4455 14.8842L-7.3474 -4.90862L-7.97065 -4.28537L11.8222 15.5075ZM-7.3474 14.8842L-5.47767 16.754L14.3152 -3.03889L12.4455 -4.90862L-7.3474 14.8842ZM14.3152 16.754L18.328 12.7412L-1.46485 -7.0517L-5.47767 -3.03889L14.3152 16.754ZM-1.46485 12.7412L-0.841609 13.3644L18.9513 -6.42846L18.328 -7.0517L-1.46485 12.7412ZM-0.841606 -6.42846L-5.47767 -1.7924L14.3152 18.0005L18.9513 13.3644L-0.841606 -6.42846Z" fill="#11002A" mask="url(#path-1-inside-1_18_4520)"/>
</svg>
