<svg width="17" height="17" viewBox="0 0 17 17" fill="none" xmlns="http://www.w3.org/2000/svg">
<path d="M10.7326 15.5045H6.79628C5.05276 15.5045 3.88666 15.1308 3.15017 14.3943C2.41368 13.6578 2.03994 12.4917 2.03994 10.7482V6.8119C2.03994 5.06839 2.41368 3.90228 3.15017 3.16579C3.88666 2.4293 5.05276 2.05556 6.79628 2.05556H10.7326C12.4761 2.05556 13.6422 2.4293 14.3787 3.16579C15.1152 3.90228 15.4889 5.06839 15.4889 6.8119V10.7482C15.4889 12.4917 15.1152 13.6578 14.3787 14.3943C13.6422 15.1308 12.4761 15.5045 10.7326 15.5045ZM6.79628 2.38359C5.26095 2.38359 4.12244 2.65327 3.38004 3.39567C2.63764 4.13807 2.36796 5.27657 2.36796 6.8119V10.7482C2.36796 12.2835 2.63764 13.422 3.38004 14.1644C4.12244 14.9068 5.26095 15.1765 6.79628 15.1765H10.7326C12.2679 15.1765 13.4064 14.9068 14.1488 14.1644C14.8912 13.422 15.1609 12.2835 15.1609 10.7482V6.8119C15.1609 5.27657 14.8912 4.13807 14.1488 3.39567C13.4064 2.65327 12.2679 2.38359 10.7326 2.38359H6.79628Z" fill="#8094AE" stroke="#8094AE" stroke-width="0.656047"/>
<path d="M11.2239 6.97538H6.30356C6.21574 6.97538 6.13955 6.89919 6.13955 6.81137C6.13955 6.72355 6.21574 6.64736 6.30356 6.64736H11.2239C11.3117 6.64736 11.3879 6.72355 11.3879 6.81137C11.3879 6.89919 11.3117 6.97538 11.2239 6.97538Z" fill="#8094AE" stroke="#8094AE" stroke-width="0.656047"/>
<path d="M11.2239 10.9119H6.30356C6.21574 10.9119 6.13955 10.8357 6.13955 10.7479C6.13955 10.6601 6.21574 10.5839 6.30356 10.5839H11.2239C11.3117 10.5839 11.3879 10.6601 11.3879 10.7479C11.3879 10.8357 11.3117 10.9119 11.2239 10.9119Z" fill="#8094AE" stroke="#8094AE" stroke-width="0.656047"/>
</svg>
