<svg width="17" height="17" viewBox="0 0 17 17" fill="none" xmlns="http://www.w3.org/2000/svg">
<path d="M5.60424 14.6545L5.6015 14.6531C5.33874 14.5148 5.1732 14.235 5.1732 13.933V13.0015V12.7054L4.87867 12.6752C3.96214 12.5811 3.22099 12.2002 2.70831 11.6178C2.19518 11.0348 1.89296 10.2292 1.89296 9.25538V5.31914C1.89296 4.26589 2.24518 3.4102 2.83672 2.81866C3.42827 2.22711 4.28395 1.8749 5.33721 1.8749H11.8977C12.9509 1.8749 13.8066 2.22711 14.3982 2.81866C14.9897 3.4102 15.3419 4.26589 15.3419 5.31914V9.25538C15.3419 10.3086 14.9897 11.1643 14.3982 11.7559C13.8066 12.3474 12.9509 12.6996 11.8977 12.6996H9.42437H9.32505L9.24241 12.7547L6.44984 14.6165C6.44951 14.6167 6.44919 14.6169 6.44887 14.6171C6.31253 14.7062 6.15241 14.7531 5.99326 14.7531C5.86291 14.7531 5.7262 14.7202 5.60424 14.6545ZM5.74577 14.3521L5.91454 14.0708L5.74577 14.3521C5.85321 14.4166 6.05615 14.4715 6.26122 14.341L6.26126 14.3411L6.26678 14.3374L9.1862 12.3955L9.18648 12.3953C9.21594 12.3757 9.25175 12.3651 9.28006 12.3651H11.9042C12.8226 12.3651 13.6082 12.0665 14.165 11.5097C14.7218 10.9529 15.0205 10.1673 15.0205 9.2489V5.31258C15.0205 4.39418 14.7218 3.60859 14.165 3.0518C13.6082 2.49502 12.8226 2.19635 11.9042 2.19635H5.33721C4.41882 2.19635 3.63322 2.49502 3.07644 3.0518C2.51965 3.60859 2.22099 4.39418 2.22099 5.31258V9.2489C2.22099 10.1673 2.51965 10.9529 3.07644 11.5097C3.63322 12.0665 4.41882 12.3651 5.33721 12.3651C5.42503 12.3651 5.50122 12.4413 5.50122 12.5291V13.9265C5.50122 14.1841 5.67563 14.31 5.74577 14.3521Z" fill="#11002A" stroke="#11002A" stroke-width="0.656047"/>
<path d="M8.61768 8.05455C8.52986 8.05455 8.45366 7.97835 8.45366 7.89053V7.75279C8.45366 7.17761 8.86513 6.89087 9.07799 6.74452C9.20804 6.65657 9.32711 6.56168 9.41146 6.44415C9.50618 6.31216 9.54268 6.17278 9.54268 6.02738C9.54268 5.51823 9.12689 5.10234 8.61768 5.10234C8.10846 5.10234 7.69267 5.51823 7.69267 6.02738C7.69267 6.1152 7.61647 6.1914 7.52866 6.1914C7.44084 6.1914 7.36464 6.1152 7.36464 6.02738C7.36464 5.33599 7.92631 4.77431 8.61768 4.77431C9.30905 4.77431 9.87071 5.33599 9.87071 6.02738C9.87071 6.58993 9.46435 6.87716 9.26131 7.01474C9.12573 7.1052 9.0015 7.20227 8.91434 7.32402C8.81603 7.46135 8.78169 7.60511 8.78169 7.75279V7.89053C8.78169 7.98207 8.70835 8.05455 8.61768 8.05455Z" fill="#11002A" stroke="#11002A" stroke-width="0.656047"/>
<path d="M8.61752 10.0163C8.34198 10.0163 8.12549 9.79324 8.12549 9.52426C8.12549 9.25528 8.34854 9.03223 8.61752 9.03223C8.8865 9.03223 9.10956 9.25528 9.10956 9.52426C9.10956 9.79324 8.89306 10.0163 8.61752 10.0163Z" fill="#11002A"/>
</svg>
