<svg width="11" height="11" viewBox="0 0 11 11" fill="none" xmlns="http://www.w3.org/2000/svg">
<path d="M9.74041 8.78395C9.74941 8.76514 9.75787 8.74618 9.7658 8.72707M9.74041 8.78395C9.74019 8.78441 9.73996 8.78488 9.73974 8.78535L9.44402 8.6434M9.74041 8.78395C9.74062 8.78351 9.74083 8.78307 9.74103 8.78263L9.44402 8.6434M9.74041 8.78395C9.66167 8.95161 9.56524 9.0969 9.44225 9.23097M9.7658 8.72707L9.44402 8.6434M9.7658 8.72707C9.75699 8.74929 9.74746 8.77139 9.73721 8.79335C9.65927 8.96037 9.56411 9.10287 9.44276 9.23524L9.44133 9.23683C9.22087 9.48049 8.98963 9.6459 8.72665 9.75182L8.72586 9.75214C8.46347 9.85862 8.17735 9.91614 7.87388 9.91614C7.43215 9.91614 6.95541 9.81056 6.44938 9.59668C6.28561 9.52708 6.12087 9.44872 5.95576 9.36214C6.11917 9.44714 6.28319 9.52422 6.44723 9.59286M9.7658 8.72707L8.72543 9.74684M9.44402 8.6434C9.37842 8.78336 9.29969 8.90145 9.19909 9.01079M9.44225 9.23097C9.44283 9.23033 9.4434 9.22969 9.44397 9.22905L9.19909 9.01079M9.44225 9.23097C9.23266 9.46561 8.99633 9.63518 8.72543 9.74684M9.44225 9.23097C9.44167 9.23161 9.44108 9.23224 9.4405 9.23288L9.19909 9.01079M9.19909 9.01079L8.72543 9.74684M8.72543 9.74684C8.72565 9.74675 8.72586 9.74666 8.72607 9.74657L8.59991 9.44378L8.7248 9.7471C8.72501 9.74701 8.72522 9.74692 8.72543 9.74684ZM8.72543 9.74684C8.03561 10.034 7.23823 9.93032 6.44723 9.59286M6.44723 9.59286C6.44761 9.59302 6.44798 9.59317 6.44835 9.59333L6.57491 9.2907L6.44612 9.59239C6.44649 9.59255 6.44686 9.5927 6.44723 9.59286ZM4.94409 8.73243C5.03806 8.80009 5.13232 8.86539 5.22677 8.92825C5.13143 8.86429 5.03663 8.79782 4.94247 8.72895M4.94409 8.73243L1.12972 4.71587M4.94409 8.73243C4.44604 8.36624 3.96466 7.95733 3.50858 7.50993M4.94409 8.73243L3.50858 7.50993M4.94247 8.72895C4.94242 8.72891 4.94237 8.72888 4.94232 8.72884L5.13598 8.46409L4.94262 8.72906C4.94257 8.72902 4.94252 8.72899 4.94247 8.72895ZM4.94247 8.72895C4.4436 8.3649 3.95882 7.95189 3.51001 7.50756L3.50767 7.50526L3.50769 7.50524C3.05893 7.052 2.65012 6.5714 2.29024 6.07657C1.92764 5.57799 1.63908 5.07535 1.43134 4.58601L1.43118 4.58564C1.41752 4.55333 1.40428 4.52104 1.39148 4.48877M1.39148 4.48877C1.20573 4.01665 1.1166 3.569 1.1166 3.15448C1.1166 3.58208 1.21087 4.03348 1.39148 4.48877ZM1.39148 4.48877C1.40452 4.52193 1.41805 4.55521 1.43205 4.58861M1.43205 4.58861C1.432 4.58848 1.43194 4.58835 1.43189 4.58823L1.12972 4.71587M1.43205 4.58861C1.43211 4.58874 1.43216 4.58888 1.43222 4.58902L1.12972 4.71587M1.43205 4.58861C1.63507 5.06913 1.92349 5.57221 2.28755 6.0804M1.12972 4.71587C1.34403 5.22321 1.64581 5.74805 2.02194 6.27289M2.28755 6.0804C2.28721 6.07993 2.28687 6.07947 2.28653 6.07901L2.02194 6.27289M2.28755 6.0804C2.64912 6.57368 3.05756 7.05449 3.50858 7.50993M2.28755 6.0804C2.28789 6.08087 2.28823 6.08134 2.28857 6.08181L2.02194 6.27289M2.02194 6.27289L3.50858 7.50993M3.91084 4.85237C3.95245 4.92518 4.01561 5.02257 4.11074 5.14789C4.01935 5.02822 3.95072 4.92523 3.90248 4.83826L3.89952 4.83085C3.90033 4.83249 3.90107 4.83396 3.90171 4.83524L3.90225 4.83633L3.90632 4.84447L3.91084 4.85237ZM3.86662 4.74861L3.8652 4.74504C3.86496 4.74409 3.86472 4.74314 3.86449 4.7422L3.86662 4.74861ZM3.94563 4.43212L3.87667 4.50412C3.88715 4.48597 3.90025 4.46922 3.91588 4.4536L3.91592 4.45364L3.92038 4.449L4.24626 4.11009C4.34608 4.00996 4.42931 3.90695 4.48991 3.80459C4.54843 3.70856 4.58394 3.60418 4.58488 3.49145C4.58489 3.49284 4.5849 3.49424 4.5849 3.49562C4.5849 3.59602 4.55639 3.70012 4.49169 3.80796L4.49153 3.80786L4.48622 3.81742C4.43977 3.90103 4.36069 4.00383 4.24798 4.11654L4.24793 4.11648L4.24303 4.1216L3.94563 4.43212ZM3.13235 1.29628C3.17402 1.32276 3.2119 1.35289 3.24584 1.3866C3.21113 1.35274 3.17332 1.32262 3.13235 1.29628ZM2.78671 1.17501C2.86594 1.18465 2.94395 1.20529 3.01355 1.23461C2.94291 1.20591 2.86665 1.18483 2.78671 1.17501ZM2.68674 1.16884C2.35504 1.16884 2.06577 1.31026 1.81573 1.54266C2.09029 1.2841 2.38417 1.16884 2.68674 1.16884ZM1.2732 2.30784C1.36574 2.07335 1.50954 1.8504 1.70489 1.65049C1.51223 1.84868 1.36959 2.06767 1.27543 2.30715C1.24006 2.39492 1.21088 2.48405 1.18761 2.57456C1.21069 2.4835 1.23929 2.39457 1.2732 2.30784Z" fill="#11002A" stroke="#11002A" stroke-width="0.656047"/>
</svg>
