<svg width="17" height="17" viewBox="0 0 17 17" fill="none" xmlns="http://www.w3.org/2000/svg">
<path d="M8.22382 15.5651H5.73084C4.33205 15.5651 3.3936 15.252 2.79982 14.6583C2.20604 14.0645 1.89296 13.126 1.89296 11.7272V9.23426C1.89296 7.83547 2.20604 6.89702 2.79982 6.30324C3.3936 5.70946 4.33205 5.39638 5.73084 5.39638H7.69898C7.7868 5.39638 7.86299 5.47258 7.86299 5.56039C7.86299 5.64821 7.7868 5.72441 7.69898 5.72441H5.73084C4.53359 5.72441 3.62457 5.93332 3.02723 6.53065C2.4299 7.12799 2.22099 8.03701 2.22099 9.23426V11.7272C2.22099 12.9245 2.4299 13.8335 3.02723 14.4308C3.62457 15.0282 4.53359 15.2371 5.73084 15.2371H8.22382C9.42107 15.2371 10.3301 15.0282 10.9274 14.4308C11.5248 13.8335 11.7337 12.9245 11.7337 11.7272V9.75909C11.7337 9.67128 11.8099 9.59508 11.8977 9.59508C11.9855 9.59508 12.0617 9.67128 12.0617 9.75909V11.7272C12.0617 13.126 11.7486 14.0645 11.1548 14.6583C10.5611 15.252 9.62261 15.5651 8.22382 15.5651Z" fill="#8094AE" stroke="#8094AE" stroke-width="0.656047"/>
<path d="M7.62876 5.41304L7.62881 5.41318L7.63803 5.40923C7.69062 5.38669 7.7613 5.39517 7.81813 5.44795L12.0135 9.64334C12.0591 9.68895 12.0733 9.76318 12.0489 9.82014L12.0488 9.82008L12.0451 9.82941C12.0252 9.88027 11.9677 9.92311 11.8978 9.92311H9.79842C8.91015 9.92311 8.36964 9.74108 8.04336 9.41481C7.71708 9.08853 7.53505 8.54802 7.53505 7.65975V5.5604C7.53505 5.49043 7.5779 5.43302 7.62876 5.41304ZM8.42305 6.5159L7.86308 5.95593L7.86308 6.74785V7.65975C7.86308 8.30504 7.92872 8.84041 8.27324 9.18493C8.61775 9.52945 9.15312 9.59509 9.79842 9.59509H10.7103H11.5022L10.9423 9.03512L8.42305 6.5159Z" fill="#8094AE" stroke="#8094AE" stroke-width="0.656047"/>
<path d="M10.9795 2.44413H8.35532C8.2675 2.44413 8.1913 2.36794 8.1913 2.28012C8.1913 2.1923 8.2675 2.11611 8.35532 2.11611H10.9795C11.0673 2.11611 11.1435 2.1923 11.1435 2.28012C11.1435 2.36794 11.0673 2.44413 10.9795 2.44413Z" fill="#8094AE" stroke="#8094AE" stroke-width="0.656047"/>
<path d="M5.33725 4.7403C5.06827 4.7403 4.84521 4.51724 4.84521 4.24826C4.84521 2.89024 5.94737 1.78809 7.30539 1.78809H9.02423C9.29321 1.78809 9.51627 2.01114 9.51627 2.28012C9.51627 2.5491 9.29321 2.77216 9.02423 2.77216H7.30539C6.49189 2.77216 5.82929 3.43476 5.82929 4.24826C5.82929 4.51724 5.60623 4.7403 5.33725 4.7403Z" fill="#8094AE"/>
<path d="M13.3348 12.6131C13.0658 12.6131 12.8428 12.39 12.8428 12.1211C12.8428 11.8521 13.0658 11.629 13.3348 11.629C14.0827 11.629 14.6863 11.0189 14.6863 10.2776V6.21664C14.6863 5.94767 14.9093 5.72461 15.1783 5.72461C15.4473 5.72461 15.6703 5.94767 15.6703 6.21664V10.2776C15.6703 11.5634 14.6207 12.6131 13.3348 12.6131Z" fill="#8094AE"/>
<path d="M15.1783 6.70845H13.2102C11.4651 6.70845 10.75 5.99335 10.75 4.24827V2.28013C10.75 2.08332 10.8681 1.89962 11.0518 1.82746C11.2355 1.74873 11.4454 1.79465 11.5897 1.93242L15.526 5.8687C15.6638 6.00647 15.7097 6.22297 15.631 6.40666C15.5588 6.59036 15.3751 6.70845 15.1783 6.70845ZM11.7341 3.46757V4.24827C11.7341 5.44884 12.0096 5.72437 13.2102 5.72437H13.9909L11.7341 3.46757Z" fill="#8094AE"/>
</svg>
