<svg width="17" height="17" viewBox="0 0 17 17" fill="none" xmlns="http://www.w3.org/2000/svg">
<path d="M5.75122 14.8225L5.74848 14.821C5.48571 14.6827 5.32017 14.403 5.32017 14.101V13.1694V12.8734L5.02564 12.8431C4.10911 12.749 3.36796 12.3682 2.85529 11.7857C2.34215 11.2027 2.03994 10.3972 2.03994 9.42335V5.48711C2.03994 4.43385 2.39215 3.57817 2.9837 2.98663C3.57524 2.39508 4.43093 2.04287 5.48418 2.04287H12.0447C13.0979 2.04287 13.9536 2.39508 14.5451 2.98663C15.1367 3.57817 15.4889 4.43385 15.4889 5.48711V9.42335C15.4889 10.4766 15.1367 11.3323 14.5451 11.9238C13.9536 12.5154 13.0979 12.8676 12.0447 12.8676H9.57134H9.47202L9.38938 12.9227L6.59681 14.7845C6.59649 14.7847 6.59616 14.7849 6.59584 14.7851C6.45951 14.8742 6.29939 14.921 6.14023 14.921C6.00989 14.921 5.87318 14.8882 5.75122 14.8225ZM5.89274 14.5201L6.06151 14.2388L5.89274 14.5201C6.00019 14.5845 6.20313 14.6395 6.40819 14.509L6.40823 14.509L6.41376 14.5054L9.33317 12.5635L9.33346 12.5633C9.36292 12.5436 9.39872 12.5331 9.42703 12.5331H12.0512C12.9696 12.5331 13.7552 12.2344 14.312 11.6776C14.8688 11.1209 15.1674 10.3353 15.1674 9.41687V5.48055C15.1674 4.56215 14.8688 3.77656 14.312 3.21977C13.7552 2.66299 12.9696 2.36432 12.0512 2.36432H5.48418C4.56579 2.36432 3.78019 2.66299 3.22341 3.21977C2.66663 3.77656 2.36796 4.56215 2.36796 5.48055V9.41687C2.36796 10.3353 2.66663 11.1209 3.22341 11.6776C3.78019 12.2344 4.56579 12.5331 5.48418 12.5331C5.572 12.5331 5.64819 12.6093 5.64819 12.6971V14.0945C5.64819 14.3521 5.82261 14.478 5.89274 14.5201Z" fill="#8094AE" stroke="#8094AE" stroke-width="0.656047"/>
<path d="M8.76367 8.22252C8.67586 8.22252 8.59966 8.14632 8.59966 8.0585V7.92076C8.59966 7.34558 9.01113 7.05884 9.22399 6.91249C9.35403 6.82453 9.47311 6.72965 9.55746 6.61212C9.65217 6.48013 9.68868 6.34075 9.68868 6.19535C9.68868 5.6862 9.27289 5.2703 8.76367 5.2703C8.25446 5.2703 7.83866 5.6862 7.83866 6.19535C7.83866 6.28317 7.76247 6.35936 7.67465 6.35936C7.58684 6.35936 7.51064 6.28317 7.51064 6.19535C7.51064 5.50396 8.0723 4.94228 8.76367 4.94228C9.45504 4.94228 10.0167 5.50396 10.0167 6.19535C10.0167 6.7579 9.61035 7.04513 9.40731 7.18271C9.27173 7.27317 9.1475 7.37024 9.06034 7.49199C8.96202 7.62932 8.92768 7.77308 8.92768 7.92076V8.0585C8.92768 8.15004 8.85435 8.22252 8.76367 8.22252Z" fill="#8094AE" stroke="#8094AE" stroke-width="0.656047"/>
<path d="M8.7645 10.1843C8.48896 10.1843 8.27246 9.96121 8.27246 9.69223C8.27246 9.42325 8.49552 9.2002 8.7645 9.2002C9.03348 9.2002 9.25653 9.42325 9.25653 9.69223C9.25653 9.96121 9.04004 10.1843 8.7645 10.1843Z" fill="#8094AE"/>
</svg>
