<svg width="20" height="21" viewBox="0 0 20 21" fill="none" xmlns="http://www.w3.org/2000/svg">
<path d="M10.742 5.40039L4.25866 5.40039C2.83366 5.40039 1.66699 6.56706 1.66699 7.99206L1.66699 17.4587C1.66699 18.6671 2.53366 19.1837 3.59199 18.5921L6.86699 16.7671C7.21699 16.5754 7.78366 16.5754 8.12533 16.7671L11.4003 18.5921C12.467 19.1754 13.3337 18.6671 13.3337 17.4587V7.99206C13.3337 6.56706 12.167 5.40039 10.742 5.40039Z" fill="white"/>
<path d="M18.3329 4.75866V14.2253C18.3329 15.4337 17.4662 15.942 16.4079 15.3587L14.7995 14.4587C14.6662 14.3837 14.5829 14.242 14.5829 14.092V7.99199C14.5829 5.87533 12.8579 4.15033 10.7412 4.15033H7.34954C7.04121 4.15033 6.82454 3.82533 6.96621 3.55866C7.39954 2.73366 8.26621 2.16699 9.25788 2.16699L15.7412 2.16699C17.1662 2.16699 18.3329 3.33366 18.3329 4.75866Z" fill="white"/>
</svg>
