<svg width="17" height="17" viewBox="0 0 17 17" fill="none" xmlns="http://www.w3.org/2000/svg">
<path d="M11.4102 6.67897V14.1317C11.4102 15.0829 10.728 15.4831 9.89477 15.0239L7.31652 13.5871C7.04098 13.4362 6.59485 13.4362 6.31931 13.5871L3.74105 15.0239C2.90787 15.4831 2.22559 15.0829 2.22559 14.1317V6.67897C2.22559 5.55713 3.14404 4.63867 4.26588 4.63867H9.36995C10.4918 4.63867 11.4102 5.55713 11.4102 6.67897Z" stroke="#11002A" stroke-width="0.98407" stroke-linecap="round" stroke-linejoin="round"/>
<path d="M15.3458 4.13307V11.5858C15.3458 12.537 14.6635 12.9372 13.8303 12.478L11.4095 11.1265V6.67853C11.4095 5.55669 10.4911 4.63824 9.36921 4.63824H6.16113V4.13307C6.16113 3.01123 7.07959 2.09277 8.20143 2.09277H13.3055C14.4273 2.09277 15.3458 3.01123 15.3458 4.13307Z" stroke="#11002A" stroke-width="0.98407" stroke-linecap="round" stroke-linejoin="round"/>
<path d="M5.50586 8.65332H8.13005" stroke="#292D32" stroke-width="0.98407" stroke-linecap="round" stroke-linejoin="round"/>
<path d="M6.81738 9.96501V7.34082" stroke="#292D32" stroke-width="0.98407" stroke-linecap="round" stroke-linejoin="round"/>
</svg>
