<svg width="17" height="17" viewBox="0 0 17 17" fill="none" xmlns="http://www.w3.org/2000/svg">
<path d="M11.2623 6.26881V13.7215C11.2623 14.6728 10.58 15.073 9.74683 14.6137L7.16857 13.177C6.89303 13.0261 6.4469 13.0261 6.17136 13.177L3.5931 14.6137C2.75992 15.073 2.07764 14.6728 2.07764 13.7215V6.26881C2.07764 5.14697 2.99609 4.22852 4.11793 4.22852H9.222C10.3438 4.22852 11.2623 5.14697 11.2623 6.26881Z" stroke="#C5CEDA" stroke-width="0.98407" stroke-linecap="round" stroke-linejoin="round"/>
<path d="M15.1988 3.72291V11.1756C15.1988 12.1269 14.5165 12.5271 13.6833 12.0678L11.2625 10.7164V6.26838C11.2625 5.14654 10.3441 4.22808 9.22224 4.22808H6.01416V3.72291C6.01416 2.60107 6.93262 1.68262 8.05446 1.68262H13.1585C14.2804 1.68262 15.1988 2.60107 15.1988 3.72291Z" stroke="#C5CEDA" stroke-width="0.98407" stroke-linecap="round" stroke-linejoin="round"/>
<path d="M5.35791 8.24316H7.9821" stroke="#C5CEDA" stroke-width="0.98407" stroke-linecap="round" stroke-linejoin="round"/>
<path d="M6.66992 9.55485V6.93066" stroke="#C5CEDA" stroke-width="0.98407" stroke-linecap="round" stroke-linejoin="round"/>
</svg>
