<svg width="16" height="17" viewBox="0 0 16 17" fill="none" xmlns="http://www.w3.org/2000/svg">
<path d="M1.64525 7.12663C1.38487 7.12663 1.16895 6.91071 1.16895 6.65033V5.06265C1.16895 3.22094 2.66772 1.72852 4.50308 1.72852H6.09076C6.35114 1.72852 6.56706 1.94444 6.56706 2.20482C6.56706 2.4652 6.35114 2.68112 6.09076 2.68112H4.50308C3.18848 2.68112 2.12155 3.74805 2.12155 5.06265V6.65033C2.12155 6.91071 1.90563 7.12663 1.64525 7.12663Z" fill="#6200EE"/>
<path d="M14.3466 7.12663C14.0862 7.12663 13.8703 6.91071 13.8703 6.65033V5.06265C13.8703 3.74805 12.8034 2.68112 11.4888 2.68112H9.90111C9.64073 2.68112 9.4248 2.4652 9.4248 2.20482C9.4248 1.94444 9.64073 1.72852 9.90111 1.72852H11.4888C13.3242 1.72852 14.8229 3.22094 14.8229 5.06265V6.65033C14.8229 6.91071 14.607 7.12663 14.3466 7.12663Z" fill="#6200EE"/>
<path d="M11.4885 15.3841H10.5359C10.2755 15.3841 10.0596 15.1682 10.0596 14.9078C10.0596 14.6475 10.2755 14.4315 10.5359 14.4315H11.4885C12.8031 14.4315 13.87 13.3646 13.87 12.05V11.0974C13.87 10.837 14.0859 10.6211 14.3463 10.6211C14.6067 10.6211 14.8226 10.837 14.8226 11.0974V12.05C14.8226 13.8917 13.3238 15.3841 11.4885 15.3841Z" fill="#6200EE"/>
<path d="M6.09076 15.3825H4.50308C2.66772 15.3825 1.16895 13.8901 1.16895 12.0484V10.4607C1.16895 10.2003 1.38487 9.98438 1.64525 9.98438C1.90563 9.98438 2.12155 10.2003 2.12155 10.4607V12.0484C2.12155 13.363 3.18848 14.4299 4.50308 14.4299H6.09076C6.35114 14.4299 6.56706 14.6458 6.56706 14.9062C6.56706 15.1666 6.35114 15.3825 6.09076 15.3825Z" fill="#6200EE"/>
<path d="M6.09066 8.07915H4.82052C3.92506 8.07915 3.3916 7.54568 3.3916 6.65023V5.38009C3.3916 4.48463 3.92506 3.95117 4.82052 3.95117H6.09066C6.98611 3.95117 7.51958 4.48463 7.51958 5.38009V6.65023C7.51958 7.54568 6.98611 8.07915 6.09066 8.07915ZM4.82052 4.90378C4.44582 4.90378 4.34421 5.00539 4.34421 5.38009V6.65023C4.34421 7.02492 4.44582 7.12654 4.82052 7.12654H6.09066C6.46535 7.12654 6.56697 7.02492 6.56697 6.65023V5.38009C6.56697 5.00539 6.46535 4.90378 6.09066 4.90378H4.82052Z" fill="#6200EE"/>
<path d="M11.1717 8.07915H9.90157C9.00612 8.07915 8.47266 7.54568 8.47266 6.65023V5.38009C8.47266 4.48463 9.00612 3.95117 9.90157 3.95117H11.1717C12.0672 3.95117 12.6006 4.48463 12.6006 5.38009V6.65023C12.6006 7.54568 12.0672 8.07915 11.1717 8.07915ZM9.90157 4.90378C9.52688 4.90378 9.42527 5.00539 9.42527 5.38009V6.65023C9.42527 7.02492 9.52688 7.12654 9.90157 7.12654H11.1717C11.5464 7.12654 11.648 7.02492 11.648 6.65023V5.38009C11.648 5.00539 11.5464 4.90378 11.1717 4.90378H9.90157Z" fill="#6200EE"/>
<path d="M6.09066 13.1612H4.82052C3.92506 13.1612 3.3916 12.6277 3.3916 11.7323V10.4621C3.3916 9.56666 3.92506 9.0332 4.82052 9.0332H6.09066C6.98611 9.0332 7.51958 9.56666 7.51958 10.4621V11.7323C7.51958 12.6277 6.98611 13.1612 6.09066 13.1612ZM4.82052 9.98581C4.44582 9.98581 4.34421 10.0874 4.34421 10.4621V11.7323C4.34421 12.107 4.44582 12.2086 4.82052 12.2086H6.09066C6.46535 12.2086 6.56697 12.107 6.56697 11.7323V10.4621C6.56697 10.0874 6.46535 9.98581 6.09066 9.98581H4.82052Z" fill="#6200EE"/>
<path d="M11.1717 13.1612H9.90157C9.00612 13.1612 8.47266 12.6277 8.47266 11.7323V10.4621C8.47266 9.56666 9.00612 9.0332 9.90157 9.0332H11.1717C12.0672 9.0332 12.6006 9.56666 12.6006 10.4621V11.7323C12.6006 12.6277 12.0672 13.1612 11.1717 13.1612ZM9.90157 9.98581C9.52688 9.98581 9.42527 10.0874 9.42527 10.4621V11.7323C9.42527 12.107 9.52688 12.2086 9.90157 12.2086H11.1717C11.5464 12.2086 11.648 12.107 11.648 11.7323V10.4621C11.648 10.0874 11.5464 9.98581 11.1717 9.98581H9.90157Z" fill="#6200EE"/>
</svg>
