<svg width="16" height="16" viewBox="0 0 16 16" fill="none" xmlns="http://www.w3.org/2000/svg">
<path d="M11.1713 13.993H4.82061C2.5026 13.993 1.16895 12.6593 1.16895 10.3413V5.89581C1.16895 3.57779 2.5026 2.24414 4.82061 2.24414H11.1713C13.4894 2.24414 14.823 3.57779 14.823 5.89581V10.3413C14.823 12.6593 13.4894 13.993 11.1713 13.993ZM4.82061 3.19675C3.00431 3.19675 2.12155 4.0795 2.12155 5.89581V10.3413C2.12155 12.1576 3.00431 13.0404 4.82061 13.0404H11.1713C12.9877 13.0404 13.8704 12.1576 13.8704 10.3413V5.89581C13.8704 4.0795 12.9877 3.19675 11.1713 3.19675H4.82061Z" fill="#07962F"/>
<path d="M7.99616 8.67211C7.4627 8.67211 6.92289 8.507 6.51009 8.17041L4.52231 6.58272C4.31909 6.41761 4.28099 6.11912 4.44611 5.9159C4.61123 5.71267 4.90971 5.67457 5.11294 5.83969L7.10071 7.42737C7.58336 7.81477 8.4026 7.81477 8.88526 7.42737L10.873 5.83969C11.0763 5.67457 11.3811 5.70632 11.5399 5.9159C11.705 6.11912 11.6732 6.42396 11.4637 6.58272L9.47588 8.17041C9.06944 8.507 8.52962 8.67211 7.99616 8.67211Z" fill="#07962F"/>
</svg>
