<svg width="32" height="32" viewBox="0 0 32 32" fill="none" xmlns="http://www.w3.org/2000/svg">
<rect width="32" height="32" rx="8" fill="#F3EBFE"/>
<path d="M22.4004 16.5951V21.0077H19.8174V16.8642C19.8174 15.8418 19.4408 15.1422 18.526 15.1422C17.8264 15.1422 17.3959 15.6265 17.2345 16.057C17.1807 16.2184 17.1268 16.4337 17.1268 16.7027V21.0077H14.5439C14.5439 21.0077 14.5977 14.0122 14.5439 13.3126H17.1268V14.3888C17.4497 13.8507 18.0955 13.0974 19.4407 13.0974C21.1089 13.0974 22.4004 14.2274 22.4004 16.5951ZM11.8533 9.59961C10.9923 9.59961 10.4004 10.1915 10.4004 10.9449C10.4004 11.6983 10.9385 12.2902 11.7995 12.2902C12.7143 12.2902 13.2524 11.6983 13.2524 10.9449C13.3062 10.1377 12.7681 9.59961 11.8533 9.59961ZM10.5618 21.0077H13.1448V13.3126H10.5618V21.0077Z" fill="#6200EE"/>
</svg>
