<svg width="20" height="21" viewBox="0 0 20 21" fill="none" xmlns="http://www.w3.org/2000/svg">
<path d="M4.78313 13.8337C4.8748 13.4253 4.70813 12.842 4.41647 12.5503L2.39147 10.5253C1.75813 9.89199 1.50813 9.21699 1.69147 8.63366C1.88313 8.05033 2.4748 7.65033 3.35813 7.50033L5.95813 7.06699C6.33313 7.00033 6.79147 6.66699 6.96647 6.32533L8.3998 3.45033C8.81647 2.62533 9.38313 2.16699 9.9998 2.16699C10.6165 2.16699 11.1831 2.62533 11.5998 3.45033L13.0331 6.32533C13.1415 6.54199 13.3665 6.75033 13.6081 6.89199L4.63313 15.867C4.51647 15.9837 4.31647 15.8753 4.3498 15.7087L4.78313 13.8337Z" fill="white"/>
<path d="M15.583 12.5496C15.283 12.8496 15.1163 13.4246 15.2163 13.8329L15.7913 16.3413C16.033 17.3829 15.883 18.1663 15.3663 18.5413C15.158 18.6913 14.908 18.7663 14.6163 18.7663C14.1913 18.7663 13.6913 18.6079 13.1413 18.2829L10.6997 16.8329C10.3163 16.6079 9.68301 16.6079 9.29967 16.8329L6.85801 18.2829C5.93301 18.8246 5.14134 18.9163 4.63301 18.5413C4.44134 18.3996 4.29967 18.2079 4.20801 17.9579L14.3413 7.82459C14.7247 7.44126 15.2663 7.26626 15.7913 7.35792L16.633 7.49959C17.5163 7.64959 18.108 8.04959 18.2997 8.63292C18.483 9.21626 18.233 9.89126 17.5997 10.5246L15.583 12.5496Z" fill="white"/>
</svg>
