<svg width="20" height="21" viewBox="0 0 20 21" fill="none" xmlns="http://www.w3.org/2000/svg">
<path d="M6.9082 5.74199C6.5582 5.74199 6.2832 5.45866 6.2832 5.11699V2.79199C6.2832 2.45033 6.5582 2.16699 6.9082 2.16699C7.2582 2.16699 7.5332 2.45033 7.5332 2.79199V5.10866C7.5332 5.45866 7.2582 5.74199 6.9082 5.74199Z" fill="white"/>
<path d="M13.0918 5.74199C12.7418 5.74199 12.4668 5.45866 12.4668 5.11699V2.79199C12.4668 2.44199 12.7501 2.16699 13.0918 2.16699C13.4418 2.16699 13.7168 2.45033 13.7168 2.79199V5.10866C13.7168 5.45866 13.4418 5.74199 13.0918 5.74199Z" fill="white"/>
<path d="M17.9162 13.6837C17.9162 13.8087 17.8745 13.9337 17.7662 14.0421C16.5579 15.2587 14.4079 17.4254 13.1745 18.6671C13.0662 18.7837 12.9245 18.8337 12.7829 18.8337C12.5079 18.8337 12.2412 18.6171 12.2412 18.3004V15.3837C12.2412 14.1671 13.2745 13.1587 14.5412 13.1587C15.3329 13.1504 16.4329 13.1504 17.3745 13.1504C17.6995 13.1504 17.9162 13.4087 17.9162 13.6837Z" fill="white"/>
<path d="M17.9162 13.6837C17.9162 13.8087 17.8745 13.9337 17.7662 14.0421C16.5579 15.2587 14.4079 17.4254 13.1745 18.6671C13.0662 18.7837 12.9245 18.8337 12.7829 18.8337C12.5079 18.8337 12.2412 18.6171 12.2412 18.3004V15.3837C12.2412 14.1671 13.2745 13.1587 14.5412 13.1587C15.3329 13.1504 16.4329 13.1504 17.3745 13.1504C17.6995 13.1504 17.9162 13.4087 17.9162 13.6837Z" fill="white"/>
<path d="M16.308 4.25033C15.758 3.84199 14.9663 4.23366 14.9663 4.92533V5.00866C14.9663 5.98366 14.2663 6.88366 13.2913 6.98366C12.1663 7.10033 11.2163 6.21699 11.2163 5.11699V4.25033C11.2163 3.79199 10.8413 3.41699 10.383 3.41699H9.61634C9.15801 3.41699 8.78301 3.79199 8.78301 4.25033V5.00866C8.78301 5.74199 8.39134 6.42533 7.78301 6.75866C7.74967 6.78366 7.71634 6.80033 7.68301 6.81699C7.67467 6.81699 7.67467 6.82533 7.66634 6.82533C7.60801 6.85033 7.54967 6.87533 7.48301 6.90033C7.46634 6.90866 7.44967 6.90866 7.43301 6.91699C7.33301 6.95033 7.22467 6.97533 7.10801 6.98366H7.09967C6.97467 7.00033 6.84134 7.00033 6.71634 6.98366H6.70801C6.59134 6.97533 6.48301 6.95033 6.38301 6.91699C6.29967 6.89199 6.21634 6.85866 6.13301 6.81699C5.48301 6.52533 5.03301 5.87533 5.03301 5.11699V4.92533C5.03301 4.28366 4.34967 3.90033 3.80801 4.17533C3.79967 4.18366 3.79134 4.18366 3.78301 4.19199H3.77467C3.71634 4.23366 3.66634 4.27533 3.60801 4.31699C3.51634 4.39199 3.42467 4.46699 3.34134 4.55033C3.28301 4.60866 3.22467 4.66699 3.17467 4.72533C3.10801 4.79199 3.04967 4.85866 2.99134 4.93366C2.94967 4.98366 2.89967 5.03366 2.86634 5.09199C2.82467 5.14199 2.79134 5.20033 2.75801 5.25033C2.74967 5.25866 2.74134 5.26699 2.73301 5.28366C2.65801 5.39199 2.59134 5.51699 2.53301 5.63366C2.51634 5.65033 2.50801 5.65866 2.50801 5.67533C2.45801 5.77533 2.40801 5.87533 2.37467 5.98366C2.34967 6.02533 2.34134 6.05866 2.32467 6.10033C2.30801 6.13366 2.29967 6.17533 2.28301 6.20866C2.25801 6.29199 2.23301 6.38366 2.20801 6.47533C2.17467 6.59199 2.14967 6.71699 2.13301 6.84199C2.11634 6.93366 2.10801 7.02533 2.09967 7.12533C2.09134 7.24199 2.08301 7.35866 2.08301 7.47533V14.7753C2.08301 17.017 3.89967 18.8337 6.14134 18.8337H10.158C10.6163 18.8337 10.9913 18.4587 10.9913 18.0003V15.3837C10.9913 13.467 12.583 11.9087 14.5413 11.9087C14.983 11.9003 16.058 11.9003 17.083 11.9003C17.5413 11.9003 17.9163 11.5253 17.9163 11.067V7.47533C17.9163 6.15033 17.283 4.99199 16.308 4.25033ZM9.27467 13.7587C9.19967 14.0087 8.96634 14.1837 8.69134 14.1837H5.65801C5.61634 14.1837 5.58301 14.1837 5.54967 14.167C5.24967 14.1253 5.03301 13.867 5.03301 13.5587C5.03301 13.2087 5.30801 12.9253 5.65801 12.9253H8.69134C9.03301 12.9253 9.31634 13.2087 9.31634 13.5587C9.31634 13.6253 9.30801 13.7003 9.27467 13.7587ZM11.5913 10.667C11.5163 10.917 11.283 11.092 11.008 11.092H5.65801C5.61634 11.092 5.58301 11.092 5.54967 11.0753C5.24967 11.0337 5.03301 10.7753 5.03301 10.467C5.03301 10.117 5.30801 9.83366 5.65801 9.83366H11.008C11.358 9.83366 11.633 10.117 11.633 10.467C11.633 10.5337 11.6247 10.6087 11.5913 10.667Z" fill="white"/>
</svg>
