<svg width="20" height="20" viewBox="0 0 20 20" fill="none" xmlns="http://www.w3.org/2000/svg">
<path d="M18.2996 9.71664C17.3079 9.09164 16.1579 8.74998 14.9746 8.74998C11.5246 8.74998 8.72459 11.55 8.72459 15C8.72459 16.1833 9.05792 17.325 9.68292 18.3166C9.29958 18.3083 8.90792 18.2666 8.50792 18.2083C5.08292 17.625 2.32458 14.85 1.75792 11.4166C0.816251 5.70831 5.68292 0.841642 11.3913 1.78331C14.8246 2.34998 17.5996 5.10831 18.1829 8.53331C18.2496 8.93331 18.2913 9.33331 18.2996 9.71664Z" fill="white"/>
<path d="M11.1496 18.2167C10.4163 17.35 9.97461 16.225 9.97461 15C9.97461 12.2417 12.2163 10 14.9746 10C16.1996 10 17.3246 10.4417 18.1913 11.175" fill="white"/>
</svg>
