<svg width="20" height="20" viewBox="0 0 20 20" fill="none" xmlns="http://www.w3.org/2000/svg">
<path d="M14.9 5.10065L3.26666 16.734C2.90833 17.0923 2.30833 17.059 2.01666 16.6507C1.59999 16.0757 1.51666 15.2757 1.94999 14.584L4.24999 10.8923C4.55833 10.4007 4.55833 9.60065 4.24999 9.10898L1.94999 5.41732C1.17499 4.18398 2.06666 2.58398 3.51666 2.58398L13.0583 2.58398C13.625 2.58398 14.325 2.97565 14.625 3.45065L15.0167 4.06732C15.2167 4.40065 15.175 4.82565 14.9 5.10065Z" fill="white"/>
<path d="M18.0252 10.926L13.7086 16.676C13.4086 17.0843 12.7419 17.4176 12.2252 17.4176H6.25855C5.51688 17.4176 5.14188 16.5176 5.66688 15.9926L15.2669 6.40097C15.6419 6.02597 16.2836 6.09264 16.5669 6.55097L18.1086 9.02597C18.4419 9.5593 18.4085 10.4176 18.0252 10.926Z" fill="white"/>
</svg>
