<svg width="20" height="21" viewBox="0 0 20 21" fill="none" xmlns="http://www.w3.org/2000/svg">
<path d="M13.492 2.16699H6.50866C3.47533 2.16699 1.66699 3.97533 1.66699 7.00866L1.66699 13.9837C1.66699 17.0253 3.47533 18.8337 6.50866 18.8337H13.4837C16.517 18.8337 18.3253 17.0253 18.3253 13.992V7.00866C18.3337 3.97533 16.5253 2.16699 13.492 2.16699ZM14.7253 8.18366C14.567 8.49199 14.2003 8.61699 13.8837 8.46699C12.8587 7.95033 11.7503 7.66699 10.6253 7.58366V14.0753C10.6253 14.417 10.342 14.7003 10.0003 14.7003C9.65866 14.7003 9.37533 14.417 9.37533 14.0753V7.58366C8.25033 7.66699 7.14199 7.95033 6.11699 8.46699C6.02533 8.50866 5.92533 8.52533 5.83366 8.52533C5.60866 8.52533 5.38366 8.40033 5.27533 8.18366C5.11699 7.87533 5.24199 7.50033 5.55033 7.34199C8.33366 5.95033 11.6587 5.95033 14.442 7.34199C14.7587 7.50033 14.8837 7.87533 14.7253 8.18366Z" fill="white"/>
</svg>
