<svg width="72" height="50" viewBox="0 0 72 50" fill="none" xmlns="http://www.w3.org/2000/svg">
<path d="M65.9631 32.1178C66.5099 23.5485 67.223 14.8214 67.9777 6.25796C68.0431 5.60868 67.9599 5.93039 67.9956 6.01813C68.0669 6.36324 68.4591 6.43928 68.7325 6.24041C65.1668 10.4461 58.3802 18.3953 54.7671 22.5658C52.5029 25.2039 50.2268 27.8361 47.933 30.4449C47.5526 30.907 40.2906 39.1779 40.2134 39.2832C37.1766 43.407 30.7763 41.6346 30.4198 36.575C30.3663 36.0134 30.2534 34.8962 30.1999 34.3171C29.2669 24.8178 28.8747 15.1138 28.5181 5.56774C28.6072 6.16437 29.3739 7.29913 30.5565 7.23479C31.1626 7.27574 32.0302 6.7376 32.2026 6.3223C32.0124 6.61476 25.8677 15.2191 25.5051 15.7397C17.4409 27.0523 9.22211 38.2654 0.765624 49.3323C0.622999 49.5195 0.355576 49.5546 0.171352 49.4142C-0.000986474 49.2855 -0.0485282 49.0574 0.052498 48.8819C8.46144 33.4631 17.4587 17.9975 26.45 2.8946C28.0486 -0.0125105 32.4344 -0.35762 34.5143 2.32722C35.2571 3.22216 35.5186 4.29259 35.6018 5.39226C36.6656 14.7804 37.6996 24.3265 38.1869 33.7556C38.2226 34.3756 38.282 35.5279 38.3176 36.1538C38.175 34.1065 35.4354 33.1473 34.0329 34.7324C34.336 34.4224 35.1621 33.5977 35.4889 33.2642C42.3171 26.3387 50.7082 17.939 57.6196 11.0953L65.0717 3.772C65.559 3.28065 66.1058 2.72497 66.7951 2.46175C69.2019 1.38548 72.1376 3.31575 71.995 5.90115C72.0425 6.2989 70.961 11.3352 70.8897 11.885C69.5585 18.6702 68.2154 25.4554 66.7416 32.2231C66.6287 32.6852 65.9394 32.5916 65.9631 32.1178Z" fill="white"/>
</svg>
