<svg width="886" height="459" viewBox="0 0 886 459" fill="none" xmlns="http://www.w3.org/2000/svg">
<g opacity="0.05">
<path d="M727.856 453.15C762.831 370.412 799.888 286.72 836.873 204.619C783.666 236.307 696.801 287.702 649.097 315.481C616.731 334.53 584.266 353.476 551.705 372.119C548.619 374.022 514.854 393.445 485.573 410.289C462.622 423.492 442.425 435.11 441.916 435.464C396.4 467.021 338.11 426.165 352.708 372.985C353.331 370.482 354.2 366.932 355.114 363.203C356.373 358.067 357.715 352.591 358.609 349.039C378.499 268.034 402.396 186.91 426.97 106.669C423.306 109.295 419.654 111.911 416.09 114.465C396.897 128.216 380.249 140.143 378.003 141.789C255.831 229.301 132.456 315.246 7.20427 398.847C5.08992 400.263 2.26174 399.676 0.905432 397.583C-0.372897 395.652 -0.032595 393.143 1.61938 391.7C142.045 263.276 288.584 136.455 433.758 13.3346C460.367 -10.8324 505.92 1.16132 517.276 36.0775C521.562 47.8916 520.354 59.8013 517.238 71.3796C496.69 160.716 475.449 251.259 450.507 339.701C537.061 296.686 636.075 248.136 719.18 207.888L820.818 159.141L821.019 159.041C827.659 155.75 835.111 152.058 842.943 151.801C871.132 149.283 893.849 179.488 883.108 205.511C882.496 208.246 870.248 229.039 860.875 244.949C855.684 253.76 851.376 261.074 850.414 262.995C812.556 327.902 774.578 392.767 735.343 456.988C732.54 461.33 725.911 457.928 727.856 453.15ZM842.263 192.664C843.683 189.361 842.24 191.671 842.278 192.545C842.273 192.585 842.268 192.624 842.263 192.664ZM476.767 70.9196C477.933 70.3108 478.894 69.621 479.548 68.882C479.285 69.0879 478.317 69.7964 476.767 70.9196ZM398.379 365.61C397.527 365.979 396.681 366.401 395.842 366.878C396.52 366.536 397.385 366.104 398.379 365.61Z" fill="white"/>
<path d="M727.856 453.15C762.831 370.412 799.888 286.72 836.873 204.619C783.666 236.307 696.801 287.702 649.097 315.481C616.731 334.53 584.266 353.476 551.705 372.119C548.619 374.022 514.854 393.445 485.573 410.289C462.622 423.492 442.425 435.11 441.916 435.464C396.4 467.021 338.11 426.165 352.708 372.985C353.331 370.482 354.2 366.932 355.114 363.203C356.373 358.067 357.715 352.591 358.609 349.039C378.499 268.034 402.396 186.91 426.97 106.669C423.306 109.295 419.654 111.911 416.09 114.465C396.897 128.216 380.249 140.143 378.003 141.789C255.831 229.301 132.456 315.246 7.20427 398.847C5.08992 400.263 2.26174 399.676 0.905432 397.583C-0.372897 395.652 -0.032595 393.143 1.61938 391.7C142.045 263.276 288.584 136.455 433.758 13.3346C460.367 -10.8324 505.92 1.16132 517.276 36.0775C521.562 47.8916 520.354 59.8013 517.238 71.3796C496.69 160.716 475.449 251.259 450.507 339.701C537.061 296.686 636.075 248.136 719.18 207.888L820.818 159.141L821.019 159.041C827.659 155.75 835.111 152.058 842.943 151.801C871.132 149.283 893.849 179.488 883.108 205.511C882.496 208.246 870.248 229.039 860.875 244.949C855.684 253.76 851.376 261.074 850.414 262.995C812.556 327.902 774.578 392.767 735.343 456.988C732.54 461.33 725.911 457.928 727.856 453.15ZM842.263 192.664C843.683 189.361 842.24 191.671 842.278 192.545C842.273 192.585 842.268 192.624 842.263 192.664ZM476.767 70.9196C477.933 70.3108 478.894 69.621 479.548 68.882C479.285 69.0879 478.317 69.7964 476.767 70.9196ZM398.379 365.61C397.527 365.979 396.681 366.401 395.842 366.878C396.52 366.536 397.385 366.104 398.379 365.61Z" stroke="white"/>
</g>
</svg>
