<svg width="26" height="18" viewBox="0 0 26 18" fill="none" xmlns="http://www.w3.org/2000/svg">
<path d="M22.8133 11.0607L22.8133 11.0596C22.9833 8.35255 23.2015 5.59923 23.4342 2.88801C22.1876 4.37805 20.2926 6.63103 19.226 7.88182C18.4709 8.77567 17.7117 9.66766 16.9465 10.5518C16.8772 10.6369 16.2412 11.3753 15.6202 12.0958C15.5442 12.184 15.4684 12.2719 15.3939 12.3584C15.162 12.6275 14.942 12.8826 14.7659 13.0871C14.6496 13.2222 14.5524 13.3352 14.4835 13.4155L14.4026 13.5101C14.3916 13.523 14.3843 13.5316 14.38 13.5367C14.376 13.5415 14.3745 13.5432 14.375 13.5426L14.3749 13.5427C13.3169 15.0023 11.0813 14.3763 10.956 12.5824C10.9486 12.503 10.9377 12.3903 10.9261 12.2718C10.9102 12.1074 10.8931 11.9318 10.8828 11.8181C10.6403 9.30993 10.5073 6.76001 10.4041 4.22728C10.3671 4.28 10.3304 4.33232 10.2942 4.38403C9.87662 4.97926 9.51698 5.49195 9.46945 5.56129L9.46893 5.56205C6.77826 9.39678 4.03593 13.198 1.21418 16.9497L22.8133 11.0607ZM22.8133 11.0607C22.8068 11.1913 22.9012 11.2714 22.9984 11.2848C23.0955 11.2982 23.208 11.2468 23.2385 11.1202L23.2389 11.1181C23.7308 8.82344 24.179 6.52297 24.623 4.22327L24.6232 4.2233L24.6239 4.21798C24.632 4.15459 24.682 3.90156 24.7431 3.59213C24.7683 3.46458 24.7954 3.32744 24.8223 3.19006C24.8679 2.95656 24.9124 2.72407 24.9445 2.54133C24.9605 2.45005 24.9736 2.37047 24.9822 2.30909C24.9865 2.27847 24.9898 2.25158 24.9917 2.22964C24.9932 2.21304 24.9944 2.1944 24.9935 2.17813C25.0401 1.24072 23.9986 0.548943 23.1421 0.936117C22.8983 1.03143 22.707 1.22751 22.5496 1.38877L22.5404 1.3982L22.5397 1.39896L20.0543 3.8803L20.0541 3.88052C18.0675 5.87908 15.7145 8.26908 13.6442 10.3938M22.8133 11.0607L13.6442 10.3938M13.6442 10.3938C13.4641 7.59509 13.1618 4.77577 12.8521 1.99897C12.8236 1.61898 12.7338 1.23748 12.4716 0.915909C11.7411 -0.0403708 10.2052 0.0810674 9.64227 1.119C6.64286 6.23764 3.64115 11.4797 0.835539 16.7063C0.781212 16.8032 0.808334 16.9258 0.897735 16.9938C0.897831 16.9939 0.897926 16.9939 0.898022 16.994L13.6442 10.3938Z" fill="url(#paint0_linear_18_3956)" stroke="url(#paint1_linear_18_3956)" stroke-width="0.167915"/>
<defs>
<linearGradient id="paint0_linear_18_3956" x1="1.73455" y1="7.99998" x2="27.5248" y2="1.76004" gradientUnits="userSpaceOnUse">
<stop stop-color="#00DDD0"/>
<stop offset="1" stop-color="#6100DD"/>
</linearGradient>
<linearGradient id="paint1_linear_18_3956" x1="1.73455" y1="7.99998" x2="27.5248" y2="1.76004" gradientUnits="userSpaceOnUse">
<stop stop-color="#00DDD0"/>
<stop offset="1" stop-color="#6100DD"/>
</linearGradient>
</defs>
</svg>
