<svg width="42" height="29" viewBox="0 0 42 29" fill="none" xmlns="http://www.w3.org/2000/svg">
<path d="M37.5938 18.6544L37.5939 18.6525C37.8822 14.0625 38.2521 9.39404 38.6467 4.79693C36.5331 7.32334 33.32 11.1433 31.5115 13.2642C30.2311 14.7798 28.9438 16.2923 27.6463 17.7915C27.5287 17.936 26.4504 19.1878 25.3974 20.4095C25.2688 20.5588 25.1404 20.7077 25.0141 20.8542C24.6207 21.3107 24.2476 21.7435 23.9489 22.0904C23.7516 22.3195 23.5868 22.5111 23.47 22.6473C23.4115 22.7154 23.3652 22.7695 23.3328 22.8075C23.3142 22.8294 23.3018 22.844 23.2945 22.8527C23.2877 22.8608 23.2852 22.8637 23.286 22.8626L23.2859 22.8628C21.492 25.3377 17.7013 24.2763 17.4889 21.2345C17.4763 21.1 17.4578 20.909 17.4382 20.708C17.4112 20.4293 17.3822 20.1315 17.3647 19.9387C17.3647 19.9385 17.3647 19.9384 17.3647 19.9383L17.5064 19.9254L37.5938 18.6544ZM37.5938 18.6544C37.5829 18.8758 37.7429 19.0117 37.9078 19.0344C38.0724 19.0571 38.2631 18.97 38.3148 18.7552L38.3148 18.7552L38.3155 18.7518C39.1495 14.8609 39.9095 10.9603 40.6625 7.06098L40.6627 7.06103L40.6639 7.05201C40.6776 6.94452 40.7624 6.51536 40.8661 5.99059C40.9088 5.77439 40.9548 5.54195 41.0002 5.30909C41.0776 4.91317 41.153 4.51896 41.2075 4.20912C41.2347 4.05434 41.2568 3.9194 41.2714 3.81534C41.2787 3.76341 41.2843 3.71781 41.2876 3.68061C41.2901 3.65247 41.2922 3.62087 41.2906 3.59328C41.3695 2.00382 39.6036 0.83085 38.1514 1.48734C37.738 1.64895 37.4136 1.98142 37.1468 2.25485L37.1312 2.27083L37.1299 2.27213L32.9159 6.47944L32.9155 6.47982C29.547 9.86854 25.5573 13.921 22.0468 17.5237M37.5938 18.6544L22.0468 17.5237M22.0468 17.5237C21.7415 12.7782 21.2289 7.99781 20.7038 3.28953C20.6556 2.64521 20.5033 1.99833 20.0587 1.45306C18.8201 -0.168373 16.2159 0.0375363 15.2613 1.79743C10.1756 10.4765 5.08592 19.3649 0.328769 28.2269C0.236555 28.3915 0.282739 28.5995 0.434715 28.7148L22.0468 17.5237ZM16.3667 7.33351C16.4282 7.24586 16.4904 7.15715 16.5531 7.06778L0.970791 28.6398C5.7553 22.2784 10.4052 15.8331 14.9674 9.33099L14.9683 9.3297C15.0489 9.21212 15.6587 8.34279 16.3667 7.33351Z" fill="white" stroke="white" stroke-width="0.284715"/>
</svg>
