<svg width="18" height="12" viewBox="0 0 18 12" fill="none" xmlns="http://www.w3.org/2000/svg">
<path fill-rule="evenodd" clip-rule="evenodd" d="M2.01019 11.6455C1.69638 11.5526 1.41005 11.3874 1.17536 11.1639C0.940675 10.9403 0.764517 10.665 0.661753 10.361C0.0745322 8.78989 -0.0994596 2.22954 1.03148 0.934459C1.40788 0.513159 1.93931 0.253775 2.51041 0.212607C5.54439 -0.105856 14.9182 -0.0633941 15.9947 0.318762C16.2976 0.414658 16.5742 0.576205 16.8039 0.791298C17.0337 1.00639 17.2106 1.26945 17.3214 1.56077C17.963 3.18494 17.9848 9.08713 17.2344 10.6476C17.0354 11.0538 16.7022 11.3828 16.2884 11.5818C15.1574 12.1338 3.51086 12.1231 2.01019 11.6455ZM6.82757 8.56697L12.2648 5.80695L6.82757 3.0257V8.56697Z" fill="#6200EE"/>
</svg>
