<svg width="36" height="25" viewBox="0 0 36 25" fill="none" xmlns="http://www.w3.org/2000/svg">
<path d="M31.8532 15.8396L31.8533 15.838C32.0949 11.9902 32.405 8.07658 32.7358 4.22279C30.964 6.34068 28.2705 9.54297 26.7544 11.3209C25.681 12.5915 24.6018 13.8595 23.5141 15.1163C23.4155 15.2374 22.5115 16.2868 21.6289 17.3109C21.5216 17.4354 21.4145 17.5596 21.3092 17.6818C20.9788 18.0651 20.6654 18.4287 20.4146 18.72C20.2492 18.912 20.111 19.0727 20.0131 19.1868L19.8981 19.3212C19.8825 19.3395 19.8722 19.3517 19.866 19.359C19.8604 19.3656 19.8583 19.3682 19.8588 19.3674L19.8587 19.3675C18.3549 21.4422 15.1772 20.5525 14.9991 18.0025C14.9886 17.8897 14.973 17.7296 14.9566 17.561C14.9339 17.3274 14.9097 17.0778 14.895 16.9162C14.895 16.9161 14.895 16.916 14.895 16.9158L15.0138 16.905L31.8532 15.8396ZM31.8532 15.8396C31.844 16.0252 31.9782 16.1391 32.1164 16.1581C32.2544 16.1771 32.4142 16.1042 32.4576 15.9241L32.4576 15.9241L32.4582 15.9212C33.1574 12.6595 33.7944 9.38959 34.4256 6.12075L34.4259 6.1208L34.4268 6.11324C34.4383 6.02313 34.5094 5.6634 34.5963 5.22352C34.6322 5.04225 34.6707 4.84737 34.7088 4.65214C34.7736 4.32024 34.8369 3.98976 34.8825 3.73002C34.9053 3.60027 34.9239 3.48716 34.9361 3.39991C34.9422 3.35638 34.9469 3.31816 34.9497 3.28697C34.9518 3.26339 34.9535 3.23689 34.9522 3.21375C35.0184 1.88131 33.538 0.898003 32.3206 1.44834C31.974 1.58382 31.7021 1.86253 31.4784 2.09175L31.4654 2.10515L31.4643 2.10624L27.9316 5.63325L27.9313 5.63357C25.1075 8.47435 21.7629 11.8715 18.8201 14.8917M31.8532 15.8396L18.8201 14.8917M18.8201 14.8917C18.5641 10.9135 18.1344 6.90611 17.6942 2.95913C17.6537 2.419 17.5261 1.87673 17.1534 1.41963C16.1151 0.0603456 13.9319 0.232955 13.1317 1.70829C8.8683 8.98401 4.60162 16.4352 0.613671 23.8643C0.536367 24.0023 0.575084 24.1767 0.702485 24.2733L18.8201 14.8917ZM14.0582 6.34946C14.1098 6.2759 14.162 6.20145 14.2146 6.12646L1.15188 24.2104C5.16276 18.8776 9.06077 13.4745 12.8853 8.02372L12.8861 8.02264C12.9536 7.92408 13.4647 7.19544 14.0582 6.34946Z" fill="white" stroke="white" stroke-width="0.238678"/>
</svg>
