<svg width="1700" height="1156" viewBox="0 0 1700 1156" fill="none" xmlns="http://www.w3.org/2000/svg">
<path opacity="0.5" d="M1557.46 745.922C1570.37 543.757 1587.21 337.867 1605.03 135.841C1606.57 120.523 1604.61 128.113 1605.45 130.183C1607.13 138.325 1616.4 140.119 1622.85 135.427C1538.66 234.646 1378.42 422.183 1293.11 520.574C1239.65 582.81 1185.91 644.908 1131.75 706.455C1122.77 717.356 951.306 912.483 949.482 914.967C877.782 1012.25 726.663 970.441 718.245 851.074C716.982 837.827 714.316 811.47 713.053 797.808C691.024 573.702 681.763 344.767 673.344 119.557C675.449 133.633 693.549 160.404 721.472 158.886C735.784 159.852 756.27 147.156 760.339 137.359C755.849 144.258 610.764 347.251 602.205 359.532C411.799 626.417 217.744 890.955 18.0772 1152.04C14.7097 1156.46 8.39555 1157.29 4.04582 1153.98C-0.0232918 1150.94 -1.1458 1145.56 1.23954 1141.42C199.784 777.661 412.219 412.799 624.515 56.493C662.259 -12.0911 765.811 -20.2328 814.921 43.1074C832.46 64.2208 838.634 89.4741 840.598 115.417C865.715 336.901 890.129 562.111 901.635 784.56C902.477 799.188 903.88 826.373 904.722 841.139C901.354 792.84 836.67 770.209 803.556 807.606C810.712 800.292 830.215 780.834 837.932 772.969C999.153 609.581 1197.28 411.419 1360.46 249.964L1536.42 77.1924C1547.92 65.6007 1560.83 52.4911 1577.11 46.2813C1633.93 20.89 1703.25 66.4287 1699.88 127.423C1701 136.807 1675.47 255.621 1673.78 268.593C1642.35 428.668 1610.64 588.744 1575.84 748.405C1573.18 759.307 1556.9 757.099 1557.46 745.922Z" fill="url(#paint0_linear_1_11421)"/>
<defs>
<linearGradient id="paint0_linear_1_11421" x1="59.6606" y1="532.586" x2="1881.58" y2="84.369" gradientUnits="userSpaceOnUse">
<stop stop-color="#00DDD0"/>
<stop offset="1" stop-color="#6100DD"/>
</linearGradient>
</defs>
</svg>
