<svg width="318" height="318" viewBox="0 0 318 318" fill="none" xmlns="http://www.w3.org/2000/svg">
<path d="M244.077 59.7793L226.381 77.3885C226.016 77.7382 224.862 78.2152 224.358 78.2239H185.086V87.5403H224.358C227.319 87.5403 230.852 86.082 232.951 83.9939L251.427 65.6083C248.407 64.4766 245.84 62.4171 244.077 59.7793Z" fill="#004777"/>
<path d="M231.242 276.556L219.196 264.57C217.098 262.482 213.565 261.023 210.604 261.023H185.086V270.34H210.602C211.108 270.349 212.262 270.825 212.625 271.174L224.181 282.674C225.828 279.968 228.298 277.814 231.242 276.556Z" fill="#004777"/>
<path d="M226.323 231.465C226.323 229.841 226.582 228.276 227.059 226.807H185.086V236.123H227.058C226.582 234.654 226.323 233.089 226.323 231.465Z" fill="#004777"/>
<path d="M234.286 190.945C234.286 189.321 234.545 187.756 235.022 186.287H185.086V195.604H235.021C234.545 194.134 234.286 192.569 234.286 190.945Z" fill="#004777"/>
<path d="M198.75 147.723C198.75 146.098 199.01 144.533 199.486 143.064H185.086V152.381H199.486C199.01 150.911 198.75 149.347 198.75 147.723Z" fill="#004777"/>
<path d="M282.383 147.356L245.258 110.414C243.159 108.326 239.626 106.867 236.665 106.867H185.086V116.184H236.663C237.168 116.192 238.323 116.669 238.686 117.018L275.787 153.936C277.244 151.118 279.556 148.811 282.383 147.356Z" fill="#004777"/>
<path d="M196.642 42.7305C196.642 41.1057 196.902 39.5412 197.378 38.0723H185.086V47.3887H197.378C196.902 45.9198 196.642 44.3552 196.642 42.7305Z" fill="#004777"/>
<path d="M211.9 58.5541C203.144 58.5541 196.021 51.4556 196.021 42.7299C196.021 34.0047 203.145 26.9062 211.9 26.9062C220.656 26.9062 227.779 34.0047 227.779 42.7299C227.779 51.4562 220.656 58.5541 211.9 58.5541Z" fill="#00DDD0"/>
<path d="M117.368 26.5369C115.487 26.2244 113.559 26.0543 111.59 26.0543C92.3072 26.0543 76.6755 41.6089 76.6755 60.7964C76.6755 62.4858 76.8028 64.1447 77.037 65.7695C73.685 64.7049 70.1143 64.1242 66.407 64.1242C47.1245 64.1242 31.4934 79.6789 31.4934 98.8663C31.4934 104.567 32.8822 109.942 35.3281 114.689C18.9995 122.666 7.75586 139.368 7.75586 158.69C7.75586 178.086 19.0852 194.848 35.5169 202.787C32.9511 207.623 31.4928 213.13 31.4928 218.978C31.4928 238.165 47.1239 253.719 66.4064 253.719C70.0988 253.719 73.6545 253.144 76.9941 252.088C76.791 253.609 76.6749 255.157 76.6749 256.733C76.6749 275.921 92.3066 291.476 111.589 291.476C113.575 291.476 115.52 291.302 117.415 290.984C121.859 303.812 134.089 313.031 148.489 313.031C166.643 313.031 181.36 298.388 181.36 280.323V37.0557C181.36 18.9912 166.643 4.34766 148.489 4.34766C134.036 4.34766 121.771 13.6349 117.368 26.5369Z" fill="#6200EE"/>
<g opacity="0.1">
<path d="M17.0719 169.869C17.0719 152.233 26.9697 136.442 42.9014 128.658C43.6523 128.292 44.223 127.638 44.4864 126.846C44.7491 126.053 44.6814 125.188 44.2988 124.446C41.9834 119.952 40.8095 115.107 40.8095 110.046C40.8095 92.6013 55.0785 78.4094 72.6176 78.4094C75.9131 78.4094 79.1739 78.9143 82.3079 79.9093C82.616 80.0068 82.9333 80.0546 83.2482 80.0546C83.9737 80.0546 84.6873 79.8006 85.2562 79.318C86.0717 78.6274 86.4742 77.5647 86.322 76.507C86.1034 74.9884 85.9922 73.4642 85.9922 71.9767C85.9922 54.532 100.262 40.3394 117.801 40.3394C119.536 40.3394 121.309 40.4879 123.07 40.7804C123.241 40.809 123.412 40.8226 123.58 40.8226C124.889 40.8226 126.083 39.9928 126.518 38.7196C130.617 26.7052 141.943 18.6328 154.7 18.6328C166.187 18.6328 176.169 25.1419 181.129 34.6434C179.737 17.8546 165.612 4.6582 148.38 4.6582C133.927 4.6582 121.661 13.9454 117.259 26.8474C115.378 26.535 113.45 26.3648 111.481 26.3648C92.1982 26.3648 76.5665 41.9195 76.5665 61.1069C76.5665 62.7963 76.6938 64.4552 76.928 66.08C73.5759 65.0155 70.0053 64.4348 66.298 64.4348C47.0155 64.4348 31.3844 79.9894 31.3844 99.1769C31.3844 104.878 32.7732 110.253 35.2191 114.999C18.8905 122.976 7.64746 139.679 7.64746 159C7.64746 174.468 14.8577 188.255 26.1107 197.235C20.3296 189.499 17.0719 179.996 17.0719 169.869Z" fill="#00003F"/>
</g>
<path d="M74.2464 175.273C76.8196 175.273 78.9046 173.188 78.9046 170.615C78.9046 168.042 76.8196 165.957 74.2464 165.957H60.8854C52.3609 165.957 45.4258 159.066 45.4258 150.596C45.4258 148.023 43.3408 145.938 40.7676 145.938C38.1944 145.938 36.1094 148.023 36.1094 150.596C36.1094 164.203 47.2238 175.273 60.8854 175.273H74.2464Z" fill="#4600A9"/>
<path d="M54.3867 224.174C54.3867 226.747 56.4717 228.832 59.0449 228.832C61.6181 228.832 63.7031 226.747 63.7031 224.174C63.7031 216.219 70.2165 209.748 78.2237 209.748H118.018C120.592 209.748 122.677 207.663 122.677 205.09C122.677 202.517 120.592 200.432 118.018 200.432H78.2237C65.0801 200.432 54.3867 211.082 54.3867 224.174Z" fill="#4600A9"/>
<path d="M136.652 209.748H155.974C158.547 209.748 160.632 207.663 160.632 205.09C160.632 202.517 158.547 200.432 155.974 200.432H136.652C134.079 200.432 131.994 202.517 131.994 205.09C131.994 207.663 134.079 209.748 136.652 209.748Z" fill="#4600A9"/>
<path d="M94.2637 138.734C91.6905 138.734 89.6055 140.819 89.6055 143.393C89.6055 145.966 91.6905 148.051 94.2637 148.051C112.799 148.051 127.879 133.035 127.879 114.578C127.879 112.006 125.793 109.92 123.22 109.92C120.647 109.92 118.562 112.006 118.562 114.578C118.562 127.898 107.662 138.734 94.2637 138.734Z" fill="#4600A9"/>
<path d="M114.633 39.4992C103.506 38.785 93.8577 47.2213 93.136 58.3116C92.9689 60.8792 94.9148 63.0952 97.4818 63.2629C97.5849 63.2697 97.6874 63.2728 97.7892 63.2728C100.224 63.2728 102.272 61.381 102.433 58.9171C102.821 52.9496 108.025 48.4175 114.035 48.7964C116.605 48.9678 118.817 47.0151 118.983 44.4475C119.148 41.8799 117.201 39.6645 114.633 39.4992Z" fill="#4600A9"/>
<path d="M98.9678 221.174C96.3946 221.174 94.3096 223.259 94.3096 225.832C94.3096 228.405 96.3946 230.49 98.9678 230.49C106.66 230.49 112.918 236.707 112.918 244.347C112.918 251.989 106.66 258.207 98.9678 258.207C96.3946 258.207 94.3096 260.292 94.3096 262.865C94.3096 265.438 96.3946 267.523 98.9678 267.523C111.797 267.523 122.235 257.127 122.235 244.347C122.235 231.57 111.797 221.174 98.9678 221.174Z" fill="#4600A9"/>
<path d="M146.641 143.056C144.067 143.056 141.982 145.141 141.982 147.715C141.982 150.288 144.067 152.373 146.641 152.373C157.958 152.373 167.164 143.2 167.164 131.927C167.164 120.654 157.958 111.482 146.641 111.482C144.067 111.482 141.982 113.567 141.982 116.141C141.982 118.714 144.067 120.799 146.641 120.799C152.82 120.799 157.848 125.791 157.848 131.927C157.848 138.064 152.82 143.056 146.641 143.056Z" fill="#4600A9"/>
<path d="M64.582 138.769C80.3355 138.769 93.1523 126.005 93.1523 110.316C93.1523 94.6281 80.3355 81.8652 64.582 81.8652C62.0088 81.8652 59.9238 83.9502 59.9238 86.5234C59.9238 89.0966 62.0088 91.1816 64.582 91.1816C75.199 91.1816 83.8359 99.7652 83.8359 110.316C83.8359 120.867 75.199 129.452 64.582 129.452C62.0088 129.452 59.9238 131.537 59.9238 134.11C59.9238 136.683 62.0095 138.769 64.582 138.769Z" fill="#4600A9"/>
<path d="M148.38 0C133.587 0 120.317 8.62202 114.261 21.806C113.33 21.7395 112.402 21.706 111.481 21.706C89.9734 21.706 72.4182 38.8767 71.9195 60.174C70.0624 59.9095 68.1842 59.7759 66.298 59.7759C44.4777 59.7759 26.7262 77.451 26.7262 99.1762C26.7262 103.945 27.5628 108.559 29.2174 112.948C12.9299 122.613 2.98926 139.877 2.98926 159C2.98926 177.896 13.2081 195.54 29.369 205.135C27.6318 209.633 26.7268 214.451 26.7268 219.288C26.7268 241.013 44.4783 258.687 66.2986 258.687C68.1886 258.687 70.0692 258.554 71.9282 258.289C72.5903 279.441 90.079 296.444 111.481 296.444C112.424 296.444 113.375 296.408 114.329 296.339C120.417 309.436 133.661 318 148.38 318C169.073 318 185.909 301.238 185.909 280.634V37.3662C185.909 16.7621 169.074 0 148.38 0ZM176.592 37.8836H167.633C165.06 37.8836 162.975 39.9686 162.975 42.5418C162.975 45.115 165.06 47.2 167.633 47.2H176.592V78.223H138.917C130.392 78.223 123.457 71.3326 123.457 62.8634C123.457 60.2902 121.372 58.2052 118.799 58.2052C116.226 58.2052 114.141 60.2902 114.141 62.8634C114.141 76.4697 125.255 87.5394 138.917 87.5394H176.592V165.956H101.031C98.4582 165.956 96.3732 168.041 96.3732 170.614C96.3732 173.188 98.4582 175.273 101.031 175.273H176.592V239.23H162.198C149.054 239.23 138.362 249.88 138.362 262.972C138.362 265.545 140.447 267.63 143.02 267.63C145.593 267.63 147.678 265.545 147.678 262.972C147.678 255.018 154.191 248.547 162.198 248.547H176.592V280.634C176.592 281.365 176.555 282.088 176.5 282.806H167.633C165.06 282.806 162.975 284.891 162.975 287.464C162.975 290.037 165.06 292.122 167.633 292.122H174.107C169.685 301.875 159.82 308.684 148.38 308.684C138.105 308.684 128.792 303.14 123.849 294.477C129.475 292.639 134.653 289.55 139.016 285.342C140.867 283.555 140.92 280.606 139.134 278.756C137.347 276.903 134.398 276.851 132.548 278.637C128.156 282.873 122.681 285.63 116.766 286.663V286.681C116.689 286.69 113.142 287.128 111.481 287.128C94.7975 287.128 81.2247 273.632 81.2247 257.043C81.2247 256.619 81.2502 256.179 81.2707 255.743C85.0308 254.212 88.5629 252.118 91.7131 249.488C93.6882 247.84 93.9522 244.902 92.3032 242.927C90.6542 240.952 87.7158 240.688 85.7419 242.337C81.9557 245.498 77.4534 247.666 72.6673 248.692V248.694C70.5798 249.141 68.4476 249.371 66.2973 249.371C49.6148 249.371 36.042 235.875 36.042 219.288C36.042 214.346 37.2134 209.633 39.5226 205.28C39.5779 205.175 39.694 204.96 39.694 204.96C42.4337 199.93 46.6068 195.686 51.8501 192.846C54.1127 191.621 54.9531 188.794 53.7276 186.532C52.5028 184.269 49.675 183.428 47.4136 184.655C41.8492 187.669 37.2109 191.896 33.7415 196.899C20.4227 188.886 12.3057 174.719 12.3057 159C12.3057 145.309 18.4849 132.771 28.8994 124.47C29.8118 123.768 30.7379 123.092 31.6763 122.45C38.8512 117.54 47.5366 114.663 56.8853 114.663C59.4585 114.663 61.5435 112.578 61.5435 110.004C61.5435 107.431 59.4585 105.346 56.8853 105.346C50.1178 105.346 43.6398 106.598 37.6674 108.875C36.5966 105.77 36.0439 102.525 36.0439 99.1769C36.0439 82.5881 49.616 69.093 66.2992 69.093C69.4351 69.093 72.5375 69.5731 75.52 70.5202C77.0485 71.0053 78.7186 70.6705 79.9415 69.6333C81.1651 68.5961 81.7682 67.0036 81.5396 65.4161C81.3315 63.9702 81.226 62.5205 81.226 61.1069C81.226 44.5188 94.7987 31.023 111.482 31.023C113.12 31.023 114.795 31.1634 116.461 31.4373C130.782 33.8061 141.737 46.205 141.737 61.1069C141.737 63.6801 143.822 65.7651 146.395 65.7651C148.969 65.7651 151.054 63.6801 151.054 61.1069C151.054 43.653 139.591 28.8231 123.77 23.6643C128.688 14.9181 138.036 9.31641 148.38 9.31641C163.936 9.31641 176.592 21.8998 176.592 37.3662V37.8836Z" fill="#4600A9"/>
<path d="M283.568 113.302C274.812 113.302 267.689 106.204 267.689 97.4779C267.689 88.7528 274.813 81.6543 283.568 81.6543C292.324 81.6543 299.447 88.7528 299.447 97.4779C299.447 106.204 292.324 113.302 283.568 113.302Z" fill="#00DDD0"/>
<path d="M299.133 232.521C290.377 232.521 283.254 225.422 283.254 216.697C283.254 207.972 290.377 200.873 299.133 200.873C307.888 200.873 315.011 207.972 315.011 216.697C315.011 225.423 307.888 232.521 299.133 232.521Z" fill="#00DDD0"/>
<path d="M214.008 163.546C205.252 163.546 198.129 156.448 198.129 147.723C198.129 138.997 205.252 131.898 214.008 131.898C222.764 131.898 229.887 138.997 229.887 147.723C229.887 156.448 222.764 163.546 214.008 163.546Z" fill="#00DDD0"/>
<path d="M241.581 247.287C232.825 247.287 225.702 240.189 225.702 231.463C225.702 222.737 232.825 215.639 241.581 215.639C250.337 215.639 257.46 222.737 257.46 231.463C257.46 240.189 250.337 247.287 241.581 247.287Z" fill="#33C7CA"/>
<path d="M256.783 67.198C248.027 67.198 240.904 60.0995 240.904 51.3738C240.904 42.6486 248.028 35.5508 256.783 35.5508C265.539 35.5508 272.661 42.6493 272.661 51.3738C272.662 60.1001 265.539 67.198 256.783 67.198Z" fill="#33C7CA"/>
<path d="M289.359 176.693C280.603 176.693 273.48 169.594 273.48 160.869C273.48 152.143 280.604 145.045 289.359 145.045C298.116 145.045 305.238 152.143 305.238 160.869C305.238 169.595 298.115 176.693 289.359 176.693Z" fill="#33C7CA"/>
<path d="M278.863 281.145C270.107 281.145 262.984 274.046 262.984 265.32C262.984 256.595 270.108 249.496 278.863 249.496C287.619 249.496 294.742 256.595 294.742 265.32C294.742 274.046 287.619 281.145 278.863 281.145Z" fill="#FFC107"/>
<path d="M249.544 206.768C240.788 206.768 233.665 199.669 233.665 190.943C233.665 182.218 240.788 175.119 249.544 175.119C258.3 175.119 265.423 182.218 265.423 190.943C265.423 199.669 258.3 206.768 249.544 206.768Z" fill="#FFC107"/>
<path d="M237.237 306.357C228.481 306.357 221.358 299.259 221.358 290.533C221.358 281.807 228.482 274.709 237.237 274.709C245.993 274.709 253.116 281.807 253.116 290.533C253.116 299.259 245.993 306.357 237.237 306.357Z" fill="#00DDD0"/>
</svg>
