<svg width="25" height="19" viewBox="0 0 25 19" fill="none" xmlns="http://www.w3.org/2000/svg">
<g clip-path="url(#clip0_1_34094)">
<rect y="0.286133" width="24.75" height="18" rx="2.25" fill="white"/>
<path fill-rule="evenodd" clip-rule="evenodd" d="M0 0.286133H10.6071V8.68613H0V0.286133Z" fill="#1A47B8"/>
<path fill-rule="evenodd" clip-rule="evenodd" d="M10.6071 0.286133V1.48613H24.75V0.286133H10.6071ZM10.6071 2.68613V3.88613H24.75V2.68613H10.6071ZM10.6071 5.08613V6.28613H24.75V5.08613H10.6071ZM10.6071 7.48613V8.68613H24.75V7.48613H10.6071ZM0 9.88613V11.0861H24.75V9.88613H0ZM0 12.2861V13.4861H24.75V12.2861H0ZM0 14.6861V15.8861H24.75V14.6861H0ZM0 17.0861V18.2861H24.75V17.0861H0Z" fill="#F93939"/>
<path fill-rule="evenodd" clip-rule="evenodd" d="M1.17871 1.48633V2.68633H2.35728V1.48633H1.17871ZM3.53585 1.48633V2.68633H4.71443V1.48633H3.53585ZM5.893 1.48633V2.68633H7.07157V1.48633H5.893ZM8.25014 1.48633V2.68633H9.42871V1.48633H8.25014ZM7.07157 2.68633V3.88633H8.25014V2.68633H7.07157ZM4.71443 2.68633V3.88633H5.893V2.68633H4.71443ZM2.35728 2.68633V3.88633H3.53585V2.68633H2.35728ZM1.17871 3.88633V5.08633H2.35728V3.88633H1.17871ZM3.53585 3.88633V5.08633H4.71443V3.88633H3.53585ZM5.893 3.88633V5.08633H7.07157V3.88633H5.893ZM8.25014 3.88633V5.08633H9.42871V3.88633H8.25014ZM1.17871 6.28633V7.48633H2.35728V6.28633H1.17871ZM3.53585 6.28633V7.48633H4.71443V6.28633H3.53585ZM5.893 6.28633V7.48633H7.07157V6.28633H5.893ZM8.25014 6.28633V7.48633H9.42871V6.28633H8.25014ZM7.07157 5.08633V6.28633H8.25014V5.08633H7.07157ZM4.71443 5.08633V6.28633H5.893V5.08633H4.71443ZM2.35728 5.08633V6.28633H3.53585V5.08633H2.35728Z" fill="white"/>
</g>
<defs>
<clipPath id="clip0_1_34094">
<rect y="0.286133" width="24.75" height="18" rx="2.25" fill="white"/>
</clipPath>
</defs>
</svg>
