<svg width="24" height="18" viewBox="0 0 24 18" fill="none" xmlns="http://www.w3.org/2000/svg">
<g clip-path="url(#clip0_1_35262)">
<rect y="0.363281" width="23.75" height="17.2727" rx="2.15909" fill="#F93939"/>
<path d="M21.4881 0.363281H2.2619C1.01269 0.363281 0 1.39438 0 2.66631V15.333C0 16.6049 1.01269 17.636 2.2619 17.636H21.4881C22.7373 17.636 23.75 16.6049 23.75 15.333V2.66631C23.75 1.39438 22.7373 0.363281 21.4881 0.363281Z" fill="#F93939"/>
<path fill-rule="evenodd" clip-rule="evenodd" d="M0 4.9707H23.75V13.0313H0V4.9707Z" fill="#FFDA2C"/>
<path fill-rule="evenodd" clip-rule="evenodd" d="M10.1782 7.52861V10.4304C10.1782 11.2365 9.4182 11.8813 8.48177 11.8813H6.21987C5.2857 11.879 4.52344 11.2307 4.52344 10.4281V7.52631C4.52344 6.86764 5.0301 6.31722 5.72677 6.13873C5.93713 5.53995 6.58403 6.07655 7.35082 6.07655C8.12213 6.07655 8.76451 5.5434 8.97487 6.13988C9.66927 6.32298 10.1782 6.87455 10.1782 7.52861Z" fill="#D4AF2C"/>
<path fill-rule="evenodd" clip-rule="evenodd" d="M10.1783 8.42383H11.3092V11.8784H10.1783V8.42383ZM3.39258 8.42383H4.52353V11.8784H3.39258V8.42383Z" fill="#CBCBCB"/>
<path fill-rule="evenodd" clip-rule="evenodd" d="M10.1783 10.7266H11.3092V11.8781H10.1783V10.7266ZM3.39258 10.7266H4.52353V11.8781H3.39258V10.7266Z" fill="#1A47B8"/>
<path fill-rule="evenodd" clip-rule="evenodd" d="M10.1783 7.27344H11.3092V8.42495H10.1783V7.27344ZM3.39258 7.27344H4.52353V8.42495H3.39258V7.27344Z" fill="#D4AF2C"/>
<path fill-rule="evenodd" clip-rule="evenodd" d="M5.6543 7.27344H6.78525V9.00071H5.6543V7.27344ZM7.9162 9.57647H9.04715V11.3037H7.9162V9.57647Z" fill="#AF010D"/>
<path fill-rule="evenodd" clip-rule="evenodd" d="M7.91699 7.27344H9.04794V9.00071H7.91699V7.27344Z" fill="#AE6A3E"/>
<path fill-rule="evenodd" clip-rule="evenodd" d="M5.6543 9.57617H6.78525V11.3034H5.6543V9.57617Z" fill="#FFDA2C"/>
<path fill-rule="evenodd" clip-rule="evenodd" d="M6.78525 7.27261L5.6543 6.12109H9.04715L7.9162 7.27261H6.78525Z" fill="#AF010D"/>
<path fill-rule="evenodd" clip-rule="evenodd" d="M6.78516 4.9707H7.91611V6.12222H6.78516V4.9707Z" fill="#D4AF2C"/>
</g>
<defs>
<clipPath id="clip0_1_35262">
<rect y="0.363281" width="23.75" height="17.2727" rx="2.15909" fill="white"/>
</clipPath>
</defs>
</svg>
