<svg width="30" height="23" viewBox="0 0 30 23" fill="none" xmlns="http://www.w3.org/2000/svg">
<rect y="0.519531" width="30" height="21.8182" rx="2.72727" fill="#249F58"/>
<path fill-rule="evenodd" clip-rule="evenodd" d="M22.8572 15.0642V13.6096H7.14294L10.0001 15.0642H18.5715C18.5715 15.8671 19.5315 16.5187 20.7144 16.5187C21.8972 16.5187 22.8572 15.8671 22.8572 15.0642ZM12.4715 6.2002C12.4544 6.2002 12.4287 6.20892 12.3958 6.22929C12.3187 6.28165 12.1672 6.4431 12.1615 6.62929C12.1572 6.73547 12.1372 6.73547 12.2044 6.80383C12.2529 6.87365 12.3044 6.86783 12.4015 6.81401C12.4587 6.77038 12.4772 6.74565 12.4972 6.67438C12.5201 6.55801 12.3729 6.73256 12.3544 6.59874C12.3215 6.47656 12.4158 6.4242 12.5044 6.30783C12.5072 6.24965 12.5072 6.20601 12.4715 6.2031V6.2002ZM13.9044 6.20747C13.8758 6.21329 13.8429 6.2511 13.7958 6.33547C13.7629 6.42565 13.6187 6.56238 13.7244 6.84456C13.8072 7.02347 13.8429 7.31292 13.8044 7.63729C13.7444 7.72892 13.7329 7.76092 13.6544 7.85256C13.5458 7.97329 13.4258 7.94274 13.3372 7.8962C13.2515 7.83801 13.1858 7.80892 13.1472 7.62565C13.1544 7.33474 13.1715 6.85183 13.1187 6.75001C13.0415 6.59292 12.9129 6.6482 12.8587 6.6962C12.5972 6.94347 12.4672 7.3551 12.3872 7.68529C12.3158 7.92383 12.2372 7.85401 12.1829 7.75801C12.0501 7.63001 12.0401 6.63801 11.8801 6.80238C11.6229 7.55001 12.0272 8.36892 12.3087 8.28892C12.5087 8.3762 12.6372 7.98347 12.7201 7.55438C12.7772 7.43365 12.8201 7.4191 12.8487 7.48165C12.8415 8.05183 12.8915 8.17983 13.0344 8.35147C13.3544 8.60456 13.6201 8.38347 13.6415 8.3631L13.8915 8.11001C13.9487 8.05183 14.0201 8.04601 14.0987 8.09838C14.1758 8.1711 14.1658 8.29183 14.3272 8.37474C14.4672 8.43292 14.7601 8.38929 14.8272 8.26856C14.9201 8.10856 14.9415 8.05329 14.9844 7.9922C15.0501 7.90492 15.1629 7.9442 15.1629 7.97183C15.1529 8.02274 15.0872 8.07365 15.1315 8.16092C15.2101 8.2191 15.2287 8.18129 15.2744 8.1682C15.4372 8.08965 15.5601 7.72892 15.5601 7.72892C15.5672 7.5951 15.4929 7.60529 15.4458 7.63292C15.3815 7.6722 15.3787 7.68529 15.3172 7.72456C15.2358 7.7362 15.0815 7.79001 15.0058 7.66929C14.9272 7.52383 14.9272 7.3231 14.8672 7.17474C14.8672 7.16601 14.7629 6.94638 14.8587 6.93329C14.9058 6.94201 15.0115 6.96965 15.0272 6.88092C15.0787 6.79365 14.9172 6.54638 14.8072 6.4242C14.7129 6.31801 14.5815 6.30492 14.4544 6.41256C14.3644 6.49692 14.3787 6.59001 14.3601 6.67874C14.3387 6.78056 14.3429 6.9071 14.4458 7.04238C14.5344 7.21983 14.6958 7.44965 14.6415 7.77256C14.6415 7.77256 14.5487 7.92674 14.3844 7.90638C14.3129 7.89183 14.2015 7.86274 14.1415 7.41183C14.0987 7.07292 14.1529 6.59729 14.0129 6.37474C13.9801 6.29183 13.9529 6.21038 13.9072 6.21474L13.9044 6.20747ZM13.4501 6.24529C13.4072 6.24965 13.3601 6.30056 13.3215 6.39801C13.2887 6.47365 13.2472 6.86347 13.2544 6.86347C13.2258 6.97983 13.3729 7.02929 13.4401 6.88092C13.5401 6.60456 13.5401 6.4882 13.5458 6.37474C13.5315 6.28747 13.4929 6.24383 13.4501 6.24674V6.24529ZM15.1258 6.27438C15.0829 6.2802 15.0472 6.30638 15.0344 6.37329C15.0158 6.52747 15.0258 6.61329 15.0515 6.74274C15.0701 6.83001 15.1944 6.97256 15.2544 7.05692C15.5444 7.45401 15.8258 7.85256 16.0944 8.26419C16.1372 8.57256 16.1658 8.8722 16.1872 9.17183C16.2329 9.82638 16.2444 10.6409 16.2058 11.3318C16.3258 11.3362 16.5201 11.1326 16.5872 10.8373C16.6301 10.4242 16.5729 9.58638 16.5672 9.34201L16.5529 8.99583C16.8672 9.51947 17.1701 10.0722 17.4672 10.6773C17.5772 10.6249 17.5529 10.0009 17.4901 9.91365C17.2501 9.39001 16.9187 8.8722 16.8144 8.67292C16.7758 8.6002 16.6458 8.40092 16.4929 8.16965C16.4644 7.83801 16.4329 7.55874 16.4129 7.47438C16.3629 7.12529 16.5529 7.51365 16.5272 7.31147C16.4644 6.96238 16.2758 6.72674 16.0529 6.40674C15.9815 6.30492 15.9815 6.28165 15.8715 6.43292C15.8072 6.58565 15.8072 6.71365 15.8287 6.83292C15.7972 6.78929 15.7615 6.73983 15.7101 6.67583L15.3458 6.36165C15.2958 6.32529 15.1987 6.27001 15.1258 6.27438ZM20.0915 6.3282C20.0701 6.32529 20.0487 6.33547 20.0201 6.37474C19.9701 6.41838 19.9172 6.50129 19.9201 6.60747C19.9301 6.78929 19.9629 6.97692 19.9744 7.1602L19.9887 7.23292C19.9687 7.20965 19.9515 7.18929 19.9415 7.18056C19.5887 6.80238 20.1029 7.11656 19.8729 6.8271C19.6801 6.60892 19.6229 6.54201 19.4587 6.4111C19.3729 6.35874 19.3244 6.25401 19.2972 6.43147C19.2858 6.5871 19.2744 6.76892 19.2829 6.89983C19.2829 6.97256 19.3587 7.11074 19.4229 7.19074C19.6572 7.48601 19.8972 7.79874 20.1372 8.12456C20.1887 8.78929 20.2015 9.39874 20.2515 10.0649C20.2458 10.35 20.1601 10.7282 20.0801 10.7631C20.0801 10.7631 19.9544 10.8358 19.8715 10.7558C19.8101 10.7311 19.5687 10.3442 19.5687 10.3442C19.4444 10.2278 19.3615 10.2613 19.2744 10.3442C19.0315 10.5827 18.9201 11.0307 18.7558 11.3391C18.7129 11.4075 18.5944 11.4671 18.4615 11.3333C18.1229 10.862 18.3187 10.1915 18.2787 10.3646C17.9787 10.7107 18.1101 11.2838 18.1787 11.4075C18.2787 11.6111 18.3587 11.742 18.5501 11.8395C18.7287 11.9704 18.8644 11.8904 18.9415 11.7958C19.1187 11.6096 19.1215 11.1311 19.2044 11.0366C19.2615 10.862 19.4087 10.8911 19.4801 10.9696C19.5515 11.0715 19.6315 11.1369 19.7329 11.1922C19.8987 11.3406 20.0958 11.3667 20.2901 11.2315C20.4229 11.1558 20.5101 11.0569 20.5872 10.862C20.6729 10.6351 20.6301 9.44238 20.6115 8.7791L20.9829 9.32601C21.0344 9.90783 21.0587 10.4824 21.0401 11.0322C21.0287 11.1413 21.4158 10.7064 21.4115 10.4998C21.4115 10.3209 21.4144 10.1566 21.4115 10.0053C21.6015 10.3107 21.7829 10.6206 21.9544 10.9362C22.0615 10.878 22.0258 10.2627 21.9587 10.1798C21.7787 9.87147 21.5472 9.53983 21.3687 9.28092C21.3329 8.95656 21.2858 8.57401 21.2629 8.4562C21.2301 8.27292 21.1958 7.99801 21.1444 7.78129C21.1301 7.69838 21.0872 7.42783 21.1015 7.4031C21.1215 7.34056 21.2015 7.4031 21.2401 7.33329C21.2972 7.26783 21.0372 6.57692 20.9044 6.38201C20.8572 6.29474 20.7701 6.32383 20.6644 6.46929C20.5644 6.56238 20.6015 6.77765 20.6387 6.98274C20.7358 7.50638 20.8244 8.03583 20.8929 8.5682C20.7644 8.37183 20.6072 8.1362 20.4529 7.91074L20.4329 7.80892C20.4329 7.79729 20.4129 7.37983 20.3944 7.28092C20.3901 7.2402 20.3801 7.22856 20.4229 7.23438C20.4658 7.2722 20.4715 7.27365 20.4987 7.28674C20.5444 7.29256 20.5844 7.21692 20.5558 7.14565L20.1415 6.36892C20.1272 6.35001 20.1072 6.33256 20.0844 6.32965L20.0915 6.3282ZM7.27722 6.34274C7.19865 6.33983 7.11579 6.38638 7.14865 6.48092C7.12865 6.53183 7.29722 6.70347 7.32722 6.79801C7.35151 6.86638 7.29865 7.08165 7.35579 7.10347C7.40579 7.12529 7.47579 6.9522 7.50151 6.79365C7.51579 6.70638 7.50579 6.40674 7.30579 6.34565C7.29579 6.34274 7.28579 6.34274 7.27437 6.34129L7.27722 6.34274ZM21.8772 6.34274C21.8587 6.34565 21.8372 6.37183 21.8058 6.44456C21.7272 6.57547 21.7001 6.8082 21.7315 7.01183C21.9172 8.30638 22.0601 9.5602 22.0887 10.7064C22.0715 10.8169 22.0658 10.8751 22.0172 11.0118C21.9058 11.1573 21.7829 11.3376 21.6672 11.4249C21.5529 11.5122 21.3072 11.5966 21.2272 11.6606C20.9701 11.8089 20.9701 11.9806 21.1758 11.9878C21.5301 11.9442 21.9501 11.9151 22.2387 11.4715C22.3158 11.3478 22.4072 11.0104 22.4101 10.8024C22.4387 9.5951 22.3958 8.40965 22.2172 7.53547C22.2058 7.4482 22.1687 7.25474 22.1829 7.23001C22.2044 7.16892 22.3201 7.23438 22.3615 7.16601C22.4229 7.10201 22.0615 6.6322 21.9358 6.43147C21.9101 6.38201 21.8929 6.33983 21.8729 6.3442L21.8772 6.34274ZM18.1587 6.3631C18.1444 6.36601 18.1244 6.38929 18.0844 6.4431C17.9844 6.77183 17.9501 7.03947 17.9887 7.24601C18.2458 8.59874 18.5029 9.82783 18.4629 11.1151C18.5829 11.1151 18.7229 10.8344 18.7829 10.5551C18.8158 10.1696 18.7601 9.93547 18.7515 9.71147C18.7415 9.48456 18.5001 7.65183 18.4515 7.48165C18.3915 7.15874 18.6858 7.43801 18.6544 7.25183C18.5515 7.01329 18.2972 6.67001 18.2201 6.46201C18.1915 6.40674 18.1858 6.35583 18.1629 6.3602L18.1587 6.3631ZM9.11008 6.38929C9.08151 6.3951 9.04865 6.42129 9.03865 6.46201C9.03151 6.4911 9.05008 6.5391 9.02437 6.55365C9.01008 6.5682 8.95579 6.55801 8.95865 6.48092C8.95865 6.45474 8.94008 6.42856 8.93008 6.41256C8.91865 6.40674 8.91151 6.40529 8.89151 6.40529C8.86722 6.40529 8.86722 6.41256 8.85437 6.43438C8.84865 6.45474 8.84008 6.4751 8.84008 6.49838C8.83722 6.52747 8.82579 6.53474 8.80722 6.5391C8.78437 6.5391 8.78865 6.54201 8.77151 6.52892C8.75722 6.51874 8.74579 6.51438 8.74579 6.49401C8.74579 6.4722 8.74008 6.43583 8.73437 6.4242C8.72437 6.40965 8.70865 6.40383 8.69151 6.39947C8.59722 6.39947 8.59151 6.51292 8.59579 6.55365C8.58865 6.56238 8.58579 6.75729 8.71437 6.81256C8.88579 6.89692 9.21151 6.86056 9.20008 6.57692C9.20008 6.5522 9.19294 6.46783 9.19008 6.44601C9.17294 6.40238 9.14008 6.38783 9.10865 6.3922L9.11008 6.38929ZM11.4329 6.3922C11.3729 6.3951 11.3187 6.41256 11.2758 6.43583C11.1615 6.54783 11.1329 6.72674 11.2244 6.83874C11.3101 6.88238 11.4001 6.96965 11.3415 7.02056C11.0929 7.28965 10.4458 7.74201 10.4129 7.82492V7.83365H10.4187V7.83656C10.4515 7.85838 10.8572 7.85838 10.9015 7.83656H10.9044C11.0444 7.78274 11.7044 7.01474 11.7044 7.01474C11.6701 6.98565 11.6387 6.96238 11.6044 6.93183C11.5672 6.89983 11.5715 6.86783 11.6044 6.83583C11.7672 6.73983 11.7158 6.52601 11.6301 6.42856C11.5587 6.39656 11.4929 6.38492 11.4329 6.38929V6.3922ZM17.5044 6.3922C17.4872 6.39656 17.4658 6.42129 17.4329 6.49401C17.3544 6.62492 17.3015 6.85038 17.3087 7.06129C17.4772 8.25401 17.5287 9.29692 17.6401 10.4896C17.6487 10.606 17.6315 10.7718 17.5572 10.8387C17.2772 11.1355 16.8758 11.4991 16.4387 11.6678C16.3915 11.7216 16.5558 11.95 16.7672 11.95C17.1215 11.9064 17.4329 11.7056 17.7244 11.1718C17.8001 11.0482 17.9358 10.782 17.9387 10.5755C17.9672 9.36529 17.8815 8.42274 17.7015 7.55001C17.6915 7.46274 17.6987 7.36092 17.7129 7.33765C17.7358 7.30856 17.8129 7.33765 17.8558 7.26929C17.9158 7.20529 17.6929 6.6831 17.5672 6.48383C17.5415 6.43292 17.5272 6.3922 17.5044 6.39365V6.3922ZM8.09865 6.43147C8.05008 6.43729 8.00437 6.4751 7.98151 6.53329C7.97437 6.72238 7.97294 6.91147 7.99579 7.08892C8.08151 7.39874 8.10579 7.67074 8.14722 7.98638C8.16151 8.4111 7.90722 8.16965 7.91865 7.9602C7.97579 7.68674 7.96151 7.25765 7.91008 7.14856C7.86722 7.03947 7.82151 7.01329 7.72151 7.0322C7.64294 7.02638 7.43865 7.25038 7.38151 7.62856C7.38151 7.62856 7.33294 7.82056 7.31294 7.9922C7.28437 8.18565 7.15865 8.32383 7.07008 7.96601C6.99437 7.7042 6.94865 7.0642 6.82151 7.21256C6.78437 7.71292 6.74151 8.59438 7.15865 8.68456C7.66437 8.73401 7.38437 7.81474 7.56722 7.64747C7.60294 7.56747 7.66722 7.56601 7.67151 7.66929V8.45038C7.66579 8.70347 7.82865 8.7791 7.95722 8.83147C8.09008 8.82129 8.17722 8.82565 8.22865 8.95656L8.29294 10.3093C8.29294 10.3093 8.59865 10.3966 8.61294 9.54856C8.62722 9.04965 8.51294 8.6322 8.58008 8.53474C8.58294 8.43874 8.70294 8.43292 8.78579 8.48092C8.91865 8.57547 8.97722 8.69183 9.18294 8.64529C9.49722 8.55801 9.68294 8.40383 9.68722 8.15947C9.67294 7.92674 9.64437 7.69401 9.54437 7.46129C9.55865 7.42056 9.48722 7.31147 9.50151 7.26929C9.55579 7.35656 9.64151 7.35074 9.65865 7.26929C9.60722 7.09038 9.52437 6.9202 9.39008 6.84747C9.28008 6.74565 9.11865 6.76747 9.05865 6.97401C9.03008 7.21256 9.14437 7.49474 9.31579 7.72601C9.35008 7.8162 9.40151 7.96601 9.37865 8.10129C9.28865 8.15365 9.19865 8.13038 9.12151 8.05038C9.12151 8.05038 8.87437 7.86129 8.87437 7.81765C8.94151 7.38856 8.88865 7.33765 8.85294 7.22129C8.82722 7.05547 8.75008 7.0031 8.68865 6.88965C8.62579 6.82129 8.54151 6.82129 8.50294 6.88965C8.39151 7.0831 8.44294 7.50056 8.52294 7.68529C8.58008 7.85692 8.66865 7.96456 8.62722 7.96456C8.59294 8.0591 8.52151 8.03729 8.47008 7.92529C8.39865 7.69256 8.38151 7.34929 8.38151 7.19365C8.36008 7.00165 8.33579 6.59001 8.21008 6.48529C8.17722 6.43874 8.13865 6.42274 8.10008 6.4271L8.09865 6.43147ZM9.87294 6.43147C9.84865 6.43729 9.82008 6.45183 9.78722 6.46056C9.68008 6.49401 9.58008 6.58856 9.61151 6.77183C9.74008 7.55729 9.82151 8.15801 9.94865 8.94347C9.96722 9.03656 9.89151 9.15729 9.79437 9.1471C9.62865 9.03074 9.58722 8.79801 9.30437 8.80965C9.09865 8.80965 8.86437 9.03947 8.83579 9.25765C8.80151 9.4322 8.79008 9.62129 8.83579 9.77256C8.97865 9.9471 9.15294 9.92965 9.30437 9.88892C9.42865 9.83801 9.53294 9.71438 9.57579 9.74347C9.60437 9.79147 9.57294 10.2002 8.99008 10.5144C8.63008 10.6802 8.34437 10.718 8.19008 10.4213C8.09579 10.2351 8.19865 9.52529 7.96437 9.6882C7.27008 11.5093 9.58865 11.7624 9.84722 9.76383C9.86437 9.70565 9.91437 9.65038 9.95151 9.66492C9.96579 9.6722 9.98008 9.69401 9.98579 9.73474C9.93151 11.5442 8.19151 11.6693 7.89722 11.0991C7.82294 10.9653 7.80151 10.6656 7.79437 10.4882C7.78008 10.3791 7.75437 10.3166 7.72294 10.2918C7.65151 10.238 7.55722 10.3791 7.53722 10.622C7.50865 10.8184 7.51579 10.8722 7.51579 11.0613C7.61008 12.4911 9.84865 11.8758 10.2129 10.6976C10.3929 10.0867 10.2087 9.62565 10.2701 9.56892L10.2744 9.56601H10.2787L10.2858 9.5631C10.5087 9.80747 10.8201 9.5922 10.8887 9.50929C10.9172 9.46565 10.9915 9.43656 11.0429 9.49474C11.2144 9.61983 11.5201 9.5602 11.5829 9.33474C11.6201 9.11656 11.6515 8.89256 11.6587 8.65838C11.5444 8.69474 11.4529 8.72092 11.4158 8.7602C11.4072 8.77038 11.4015 8.78201 11.3987 8.79365L11.3701 8.9871C11.3701 8.99438 11.3672 8.99874 11.3644 9.00165C11.3601 9.01183 11.3501 9.0191 11.3444 9.02347C11.3044 9.04529 11.2344 9.03365 11.2301 8.97401C11.1772 8.72674 10.9558 8.69474 10.8215 9.0802C10.7315 9.15292 10.5644 9.16747 10.5501 9.05692C10.5715 8.79801 10.4687 8.7631 10.2644 8.88529L10.0672 7.37256C10.1529 7.3682 10.2301 7.43074 10.3101 7.33183C10.2244 7.0642 10.0458 6.5202 9.94437 6.46783H9.94151L9.92722 6.45329C9.92722 6.45038 9.92294 6.44892 9.92008 6.44747L9.91437 6.43874C9.90865 6.43874 9.90294 6.43583 9.90008 6.43438C9.89008 6.43147 9.88151 6.43147 9.87151 6.43147H9.87294ZM16.7901 6.43729C16.7015 6.43438 16.6044 6.4911 16.6415 6.60456C16.6187 6.6671 16.8315 6.87656 16.8658 6.99001C16.9272 7.16456 16.8187 7.33474 16.8829 7.35947C16.9429 7.38565 17.0258 7.17765 17.0544 6.9842C17.0915 6.8271 16.9829 6.5071 16.8258 6.44165L16.7901 6.43874V6.43729ZM11.4001 6.62783C11.4401 6.62492 11.4887 6.66274 11.5144 6.7151C11.5387 6.77329 11.5258 6.8271 11.4858 6.83729C11.4429 6.84747 11.3887 6.8111 11.3629 6.75292C11.3372 6.69474 11.3487 6.64092 11.3915 6.63074H11.4001V6.62783ZM21.3958 6.89256C21.3144 6.88965 21.2244 6.95074 21.2615 7.07438C21.2415 7.14129 21.4329 7.3682 21.4658 7.49329C21.4944 7.58056 21.4229 7.86565 21.4801 7.89183C21.5344 7.92092 21.6087 7.69401 21.6372 7.48456C21.6544 7.3682 21.5715 6.9682 21.4301 6.89692C21.4201 6.89401 21.4087 6.8911 21.3972 6.8911L21.3958 6.89256ZM15.8672 7.0322C15.8772 7.06565 15.8844 7.0991 15.8887 7.13401C15.9058 7.20674 15.9201 7.27947 15.9344 7.3551C15.8715 7.26492 15.8201 7.1922 15.7958 7.16601C15.6529 6.99147 15.7987 7.05256 15.8672 7.0322ZM17.1429 7.66929C17.1115 7.6751 17.0815 7.70274 17.0715 7.74638C17.0629 7.77256 17.0829 7.8191 17.0572 7.83365C17.0429 7.8482 16.9858 7.83947 16.9901 7.76092C16.9901 7.73474 16.9715 7.7071 16.9615 7.69256C16.9501 7.68529 16.9429 7.68238 16.9229 7.68238C16.8987 7.68238 16.8987 7.68965 16.8858 7.71147C16.8801 7.73183 16.8715 7.7522 16.8715 7.77692C16.8715 7.80601 16.8601 7.81474 16.8401 7.82056C16.8172 7.82056 16.8215 7.82056 16.8029 7.81038C16.7915 7.79583 16.7787 7.79292 16.7787 7.77256C16.7787 7.75074 16.7744 7.71729 16.7672 7.70274C16.7572 7.6882 16.7429 7.68383 16.7244 7.67801C16.6315 7.67801 16.6244 7.78856 16.6301 7.82929C16.6244 7.83801 16.6201 8.03583 16.7487 8.0911C16.9229 8.17401 17.2487 8.13474 17.2344 7.85256C17.2344 7.82783 17.2272 7.74347 17.2258 7.72165C17.2072 7.67801 17.1744 7.66347 17.1444 7.66783L17.1429 7.66929ZM11.3287 7.72747C11.3087 7.72747 11.2801 7.73329 11.2472 7.75365C11.0944 7.83801 11.0358 8.0882 11.1329 8.23365C11.2187 8.36456 11.3615 8.31656 11.3801 8.31656C11.5301 8.33692 11.6187 8.03147 11.6187 8.03147C11.6187 8.03147 11.6229 7.9442 11.4472 8.1071C11.3701 8.12165 11.3615 8.09256 11.3415 8.04892C11.3244 7.97183 11.3272 7.88892 11.3629 7.81183C11.3801 7.76383 11.3629 7.73329 11.3287 7.73038V7.72747ZM19.5472 7.76674C19.4615 7.76238 19.3715 7.8191 19.3472 7.93692C19.3472 8.00674 19.3787 8.04456 19.3729 8.10856C19.3658 8.14492 19.3301 8.16674 19.2415 8.12601C19.2558 8.11147 19.1844 8.01256 19.1844 8.01256C19.1172 7.96892 19.0272 8.01256 18.9672 8.05329C18.9344 8.11438 18.9101 8.21765 18.9472 8.32238C19.0444 8.5071 19.3801 8.82129 19.5401 8.8242C19.5429 8.65838 19.5587 8.43729 19.5687 8.30056C19.5715 8.2482 19.5829 8.19147 19.6329 8.17838C19.6815 8.16383 19.7658 8.22783 19.7658 8.17401C19.7572 8.06929 19.7372 7.9122 19.6801 7.83947C19.6487 7.79583 19.5987 7.76965 19.5487 7.76674H19.5472ZM12.7429 8.3442L12.7387 8.34856C12.7387 8.34856 12.7358 8.34856 12.7344 8.35147C12.7172 8.36601 12.6972 8.3951 12.6529 8.4242C12.5772 8.51147 12.5644 8.57401 12.5672 8.74856C12.5729 8.76747 12.7101 9.1602 12.8287 9.4351C12.9087 9.72165 12.9815 10.0504 12.9287 10.3602C12.7429 10.7704 12.3715 11.1384 12.0101 11.3391C11.8244 11.3973 11.6672 11.3769 11.6244 11.3362C11.5187 11.2635 11.5172 11.1326 11.5244 11.1122V11.1078C11.8272 10.8926 12.1744 10.718 12.4458 10.1376C12.5258 9.9151 12.5515 9.78129 12.4715 9.43947C12.4401 9.30856 12.4001 9.20674 12.3144 9.11365H12.3172C12.3687 9.08892 12.5029 9.18929 12.5244 9.1282C12.4915 8.96238 12.3815 8.74274 12.2601 8.62929C12.1515 8.52747 12.0315 8.51729 11.9344 8.60892C11.8229 8.67292 11.8001 8.89983 11.8529 9.09765C11.9129 9.24601 12.0744 9.2722 12.1887 9.57329C12.1915 9.59365 12.2272 9.79874 12.1701 9.8831C12.1215 10.0315 11.5201 10.5144 11.4772 10.5435L11.4729 10.5464L11.4701 10.5493H11.4672H11.4644V10.5449C11.4615 10.5333 11.4644 10.5013 11.4644 10.4533C11.4601 10.3631 11.4972 10.158 11.4929 10.1217V10.1187C11.2929 10.2496 11.2258 10.6496 11.1901 10.7689C10.6858 11.1224 10.1144 11.3856 9.78437 11.7435C9.61294 12.0198 10.9672 11.4322 11.1244 11.3609L11.1287 11.3653C11.1601 11.3987 11.1615 11.5151 11.2515 11.6213C11.3944 11.8147 11.6915 11.934 11.9829 11.8598C12.4715 11.6809 12.7544 11.342 13.0401 10.9653C13.0801 10.9071 13.1444 10.8576 13.2044 10.9042C13.4001 11.3522 13.9687 11.6722 14.7015 11.7042C14.8729 11.4947 14.7915 11.3915 14.7229 11.3478C14.7015 11.3333 14.3587 11.1966 14.3044 11.0613C14.2715 10.9362 14.3529 10.8242 14.5158 10.7413C14.9872 10.6831 15.4501 10.6176 15.8987 10.4707C15.9029 10.3166 15.9915 10.0882 16.0515 9.98783C16.0944 9.91947 16.1187 9.9122 16.1287 9.90347V9.90056H16.1315V9.8962V9.88165L16.0544 9.8351L14.5501 9.82929C14.5315 9.82201 14.5187 9.81474 14.5101 9.80747L14.5072 9.8031C14.5072 9.8031 14.5044 9.8031 14.5044 9.8002C14.5044 9.79729 14.5015 9.79729 14.5015 9.79729V9.79874V9.79583V9.79292V9.79001L14.5044 9.78565C14.5115 9.77692 14.5301 9.76674 14.5515 9.75656C14.9115 9.70856 15.5487 9.60238 15.5915 8.97838C15.5844 8.65256 15.4544 8.4402 15.0629 8.38201C14.7744 8.40383 14.5687 8.68747 14.6015 8.99874C14.5872 9.08165 14.6301 9.24601 14.5444 9.26492C13.9929 9.31729 13.3901 9.66929 13.3701 9.92238H13.3672H13.3644H13.3615C13.3615 9.92529 13.3587 9.92529 13.3572 9.92529H13.3515H13.3487H13.3429C13.3072 9.91365 13.2615 9.85256 13.2687 9.76965C13.2472 9.33329 13.1072 8.83874 12.8901 8.46056C12.8115 8.38056 12.7758 8.34856 12.7558 8.3442H12.7515H12.7472H12.7444H12.7429ZM14.1829 8.57401C14.1544 8.57983 14.1215 8.60601 14.1115 8.64965C14.1044 8.67874 14.1258 8.72529 14.1001 8.73983C14.0858 8.75438 14.0287 8.74565 14.0315 8.6671C14.0315 8.64238 14.0129 8.61474 14.0029 8.59874C13.9915 8.59147 13.9844 8.59001 13.9658 8.59001C13.9415 8.59001 13.9401 8.59583 13.9272 8.6162C13.9201 8.63656 13.9129 8.65983 13.9129 8.68165C13.9101 8.71074 13.8987 8.71947 13.8801 8.72238C13.8572 8.72238 13.8629 8.72674 13.8444 8.7151C13.8329 8.70347 13.8187 8.69765 13.8187 8.67729C13.8187 8.65547 13.8144 8.6191 13.8087 8.60456C13.7987 8.59438 13.7829 8.59001 13.7658 8.5842C13.6701 8.5842 13.6658 8.69329 13.6701 8.73547C13.6629 8.74274 13.6587 8.9391 13.7872 8.99438C13.9587 9.07874 14.3729 9.02929 14.2729 8.75729C14.2729 8.73256 14.2658 8.6482 14.2644 8.62638C14.2458 8.58274 14.2129 8.5682 14.1815 8.57256L14.1829 8.57401ZM19.9901 8.81692H19.9758C19.9758 8.81692 19.1729 9.39874 19.1544 9.4191C19.0744 9.49183 19.1144 9.74347 19.1544 9.71438C19.2115 9.7362 20.0187 9.1791 20.0029 9.11365C20.0387 9.11656 20.0558 8.8271 19.9887 8.81547L19.9901 8.81692ZM14.9415 8.9042C14.9729 8.89983 15.0158 8.91147 15.0558 8.93329C15.1172 8.9711 15.1558 9.02347 15.1487 9.0642V9.07001C15.1458 9.07001 15.1458 9.07001 15.1458 9.07292V9.07583C15.1458 9.07583 15.1429 9.07583 15.1429 9.07874C15.1429 9.08165 15.1387 9.08456 15.1358 9.08747C15.1072 9.11656 15.0415 9.11074 14.9787 9.07292C14.9187 9.03947 14.8829 8.98565 14.8858 8.94783V8.94347L14.8929 8.92892C14.8929 8.92892 14.8929 8.92601 14.8958 8.92456L14.9029 8.91583C14.9129 8.90856 14.9258 8.90129 14.9415 8.90129V8.9042ZM7.91579 9.04965C7.50151 9.05838 6.89151 9.60529 6.87579 9.90783L8.19008 9.26783C8.11865 9.15729 8.18579 9.05838 7.91579 9.04965ZM9.26294 9.23874C9.30294 9.24165 9.34579 9.26201 9.36865 9.3202C9.38865 9.37401 9.36865 9.42929 9.34437 9.45692V9.46129C9.32437 9.48456 9.26437 9.47583 9.22008 9.47583C9.16722 9.47292 9.14151 9.4642 9.11008 9.42056C9.09294 9.36965 9.13865 9.32165 9.16008 9.28674L9.17008 9.2722C9.18437 9.25765 9.21294 9.24601 9.24151 9.2431L9.26008 9.2402L9.26294 9.23874ZM19.8344 9.40892C19.7587 9.41765 19.6887 9.48892 19.7201 9.60238C19.7001 9.66929 19.8201 9.90347 19.8529 10.0271C19.8815 10.1144 19.8158 10.366 19.8744 10.3907C19.9287 10.4198 20.0701 10.2453 20.0658 10.0213C20.0801 9.90492 20.0258 9.4831 19.8844 9.41329C19.8672 9.40892 19.8501 9.40747 19.8329 9.40892H19.8344ZM10.8572 9.82201C10.7915 9.82638 10.7329 9.86129 10.7601 9.95583C10.7558 10.0227 10.9458 10.1056 10.9558 10.2613C10.9815 10.3282 10.9129 10.5377 10.9701 10.5551C11.0215 10.5769 11.0929 10.4096 11.1201 10.2584C11.1344 10.174 11.0544 9.8802 10.9201 9.82638C10.8987 9.82056 10.8772 9.8191 10.8558 9.82056L10.8572 9.82201ZM13.5429 10.1944H13.5601C13.7287 10.2409 13.9744 10.2467 14.1887 10.2671C14.3644 10.2817 14.4501 10.4184 14.2887 10.478C14.1258 10.5333 13.9701 10.5798 13.9701 10.8155C13.9901 10.9318 13.9844 10.9929 13.9672 11.0191C13.9672 11.0235 13.9629 11.0264 13.9615 11.0278C13.9615 11.0278 13.9615 11.0307 13.9587 11.0307V11.0336H13.9544L13.9444 11.038H13.9372C13.8987 11.0453 13.8429 11.0089 13.8015 10.9857C13.7015 10.9129 13.4229 10.7384 13.3829 10.3602C13.3772 10.2729 13.4401 10.2002 13.5401 10.1929L13.5429 10.1944ZM6.98008 10.4853C6.97008 10.4853 6.95151 10.5173 6.92294 10.5536C6.67437 10.9536 6.65151 11.5515 6.78865 11.7318C6.86008 11.8147 6.98008 11.8526 7.06865 11.8264C7.22579 11.758 7.29294 11.4366 7.25437 11.3202C7.20437 11.2373 7.16294 11.2242 7.11151 11.294C7.00151 11.5195 6.95437 11.3638 6.94722 11.2358C6.93008 10.9987 6.95294 10.7776 6.97865 10.6031C6.99294 10.5158 6.99294 10.4824 6.97865 10.4824L6.98008 10.4853ZM15.4044 11.0118C15.3858 11.0118 15.3672 11.0147 15.3472 11.0264C15.3429 11.0264 15.1701 11.1427 15.1144 11.2271C15.0801 11.2533 15.0858 11.2751 15.0944 11.3217C15.1201 11.3842 15.1658 11.3653 15.2201 11.3362C15.2915 11.3246 15.3244 11.3726 15.3201 11.4584C15.2872 11.5675 15.3344 11.6067 15.3344 11.614C15.3344 11.6198 15.4015 11.6795 15.4815 11.6329C15.6487 11.5675 15.7529 11.502 15.9887 11.4511C16.0501 11.4511 16.0458 11.2824 15.9487 11.2766C15.8201 11.2824 15.7058 11.2911 15.5772 11.3929C15.4987 11.4104 15.4858 11.3609 15.4672 11.3173C15.4472 11.2096 15.5129 11.134 15.4987 11.0526C15.5015 11.0569 15.4587 11.0176 15.4029 11.0147L15.4044 11.0118ZM20.7987 11.2155L20.6844 11.2271C20.6329 11.2373 20.6158 11.2606 20.6058 11.3246C20.6101 11.4191 20.6672 11.4147 20.7272 11.4526C20.7615 11.4962 20.7844 11.5369 20.7244 11.6126C20.6672 11.6635 20.6287 11.6926 20.5715 11.7435C20.5472 11.79 20.5287 11.8598 20.6115 11.8831C20.7615 11.9267 21.1087 11.6969 21.1087 11.694C21.1658 11.6504 21.1458 11.5675 21.1415 11.5675C21.1072 11.5297 21.0329 11.5529 20.9844 11.5456C20.9601 11.5456 20.8844 11.534 20.9187 11.4642C20.9501 11.4206 20.9615 11.3958 20.9829 11.342C21.0044 11.2896 20.9829 11.2547 20.9001 11.2256C20.8572 11.2169 20.8287 11.214 20.7958 11.2155H20.7987ZM18.7229 16.83C19.1087 16.8489 19.4687 16.8344 19.8515 16.8533C19.9144 16.9056 19.8844 17.0278 19.8444 17.0482L19.8372 17.0511H19.8329H19.8272L19.5044 17.0424V17.0235C19.4729 16.9333 19.2587 16.9391 19.2072 17.0089V17.0133C19.2044 17.0133 19.2029 17.0176 19.2029 17.0191L19.2001 17.0264V17.0438C19.0287 17.0656 18.8787 17.038 18.7101 17.0322C18.6601 16.9696 18.6672 16.8576 18.7244 16.8286L18.7229 16.83Z" fill="white"/>
</svg>
