<svg width="463" height="228" viewBox="0 0 463 228" fill="none" xmlns="http://www.w3.org/2000/svg">
<rect x="0.371589" y="0.371589" width="462.257" height="226.669" rx="14.492" fill="white" stroke="#F2F4F7" stroke-width="0.743178"/>
<rect x="11.8721" y="22.9844" width="439.256" height="188.767" rx="5.94543" fill="white"/>
<path d="M31.1438 51.9951V45.4923H30.1762V44.4102H32.3403V51.9951H31.1438ZM41.7083 49.9454C41.7083 51.0275 40.8239 52.0679 39.2112 52.0679C37.765 52.0679 36.6517 51.2772 36.6517 49.9975H37.9211C37.9731 50.5905 38.3893 51.0691 39.2112 51.0691C40.0436 51.0691 40.5118 50.6217 40.5118 50.0079C40.5118 48.2599 36.6725 49.394 36.6725 46.7304C36.6725 45.4611 37.6818 44.6704 39.1592 44.6704C40.543 44.6704 41.521 45.3987 41.6251 46.6368H40.3141C40.2725 46.1478 39.8459 45.7004 39.0968 45.6796C38.4101 45.6588 37.8794 45.9917 37.8794 46.6888C37.8794 48.3223 41.7083 47.3027 41.7083 49.9454ZM43.2951 50.4032V47.2299H42.6188V46.2622H43.2951V44.8368H44.4917V46.2622H45.8859V47.2299H44.4917V50.4032C44.4917 50.8298 44.6581 51.0067 45.1575 51.0067H45.8859V51.9951H44.9495C43.9298 51.9951 43.2951 51.5685 43.2951 50.4032ZM46.5837 49.1027C46.5837 47.3339 47.7802 46.1686 49.2889 46.1686C50.2565 46.1686 50.9224 46.6264 51.2761 47.0946V46.2622H52.4726V51.9951H51.2761V51.1419C50.912 51.631 50.2253 52.0888 49.2681 52.0888C47.7802 52.0888 46.5837 50.8714 46.5837 49.1027ZM51.2761 49.1235C51.2761 47.8957 50.4334 47.1986 49.5386 47.1986C48.6542 47.1986 47.801 47.8645 47.801 49.1027C47.801 50.3408 48.6542 51.0587 49.5386 51.0587C50.4334 51.0587 51.2761 50.3616 51.2761 49.1235ZM55.2167 48.9778V51.9951H54.0305V46.2622H55.2167V47.0946C55.5496 46.5224 56.1218 46.1686 56.9334 46.1686V47.3963H56.6317C55.7577 47.3963 55.2167 47.7605 55.2167 48.9778ZM62.2999 50.3928C62.2999 51.3604 61.4572 52.0888 60.1046 52.0888C58.7312 52.0888 57.7636 51.2772 57.7115 50.2368H58.9393C58.9809 50.705 59.4283 51.0899 60.0838 51.0899C60.7705 51.0899 61.1346 50.7986 61.1346 50.4032C61.1346 49.2795 57.8052 49.9246 57.8052 47.8229C57.8052 46.9073 58.6584 46.1686 60.0109 46.1686C61.3115 46.1686 62.1647 46.8657 62.2271 48.0102H61.041C60.9994 47.5108 60.6144 47.1674 59.9693 47.1674C59.3346 47.1674 59.0017 47.4275 59.0017 47.8125C59.0017 48.9674 62.2375 48.3223 62.2999 50.3928Z" fill="#11002A"/>
<rect x="101.053" y="40.8203" width="213.348" height="16.3499" rx="2.97271" fill="#F4F4F4"/>
<rect x="101.053" y="40.8203" width="33.4568" height="16.3499" rx="2.97271" fill="#6200EE"/>
<path d="M326.895 46.283C326.979 44.9721 327.998 44.2334 329.382 44.2334C330.891 44.2334 331.713 45.1073 331.713 46.2102C331.713 47.1154 331.14 47.7293 330.547 47.927V47.9686C331.338 48.2079 331.848 48.8634 331.848 49.9142C331.848 51.1211 330.995 52.0367 329.413 52.0367C327.978 52.0367 326.864 51.2876 326.791 49.7998H327.936C327.988 50.5073 328.508 51.0483 329.403 51.0483C330.287 51.0483 330.724 50.5073 330.724 49.7998C330.724 48.8009 330.079 48.4576 328.841 48.4576H328.571V47.4796H328.851C329.923 47.4692 330.579 47.157 330.579 46.3455C330.579 45.69 330.152 45.253 329.341 45.253C328.508 45.253 328.123 45.7524 328.05 46.283H326.895ZM333.094 48.1038C333.094 45.9397 333.677 44.275 335.799 44.275C337.922 44.275 338.504 45.9397 338.504 48.1038C338.504 50.3096 337.922 51.9743 335.799 51.9743C333.677 51.9743 333.094 50.3096 333.094 48.1038ZM337.339 48.1038C337.339 46.6888 337.183 45.357 335.799 45.357C334.415 45.357 334.259 46.6888 334.259 48.1038C334.259 49.5917 334.415 50.8922 335.799 50.8922C337.183 50.8922 337.339 49.5917 337.339 48.1038ZM339.572 46.2414C339.572 45.2114 340.248 44.6183 341.154 44.6183C342.059 44.6183 342.735 45.2114 342.735 46.2414C342.735 47.2819 342.059 47.8749 341.154 47.8749C340.248 47.8749 339.572 47.2819 339.572 46.2414ZM341.154 45.3362C340.748 45.3362 340.498 45.5964 340.498 46.2414C340.498 46.8865 340.748 47.157 341.154 47.157C341.549 47.157 341.809 46.8865 341.809 46.2414C341.809 45.5964 341.549 45.3362 341.154 45.3362ZM340.602 51.9951L344.753 44.7536H345.919L341.767 51.9951H340.602ZM343.807 50.4969C343.807 49.4564 344.483 48.8738 345.388 48.8738C346.283 48.8738 346.959 49.4564 346.959 50.4969C346.959 51.5373 346.283 52.1304 345.388 52.1304C344.483 52.1304 343.807 51.5373 343.807 50.4969ZM345.378 49.5917C344.982 49.5917 344.722 49.8518 344.722 50.4969C344.722 51.1419 344.982 51.4021 345.378 51.4021C345.773 51.4021 346.033 51.1419 346.033 50.4969C346.033 49.8518 345.773 49.5917 345.378 49.5917ZM351.004 48.7281V47.7293H355.28V48.7281H351.004ZM360.323 51.9951V45.4923H359.356V44.4102H361.52V51.9951H360.323ZM366.77 51.9951V50.4136H363.003V49.5188L366.499 44.5039H367.935V49.3836H368.903V50.4136H367.935V51.9951H366.77ZM364.366 49.3836H366.822V45.7108L364.366 49.3836ZM373.506 51.9951V50.4136H369.74V49.5188L373.236 44.5039H374.672V49.3836H375.639V50.4136H374.672V51.9951H373.506ZM371.103 49.3836H373.558V45.7108L371.103 49.3836ZM380.667 48.9778V51.9951H379.481V46.2622H380.667V47.0946C381 46.5224 381.572 46.1686 382.384 46.1686V47.3963H382.082C381.208 47.3963 380.667 47.7605 380.667 48.9778ZM385.888 47.1674C385.087 47.1674 384.442 47.7085 384.317 48.6137H387.49C387.469 47.7293 386.772 47.1674 385.888 47.1674ZM388.572 50.2888C388.25 51.2876 387.345 52.0888 385.94 52.0888C384.296 52.0888 383.079 50.9235 383.079 49.1235C383.079 47.3235 384.244 46.1686 385.94 46.1686C387.573 46.1686 388.728 47.3027 388.728 48.9882C388.728 49.1859 388.718 49.3732 388.687 49.5709H384.306C384.39 50.5177 385.066 51.0899 385.94 51.0899C386.668 51.0899 387.074 50.7362 387.292 50.2888H388.572ZM394.172 50.3928C394.172 51.3604 393.329 52.0888 391.976 52.0888C390.603 52.0888 389.635 51.2772 389.583 50.2368H390.811C390.853 50.705 391.3 51.0899 391.956 51.0899C392.642 51.0899 393.007 50.7986 393.007 50.4032C393.007 49.2795 389.677 49.9246 389.677 47.8229C389.677 46.9073 390.53 46.1686 391.883 46.1686C393.183 46.1686 394.037 46.8657 394.099 48.0102H392.913C392.871 47.5108 392.486 47.1674 391.841 47.1674C391.207 47.1674 390.874 47.4275 390.874 47.8125C390.874 48.9674 394.109 48.3223 394.172 50.3928ZM396.64 47.105C397.004 46.6264 397.701 46.1686 398.637 46.1686C400.146 46.1686 401.332 47.3339 401.332 49.1027C401.332 50.8714 400.146 52.0888 398.637 52.0888C397.69 52.0888 397.014 51.6102 396.64 51.1628V54.7211H395.453V46.2622H396.64V47.105ZM400.125 49.1027C400.125 47.8645 399.272 47.1986 398.377 47.1986C397.493 47.1986 396.64 47.8957 396.64 49.1235C396.64 50.3616 397.493 51.0587 398.377 51.0587C399.272 51.0587 400.125 50.3408 400.125 49.1027ZM407.967 49.1235C407.967 50.9235 406.636 52.0888 404.992 52.0888C403.358 52.0888 402.12 50.9235 402.12 49.1235C402.12 47.3235 403.41 46.1686 405.044 46.1686C406.677 46.1686 407.967 47.3235 407.967 49.1235ZM403.327 49.1235C403.327 50.424 404.097 51.0587 404.992 51.0587C405.876 51.0587 406.75 50.424 406.75 49.1235C406.75 47.8229 405.907 47.1986 405.023 47.1986C404.128 47.1986 403.327 47.8229 403.327 49.1235ZM413.208 51.9951V48.7905C413.208 47.7397 412.636 47.1986 411.772 47.1986C410.898 47.1986 410.326 47.7397 410.326 48.7905V51.9951H409.14V46.2622H410.326V46.9177C410.711 46.4495 411.346 46.1686 412.032 46.1686C413.374 46.1686 414.384 47.0114 414.384 48.6137V51.9951H413.208ZM420.173 50.3928C420.173 51.3604 419.33 52.0888 417.978 52.0888C416.604 52.0888 415.637 51.2772 415.584 50.2368H416.812C416.854 50.705 417.301 51.0899 417.957 51.0899C418.643 51.0899 419.008 50.7986 419.008 50.4032C419.008 49.2795 415.678 49.9246 415.678 47.8229C415.678 46.9073 416.531 46.1686 417.884 46.1686C419.184 46.1686 420.038 46.8657 420.1 48.0102H418.914C418.872 47.5108 418.487 47.1674 417.842 47.1674C417.208 47.1674 416.875 47.4275 416.875 47.8125C416.875 48.9674 420.11 48.3223 420.173 50.3928ZM423.868 47.1674C423.067 47.1674 422.422 47.7085 422.297 48.6137H425.471C425.45 47.7293 424.753 47.1674 423.868 47.1674ZM426.553 50.2888C426.23 51.2876 425.325 52.0888 423.92 52.0888C422.276 52.0888 421.059 50.9235 421.059 49.1235C421.059 47.3235 422.224 46.1686 423.92 46.1686C425.554 46.1686 426.709 47.3027 426.709 48.9882C426.709 49.1859 426.698 49.3732 426.667 49.5709H422.287C422.37 50.5177 423.046 51.0899 423.92 51.0899C424.649 51.0899 425.054 50.7362 425.273 50.2888H426.553ZM432.152 50.3928C432.152 51.3604 431.31 52.0888 429.957 52.0888C428.584 52.0888 427.616 51.2772 427.564 50.2368H428.792C428.833 50.705 429.281 51.0899 429.936 51.0899C430.623 51.0899 430.987 50.7986 430.987 50.4032C430.987 49.2795 427.658 49.9246 427.658 47.8229C427.658 46.9073 428.511 46.1686 429.863 46.1686C431.164 46.1686 432.017 46.8657 432.079 48.0102H430.893C430.852 47.5108 430.467 47.1674 429.822 47.1674C429.187 47.1674 428.854 47.4275 428.854 47.8125C428.854 48.9674 432.09 48.3223 432.152 50.3928Z" fill="#11002A"/>
<path d="M30.2386 86.0776V85.214C32.0282 83.6429 33.9114 82.2696 33.9114 80.7817C33.9114 79.991 33.5681 79.4499 32.6837 79.4499C31.8513 79.4499 31.4039 80.0326 31.3727 80.8858H30.2282C30.2699 79.2418 31.3311 78.4407 32.6733 78.4407C34.2132 78.4407 35.0871 79.3667 35.0871 80.7297C35.0871 82.5713 33.2143 83.9759 31.997 85.0892H35.2952V86.0776H30.2386ZM44.0757 84.132C44.0757 85.214 43.1913 86.2545 41.5786 86.2545C40.1324 86.2545 39.0191 85.4637 39.0191 84.184H40.2885C40.3405 84.777 40.7567 85.2556 41.5786 85.2556C42.411 85.2556 42.8792 84.8082 42.8792 84.1944C42.8792 82.4464 39.0399 83.5805 39.0399 80.917C39.0399 79.6476 40.0492 78.8569 41.5266 78.8569C42.9104 78.8569 43.8884 79.5852 43.9925 80.8233H42.6815C42.6399 80.3343 42.2133 79.8869 41.4642 79.8661C40.7775 79.8453 40.2469 80.1782 40.2469 80.8753C40.2469 82.5089 44.0757 81.4892 44.0757 84.132ZM45.6626 84.5898V81.4164H44.9863V80.4488H45.6626V79.0233H46.8591V80.4488H48.2533V81.4164H46.8591V84.5898C46.8591 85.0163 47.0256 85.1932 47.525 85.1932H48.2533V86.1816H47.3169C46.2972 86.1816 45.6626 85.7551 45.6626 84.5898ZM48.9511 83.2892C48.9511 81.5204 50.1476 80.3551 51.6563 80.3551C52.6239 80.3551 53.2898 80.8129 53.6435 81.2811V80.4488H54.8401V86.1816H53.6435V85.3285C53.2794 85.8175 52.5927 86.2753 51.6355 86.2753C50.1476 86.2753 48.9511 85.058 48.9511 83.2892ZM53.6435 83.31C53.6435 82.0823 52.8008 81.3852 51.906 81.3852C51.0216 81.3852 50.1684 82.0511 50.1684 83.2892C50.1684 84.5273 51.0216 85.2452 51.906 85.2452C52.8008 85.2452 53.6435 84.5481 53.6435 83.31ZM57.5841 83.1643V86.1816H56.398V80.4488H57.5841V81.2811C57.917 80.7089 58.4893 80.3551 59.3008 80.3551V81.5829H58.9991C58.1251 81.5829 57.5841 81.947 57.5841 83.1643ZM64.6674 84.5793C64.6674 85.547 63.8246 86.2753 62.472 86.2753C61.0986 86.2753 60.131 85.4637 60.079 84.4233H61.3067C61.3483 84.8915 61.7957 85.2764 62.4512 85.2764C63.1379 85.2764 63.5021 84.9851 63.5021 84.5898C63.5021 83.4661 60.1726 84.1111 60.1726 82.0094C60.1726 81.0938 61.0258 80.3551 62.3784 80.3551C63.6789 80.3551 64.5321 81.0522 64.5945 82.1967H63.4084C63.3668 81.6973 62.9818 81.354 62.3367 81.354C61.7021 81.354 61.3691 81.6141 61.3691 81.999C61.3691 83.1539 64.6049 82.5089 64.6674 84.5793Z" fill="#11002A"/>
<rect x="101.053" y="75.0068" width="213.348" height="16.3499" rx="2.97271" fill="#F4F4F4"/>
<rect x="101.053" y="75.0068" width="136.494" height="16.3499" rx="2.97271" fill="#6200EE"/>
<path d="M326.895 80.4696C326.979 79.1586 327.998 78.4199 329.382 78.4199C330.891 78.4199 331.713 79.2939 331.713 80.3967C331.713 81.3019 331.14 81.9158 330.547 82.1135V82.1551C331.338 82.3944 331.848 83.0499 331.848 84.1007C331.848 85.3077 330.995 86.2233 329.413 86.2233C327.978 86.2233 326.864 85.4741 326.791 83.9863H327.936C327.988 84.6938 328.508 85.2348 329.403 85.2348C330.287 85.2348 330.724 84.6938 330.724 83.9863C330.724 82.9875 330.079 82.6441 328.841 82.6441H328.571V81.6661H328.851C329.923 81.6557 330.579 81.3436 330.579 80.532C330.579 79.8765 330.152 79.4395 329.341 79.4395C328.508 79.4395 328.123 79.9389 328.05 80.4696H326.895ZM333.094 82.2904C333.094 80.1262 333.677 78.4615 335.799 78.4615C337.922 78.4615 338.504 80.1262 338.504 82.2904C338.504 84.4961 337.922 86.1608 335.799 86.1608C333.677 86.1608 333.094 84.4961 333.094 82.2904ZM337.339 82.2904C337.339 80.8753 337.183 79.5436 335.799 79.5436C334.415 79.5436 334.259 80.8753 334.259 82.2904C334.259 83.7782 334.415 85.0788 335.799 85.0788C337.183 85.0788 337.339 83.7782 337.339 82.2904ZM339.572 80.428C339.572 79.3979 340.248 78.8049 341.154 78.8049C342.059 78.8049 342.735 79.3979 342.735 80.428C342.735 81.4684 342.059 82.0615 341.154 82.0615C340.248 82.0615 339.572 81.4684 339.572 80.428ZM341.154 79.5228C340.748 79.5228 340.498 79.7829 340.498 80.428C340.498 81.073 340.748 81.3436 341.154 81.3436C341.549 81.3436 341.809 81.073 341.809 80.428C341.809 79.7829 341.549 79.5228 341.154 79.5228ZM340.602 86.1816L344.753 78.9401H345.919L341.767 86.1816H340.602ZM343.807 84.6834C343.807 83.6429 344.483 83.0603 345.388 83.0603C346.283 83.0603 346.959 83.6429 346.959 84.6834C346.959 85.7238 346.283 86.3169 345.388 86.3169C344.483 86.3169 343.807 85.7238 343.807 84.6834ZM345.378 83.7782C344.982 83.7782 344.722 84.0383 344.722 84.6834C344.722 85.3285 344.982 85.5886 345.378 85.5886C345.773 85.5886 346.033 85.3285 346.033 84.6834C346.033 84.0383 345.773 83.7782 345.378 83.7782ZM351.004 82.9146V81.9158H355.28V82.9146H351.004ZM360.323 86.1816V79.6788H359.356V78.5968H361.52V86.1816H360.323ZM366.77 86.1816V84.6002H363.003V83.7054L366.499 78.6904H367.935V83.5701H368.903V84.6002H367.935V86.1816H366.77ZM364.366 83.5701H366.822V79.8973L364.366 83.5701ZM373.506 86.1816V84.6002H369.74V83.7054L373.236 78.6904H374.672V83.5701H375.639V84.6002H374.672V86.1816H373.506ZM371.103 83.5701H373.558V79.8973L371.103 83.5701ZM380.667 83.1643V86.1816H379.481V80.4488H380.667V81.2811C381 80.7089 381.572 80.3551 382.384 80.3551V81.5829H382.082C381.208 81.5829 380.667 81.947 380.667 83.1643ZM385.888 81.354C385.087 81.354 384.442 81.895 384.317 82.8002H387.49C387.469 81.9158 386.772 81.354 385.888 81.354ZM388.572 84.4753C388.25 85.4741 387.345 86.2753 385.94 86.2753C384.296 86.2753 383.079 85.11 383.079 83.31C383.079 81.51 384.244 80.3551 385.94 80.3551C387.573 80.3551 388.728 81.4892 388.728 83.1747C388.728 83.3724 388.718 83.5597 388.687 83.7574H384.306C384.39 84.7042 385.066 85.2764 385.94 85.2764C386.668 85.2764 387.074 84.9227 387.292 84.4753H388.572ZM394.172 84.5793C394.172 85.547 393.329 86.2753 391.976 86.2753C390.603 86.2753 389.635 85.4637 389.583 84.4233H390.811C390.853 84.8915 391.3 85.2764 391.956 85.2764C392.642 85.2764 393.007 84.9851 393.007 84.5898C393.007 83.4661 389.677 84.1111 389.677 82.0094C389.677 81.0938 390.53 80.3551 391.883 80.3551C393.183 80.3551 394.037 81.0522 394.099 82.1967H392.913C392.871 81.6973 392.486 81.354 391.841 81.354C391.207 81.354 390.874 81.6141 390.874 81.999C390.874 83.1539 394.109 82.5089 394.172 84.5793ZM396.64 81.2915C397.004 80.8129 397.701 80.3551 398.637 80.3551C400.146 80.3551 401.332 81.5204 401.332 83.2892C401.332 85.058 400.146 86.2753 398.637 86.2753C397.69 86.2753 397.014 85.7967 396.64 85.3493V88.9076H395.453V80.4488H396.64V81.2915ZM400.125 83.2892C400.125 82.0511 399.272 81.3852 398.377 81.3852C397.493 81.3852 396.64 82.0823 396.64 83.31C396.64 84.5481 397.493 85.2452 398.377 85.2452C399.272 85.2452 400.125 84.5273 400.125 83.2892ZM407.967 83.31C407.967 85.11 406.636 86.2753 404.992 86.2753C403.358 86.2753 402.12 85.11 402.12 83.31C402.12 81.51 403.41 80.3551 405.044 80.3551C406.677 80.3551 407.967 81.51 407.967 83.31ZM403.327 83.31C403.327 84.6106 404.097 85.2452 404.992 85.2452C405.876 85.2452 406.75 84.6106 406.75 83.31C406.75 82.0094 405.907 81.3852 405.023 81.3852C404.128 81.3852 403.327 82.0094 403.327 83.31ZM413.208 86.1816V82.9771C413.208 81.9262 412.636 81.3852 411.772 81.3852C410.898 81.3852 410.326 81.9262 410.326 82.9771V86.1816H409.14V80.4488H410.326V81.1042C410.711 80.636 411.346 80.3551 412.032 80.3551C413.374 80.3551 414.384 81.1979 414.384 82.8002V86.1816H413.208ZM420.173 84.5793C420.173 85.547 419.33 86.2753 417.978 86.2753C416.604 86.2753 415.637 85.4637 415.584 84.4233H416.812C416.854 84.8915 417.301 85.2764 417.957 85.2764C418.643 85.2764 419.008 84.9851 419.008 84.5898C419.008 83.4661 415.678 84.1111 415.678 82.0094C415.678 81.0938 416.531 80.3551 417.884 80.3551C419.184 80.3551 420.038 81.0522 420.1 82.1967H418.914C418.872 81.6973 418.487 81.354 417.842 81.354C417.208 81.354 416.875 81.6141 416.875 81.999C416.875 83.1539 420.11 82.5089 420.173 84.5793ZM423.868 81.354C423.067 81.354 422.422 81.895 422.297 82.8002H425.471C425.45 81.9158 424.753 81.354 423.868 81.354ZM426.553 84.4753C426.23 85.4741 425.325 86.2753 423.92 86.2753C422.276 86.2753 421.059 85.11 421.059 83.31C421.059 81.51 422.224 80.3551 423.92 80.3551C425.554 80.3551 426.709 81.4892 426.709 83.1747C426.709 83.3724 426.698 83.5597 426.667 83.7574H422.287C422.37 84.7042 423.046 85.2764 423.92 85.2764C424.649 85.2764 425.054 84.9227 425.273 84.4753H426.553ZM432.152 84.5793C432.152 85.547 431.31 86.2753 429.957 86.2753C428.584 86.2753 427.616 85.4637 427.564 84.4233H428.792C428.833 84.8915 429.281 85.2764 429.936 85.2764C430.623 85.2764 430.987 84.9851 430.987 84.5898C430.987 83.4661 427.658 84.1111 427.658 82.0094C427.658 81.0938 428.511 80.3551 429.863 80.3551C431.164 80.3551 432.017 81.0522 432.079 82.1967H430.893C430.852 81.6973 430.467 81.354 429.822 81.354C429.187 81.354 428.854 81.6141 428.854 81.999C428.854 83.1539 432.09 82.5089 432.152 84.5793Z" fill="#11002A"/>
<path d="M30.3115 114.656C30.3947 113.345 31.4143 112.606 32.7981 112.606C34.3068 112.606 35.1287 113.48 35.1287 114.583C35.1287 115.488 34.5565 116.102 33.9634 116.3V116.342C34.7542 116.581 35.264 117.236 35.264 118.287C35.264 119.494 34.4108 120.41 32.8294 120.41C31.3935 120.41 30.2803 119.661 30.2074 118.173H31.3519C31.4039 118.88 31.9242 119.421 32.819 119.421C33.7033 119.421 34.1403 118.88 34.1403 118.173C34.1403 117.174 33.4952 116.831 32.2571 116.831H31.9866V115.853H32.2675C33.3392 115.842 33.9947 115.53 33.9947 114.719C33.9947 114.063 33.5681 113.626 32.7565 113.626C31.9242 113.626 31.5392 114.125 31.4664 114.656H30.3115ZM44.2485 118.318C44.2485 119.401 43.3641 120.441 41.7514 120.441C40.3051 120.441 39.1919 119.65 39.1919 118.371H40.4612C40.5132 118.964 40.9294 119.442 41.7514 119.442C42.5837 119.442 43.0519 118.995 43.0519 118.381C43.0519 116.633 39.2127 117.767 39.2127 115.103C39.2127 113.834 40.2219 113.043 41.6994 113.043C43.0831 113.043 44.0612 113.772 44.1652 115.01H42.8542C42.8126 114.521 42.386 114.073 41.6369 114.053C40.9502 114.032 40.4196 114.365 40.4196 115.062C40.4196 116.695 44.2485 115.676 44.2485 118.318ZM45.8353 118.776V115.603H45.159V114.635H45.8353V113.21H47.0318V114.635H48.426V115.603H47.0318V118.776C47.0318 119.203 47.1983 119.38 47.6977 119.38H48.426V120.368H47.4896C46.47 120.368 45.8353 119.942 45.8353 118.776ZM49.1239 117.476C49.1239 115.707 50.3204 114.542 51.829 114.542C52.7966 114.542 53.4625 114.999 53.8163 115.468V114.635H55.0128V120.368H53.8163V119.515C53.4521 120.004 52.7654 120.462 51.8082 120.462C50.3204 120.462 49.1239 119.244 49.1239 117.476ZM53.8163 117.497C53.8163 116.269 52.9735 115.572 52.0787 115.572C51.1943 115.572 50.3412 116.238 50.3412 117.476C50.3412 118.714 51.1943 119.432 52.0787 119.432C52.9735 119.432 53.8163 118.735 53.8163 117.497ZM57.7568 117.351V120.368H56.5707V114.635H57.7568V115.468C58.0898 114.895 58.662 114.542 59.4736 114.542V115.769H59.1718C58.2979 115.769 57.7568 116.134 57.7568 117.351ZM64.8401 118.766C64.8401 119.733 63.9973 120.462 62.6447 120.462C61.2713 120.462 60.3037 119.65 60.2517 118.61H61.4794C61.521 119.078 61.9684 119.463 62.6239 119.463C63.3106 119.463 63.6748 119.172 63.6748 118.776C63.6748 117.653 60.3453 118.298 60.3453 116.196C60.3453 115.28 61.1985 114.542 62.5511 114.542C63.8517 114.542 64.7048 115.239 64.7673 116.383H63.5811C63.5395 115.884 63.1546 115.54 62.5095 115.54C61.8748 115.54 61.5419 115.801 61.5419 116.186C61.5419 117.34 64.7777 116.695 64.8401 118.766Z" fill="#11002A"/>
<rect x="101.053" y="109.193" width="213.348" height="16.3499" rx="2.97271" fill="#F4F4F4"/>
<rect x="101.053" y="109.193" width="89.9455" height="16.3499" rx="2.97271" fill="#6200EE"/>
<path d="M326.895 114.656C326.979 113.345 327.998 112.606 329.382 112.606C330.891 112.606 331.713 113.48 331.713 114.583C331.713 115.488 331.14 116.102 330.547 116.3V116.342C331.338 116.581 331.848 117.236 331.848 118.287C331.848 119.494 330.995 120.41 329.413 120.41C327.978 120.41 326.864 119.661 326.791 118.173H327.936C327.988 118.88 328.508 119.421 329.403 119.421C330.287 119.421 330.724 118.88 330.724 118.173C330.724 117.174 330.079 116.831 328.841 116.831H328.571V115.853H328.851C329.923 115.842 330.579 115.53 330.579 114.719C330.579 114.063 330.152 113.626 329.341 113.626C328.508 113.626 328.123 114.125 328.05 114.656H326.895ZM333.094 116.477C333.094 114.313 333.677 112.648 335.799 112.648C337.922 112.648 338.504 114.313 338.504 116.477C338.504 118.683 337.922 120.347 335.799 120.347C333.677 120.347 333.094 118.683 333.094 116.477ZM337.339 116.477C337.339 115.062 337.183 113.73 335.799 113.73C334.415 113.73 334.259 115.062 334.259 116.477C334.259 117.965 334.415 119.265 335.799 119.265C337.183 119.265 337.339 117.965 337.339 116.477ZM339.572 114.614C339.572 113.584 340.248 112.991 341.154 112.991C342.059 112.991 342.735 113.584 342.735 114.614C342.735 115.655 342.059 116.248 341.154 116.248C340.248 116.248 339.572 115.655 339.572 114.614ZM341.154 113.709C340.748 113.709 340.498 113.969 340.498 114.614C340.498 115.26 340.748 115.53 341.154 115.53C341.549 115.53 341.809 115.26 341.809 114.614C341.809 113.969 341.549 113.709 341.154 113.709ZM340.602 120.368L344.753 113.127H345.919L341.767 120.368H340.602ZM343.807 118.87C343.807 117.829 344.483 117.247 345.388 117.247C346.283 117.247 346.959 117.829 346.959 118.87C346.959 119.91 346.283 120.503 345.388 120.503C344.483 120.503 343.807 119.91 343.807 118.87ZM345.378 117.965C344.982 117.965 344.722 118.225 344.722 118.87C344.722 119.515 344.982 119.775 345.378 119.775C345.773 119.775 346.033 119.515 346.033 118.87C346.033 118.225 345.773 117.965 345.378 117.965ZM351.004 117.101V116.102H355.28V117.101H351.004ZM360.323 120.368V113.865H359.356V112.783H361.52V120.368H360.323ZM366.77 120.368V118.787H363.003V117.892L366.499 112.877H367.935V117.757H368.903V118.787H367.935V120.368H366.77ZM364.366 117.757H366.822V114.084L364.366 117.757ZM373.506 120.368V118.787H369.74V117.892L373.236 112.877H374.672V117.757H375.639V118.787H374.672V120.368H373.506ZM371.103 117.757H373.558V114.084L371.103 117.757ZM380.667 117.351V120.368H379.481V114.635H380.667V115.468C381 114.895 381.572 114.542 382.384 114.542V115.769H382.082C381.208 115.769 380.667 116.134 380.667 117.351ZM385.888 115.54C385.087 115.54 384.442 116.082 384.317 116.987H387.49C387.469 116.102 386.772 115.54 385.888 115.54ZM388.572 118.662C388.25 119.661 387.345 120.462 385.94 120.462C384.296 120.462 383.079 119.297 383.079 117.497C383.079 115.697 384.244 114.542 385.94 114.542C387.573 114.542 388.728 115.676 388.728 117.361C388.728 117.559 388.718 117.746 388.687 117.944H384.306C384.39 118.891 385.066 119.463 385.94 119.463C386.668 119.463 387.074 119.109 387.292 118.662H388.572ZM394.172 118.766C394.172 119.733 393.329 120.462 391.976 120.462C390.603 120.462 389.635 119.65 389.583 118.61H390.811C390.853 119.078 391.3 119.463 391.956 119.463C392.642 119.463 393.007 119.172 393.007 118.776C393.007 117.653 389.677 118.298 389.677 116.196C389.677 115.28 390.53 114.542 391.883 114.542C393.183 114.542 394.037 115.239 394.099 116.383H392.913C392.871 115.884 392.486 115.54 391.841 115.54C391.207 115.54 390.874 115.801 390.874 116.186C390.874 117.34 394.109 116.695 394.172 118.766ZM396.64 115.478C397.004 114.999 397.701 114.542 398.637 114.542C400.146 114.542 401.332 115.707 401.332 117.476C401.332 119.244 400.146 120.462 398.637 120.462C397.69 120.462 397.014 119.983 396.64 119.536V123.094H395.453V114.635H396.64V115.478ZM400.125 117.476C400.125 116.238 399.272 115.572 398.377 115.572C397.493 115.572 396.64 116.269 396.64 117.497C396.64 118.735 397.493 119.432 398.377 119.432C399.272 119.432 400.125 118.714 400.125 117.476ZM407.967 117.497C407.967 119.297 406.636 120.462 404.992 120.462C403.358 120.462 402.12 119.297 402.12 117.497C402.12 115.697 403.41 114.542 405.044 114.542C406.677 114.542 407.967 115.697 407.967 117.497ZM403.327 117.497C403.327 118.797 404.097 119.432 404.992 119.432C405.876 119.432 406.75 118.797 406.75 117.497C406.75 116.196 405.907 115.572 405.023 115.572C404.128 115.572 403.327 116.196 403.327 117.497ZM413.208 120.368V117.164C413.208 116.113 412.636 115.572 411.772 115.572C410.898 115.572 410.326 116.113 410.326 117.164V120.368H409.14V114.635H410.326V115.291C410.711 114.823 411.346 114.542 412.032 114.542C413.374 114.542 414.384 115.384 414.384 116.987V120.368H413.208ZM420.173 118.766C420.173 119.733 419.33 120.462 417.978 120.462C416.604 120.462 415.637 119.65 415.584 118.61H416.812C416.854 119.078 417.301 119.463 417.957 119.463C418.643 119.463 419.008 119.172 419.008 118.776C419.008 117.653 415.678 118.298 415.678 116.196C415.678 115.28 416.531 114.542 417.884 114.542C419.184 114.542 420.038 115.239 420.1 116.383H418.914C418.872 115.884 418.487 115.54 417.842 115.54C417.208 115.54 416.875 115.801 416.875 116.186C416.875 117.34 420.11 116.695 420.173 118.766ZM423.868 115.54C423.067 115.54 422.422 116.082 422.297 116.987H425.471C425.45 116.102 424.753 115.54 423.868 115.54ZM426.553 118.662C426.23 119.661 425.325 120.462 423.92 120.462C422.276 120.462 421.059 119.297 421.059 117.497C421.059 115.697 422.224 114.542 423.92 114.542C425.554 114.542 426.709 115.676 426.709 117.361C426.709 117.559 426.698 117.746 426.667 117.944H422.287C422.37 118.891 423.046 119.463 423.92 119.463C424.649 119.463 425.054 119.109 425.273 118.662H426.553ZM432.152 118.766C432.152 119.733 431.31 120.462 429.957 120.462C428.584 120.462 427.616 119.65 427.564 118.61H428.792C428.833 119.078 429.281 119.463 429.936 119.463C430.623 119.463 430.987 119.172 430.987 118.776C430.987 117.653 427.658 118.298 427.658 116.196C427.658 115.28 428.511 114.542 429.863 114.542C431.164 114.542 432.017 115.239 432.079 116.383H430.893C430.852 115.884 430.467 115.54 429.822 115.54C429.187 115.54 428.854 115.801 428.854 116.186C428.854 117.34 432.09 116.695 432.152 118.766Z" fill="#11002A"/>
<path d="M33.953 154.554V152.972H30.1866V152.077L33.6825 147.062H35.1183V151.942H36.086V152.972H35.1183V154.554H33.953ZM31.5496 151.942H34.0051V148.269L31.5496 151.942ZM44.8073 152.504C44.8073 153.586 43.9229 154.627 42.3102 154.627C40.864 154.627 39.7507 153.836 39.7507 152.556H41.0201C41.0721 153.149 41.4883 153.628 42.3102 153.628C43.1426 153.628 43.6108 153.18 43.6108 152.566C43.6108 150.818 39.7715 151.953 39.7715 149.289C39.7715 148.02 40.7807 147.229 42.2582 147.229C43.642 147.229 44.62 147.957 44.7241 149.195H43.4131C43.3715 148.706 42.9449 148.259 42.1958 148.238C41.5091 148.217 40.9784 148.55 40.9784 149.247C40.9784 150.881 44.8073 149.861 44.8073 152.504ZM46.3941 152.962V149.788H45.7178V148.821H46.3941V147.395H47.5907V148.821H48.9849V149.788H47.5907V152.962C47.5907 153.388 47.7571 153.565 48.2565 153.565H48.9849V154.554H48.0484C47.0288 154.554 46.3941 154.127 46.3941 152.962ZM49.6827 151.661C49.6827 149.892 50.8792 148.727 52.3879 148.727C53.3555 148.727 54.0214 149.185 54.3751 149.653V148.821H55.5716V154.554H54.3751V153.701C54.011 154.19 53.3243 154.647 52.367 154.647C50.8792 154.647 49.6827 153.43 49.6827 151.661ZM54.3751 151.682C54.3751 150.454 53.5323 149.757 52.6376 149.757C51.7532 149.757 50.9 150.423 50.9 151.661C50.9 152.899 51.7532 153.617 52.6376 153.617C53.5323 153.617 54.3751 152.92 54.3751 151.682ZM58.3157 151.536V154.554H57.1295V148.821H58.3157V149.653C58.6486 149.081 59.2208 148.727 60.0324 148.727V149.955H59.7307C58.8567 149.955 58.3157 150.319 58.3157 151.536ZM65.3989 152.951C65.3989 153.919 64.5562 154.647 63.2036 154.647C61.8302 154.647 60.8626 153.836 60.8105 152.795H62.0383C62.0799 153.264 62.5273 153.649 63.1828 153.649C63.8695 153.649 64.2336 153.357 64.2336 152.962C64.2336 151.838 60.9042 152.483 60.9042 150.382C60.9042 149.466 61.7573 148.727 63.1099 148.727C64.4105 148.727 65.2637 149.424 65.3261 150.569H64.14C64.0984 150.069 63.7134 149.726 63.0683 149.726C62.4336 149.726 62.1007 149.986 62.1007 150.371C62.1007 151.526 65.3365 150.881 65.3989 152.951Z" fill="#11002A"/>
<rect x="101.053" y="143.379" width="213.348" height="16.3499" rx="2.97271" fill="#F4F4F4"/>
<rect x="101.053" y="143.379" width="115.159" height="16.3499" rx="2.97271" fill="#6200EE"/>
<path d="M326.895 148.842C326.979 147.531 327.998 146.792 329.382 146.792C330.891 146.792 331.713 147.666 331.713 148.769C331.713 149.674 331.14 150.288 330.547 150.486V150.527C331.338 150.766 331.848 151.422 331.848 152.473C331.848 153.68 330.995 154.595 329.413 154.595C327.978 154.595 326.864 153.846 326.791 152.358H327.936C327.988 153.066 328.508 153.607 329.403 153.607C330.287 153.607 330.724 153.066 330.724 152.358C330.724 151.36 330.079 151.016 328.841 151.016H328.571V150.038H328.851C329.923 150.028 330.579 149.716 330.579 148.904C330.579 148.249 330.152 147.812 329.341 147.812C328.508 147.812 328.123 148.311 328.05 148.842H326.895ZM333.094 150.662C333.094 148.498 333.677 146.834 335.799 146.834C337.922 146.834 338.504 148.498 338.504 150.662C338.504 152.868 337.922 154.533 335.799 154.533C333.677 154.533 333.094 152.868 333.094 150.662ZM337.339 150.662C337.339 149.247 337.183 147.916 335.799 147.916C334.415 147.916 334.259 149.247 334.259 150.662C334.259 152.15 334.415 153.451 335.799 153.451C337.183 153.451 337.339 152.15 337.339 150.662ZM339.572 148.8C339.572 147.77 340.248 147.177 341.154 147.177C342.059 147.177 342.735 147.77 342.735 148.8C342.735 149.84 342.059 150.434 341.154 150.434C340.248 150.434 339.572 149.84 339.572 148.8ZM341.154 147.895C340.748 147.895 340.498 148.155 340.498 148.8C340.498 149.445 340.748 149.716 341.154 149.716C341.549 149.716 341.809 149.445 341.809 148.8C341.809 148.155 341.549 147.895 341.154 147.895ZM340.602 154.554L344.753 147.312H345.919L341.767 154.554H340.602ZM343.807 153.055C343.807 152.015 344.483 151.432 345.388 151.432C346.283 151.432 346.959 152.015 346.959 153.055C346.959 154.096 346.283 154.689 345.388 154.689C344.483 154.689 343.807 154.096 343.807 153.055ZM345.378 152.15C344.982 152.15 344.722 152.41 344.722 153.055C344.722 153.701 344.982 153.961 345.378 153.961C345.773 153.961 346.033 153.701 346.033 153.055C346.033 152.41 345.773 152.15 345.378 152.15ZM351.004 151.287V150.288H355.28V151.287H351.004ZM360.323 154.554V148.051H359.356V146.969H361.52V154.554H360.323ZM366.77 154.554V152.972H363.003V152.077L366.499 147.062H367.935V151.942H368.903V152.972H367.935V154.554H366.77ZM364.366 151.942H366.822V148.269L364.366 151.942ZM373.506 154.554V152.972H369.74V152.077L373.236 147.062H374.672V151.942H375.639V152.972H374.672V154.554H373.506ZM371.103 151.942H373.558V148.269L371.103 151.942ZM380.667 151.536V154.554H379.481V148.821H380.667V149.653C381 149.081 381.572 148.727 382.384 148.727V149.955H382.082C381.208 149.955 380.667 150.319 380.667 151.536ZM385.888 149.726C385.087 149.726 384.442 150.267 384.317 151.172H387.49C387.469 150.288 386.772 149.726 385.888 149.726ZM388.572 152.847C388.25 153.846 387.345 154.647 385.94 154.647C384.296 154.647 383.079 153.482 383.079 151.682C383.079 149.882 384.244 148.727 385.94 148.727C387.573 148.727 388.728 149.861 388.728 151.547C388.728 151.744 388.718 151.932 388.687 152.129H384.306C384.39 153.076 385.066 153.649 385.94 153.649C386.668 153.649 387.074 153.295 387.292 152.847H388.572ZM394.172 152.951C394.172 153.919 393.329 154.647 391.976 154.647C390.603 154.647 389.635 153.836 389.583 152.795H390.811C390.853 153.264 391.3 153.649 391.956 153.649C392.642 153.649 393.007 153.357 393.007 152.962C393.007 151.838 389.677 152.483 389.677 150.382C389.677 149.466 390.53 148.727 391.883 148.727C393.183 148.727 394.037 149.424 394.099 150.569H392.913C392.871 150.069 392.486 149.726 391.841 149.726C391.207 149.726 390.874 149.986 390.874 150.371C390.874 151.526 394.109 150.881 394.172 152.951ZM396.64 149.664C397.004 149.185 397.701 148.727 398.637 148.727C400.146 148.727 401.332 149.892 401.332 151.661C401.332 153.43 400.146 154.647 398.637 154.647C397.69 154.647 397.014 154.169 396.64 153.721V157.28H395.453V148.821H396.64V149.664ZM400.125 151.661C400.125 150.423 399.272 149.757 398.377 149.757C397.493 149.757 396.64 150.454 396.64 151.682C396.64 152.92 397.493 153.617 398.377 153.617C399.272 153.617 400.125 152.899 400.125 151.661ZM407.967 151.682C407.967 153.482 406.636 154.647 404.992 154.647C403.358 154.647 402.12 153.482 402.12 151.682C402.12 149.882 403.41 148.727 405.044 148.727C406.677 148.727 407.967 149.882 407.967 151.682ZM403.327 151.682C403.327 152.983 404.097 153.617 404.992 153.617C405.876 153.617 406.75 152.983 406.75 151.682C406.75 150.382 405.907 149.757 405.023 149.757C404.128 149.757 403.327 150.382 403.327 151.682ZM413.208 154.554V151.349C413.208 150.298 412.636 149.757 411.772 149.757C410.898 149.757 410.326 150.298 410.326 151.349V154.554H409.14V148.821H410.326V149.476C410.711 149.008 411.346 148.727 412.032 148.727C413.374 148.727 414.384 149.57 414.384 151.172V154.554H413.208ZM420.173 152.951C420.173 153.919 419.33 154.647 417.978 154.647C416.604 154.647 415.637 153.836 415.584 152.795H416.812C416.854 153.264 417.301 153.649 417.957 153.649C418.643 153.649 419.008 153.357 419.008 152.962C419.008 151.838 415.678 152.483 415.678 150.382C415.678 149.466 416.531 148.727 417.884 148.727C419.184 148.727 420.038 149.424 420.1 150.569H418.914C418.872 150.069 418.487 149.726 417.842 149.726C417.208 149.726 416.875 149.986 416.875 150.371C416.875 151.526 420.11 150.881 420.173 152.951ZM423.868 149.726C423.067 149.726 422.422 150.267 422.297 151.172H425.471C425.45 150.288 424.753 149.726 423.868 149.726ZM426.553 152.847C426.23 153.846 425.325 154.647 423.92 154.647C422.276 154.647 421.059 153.482 421.059 151.682C421.059 149.882 422.224 148.727 423.92 148.727C425.554 148.727 426.709 149.861 426.709 151.547C426.709 151.744 426.698 151.932 426.667 152.129H422.287C422.37 153.076 423.046 153.649 423.92 153.649C424.649 153.649 425.054 153.295 425.273 152.847H426.553ZM432.152 152.951C432.152 153.919 431.31 154.647 429.957 154.647C428.584 154.647 427.616 153.836 427.564 152.795H428.792C428.833 153.264 429.281 153.649 429.936 153.649C430.623 153.649 430.987 153.357 430.987 152.962C430.987 151.838 427.658 152.483 427.658 150.382C427.658 149.466 428.511 148.727 429.863 148.727C431.164 148.727 432.017 149.424 432.079 150.569H430.893C430.852 150.069 430.467 149.726 429.822 149.726C429.187 149.726 428.854 149.986 428.854 150.371C428.854 151.526 432.09 150.881 432.152 152.951Z" fill="#11002A"/>
<path d="M30.6444 181.135H35.2224V182.175H31.7369V184.245C32.0178 183.871 32.6317 183.559 33.308 183.559C35.1704 183.559 35.7426 184.943 35.7426 186.087C35.7426 187.596 34.879 188.74 33.1207 188.74C31.56 188.74 30.6548 187.877 30.4779 186.691H31.6328C31.7889 187.336 32.3299 187.752 33.1311 187.752C34.1507 187.752 34.6085 187.055 34.6085 186.118C34.6085 185.13 34.1195 184.568 33.1311 184.568C32.434 184.568 31.9658 184.953 31.7681 185.515H30.6444V181.135ZM44.7158 186.691C44.7158 187.773 43.8315 188.813 42.2188 188.813C40.7725 188.813 39.6593 188.022 39.6593 186.743H40.9286C40.9806 187.336 41.3968 187.814 42.2188 187.814C43.0511 187.814 43.5193 187.367 43.5193 186.753C43.5193 185.005 39.6801 186.139 39.6801 183.476C39.6801 182.206 40.6893 181.415 42.1667 181.415C43.5505 181.415 44.5286 182.144 44.6326 183.382H43.3216C43.28 182.893 42.8534 182.446 42.1043 182.425C41.4176 182.404 40.887 182.737 40.887 183.434C40.887 185.067 44.7158 184.048 44.7158 186.691ZM46.3027 187.148V183.975H45.6264V183.007H46.3027V181.582H47.4992V183.007H48.8934V183.975H47.4992V187.148C47.4992 187.575 47.6657 187.752 48.1651 187.752H48.8934V188.74H47.957C46.9374 188.74 46.3027 188.314 46.3027 187.148ZM49.5912 185.848C49.5912 184.079 50.7878 182.914 52.2964 182.914C53.264 182.914 53.9299 183.372 54.2837 183.84V183.007H55.4802V188.74H54.2837V187.887C53.9195 188.376 53.2328 188.834 52.2756 188.834C50.7878 188.834 49.5912 187.617 49.5912 185.848ZM54.2837 185.869C54.2837 184.641 53.4409 183.944 52.5461 183.944C51.6617 183.944 50.8086 184.61 50.8086 185.848C50.8086 187.086 51.6617 187.804 52.5461 187.804C53.4409 187.804 54.2837 187.107 54.2837 185.869ZM58.2242 185.723V188.74H57.0381V183.007H58.2242V183.84C58.5572 183.267 59.1294 182.914 59.9409 182.914V184.141H59.6392C58.7652 184.141 58.2242 184.506 58.2242 185.723ZM65.3075 187.138C65.3075 188.106 64.4647 188.834 63.1121 188.834C61.7387 188.834 60.7711 188.022 60.7191 186.982H61.9468C61.9884 187.45 62.4358 187.835 63.0913 187.835C63.778 187.835 64.1422 187.544 64.1422 187.148C64.1422 186.025 60.8127 186.67 60.8127 184.568C60.8127 183.652 61.6659 182.914 63.0185 182.914C64.319 182.914 65.1722 183.611 65.2346 184.755H64.0485C64.0069 184.256 63.6219 183.913 62.9769 183.913C62.3422 183.913 62.0092 184.173 62.0092 184.558C62.0092 185.713 65.245 185.067 65.3075 187.138Z" fill="#11002A"/>
<rect x="101.053" y="177.565" width="213.348" height="16.3499" rx="2.97271" fill="#F4F4F4"/>
<rect x="101.053" y="177.565" width="63.5195" height="16.3499" rx="2.97271" fill="#6200EE"/>
<path d="M326.895 183.028C326.979 181.717 327.998 180.978 329.382 180.978C330.891 180.978 331.713 181.852 331.713 182.955C331.713 183.861 331.14 184.474 330.547 184.672V184.714C331.338 184.953 331.848 185.608 331.848 186.659C331.848 187.866 330.995 188.782 329.413 188.782C327.978 188.782 326.864 188.033 326.791 186.545H327.936C327.988 187.252 328.508 187.793 329.403 187.793C330.287 187.793 330.724 187.252 330.724 186.545C330.724 185.546 330.079 185.203 328.841 185.203H328.571V184.225H328.851C329.923 184.214 330.579 183.902 330.579 183.091C330.579 182.435 330.152 181.998 329.341 181.998C328.508 181.998 328.123 182.498 328.05 183.028H326.895ZM333.094 184.849C333.094 182.685 333.677 181.02 335.799 181.02C337.922 181.02 338.504 182.685 338.504 184.849C338.504 187.055 337.922 188.719 335.799 188.719C333.677 188.719 333.094 187.055 333.094 184.849ZM337.339 184.849C337.339 183.434 337.183 182.102 335.799 182.102C334.415 182.102 334.259 183.434 334.259 184.849C334.259 186.337 334.415 187.637 335.799 187.637C337.183 187.637 337.339 186.337 337.339 184.849ZM339.572 182.987C339.572 181.957 340.248 181.363 341.154 181.363C342.059 181.363 342.735 181.957 342.735 182.987C342.735 184.027 342.059 184.62 341.154 184.62C340.248 184.62 339.572 184.027 339.572 182.987ZM341.154 182.081C340.748 182.081 340.498 182.341 340.498 182.987C340.498 183.632 340.748 183.902 341.154 183.902C341.549 183.902 341.809 183.632 341.809 182.987C341.809 182.341 341.549 182.081 341.154 182.081ZM340.602 188.74L344.753 181.499H345.919L341.767 188.74H340.602ZM343.807 187.242C343.807 186.202 344.483 185.619 345.388 185.619C346.283 185.619 346.959 186.202 346.959 187.242C346.959 188.282 346.283 188.875 345.388 188.875C344.483 188.875 343.807 188.282 343.807 187.242ZM345.378 186.337C344.982 186.337 344.722 186.597 344.722 187.242C344.722 187.887 344.982 188.147 345.378 188.147C345.773 188.147 346.033 187.887 346.033 187.242C346.033 186.597 345.773 186.337 345.378 186.337ZM351.004 185.473V184.474H355.28V185.473H351.004ZM360.323 188.74V182.237H359.356V181.155H361.52V188.74H360.323ZM366.77 188.74V187.159H363.003V186.264L366.499 181.249H367.935V186.129H368.903V187.159H367.935V188.74H366.77ZM364.366 186.129H366.822V182.456L364.366 186.129ZM373.506 188.74V187.159H369.74V186.264L373.236 181.249H374.672V186.129H375.639V187.159H374.672V188.74H373.506ZM371.103 186.129H373.558V182.456L371.103 186.129ZM380.667 185.723V188.74H379.481V183.007H380.667V183.84C381 183.267 381.572 182.914 382.384 182.914V184.141H382.082C381.208 184.141 380.667 184.506 380.667 185.723ZM385.888 183.913C385.087 183.913 384.442 184.454 384.317 185.359H387.49C387.469 184.474 386.772 183.913 385.888 183.913ZM388.572 187.034C388.25 188.033 387.345 188.834 385.94 188.834C384.296 188.834 383.079 187.669 383.079 185.869C383.079 184.069 384.244 182.914 385.94 182.914C387.573 182.914 388.728 184.048 388.728 185.733C388.728 185.931 388.718 186.118 388.687 186.316H384.306C384.39 187.263 385.066 187.835 385.94 187.835C386.668 187.835 387.074 187.481 387.292 187.034H388.572ZM394.172 187.138C394.172 188.106 393.329 188.834 391.976 188.834C390.603 188.834 389.635 188.022 389.583 186.982H390.811C390.853 187.45 391.3 187.835 391.956 187.835C392.642 187.835 393.007 187.544 393.007 187.148C393.007 186.025 389.677 186.67 389.677 184.568C389.677 183.652 390.53 182.914 391.883 182.914C393.183 182.914 394.037 183.611 394.099 184.755H392.913C392.871 184.256 392.486 183.913 391.841 183.913C391.207 183.913 390.874 184.173 390.874 184.558C390.874 185.713 394.109 185.067 394.172 187.138ZM396.64 183.85C397.004 183.372 397.701 182.914 398.637 182.914C400.146 182.914 401.332 184.079 401.332 185.848C401.332 187.617 400.146 188.834 398.637 188.834C397.69 188.834 397.014 188.355 396.64 187.908V191.466H395.453V183.007H396.64V183.85ZM400.125 185.848C400.125 184.61 399.272 183.944 398.377 183.944C397.493 183.944 396.64 184.641 396.64 185.869C396.64 187.107 397.493 187.804 398.377 187.804C399.272 187.804 400.125 187.086 400.125 185.848ZM407.967 185.869C407.967 187.669 406.636 188.834 404.992 188.834C403.358 188.834 402.12 187.669 402.12 185.869C402.12 184.069 403.41 182.914 405.044 182.914C406.677 182.914 407.967 184.069 407.967 185.869ZM403.327 185.869C403.327 187.169 404.097 187.804 404.992 187.804C405.876 187.804 406.75 187.169 406.75 185.869C406.75 184.568 405.907 183.944 405.023 183.944C404.128 183.944 403.327 184.568 403.327 185.869ZM413.208 188.74V185.536C413.208 184.485 412.636 183.944 411.772 183.944C410.898 183.944 410.326 184.485 410.326 185.536V188.74H409.14V183.007H410.326V183.663C410.711 183.195 411.346 182.914 412.032 182.914C413.374 182.914 414.384 183.756 414.384 185.359V188.74H413.208ZM420.173 187.138C420.173 188.106 419.33 188.834 417.978 188.834C416.604 188.834 415.637 188.022 415.584 186.982H416.812C416.854 187.45 417.301 187.835 417.957 187.835C418.643 187.835 419.008 187.544 419.008 187.148C419.008 186.025 415.678 186.67 415.678 184.568C415.678 183.652 416.531 182.914 417.884 182.914C419.184 182.914 420.038 183.611 420.1 184.755H418.914C418.872 184.256 418.487 183.913 417.842 183.913C417.208 183.913 416.875 184.173 416.875 184.558C416.875 185.713 420.11 185.067 420.173 187.138ZM423.868 183.913C423.067 183.913 422.422 184.454 422.297 185.359H425.471C425.45 184.474 424.753 183.913 423.868 183.913ZM426.553 187.034C426.23 188.033 425.325 188.834 423.92 188.834C422.276 188.834 421.059 187.669 421.059 185.869C421.059 184.069 422.224 182.914 423.92 182.914C425.554 182.914 426.709 184.048 426.709 185.733C426.709 185.931 426.698 186.118 426.667 186.316H422.287C422.37 187.263 423.046 187.835 423.92 187.835C424.649 187.835 425.054 187.481 425.273 187.034H426.553ZM432.152 187.138C432.152 188.106 431.31 188.834 429.957 188.834C428.584 188.834 427.616 188.022 427.564 186.982H428.792C428.833 187.45 429.281 187.835 429.936 187.835C430.623 187.835 430.987 187.544 430.987 187.148C430.987 186.025 427.658 186.67 427.658 184.568C427.658 183.652 428.511 182.914 429.863 182.914C431.164 182.914 432.017 183.611 432.079 184.755H430.893C430.852 184.256 430.467 183.913 429.822 183.913C429.187 183.913 428.854 184.173 428.854 184.558C428.854 185.713 432.09 185.067 432.152 187.138Z" fill="#11002A"/>
</svg>
