<svg width="422" height="330" viewBox="0 0 422 330" fill="none" xmlns="http://www.w3.org/2000/svg">
<g filter="url(#filter0_d_1_11192)">
<rect x="24.5" y="21.3242" width="372.555" height="279.137" rx="10.6923" fill="white" stroke="#F2F4F7"/>
<path d="M116.09 156.75C113.08 142.634 113.267 128.022 116.637 113.987C120.007 99.9513 126.476 86.848 135.568 75.6374C144.66 64.4267 156.146 55.3928 169.184 49.1978C182.221 43.0028 196.479 39.8038 210.914 39.8352L210.703 136.575L116.09 156.75Z" fill="#EFE6FD"/>
<path d="M279.108 204.981C266.819 217.27 251.445 226.022 234.604 230.316C217.762 234.61 200.075 234.288 183.401 229.383C166.727 224.477 151.683 215.171 139.849 202.441C128.016 189.712 119.83 174.029 116.153 157.042L210.703 136.575L279.108 204.981Z" fill="#B78AF7"/>
<path d="M267.977 214.539C284.359 202.504 296.533 185.615 302.773 166.27C309.012 146.924 308.999 126.104 302.736 106.766C296.473 87.4285 284.277 70.5548 267.881 58.5406C251.484 46.5265 231.72 39.9824 211.393 39.8374L210.703 136.575L267.977 214.539Z" fill="#6200EE"/>
<circle cx="88.4917" cy="262.2" r="4.97212" fill="#4A3AFF"/>
<path d="M99.346 257.559H100.523L103.289 264.316H103.384L106.15 257.559H107.327V265.699H106.405V259.515H106.325L103.782 265.699H102.891L100.348 259.515H100.268V265.699H99.346V257.559ZM110.973 265.842C110.586 265.842 110.235 265.769 109.919 265.624C109.604 265.475 109.354 265.262 109.168 264.984C108.983 264.703 108.89 264.364 108.89 263.966C108.89 263.617 108.959 263.333 109.097 263.116C109.234 262.896 109.419 262.724 109.649 262.599C109.88 262.475 110.134 262.382 110.412 262.321C110.693 262.257 110.975 262.207 111.259 262.17C111.63 262.122 111.93 262.086 112.161 262.063C112.394 262.036 112.564 261.992 112.67 261.931C112.778 261.87 112.833 261.764 112.833 261.613V261.582C112.833 261.189 112.725 260.885 112.511 260.667C112.299 260.45 111.977 260.342 111.545 260.342C111.097 260.342 110.746 260.44 110.492 260.636C110.237 260.832 110.058 261.041 109.955 261.264L109.065 260.946C109.224 260.575 109.436 260.286 109.701 260.079C109.968 259.87 110.26 259.724 110.575 259.642C110.893 259.557 111.206 259.515 111.513 259.515C111.709 259.515 111.934 259.539 112.189 259.586C112.446 259.631 112.694 259.725 112.932 259.869C113.173 260.012 113.373 260.228 113.532 260.516C113.691 260.805 113.771 261.192 113.771 261.677V265.699H112.833V264.873H112.785C112.721 265.005 112.615 265.147 112.467 265.298C112.319 265.449 112.121 265.577 111.875 265.683C111.628 265.789 111.328 265.842 110.973 265.842ZM111.116 265C111.487 265 111.799 264.927 112.054 264.781C112.311 264.635 112.504 264.447 112.634 264.217C112.766 263.986 112.833 263.744 112.833 263.489V262.631C112.793 262.679 112.705 262.722 112.57 262.762C112.438 262.799 112.284 262.832 112.109 262.861C111.937 262.888 111.769 262.912 111.605 262.933C111.443 262.951 111.312 262.967 111.211 262.981C110.967 263.012 110.739 263.064 110.527 263.136C110.318 263.205 110.149 263.309 110.019 263.45C109.891 263.587 109.828 263.776 109.828 264.014C109.828 264.34 109.948 264.586 110.19 264.753C110.433 264.918 110.742 265 111.116 265ZM116.421 257.559V265.699H115.483V257.559H116.421ZM120.698 265.826C120.11 265.826 119.603 265.697 119.176 265.437C118.752 265.175 118.425 264.809 118.194 264.34C117.966 263.868 117.852 263.32 117.852 262.694C117.852 262.069 117.966 261.518 118.194 261.041C118.425 260.561 118.745 260.188 119.156 259.92C119.569 259.65 120.052 259.515 120.603 259.515C120.921 259.515 121.235 259.568 121.545 259.674C121.855 259.78 122.137 259.952 122.391 260.191C122.646 260.426 122.848 260.739 123 261.128C123.151 261.518 123.226 261.998 123.226 262.567V262.965H118.52V262.154H122.272C122.272 261.809 122.203 261.502 122.066 261.232C121.93 260.962 121.737 260.748 121.485 260.592C121.236 260.436 120.942 260.357 120.603 260.357C120.229 260.357 119.906 260.45 119.633 260.636C119.363 260.818 119.155 261.057 119.009 261.351C118.863 261.645 118.79 261.961 118.79 262.297V262.838C118.79 263.299 118.87 263.689 119.029 264.01C119.191 264.328 119.414 264.57 119.701 264.737C119.987 264.902 120.319 264.984 120.698 264.984C120.945 264.984 121.167 264.949 121.366 264.88C121.567 264.809 121.741 264.703 121.887 264.563C122.032 264.419 122.145 264.242 122.224 264.03L123.131 264.284C123.035 264.592 122.875 264.862 122.65 265.095C122.425 265.326 122.146 265.506 121.815 265.636C121.484 265.763 121.112 265.826 120.698 265.826Z" fill="#9291A5"/>
<path d="M132.79 265.811C132.221 265.811 131.717 265.712 131.28 265.516C130.845 265.32 130.505 265.05 130.258 264.706C130.012 264.361 129.89 263.969 129.893 263.529C129.89 263.185 129.96 262.868 130.103 262.579C130.249 262.288 130.447 262.045 130.696 261.852C130.945 261.656 131.223 261.531 131.53 261.478V261.431C131.125 261.333 130.8 261.115 130.557 260.779C130.313 260.442 130.192 260.055 130.195 259.618C130.192 259.202 130.302 258.831 130.525 258.505C130.75 258.177 131.059 257.918 131.451 257.73C131.843 257.542 132.289 257.448 132.79 257.448C133.286 257.448 133.728 257.543 134.118 257.734C134.51 257.922 134.819 258.181 135.044 258.509C135.269 258.835 135.383 259.205 135.386 259.618C135.383 260.055 135.258 260.442 135.012 260.779C134.766 261.115 134.445 261.333 134.05 261.431V261.478C134.355 261.531 134.629 261.656 134.873 261.852C135.119 262.045 135.315 262.288 135.461 262.579C135.609 262.868 135.685 263.185 135.688 263.529C135.685 263.969 135.56 264.361 135.314 264.706C135.068 265.05 134.726 265.32 134.289 265.516C133.854 265.712 133.355 265.811 132.79 265.811ZM132.79 264.805C133.127 264.805 133.418 264.749 133.665 264.638C133.911 264.524 134.102 264.366 134.237 264.165C134.372 263.961 134.441 263.723 134.444 263.45C134.441 263.166 134.367 262.916 134.221 262.698C134.078 262.481 133.883 262.31 133.637 262.186C133.39 262.061 133.108 261.999 132.79 261.999C132.47 261.999 132.185 262.061 131.936 262.186C131.687 262.31 131.491 262.481 131.347 262.698C131.204 262.916 131.134 263.166 131.137 263.45C131.134 263.723 131.199 263.961 131.332 264.165C131.467 264.366 131.659 264.524 131.908 264.638C132.157 264.749 132.451 264.805 132.79 264.805ZM132.79 261.017C133.06 261.017 133.3 260.963 133.51 260.854C133.719 260.746 133.883 260.595 134.002 260.401C134.124 260.208 134.187 259.981 134.189 259.722C134.187 259.467 134.126 259.245 134.006 259.054C133.89 258.863 133.727 258.716 133.518 258.613C133.308 258.507 133.066 258.454 132.79 258.454C132.509 258.454 132.263 258.507 132.051 258.613C131.842 258.716 131.679 258.863 131.562 259.054C131.445 259.245 131.389 259.467 131.391 259.722C131.389 259.981 131.447 260.208 131.566 260.401C131.685 260.595 131.85 260.746 132.059 260.854C132.271 260.963 132.515 261.017 132.79 261.017ZM139.945 265.834C139.317 265.832 138.781 265.666 138.336 265.338C137.891 265.009 137.55 264.531 137.314 263.903C137.078 263.275 136.96 262.518 136.96 261.633C136.96 260.751 137.078 259.997 137.314 259.372C137.553 258.746 137.895 258.269 138.34 257.941C138.787 257.612 139.323 257.448 139.945 257.448C140.568 257.448 141.102 257.614 141.547 257.945C141.992 258.273 142.333 258.75 142.569 259.376C142.807 259.998 142.926 260.751 142.926 261.633C142.926 262.521 142.808 263.279 142.573 263.907C142.337 264.532 141.996 265.01 141.551 265.342C141.106 265.67 140.571 265.834 139.945 265.834ZM139.945 264.773C140.497 264.773 140.927 264.504 141.237 263.966C141.55 263.428 141.706 262.651 141.706 261.633C141.706 260.958 141.635 260.387 141.491 259.92C141.351 259.451 141.148 259.096 140.883 258.855C140.621 258.611 140.308 258.489 139.945 258.489C139.397 258.489 138.966 258.76 138.654 259.3C138.341 259.841 138.183 260.618 138.181 261.633C138.181 262.312 138.251 262.885 138.391 263.354C138.534 263.821 138.737 264.174 138.999 264.415C139.262 264.654 139.577 264.773 139.945 264.773Z" fill="#1E1B39"/>
<circle cx="182.806" cy="262.2" r="4.97212" fill="#9654F4"/>
<path d="M193.66 265.699V257.559H198.541V258.434H194.646V261.184H198.176V262.059H194.646V265.699H193.66ZM202.214 265.826C201.625 265.826 201.118 265.697 200.691 265.437C200.268 265.175 199.94 264.809 199.71 264.34C199.482 263.868 199.368 263.32 199.368 262.694C199.368 262.069 199.482 261.518 199.71 261.041C199.94 260.561 200.261 260.188 200.672 259.92C201.085 259.65 201.567 259.515 202.118 259.515C202.436 259.515 202.75 259.568 203.06 259.674C203.37 259.78 203.652 259.952 203.907 260.191C204.161 260.426 204.364 260.739 204.515 261.128C204.666 261.518 204.742 261.998 204.742 262.567V262.965H200.036V262.154H203.788C203.788 261.809 203.719 261.502 203.581 261.232C203.446 260.962 203.252 260.748 203.001 260.592C202.752 260.436 202.457 260.357 202.118 260.357C201.745 260.357 201.421 260.45 201.149 260.636C200.878 260.818 200.67 261.057 200.525 261.351C200.379 261.645 200.306 261.961 200.306 262.297V262.838C200.306 263.299 200.385 263.689 200.544 264.01C200.706 264.328 200.93 264.57 201.216 264.737C201.502 264.902 201.835 264.984 202.214 264.984C202.46 264.984 202.683 264.949 202.881 264.88C203.083 264.809 203.256 264.703 203.402 264.563C203.548 264.419 203.66 264.242 203.74 264.03L204.646 264.284C204.551 264.592 204.39 264.862 204.165 265.095C203.94 265.326 203.662 265.506 203.331 265.636C202.999 265.763 202.627 265.826 202.214 265.826ZM206.168 265.699V259.594H207.075V260.548H207.154C207.281 260.222 207.487 259.969 207.77 259.789C208.054 259.606 208.394 259.515 208.792 259.515C209.194 259.515 209.53 259.606 209.797 259.789C210.067 259.969 210.278 260.222 210.429 260.548H210.493C210.649 260.233 210.884 259.983 211.196 259.797C211.509 259.609 211.884 259.515 212.321 259.515C212.867 259.515 213.313 259.686 213.66 260.028C214.007 260.367 214.181 260.895 214.181 261.613V265.699H213.243V261.613C213.243 261.163 213.12 260.841 212.873 260.648C212.627 260.454 212.337 260.357 212.003 260.357C211.574 260.357 211.241 260.487 211.005 260.747C210.77 261.004 210.652 261.33 210.652 261.725V265.699H209.698V261.518C209.698 261.171 209.585 260.891 209.36 260.679C209.135 260.465 208.845 260.357 208.49 260.357C208.246 260.357 208.018 260.422 207.806 260.552C207.597 260.682 207.427 260.862 207.297 261.093C207.17 261.321 207.106 261.584 207.106 261.884V265.699H206.168ZM217.693 265.842C217.306 265.842 216.955 265.769 216.639 265.624C216.324 265.475 216.074 265.262 215.888 264.984C215.703 264.703 215.61 264.364 215.61 263.966C215.61 263.617 215.679 263.333 215.817 263.116C215.954 262.896 216.139 262.724 216.369 262.599C216.6 262.475 216.854 262.382 217.132 262.321C217.413 262.257 217.695 262.207 217.979 262.17C218.35 262.122 218.65 262.086 218.881 262.063C219.114 262.036 219.284 261.992 219.39 261.931C219.498 261.87 219.553 261.764 219.553 261.613V261.582C219.553 261.189 219.445 260.885 219.231 260.667C219.019 260.45 218.697 260.342 218.265 260.342C217.817 260.342 217.466 260.44 217.212 260.636C216.957 260.832 216.778 261.041 216.675 261.264L215.785 260.946C215.944 260.575 216.156 260.286 216.421 260.079C216.688 259.87 216.98 259.724 217.295 259.642C217.613 259.557 217.926 259.515 218.233 259.515C218.429 259.515 218.654 259.539 218.909 259.586C219.166 259.631 219.414 259.725 219.652 259.869C219.893 260.012 220.093 260.228 220.252 260.516C220.411 260.805 220.491 261.192 220.491 261.677V265.699H219.553V264.873H219.505C219.441 265.005 219.335 265.147 219.187 265.298C219.039 265.449 218.841 265.577 218.595 265.683C218.348 265.789 218.048 265.842 217.693 265.842ZM217.836 265C218.207 265 218.519 264.927 218.774 264.781C219.031 264.635 219.224 264.447 219.354 264.217C219.486 263.986 219.553 263.744 219.553 263.489V262.631C219.513 262.679 219.425 262.722 219.29 262.762C219.158 262.799 219.004 262.832 218.829 262.861C218.657 262.888 218.489 262.912 218.325 262.933C218.163 262.951 218.032 262.967 217.931 262.981C217.687 263.012 217.459 263.064 217.247 263.136C217.038 263.205 216.868 263.309 216.739 263.45C216.611 263.587 216.548 263.776 216.548 264.014C216.548 264.34 216.668 264.586 216.91 264.753C217.153 264.918 217.462 265 217.836 265ZM223.141 257.559V265.699H222.203V257.559H223.141ZM227.418 265.826C226.83 265.826 226.323 265.697 225.896 265.437C225.472 265.175 225.145 264.809 224.914 264.34C224.686 263.868 224.572 263.32 224.572 262.694C224.572 262.069 224.686 261.518 224.914 261.041C225.145 260.561 225.465 260.188 225.876 259.92C226.289 259.65 226.772 259.515 227.323 259.515C227.641 259.515 227.955 259.568 228.265 259.674C228.575 259.78 228.857 259.952 229.111 260.191C229.366 260.426 229.568 260.739 229.72 261.128C229.871 261.518 229.946 261.998 229.946 262.567V262.965H225.24V262.154H228.992C228.992 261.809 228.923 261.502 228.785 261.232C228.65 260.962 228.457 260.748 228.205 260.592C227.956 260.436 227.662 260.357 227.323 260.357C226.949 260.357 226.626 260.45 226.353 260.636C226.083 260.818 225.875 261.057 225.729 261.351C225.583 261.645 225.51 261.961 225.51 262.297V262.838C225.51 263.299 225.59 263.689 225.749 264.01C225.911 264.328 226.134 264.57 226.421 264.737C226.707 264.902 227.039 264.984 227.418 264.984C227.665 264.984 227.887 264.949 228.086 264.88C228.287 264.809 228.461 264.703 228.607 264.563C228.752 264.419 228.865 264.242 228.944 264.03L229.851 264.284C229.755 264.592 229.595 264.862 229.37 265.095C229.145 265.326 228.866 265.506 228.535 265.636C228.204 265.763 227.832 265.826 227.418 265.826Z" fill="#9291A5"/>
<path d="M239.188 265.811C238.642 265.811 238.155 265.716 237.725 265.528C237.299 265.34 236.961 265.079 236.712 264.745C236.466 264.409 236.333 264.019 236.315 263.577H237.563C237.578 263.818 237.659 264.027 237.805 264.205C237.953 264.38 238.147 264.515 238.385 264.61C238.624 264.706 238.889 264.753 239.18 264.753C239.501 264.753 239.784 264.698 240.031 264.586C240.28 264.475 240.475 264.32 240.615 264.121C240.755 263.92 240.826 263.688 240.826 263.426C240.826 263.153 240.755 262.913 240.615 262.706C240.477 262.497 240.274 262.333 240.007 262.214C239.742 262.094 239.421 262.035 239.045 262.035H238.357V261.033H239.045C239.347 261.033 239.612 260.979 239.84 260.87C240.07 260.762 240.251 260.61 240.38 260.417C240.51 260.221 240.575 259.992 240.575 259.729C240.575 259.478 240.518 259.259 240.404 259.074C240.293 258.886 240.134 258.738 239.927 258.632C239.723 258.526 239.482 258.474 239.204 258.474C238.939 258.474 238.691 258.523 238.461 258.621C238.233 258.716 238.047 258.854 237.904 259.034C237.761 259.211 237.684 259.425 237.674 259.674H236.485C236.499 259.234 236.629 258.847 236.875 258.513C237.124 258.179 237.453 257.918 237.861 257.73C238.269 257.542 238.722 257.448 239.22 257.448C239.742 257.448 240.192 257.55 240.571 257.754C240.953 257.955 241.247 258.224 241.454 258.561C241.663 258.897 241.766 259.266 241.764 259.666C241.766 260.122 241.639 260.508 241.382 260.826C241.128 261.144 240.789 261.358 240.365 261.466V261.53C240.905 261.612 241.324 261.827 241.621 262.174C241.92 262.521 242.068 262.951 242.066 263.466C242.068 263.913 241.944 264.315 241.692 264.67C241.443 265.025 241.103 265.304 240.671 265.508C240.239 265.71 239.745 265.811 239.188 265.811ZM246.402 265.834C245.774 265.832 245.237 265.666 244.792 265.338C244.347 265.009 244.007 264.531 243.771 263.903C243.535 263.275 243.417 262.518 243.417 261.633C243.417 260.751 243.535 259.997 243.771 259.372C244.009 258.746 244.351 258.269 244.796 257.941C245.244 257.612 245.779 257.448 246.402 257.448C247.025 257.448 247.559 257.614 248.004 257.945C248.449 258.273 248.789 258.75 249.025 259.376C249.264 259.998 249.383 260.751 249.383 261.633C249.383 262.521 249.265 263.279 249.029 263.907C248.793 264.532 248.453 265.01 248.008 265.342C247.562 265.67 247.027 265.834 246.402 265.834ZM246.402 264.773C246.953 264.773 247.384 264.504 247.694 263.966C248.006 263.428 248.163 262.651 248.163 261.633C248.163 260.958 248.091 260.387 247.948 259.92C247.808 259.451 247.605 259.096 247.34 258.855C247.078 258.611 246.765 258.489 246.402 258.489C245.853 258.489 245.423 258.76 245.11 259.3C244.798 259.841 244.64 260.618 244.637 261.633C244.637 262.312 244.707 262.885 244.848 263.354C244.991 263.821 245.194 264.174 245.456 264.415C245.718 264.654 246.034 264.773 246.402 264.773Z" fill="#1E1B39"/>
<circle cx="289.121" cy="262.2" r="4.97212" fill="#EFE6FD"/>
<path d="M306.43 257.559V265.699H305.476L301.04 259.308H300.961V265.699H299.975V257.559H300.929L305.38 263.966H305.46V257.559H306.43ZM312.122 263.203V259.594H313.06V265.699H312.122V264.666H312.059C311.915 264.976 311.693 265.239 311.391 265.457C311.089 265.671 310.707 265.779 310.246 265.779C309.865 265.779 309.525 265.695 309.229 265.528C308.932 265.359 308.699 265.104 308.529 264.765C308.36 264.423 308.275 263.993 308.275 263.473V259.594H309.213V263.41C309.213 263.855 309.337 264.21 309.586 264.475C309.838 264.74 310.159 264.873 310.548 264.873C310.781 264.873 311.019 264.813 311.26 264.694C311.503 264.574 311.707 264.392 311.872 264.145C312.039 263.899 312.122 263.585 312.122 263.203ZM315.716 257.559V265.699H314.778V257.559H315.716ZM318.372 257.559V265.699H317.434V257.559H318.372Z" fill="#9291A5"/>
<path d="M328.757 257.559V265.699H327.525V258.791H327.477L325.53 260.063V258.887L327.561 257.559H328.757ZM333.793 265.834C333.165 265.832 332.628 265.666 332.183 265.338C331.738 265.009 331.397 264.531 331.162 263.903C330.926 263.275 330.808 262.518 330.808 261.633C330.808 260.751 330.926 259.997 331.162 259.372C331.4 258.746 331.742 258.269 332.187 257.941C332.635 257.612 333.17 257.448 333.793 257.448C334.415 257.448 334.949 257.614 335.394 257.945C335.84 258.273 336.18 258.75 336.416 259.376C336.654 259.998 336.774 260.751 336.774 261.633C336.774 262.521 336.656 263.279 336.42 263.907C336.184 264.532 335.844 265.01 335.398 265.342C334.953 265.67 334.418 265.834 333.793 265.834ZM333.793 264.773C334.344 264.773 334.774 264.504 335.084 263.966C335.397 263.428 335.553 262.651 335.553 261.633C335.553 260.958 335.482 260.387 335.339 259.92C335.198 259.451 334.996 259.096 334.731 258.855C334.468 258.611 334.156 258.489 333.793 258.489C333.244 258.489 332.814 258.76 332.501 259.3C332.188 259.841 332.031 260.618 332.028 261.633C332.028 262.312 332.098 262.885 332.239 263.354C332.382 263.821 332.584 264.174 332.847 264.415C333.109 264.654 333.424 264.773 333.793 264.773Z" fill="#1E1B39"/>
</g>
<defs>
<filter id="filter0_d_1_11192" x="0" y="0.824219" width="421.555" height="329.177" filterUnits="userSpaceOnUse" color-interpolation-filters="sRGB">
<feFlood flood-opacity="0" result="BackgroundImageFix"/>
<feColorMatrix in="SourceAlpha" type="matrix" values="0 0 0 0 0 0 0 0 0 0 0 0 0 0 0 0 0 0 127 0" result="hardAlpha"/>
<feOffset dy="4"/>
<feGaussianBlur stdDeviation="12"/>
<feComposite in2="hardAlpha" operator="out"/>
<feColorMatrix type="matrix" values="0 0 0 0 0.2875 0 0 0 0 0.282708 0 0 0 0 0.282708 0 0 0 0.16 0"/>
<feBlend mode="normal" in2="BackgroundImageFix" result="effect1_dropShadow_1_11192"/>
<feBlend mode="normal" in="SourceGraphic" in2="effect1_dropShadow_1_11192" result="shape"/>
</filter>
</defs>
</svg>
