<svg width="23" height="23" viewBox="0 0 23 23" fill="none" xmlns="http://www.w3.org/2000/svg">
<path d="M11.6192 21.3477C6.12065 21.3477 1.65137 16.8784 1.65137 11.3799C1.65137 5.88139 6.12065 1.41211 11.6192 1.41211C17.1177 1.41211 21.587 5.88139 21.587 11.3799C21.587 16.8784 17.1177 21.3477 11.6192 21.3477ZM11.6192 2.80296C6.89026 2.80296 3.04222 6.651 3.04222 11.3799C3.04222 16.1088 6.89026 19.9569 11.6192 19.9569C16.3481 19.9569 20.1961 16.1088 20.1961 11.3799C20.1961 6.651 16.3481 2.80296 11.6192 2.80296Z" fill="#8094AE"/>
<path d="M8.99487 14.6992C8.81869 14.6992 8.64252 14.6343 8.50343 14.4952C8.23453 14.2263 8.23453 13.7812 8.50343 13.5123L13.7516 8.26417C14.0205 7.99528 14.4656 7.99528 14.7345 8.26417C15.0034 8.53307 15.0034 8.97815 14.7345 9.24704L9.4863 14.4952C9.35649 14.6343 9.17104 14.6992 8.99487 14.6992Z" fill="#8094AE"/>
<path d="M14.243 14.6992C14.0669 14.6992 13.8907 14.6343 13.7516 14.4952L8.50343 9.24704C8.23453 8.97815 8.23453 8.53307 8.50343 8.26417C8.77233 7.99528 9.2174 7.99528 9.4863 8.26417L14.7345 13.5123C15.0034 13.7812 15.0034 14.2263 14.7345 14.4952C14.5954 14.6343 14.4192 14.6992 14.243 14.6992Z" fill="#8094AE"/>
</svg>
