<svg width="200" height="172" viewBox="0 0 200 172" fill="none" xmlns="http://www.w3.org/2000/svg">
<rect width="199.918" height="171.585" rx="7.45035" fill="white"/>
<path d="M10.4477 17.9336V12.7332H11.4907V17.9336H10.4477ZM15.412 17.9336V15.6538C15.412 14.9907 15.0469 14.6331 14.4956 14.6331C13.9294 14.6331 13.5643 14.9907 13.5643 15.6538V17.9336H12.5213V13.8061H13.5643V14.3202C13.8325 13.97 14.2795 13.7465 14.8085 13.7465C15.7696 13.7465 16.455 14.3723 16.455 15.5122V17.9336H15.412ZM17.0074 13.8061H18.1249L19.168 16.9725L20.211 13.8061H21.3211L19.7938 17.9336H18.5272L17.0074 13.8061ZM21.907 17.9336V13.8061H22.95V17.9336H21.907ZM22.4359 13.3144C22.0634 13.3144 21.7952 13.0462 21.7952 12.7034C21.7952 12.3607 22.0634 12.0925 22.4359 12.0925C22.801 12.0925 23.0767 12.3607 23.0767 12.7034C23.0767 13.0462 22.801 13.3144 22.4359 13.3144ZM24.1444 16.6521V14.6629H23.6527V13.8061H24.1444V12.7854H25.1949V13.8061H26.1188V14.6629H25.1949V16.6596C25.1949 16.9352 25.3067 17.0545 25.6345 17.0545H26.1188V17.9336H25.4632C24.6734 17.9336 24.1444 17.5983 24.1444 16.6521ZM28.6422 14.5958C28.143 14.5958 27.7481 14.9162 27.6662 15.4824H29.6256C29.6107 14.9386 29.1786 14.5958 28.6422 14.5958ZM30.6016 16.6372C30.3781 17.3972 29.6927 18.0006 28.672 18.0006C27.4725 18.0006 26.6008 17.1662 26.6008 15.8698C26.6008 14.566 27.4501 13.739 28.672 13.739C29.864 13.739 30.7059 14.5511 30.7059 15.7804C30.7059 15.9145 30.6985 16.0487 30.6761 16.1828H27.6587C27.7109 16.7937 28.1281 17.1364 28.6496 17.1364C29.0967 17.1364 29.3425 16.9129 29.4766 16.6372H30.6016ZM32.9743 15.8549C32.9743 14.566 33.8088 13.739 34.8593 13.739C35.5224 13.739 35.9768 14.052 36.2227 14.3947V13.8061H37.2732V17.9336H36.2227V17.3301C35.9768 17.6877 35.5075 18.0006 34.8518 18.0006C33.8088 18.0006 32.9743 17.1439 32.9743 15.8549ZM36.2227 15.8698C36.2227 15.0876 35.7012 14.6554 35.1275 14.6554C34.5687 14.6554 34.0397 15.0727 34.0397 15.8549C34.0397 16.6372 34.5687 17.0843 35.1275 17.0843C35.7012 17.0843 36.2227 16.6521 36.2227 15.8698ZM42.9579 17.9336V15.6538C42.9579 14.9907 42.5929 14.6331 42.0415 14.6331C41.4753 14.6331 41.1102 14.9907 41.1102 15.6538V17.9336H40.0672V13.8061H41.1102V14.3202C41.3785 13.97 41.8255 13.7465 42.3544 13.7465C43.3155 13.7465 44.001 14.3723 44.001 15.5122V17.9336H42.9579ZM46.766 14.5958C46.2669 14.5958 45.872 14.9162 45.79 15.4824H47.7495C47.7346 14.9386 47.3025 14.5958 46.766 14.5958ZM48.7255 16.6372C48.502 17.3972 47.8165 18.0006 46.7958 18.0006C45.5963 18.0006 44.7246 17.1662 44.7246 15.8698C44.7246 14.566 45.574 13.739 46.7958 13.739C47.9879 13.739 48.8298 14.5511 48.8298 15.7804C48.8298 15.9145 48.8223 16.0487 48.8 16.1828H45.7826C45.8348 16.7937 46.252 17.1364 46.7735 17.1364C47.2205 17.1364 47.4664 16.9129 47.6005 16.6372H48.7255ZM50.3436 17.9336L49.1292 13.8061H50.1872L50.9173 16.9501L51.707 13.8061H52.8097L53.5845 16.9427L54.3147 13.8061H55.313L54.106 17.9336H52.981L52.2286 15.0503L51.4761 17.9336H50.3436ZM63.4267 17.9336V15.6538C63.4267 14.9982 63.0616 14.6554 62.5103 14.6554C61.9515 14.6554 61.5864 14.9982 61.5864 15.6538V17.9336H60.5434V15.6538C60.5434 14.9982 60.1783 14.6554 59.627 14.6554C59.0608 14.6554 58.6957 14.9982 58.6957 15.6538V17.9336H57.6526V13.8061H58.6957V14.3053C58.9565 13.9626 59.396 13.7465 59.9101 13.7465C60.5508 13.7465 61.0798 14.0222 61.3629 14.5362C61.6311 14.0669 62.175 13.7465 62.7785 13.7465C63.7694 13.7465 64.4697 14.3723 64.4697 15.5122V17.9336H63.4267ZM67.2327 14.5958C66.7335 14.5958 66.3387 14.9162 66.2567 15.4824H68.2161C68.2012 14.9386 67.7691 14.5958 67.2327 14.5958ZM69.1921 16.6372C68.9686 17.3972 68.2832 18.0006 67.2625 18.0006C66.063 18.0006 65.1913 17.1662 65.1913 15.8698C65.1913 14.566 66.0406 13.739 67.2625 13.739C68.4546 13.739 69.2964 14.5511 69.2964 15.7804C69.2964 15.9145 69.289 16.0487 69.2666 16.1828H66.2492C66.3014 16.7937 66.7186 17.1364 67.2401 17.1364C67.6872 17.1364 67.933 16.9129 68.0671 16.6372H69.1921ZM75.8318 17.9336V15.6538C75.8318 14.9982 75.4667 14.6554 74.9154 14.6554C74.3566 14.6554 73.9916 14.9982 73.9916 15.6538V17.9336H72.9485V15.6538C72.9485 14.9982 72.5834 14.6554 72.0321 14.6554C71.4659 14.6554 71.1008 14.9982 71.1008 15.6538V17.9336H70.0578V13.8061H71.1008V14.3053C71.3616 13.9626 71.8012 13.7465 72.3152 13.7465C72.956 13.7465 73.4849 14.0222 73.768 14.5362C74.0363 14.0669 74.5801 13.7465 75.1836 13.7465C76.1745 13.7465 76.8748 14.3723 76.8748 15.5122V17.9336H75.8318ZM78.9077 14.4096C79.161 14.0296 79.6453 13.739 80.2711 13.739C81.3291 13.739 82.156 14.566 82.156 15.8549C82.156 17.1439 81.3291 18.0006 80.2711 18.0006C79.6229 18.0006 79.161 17.7026 78.9077 17.345V17.9336H77.8646V12.4203H78.9077V14.4096ZM81.0906 15.8549C81.0906 15.0727 80.5617 14.6554 79.9954 14.6554C79.4367 14.6554 78.9077 15.0876 78.9077 15.8698C78.9077 16.6521 79.4367 17.0843 79.9954 17.0843C80.5617 17.0843 81.0906 16.6372 81.0906 15.8549ZM84.6872 14.5958C84.188 14.5958 83.7931 14.9162 83.7112 15.4824H85.6706C85.6557 14.9386 85.2236 14.5958 84.6872 14.5958ZM86.6466 16.6372C86.4231 17.3972 85.7377 18.0006 84.717 18.0006C83.5175 18.0006 82.6458 17.1662 82.6458 15.8698C82.6458 14.566 83.4951 13.739 84.717 13.739C85.909 13.739 86.7509 14.5511 86.7509 15.7804C86.7509 15.9145 86.7435 16.0487 86.7211 16.1828H83.7037C83.7559 16.7937 84.1731 17.1364 84.6946 17.1364C85.1417 17.1364 85.3875 16.9129 85.5216 16.6372H86.6466ZM88.5553 15.8773V17.9336H87.5123V13.8061H88.5553V14.4468C88.8161 14.0222 89.2482 13.7465 89.8219 13.7465V14.8417H89.5462C88.9278 14.8417 88.5553 15.0801 88.5553 15.8773Z" fill="#11002A"/>
<path d="M186.258 18.77C184.417 18.77 182.921 17.2737 182.921 15.4328C182.921 13.592 184.417 12.0957 186.258 12.0957C188.099 12.0957 189.595 13.592 189.595 15.4328C189.595 17.2737 188.099 18.77 186.258 18.77ZM186.258 12.5614C184.675 12.5614 183.387 13.8496 183.387 15.4328C183.387 17.016 184.675 18.3043 186.258 18.3043C187.841 18.3043 189.13 17.016 189.13 15.4328C189.13 13.8496 187.841 12.5614 186.258 12.5614Z" fill="#8094AE"/>
<path d="M185.38 16.5442C185.321 16.5442 185.262 16.5224 185.215 16.4759C185.125 16.3859 185.125 16.2369 185.215 16.1468L186.972 14.3898C187.062 14.2998 187.211 14.2998 187.301 14.3898C187.391 14.4798 187.391 14.6288 187.301 14.7188L185.544 16.4759C185.501 16.5224 185.438 16.5442 185.38 16.5442Z" fill="#8094AE"/>
<path d="M187.137 16.5442C187.078 16.5442 187.019 16.5224 186.972 16.4759L185.215 14.7188C185.125 14.6288 185.125 14.4798 185.215 14.3898C185.305 14.2998 185.454 14.2998 185.544 14.3898L187.301 16.1468C187.391 16.2369 187.391 16.3859 187.301 16.4759C187.255 16.5224 187.196 16.5442 187.137 16.5442Z" fill="#8094AE"/>
<line x1="9.93359" y1="28.2286" x2="189.984" y2="28.2286" stroke="#F2F4F7" stroke-width="0.310431"/>
<path d="M10.2595 40.834V37.8135H12.0371V38.2177H10.755V39.1086H11.7546V39.5128H10.755V40.834H10.2595ZM14.6649 38.4393V40.834H14.1695V40.5471C14.013 40.7514 13.7435 40.8688 13.461 40.8688C12.9004 40.8688 12.4745 40.5167 12.4745 39.8474V38.4393H12.9656V39.7736C12.9656 40.2125 13.2046 40.4385 13.5654 40.4385C13.9304 40.4385 14.1695 40.2125 14.1695 39.7736V38.4393H14.6649ZM15.3186 40.834V37.6179H15.8141V40.834H15.3186ZM16.4645 40.834V37.6179H16.96V40.834H16.4645ZM20.7256 37.8091H21.221V40.834H20.7256L19.2349 38.5784V40.834H18.7394V37.8091H19.2349L20.7256 40.0604V37.8091ZM21.7065 39.6258C21.7065 38.887 22.2063 38.4002 22.8364 38.4002C23.2406 38.4002 23.5188 38.5914 23.6665 38.787V38.4393H24.1663V40.834H23.6665V40.4776C23.5144 40.6819 23.2276 40.8731 22.8277 40.8731C22.2063 40.8731 21.7065 40.3646 21.7065 39.6258ZM23.6665 39.6345C23.6665 39.1216 23.3145 38.8305 22.9407 38.8305C22.5713 38.8305 22.215 39.1086 22.215 39.6258C22.215 40.143 22.5713 40.4428 22.9407 40.4428C23.3145 40.4428 23.6665 40.1517 23.6665 39.6345ZM28.2113 40.834V39.4954C28.2113 39.0565 27.9723 38.8305 27.6116 38.8305C27.2465 38.8305 27.0075 39.0565 27.0075 39.4954V40.834H26.5164V39.4954C26.5164 39.0565 26.2774 38.8305 25.9166 38.8305C25.5516 38.8305 25.3125 39.0565 25.3125 39.4954V40.834H24.8171V38.4393H25.3125V38.7131C25.4733 38.5175 25.7341 38.4002 26.0209 38.4002C26.399 38.4002 26.7163 38.561 26.8814 38.8739C27.0292 38.5827 27.3682 38.4002 27.7159 38.4002C28.2765 38.4002 28.7024 38.7522 28.7024 39.4215V40.834H28.2113ZM30.3412 38.8174C30.0065 38.8174 29.7371 39.0434 29.6849 39.4215H31.0105C31.0018 39.0521 30.7106 38.8174 30.3412 38.8174ZM31.4624 40.1212C31.3277 40.5385 30.9496 40.8731 30.3629 40.8731C29.6762 40.8731 29.1677 40.3863 29.1677 39.6345C29.1677 38.8826 29.6545 38.4002 30.3629 38.4002C31.0452 38.4002 31.5276 38.8739 31.5276 39.578C31.5276 39.6606 31.5233 39.7388 31.5103 39.8214H29.6806C29.7153 40.2168 29.9978 40.4559 30.3629 40.4559C30.6671 40.4559 30.8366 40.3081 30.9279 40.1212H31.4624Z" fill="#11002A"/>
<rect x="10.0888" y="45.4726" width="179.74" height="19.1068" rx="2.32824" fill="white"/>
<rect x="10.0888" y="45.4726" width="179.74" height="19.1068" rx="2.32824" stroke="#EFEFF5" stroke-width="0.310431"/>
<path d="M16.8648 53.4928V53.8188H15.6305V54.8314H16.7344V55.1574H15.6305V56.2004H16.8648V56.5264H15.235V53.4928H16.8648ZM19.206 56.5264V55.1791C19.206 54.6923 18.9409 54.4446 18.541 54.4446C18.1369 54.4446 17.8587 54.6967 17.8587 55.2095V56.5264H17.4632V54.1447H17.8587V54.4837C18.0152 54.236 18.302 54.1013 18.6236 54.1013C19.1756 54.1013 19.5971 54.4403 19.5971 55.1226V56.5264H19.206ZM20.3301 55.8745V54.4707H20.0215V54.1447H20.3301V53.545H20.7256V54.1447H21.3471V54.4707H20.7256V55.8745C20.7256 56.1091 20.8125 56.1917 21.0559 56.1917H21.3471V56.5264H20.9907C20.5691 56.5264 20.3301 56.3525 20.3301 55.8745ZM22.8389 54.4403C22.4521 54.4403 22.1305 54.6967 22.087 55.1617H23.5907C23.5951 54.6967 23.2474 54.4403 22.8389 54.4403ZM23.9515 55.7919C23.8298 56.2265 23.4473 56.5655 22.8563 56.5655C22.1783 56.5655 21.6785 56.0874 21.6785 55.3312C21.6785 54.5793 22.1609 54.1056 22.8563 54.1056C23.5473 54.1056 23.9993 54.5924 23.9993 55.2443C23.9993 55.3312 23.9949 55.4007 23.9862 55.4833H22.0827C22.1131 55.9657 22.4521 56.2308 22.8563 56.2308C23.2126 56.2308 23.4386 56.0483 23.5255 55.7919H23.9515ZM24.9168 55.2312V56.5264H24.5213V54.1447H24.9168V54.5315C25.0515 54.2664 25.3079 54.1013 25.686 54.1013V54.5098H25.5817C25.2036 54.5098 24.9168 54.6793 24.9168 55.2312ZM27.3012 56.5264V53.5189H27.7271L28.8397 56.0048L29.9523 53.5189H30.3739V56.5264H29.9784V54.2838L28.9788 56.5264H28.7007L27.6967 54.2795V56.5264H27.3012ZM32.0572 54.4403C31.6704 54.4403 31.3488 54.6967 31.3054 55.1617H32.8091C32.8134 54.6967 32.4658 54.4403 32.0572 54.4403ZM33.1698 55.7919C33.0481 56.2265 32.6657 56.5655 32.0746 56.5655C31.3966 56.5655 30.8968 56.0874 30.8968 55.3312C30.8968 54.5793 31.3792 54.1056 32.0746 54.1056C32.7656 54.1056 33.2176 54.5924 33.2176 55.2443C33.2176 55.3312 33.2133 55.4007 33.2046 55.4833H31.301C31.3314 55.9657 31.6704 56.2308 32.0746 56.2308C32.431 56.2308 32.657 56.0483 32.7439 55.7919H33.1698ZM37.1774 56.5264V55.1791C37.1774 54.6923 36.9166 54.4446 36.5255 54.4446C36.1256 54.4446 35.8518 54.701 35.8518 55.2139V56.5264H35.4607V55.1791C35.4607 54.6923 35.1999 54.4446 34.8088 54.4446C34.4089 54.4446 34.1351 54.701 34.1351 55.2139V56.5264H33.7397V54.1447H34.1351V54.4881C34.2916 54.236 34.5741 54.1013 34.887 54.1013C35.2782 54.1013 35.6041 54.2751 35.7606 54.6315C35.8996 54.2882 36.2386 54.1013 36.6037 54.1013C37.147 54.1013 37.5685 54.4403 37.5685 55.1226V56.5264H37.1774ZM38.6128 54.588C38.7649 54.3229 39.0821 54.1056 39.5037 54.1056C40.1469 54.1056 40.6337 54.5837 40.6337 55.3269C40.6337 56.0657 40.1426 56.5655 39.5037 56.5655C39.0691 56.5655 38.7605 56.3482 38.6128 56.0874V56.5264H38.2173V53.3103H38.6128V54.588ZM40.2295 55.3269C40.2295 54.7662 39.8601 54.449 39.4211 54.449C38.9909 54.449 38.6128 54.7793 38.6128 55.3312C38.6128 55.8918 38.9909 56.2178 39.4211 56.2178C39.8601 56.2178 40.2295 55.8875 40.2295 55.3269ZM42.1669 54.4403C41.7801 54.4403 41.4585 54.6967 41.415 55.1617H42.9187C42.9231 54.6967 42.5754 54.4403 42.1669 54.4403ZM43.2794 55.7919C43.1578 56.2265 42.7753 56.5655 42.1842 56.5655C41.5063 56.5655 41.0065 56.0874 41.0065 55.3312C41.0065 54.5793 41.4889 54.1056 42.1842 54.1056C42.8753 54.1056 43.3273 54.5924 43.3273 55.2443C43.3273 55.3312 43.3229 55.4007 43.3142 55.4833H41.4107C41.4411 55.9657 41.7801 56.2308 42.1842 56.2308C42.5406 56.2308 42.7666 56.0483 42.8535 55.7919H43.2794ZM44.2448 55.2312V56.5264H43.8493V54.1447H44.2448V54.5315C44.3795 54.2664 44.6359 54.1013 45.014 54.1013V54.5098H44.9097C44.5316 54.5098 44.2448 54.6793 44.2448 55.2312ZM48.6154 53.4928H49.0109V56.5264H48.6154L47.0247 54.1143V56.5264H46.6292V53.4928H47.0247L48.6154 55.9005V53.4928ZM49.5373 55.3269C49.5373 54.5837 50.0284 54.1056 50.6672 54.1056C51.1105 54.1056 51.4148 54.3316 51.5538 54.5793V54.1447H51.9537V56.5264H51.5538V56.0831C51.4104 56.3395 51.1018 56.5655 50.6629 56.5655C50.0284 56.5655 49.5373 56.0657 49.5373 55.3269ZM51.5538 55.3312C51.5538 54.7793 51.1801 54.449 50.7455 54.449C50.3109 54.449 49.9415 54.7662 49.9415 55.3269C49.9415 55.8875 50.3109 56.2178 50.7455 56.2178C51.1801 56.2178 51.5538 55.8918 51.5538 55.3312ZM56.0597 56.5264V55.1791C56.0597 54.6923 55.799 54.4446 55.4078 54.4446C55.008 54.4446 54.7342 54.701 54.7342 55.2139V56.5264H54.343V55.1791C54.343 54.6923 54.0823 54.4446 53.6911 54.4446C53.2913 54.4446 53.0175 54.701 53.0175 55.2139V56.5264H52.622V54.1447H53.0175V54.4881C53.174 54.236 53.4564 54.1013 53.7694 54.1013C54.1605 54.1013 54.4865 54.2751 54.6429 54.6315C54.782 54.2882 55.121 54.1013 55.486 54.1013C56.0293 54.1013 56.4509 54.4403 56.4509 55.1226V56.5264H56.0597ZM58.1122 54.4403C57.7254 54.4403 57.4038 54.6967 57.3604 55.1617H58.8641C58.8685 54.6967 58.5208 54.4403 58.1122 54.4403ZM59.2248 55.7919C59.1031 56.2265 58.7207 56.5655 58.1296 56.5655C57.4516 56.5655 56.9519 56.0874 56.9519 55.3312C56.9519 54.5793 57.4343 54.1056 58.1296 54.1056C58.8206 54.1056 59.2726 54.5924 59.2726 55.2443C59.2726 55.3312 59.2683 55.4007 59.2596 55.4833H57.356C57.3865 55.9657 57.7254 56.2308 58.1296 56.2308C58.486 56.2308 58.712 56.0483 58.7989 55.7919H59.2248Z" fill="#BABABA"/>
<path d="M11.9284 71.6763V72.0805H10.755V72.9671H11.798V73.3713H10.755V74.297H11.9284V74.7012H10.2595V71.6763H11.9284ZM15.9329 74.7012V73.3626C15.9329 72.9236 15.6939 72.6976 15.3332 72.6976C14.9681 72.6976 14.7291 72.9236 14.7291 73.3626V74.7012H14.238V73.3626C14.238 72.9236 13.9989 72.6976 13.6382 72.6976C13.2732 72.6976 13.0341 72.9236 13.0341 73.3626V74.7012H12.5387V72.3065H13.0341V72.5803C13.1949 72.3847 13.4557 72.2674 13.7425 72.2674C14.1206 72.2674 14.4379 72.4282 14.603 72.7411C14.7508 72.4499 15.0898 72.2674 15.4375 72.2674C15.9981 72.2674 16.424 72.6194 16.424 73.2887V74.7012H15.9329ZM16.8893 73.493C16.8893 72.7541 17.3891 72.2674 18.0193 72.2674C18.4235 72.2674 18.7016 72.4586 18.8494 72.6542V72.3065H19.3492V74.7012H18.8494V74.3448C18.6973 74.5491 18.4104 74.7403 18.0106 74.7403C17.3891 74.7403 16.8893 74.2318 16.8893 73.493ZM18.8494 73.5017C18.8494 72.9888 18.4974 72.6976 18.1236 72.6976C17.7542 72.6976 17.3978 72.9758 17.3978 73.493C17.3978 74.0102 17.7542 74.31 18.1236 74.31C18.4974 74.31 18.8494 74.0188 18.8494 73.5017ZM19.9999 74.7012V72.3065H20.4954V74.7012H19.9999ZM20.252 71.9892C20.0738 71.9892 19.9347 71.8502 19.9347 71.672C19.9347 71.4938 20.0738 71.3547 20.252 71.3547C20.4258 71.3547 20.5649 71.4938 20.5649 71.672C20.5649 71.8502 20.4258 71.9892 20.252 71.9892ZM21.1459 74.7012V71.4851H21.6413V74.7012H21.1459Z" fill="#11002A"/>
<rect x="10.0888" y="79.3398" width="179.74" height="19.1068" rx="2.32824" fill="white"/>
<rect x="10.0888" y="79.3398" width="179.74" height="19.1068" rx="2.32824" stroke="#EFEFF5" stroke-width="0.310431"/>
<path d="M16.8648 87.36V87.686H15.6305V88.6986H16.7344V89.0246H15.6305V90.0676H16.8648V90.3936H15.235V87.36H16.8648ZM19.206 90.3936V89.0463C19.206 88.5595 18.9409 88.3118 18.541 88.3118C18.1369 88.3118 17.8587 88.5639 17.8587 89.0767V90.3936H17.4632V88.0119H17.8587V88.3509C18.0152 88.1032 18.302 87.9685 18.6236 87.9685C19.1756 87.9685 19.5971 88.3075 19.5971 88.9898V90.3936H19.206ZM20.3301 89.7416V88.3379H20.0215V88.0119H20.3301V87.4122H20.7256V88.0119H21.3471V88.3379H20.7256V89.7416C20.7256 89.9763 20.8125 90.0589 21.0559 90.0589H21.3471V90.3936H20.9907C20.5691 90.3936 20.3301 90.2197 20.3301 89.7416ZM22.8389 88.3075C22.4521 88.3075 22.1305 88.5639 22.087 89.0289H23.5907C23.5951 88.5639 23.2474 88.3075 22.8389 88.3075ZM23.9515 89.6591C23.8298 90.0937 23.4473 90.4327 22.8563 90.4327C22.1783 90.4327 21.6785 89.9546 21.6785 89.1984C21.6785 88.4465 22.1609 87.9728 22.8563 87.9728C23.5473 87.9728 23.9993 88.4596 23.9993 89.1115C23.9993 89.1984 23.9949 89.2679 23.9862 89.3505H22.0827C22.1131 89.8329 22.4521 90.098 22.8563 90.098C23.2126 90.098 23.4386 89.9155 23.5255 89.6591H23.9515ZM24.9168 89.0984V90.3936H24.5213V88.0119H24.9168V88.3987C25.0515 88.1336 25.3079 87.9685 25.686 87.9685V88.377H25.5817C25.2036 88.377 24.9168 88.5465 24.9168 89.0984ZM27.3012 90.3936V87.3861H27.7271L28.8397 89.872L29.9523 87.3861H30.3739V90.3936H29.9784V88.151L28.9788 90.3936H28.7007L27.6967 88.1467V90.3936H27.3012ZM32.0572 88.3075C31.6704 88.3075 31.3488 88.5639 31.3054 89.0289H32.8091C32.8134 88.5639 32.4658 88.3075 32.0572 88.3075ZM33.1698 89.6591C33.0481 90.0937 32.6657 90.4327 32.0746 90.4327C31.3966 90.4327 30.8968 89.9546 30.8968 89.1984C30.8968 88.4465 31.3792 87.9728 32.0746 87.9728C32.7656 87.9728 33.2176 88.4596 33.2176 89.1115C33.2176 89.1984 33.2133 89.2679 33.2046 89.3505H31.301C31.3314 89.8329 31.6704 90.098 32.0746 90.098C32.431 90.098 32.657 89.9155 32.7439 89.6591H33.1698ZM37.1774 90.3936V89.0463C37.1774 88.5595 36.9166 88.3118 36.5255 88.3118C36.1256 88.3118 35.8518 88.5682 35.8518 89.0811V90.3936H35.4607V89.0463C35.4607 88.5595 35.1999 88.3118 34.8088 88.3118C34.4089 88.3118 34.1351 88.5682 34.1351 89.0811V90.3936H33.7397V88.0119H34.1351V88.3553C34.2916 88.1032 34.5741 87.9685 34.887 87.9685C35.2782 87.9685 35.6041 88.1423 35.7606 88.4987C35.8996 88.1553 36.2386 87.9685 36.6037 87.9685C37.147 87.9685 37.5685 88.3075 37.5685 88.9898V90.3936H37.1774ZM38.6128 88.4552C38.7649 88.1901 39.0821 87.9728 39.5037 87.9728C40.1469 87.9728 40.6337 88.4509 40.6337 89.194C40.6337 89.9329 40.1426 90.4327 39.5037 90.4327C39.0691 90.4327 38.7605 90.2154 38.6128 89.9546V90.3936H38.2173V87.1775H38.6128V88.4552ZM40.2295 89.194C40.2295 88.6334 39.8601 88.3161 39.4211 88.3161C38.9909 88.3161 38.6128 88.6464 38.6128 89.1984C38.6128 89.759 38.9909 90.085 39.4211 90.085C39.8601 90.085 40.2295 89.7547 40.2295 89.194ZM42.1669 88.3075C41.7801 88.3075 41.4585 88.5639 41.415 89.0289H42.9187C42.9231 88.5639 42.5754 88.3075 42.1669 88.3075ZM43.2794 89.6591C43.1578 90.0937 42.7753 90.4327 42.1842 90.4327C41.5063 90.4327 41.0065 89.9546 41.0065 89.1984C41.0065 88.4465 41.4889 87.9728 42.1842 87.9728C42.8753 87.9728 43.3273 88.4596 43.3273 89.1115C43.3273 89.1984 43.3229 89.2679 43.3142 89.3505H41.4107C41.4411 89.8329 41.7801 90.098 42.1842 90.098C42.5406 90.098 42.7666 89.9155 42.8535 89.6591H43.2794ZM44.2448 89.0984V90.3936H43.8493V88.0119H44.2448V88.3987C44.3795 88.1336 44.6359 87.9685 45.014 87.9685V88.377H44.9097C44.5316 88.377 44.2448 88.5465 44.2448 89.0984ZM48.259 87.36V87.686H47.0247V88.6986H48.1286V89.0246H47.0247V90.0676H48.259V90.3936H46.6292V87.36H48.259ZM52.2951 90.3936V89.0463C52.2951 88.5595 52.0344 88.3118 51.6432 88.3118C51.2434 88.3118 50.9696 88.5682 50.9696 89.0811V90.3936H50.5785V89.0463C50.5785 88.5595 50.3177 88.3118 49.9265 88.3118C49.5267 88.3118 49.2529 88.5682 49.2529 89.0811V90.3936H48.8574V88.0119H49.2529V88.3553C49.4094 88.1032 49.6919 87.9685 50.0048 87.9685C50.3959 87.9685 50.7219 88.1423 50.8783 88.4987C51.0174 88.1553 51.3564 87.9685 51.7215 87.9685C52.2647 87.9685 52.6863 88.3075 52.6863 88.9898V90.3936H52.2951ZM53.1873 89.194C53.1873 88.4509 53.6784 87.9728 54.3172 87.9728C54.7605 87.9728 55.0648 88.1988 55.2038 88.4465V88.0119H55.6037V90.3936H55.2038V89.9503C55.0604 90.2067 54.7518 90.4327 54.3129 90.4327C53.6784 90.4327 53.1873 89.9329 53.1873 89.194ZM55.2038 89.1984C55.2038 88.6464 54.8301 88.3161 54.3955 88.3161C53.9609 88.3161 53.5914 88.6334 53.5914 89.194C53.5914 89.7547 53.9609 90.085 54.3955 90.085C54.8301 90.085 55.2038 89.759 55.2038 89.1984ZM56.272 90.3936V88.0119H56.6675V90.3936H56.272ZM56.4763 87.6251C56.3242 87.6251 56.2068 87.5078 56.2068 87.3557C56.2068 87.2036 56.3242 87.0862 56.4763 87.0862C56.6197 87.0862 56.737 87.2036 56.737 87.3557C56.737 87.5078 56.6197 87.6251 56.4763 87.6251Z" fill="#BABABA"/>
<path d="M10.2595 108.569V105.549H10.7941L11.8545 107.917L12.9106 105.549H13.4408V108.569H12.9454V106.501L12.024 108.569H11.6807L10.755 106.501V108.569H10.2595ZM15.1003 106.553C14.7657 106.553 14.4962 106.779 14.4441 107.157H15.7696C15.7609 106.787 15.4697 106.553 15.1003 106.553ZM16.2216 107.857C16.0869 108.274 15.7088 108.608 15.1221 108.608C14.4354 108.608 13.9269 108.122 13.9269 107.37C13.9269 106.618 14.4136 106.136 15.1221 106.136C15.8044 106.136 16.2868 106.609 16.2868 107.313C16.2868 107.396 16.2824 107.474 16.2694 107.557H14.4397C14.4745 107.952 14.757 108.191 15.1221 108.191C15.4263 108.191 15.5958 108.043 15.687 107.857H16.2216ZM20.1686 108.569V107.231C20.1686 106.792 19.9296 106.566 19.5689 106.566C19.2038 106.566 18.9648 106.792 18.9648 107.231V108.569H18.4737V107.231C18.4737 106.792 18.2346 106.566 17.8739 106.566C17.5088 106.566 17.2698 106.792 17.2698 107.231V108.569H16.7744V106.175H17.2698V106.448C17.4306 106.253 17.6914 106.136 17.9782 106.136C18.3563 106.136 18.6736 106.296 18.8387 106.609C18.9865 106.318 19.3255 106.136 19.6732 106.136C20.2338 106.136 20.6597 106.488 20.6597 107.157V108.569H20.1686ZM21.7856 106.531C21.9421 106.314 22.242 106.136 22.6201 106.136C23.2546 106.136 23.7457 106.622 23.7457 107.361C23.7457 108.1 23.2502 108.608 22.6201 108.608C22.2246 108.608 21.9421 108.43 21.7856 108.222V108.569H21.2902V105.353H21.7856V106.531ZM23.2415 107.361C23.2415 106.844 22.8852 106.566 22.5114 106.566C22.142 106.566 21.7856 106.857 21.7856 107.37C21.7856 107.887 22.142 108.178 22.5114 108.178C22.8852 108.178 23.2415 107.878 23.2415 107.361ZM25.2439 106.553C24.9093 106.553 24.6398 106.779 24.5877 107.157H25.9132C25.9045 106.787 25.6133 106.553 25.2439 106.553ZM26.3652 107.857C26.2305 108.274 25.8524 108.608 25.2656 108.608C24.579 108.608 24.0705 108.122 24.0705 107.37C24.0705 106.618 24.5572 106.136 25.2656 106.136C25.948 106.136 26.4304 106.609 26.4304 107.313C26.4304 107.396 26.426 107.474 26.413 107.557H24.5833C24.6181 107.952 24.9006 108.191 25.2656 108.191C25.5699 108.191 25.7394 108.043 25.8306 107.857H26.3652ZM27.4134 107.309V108.569H26.918V106.175H27.4134V106.522C27.5525 106.283 27.7915 106.136 28.1305 106.136V106.648H28.0045C27.6394 106.648 27.4134 106.8 27.4134 107.309ZM30.2103 106.94H30.7579C31.1447 106.94 31.3186 106.753 31.3186 106.448C31.3186 106.136 31.1447 105.953 30.7579 105.953H30.2103V106.94ZM31.827 106.448C31.827 106.879 31.5445 107.344 30.7579 107.344H30.2103V108.569H29.7149V105.549H30.7579C31.475 105.549 31.827 105.957 31.827 106.448ZM33.3078 106.553C32.9732 106.553 32.7038 106.779 32.6516 107.157H33.9771C33.9684 106.787 33.6773 106.553 33.3078 106.553ZM34.4291 107.857C34.2944 108.274 33.9163 108.608 33.3296 108.608C32.6429 108.608 32.1344 108.122 32.1344 107.37C32.1344 106.618 32.6212 106.136 33.3296 106.136C34.0119 106.136 34.4943 106.609 34.4943 107.313C34.4943 107.396 34.49 107.474 34.4769 107.557H32.6473C32.682 107.952 32.9645 108.191 33.3296 108.191C33.6338 108.191 33.8033 108.043 33.8946 107.857H34.4291ZM35.4773 107.309V108.569H34.9819V106.175H35.4773V106.522C35.6164 106.283 35.8554 106.136 36.1944 106.136V106.648H36.0684C35.7033 106.648 35.4773 106.8 35.4773 107.309ZM40.0441 108.569V107.231C40.0441 106.792 39.8051 106.566 39.4444 106.566C39.0793 106.566 38.8403 106.792 38.8403 107.231V108.569H38.3492V107.231C38.3492 106.792 38.1101 106.566 37.7494 106.566C37.3843 106.566 37.1453 106.792 37.1453 107.231V108.569H36.6499V106.175H37.1453V106.448C37.3061 106.253 37.5669 106.136 37.8537 106.136C38.2318 106.136 38.5491 106.296 38.7142 106.609C38.862 106.318 39.201 106.136 39.5487 106.136C40.1093 106.136 40.5352 106.488 40.5352 107.157V108.569H40.0441ZM41.1657 108.569V106.175H41.6611V108.569H41.1657ZM41.4177 105.857C41.2395 105.857 41.1005 105.718 41.1005 105.54C41.1005 105.362 41.2395 105.223 41.4177 105.223C41.5916 105.223 41.7306 105.362 41.7306 105.54C41.7306 105.718 41.5916 105.857 41.4177 105.857ZM44.0978 107.9C44.0978 108.304 43.7458 108.608 43.1808 108.608C42.6071 108.608 42.2029 108.269 42.1812 107.835H42.694C42.7114 108.03 42.8983 108.191 43.1721 108.191C43.4589 108.191 43.6111 108.07 43.6111 107.904C43.6111 107.435 42.2203 107.704 42.2203 106.827C42.2203 106.444 42.5767 106.136 43.1417 106.136C43.6849 106.136 44.0413 106.427 44.0674 106.905H43.5719C43.5546 106.696 43.3938 106.553 43.1243 106.553C42.8592 106.553 42.7201 106.661 42.7201 106.822C42.7201 107.305 44.0717 107.035 44.0978 107.9ZM46.4194 107.9C46.4194 108.304 46.0673 108.608 45.5024 108.608C44.9287 108.608 44.5245 108.269 44.5028 107.835H45.0156C45.033 108.03 45.2199 108.191 45.4937 108.191C45.7805 108.191 45.9326 108.07 45.9326 107.904C45.9326 107.435 44.5419 107.704 44.5419 106.827C44.5419 106.444 44.8983 106.136 45.4632 106.136C46.0065 106.136 46.3629 106.427 46.389 106.905H45.8935C45.8761 106.696 45.7153 106.553 45.4459 106.553C45.1808 106.553 45.0417 106.661 45.0417 106.822C45.0417 107.305 46.3933 107.035 46.4194 107.9ZM46.9547 108.569V106.175H47.4502V108.569H46.9547ZM47.2068 105.857C47.0286 105.857 46.8895 105.718 46.8895 105.54C46.8895 105.362 47.0286 105.223 47.2068 105.223C47.3806 105.223 47.5197 105.362 47.5197 105.54C47.5197 105.718 47.3806 105.857 47.2068 105.857ZM50.3823 107.37C50.3823 108.122 49.826 108.608 49.1393 108.608C48.457 108.608 47.9398 108.122 47.9398 107.37C47.9398 106.618 48.4788 106.136 49.1611 106.136C49.8434 106.136 50.3823 106.618 50.3823 107.37ZM48.444 107.37C48.444 107.913 48.7656 108.178 49.1393 108.178C49.5088 108.178 49.8738 107.913 49.8738 107.37C49.8738 106.827 49.5218 106.566 49.1524 106.566C48.7786 106.566 48.444 106.827 48.444 107.37ZM52.5714 108.569V107.231C52.5714 106.792 52.3324 106.566 51.9716 106.566C51.6066 106.566 51.3675 106.792 51.3675 107.231V108.569H50.8721V106.175H51.3675V106.448C51.5283 106.253 51.7935 106.136 52.0803 106.136C52.6409 106.136 53.0625 106.488 53.0625 107.157V108.569H52.5714Z" fill="#11002A"/>
<rect x="10.1664" y="113.286" width="179.585" height="18.3307" rx="2.25063" fill="white"/>
<rect x="10.1664" y="113.286" width="179.585" height="18.3307" rx="2.25063" stroke="#EFEFF5" stroke-width="0.465647"/>
<path d="M17.2038 123.125C17.2038 123.556 16.8518 123.982 16.1955 123.982C15.5871 123.982 15.1568 123.643 15.1481 123.143H15.5697C15.5958 123.395 15.7739 123.647 16.1955 123.647C16.578 123.647 16.804 123.43 16.804 123.143C16.804 122.326 15.1655 122.847 15.1655 121.722C15.1655 121.222 15.5697 120.883 16.1694 120.883C16.7475 120.883 17.1256 121.2 17.1734 121.661H16.7388C16.7127 121.457 16.5215 121.226 16.1521 121.222C15.8261 121.213 15.5697 121.383 15.5697 121.709C15.5697 122.491 17.2038 122.004 17.2038 123.125ZM18.7984 121.865C18.4116 121.865 18.09 122.121 18.0465 122.587H19.5503C19.5546 122.121 19.2069 121.865 18.7984 121.865ZM19.911 123.217C19.7893 123.651 19.4069 123.99 18.8158 123.99C18.1378 123.99 17.638 123.512 17.638 122.756C17.638 122.004 18.1204 121.53 18.8158 121.53C19.5068 121.53 19.9588 122.017 19.9588 122.669C19.9588 122.756 19.9545 122.826 19.9458 122.908H18.0422C18.0726 123.391 18.4116 123.656 18.8158 123.656C19.1722 123.656 19.3982 123.473 19.4851 123.217H19.911ZM20.4808 123.951V120.735H20.8763V123.951H20.4808ZM22.563 121.865C22.1762 121.865 21.8546 122.121 21.8111 122.587H23.3149C23.3192 122.121 22.9715 121.865 22.563 121.865ZM23.6756 123.217C23.5539 123.651 23.1714 123.99 22.5804 123.99C21.9024 123.99 21.4026 123.512 21.4026 122.756C21.4026 122.004 21.885 121.53 22.5804 121.53C23.2714 121.53 23.7234 122.017 23.7234 122.669C23.7234 122.756 23.719 122.826 23.7104 122.908H21.8068C21.8372 123.391 22.1762 123.656 22.5804 123.656C22.9368 123.656 23.1628 123.473 23.2497 123.217H23.6756ZM24.0977 122.756C24.0977 122.008 24.5801 121.53 25.2581 121.53C25.8491 121.53 26.2359 121.835 26.3576 122.334H25.9317C25.8491 122.048 25.6101 121.865 25.2581 121.865C24.8235 121.865 24.5018 122.174 24.5018 122.756C24.5018 123.347 24.8235 123.656 25.2581 123.656C25.6101 123.656 25.8448 123.486 25.9317 123.186H26.3576C26.2359 123.66 25.8491 123.99 25.2581 123.99C24.5801 123.99 24.0977 123.512 24.0977 122.756ZM26.9722 123.299V121.895H26.6637V121.57H26.9722V120.97H27.3677V121.57H27.9892V121.895H27.3677V123.299C27.3677 123.534 27.4546 123.617 27.698 123.617H27.9892V123.951H27.6328C27.2113 123.951 26.9722 123.777 26.9722 123.299ZM30.0225 122.361H30.6049C31.0569 122.361 31.2481 122.148 31.2481 121.809C31.2481 121.457 31.0569 121.248 30.6049 121.248H30.0225V122.361ZM31.6523 121.809C31.6523 122.269 31.3568 122.686 30.6049 122.686H30.0225V123.951H29.627V120.922H30.6049C31.3177 120.922 31.6523 121.313 31.6523 121.809ZM33.1565 121.865C32.7697 121.865 32.4481 122.121 32.4046 122.587H33.9083C33.9127 122.121 33.565 121.865 33.1565 121.865ZM34.2691 123.217C34.1474 123.651 33.7649 123.99 33.1739 123.99C32.4959 123.99 31.9961 123.512 31.9961 122.756C31.9961 122.004 32.4785 121.53 33.1739 121.53C33.8649 121.53 34.3169 122.017 34.3169 122.669C34.3169 122.756 34.3125 122.826 34.3038 122.908H32.4003C32.4307 123.391 32.7697 123.656 33.1739 123.656C33.5302 123.656 33.7562 123.473 33.8431 123.217H34.2691ZM35.2344 122.656V123.951H34.8389V121.57H35.2344V121.956C35.3691 121.691 35.6255 121.526 36.0036 121.526V121.935H35.8993C35.5212 121.935 35.2344 122.104 35.2344 122.656ZM39.8979 123.951V122.604C39.8979 122.117 39.6371 121.869 39.246 121.869C38.8462 121.869 38.5724 122.126 38.5724 122.639V123.951H38.1812V122.604C38.1812 122.117 37.9204 121.869 37.5293 121.869C37.1295 121.869 36.8557 122.126 36.8557 122.639V123.951H36.4602V121.57H36.8557V121.913C37.0121 121.661 37.2946 121.526 37.6075 121.526C37.9987 121.526 38.3246 121.7 38.4811 122.056C38.6202 121.713 38.9591 121.526 39.3242 121.526C39.8675 121.526 40.289 121.865 40.289 122.547V123.951H39.8979ZM40.9378 123.951V121.57H41.3333V123.951H40.9378ZM41.142 121.183C40.9899 121.183 40.8726 121.065 40.8726 120.913C40.8726 120.761 40.9899 120.644 41.142 120.644C41.2855 120.644 41.4028 120.761 41.4028 120.913C41.4028 121.065 41.2855 121.183 41.142 121.183ZM43.7197 123.304C43.7197 123.695 43.3763 123.99 42.8504 123.99C42.2942 123.99 41.903 123.686 41.8769 123.251H42.2855C42.3072 123.482 42.5115 123.656 42.8461 123.656C43.159 123.656 43.3329 123.499 43.3329 123.304C43.3329 122.773 41.9247 123.082 41.9247 122.195C41.9247 121.83 42.2681 121.53 42.7983 121.53C43.3242 121.53 43.6719 121.813 43.6979 122.278H43.3024C43.2851 122.039 43.1025 121.865 42.7853 121.865C42.4941 121.865 42.3202 122.004 42.3202 122.195C42.3202 122.76 43.7023 122.452 43.7197 123.304ZM45.9903 123.304C45.9903 123.695 45.647 123.99 45.1211 123.99C44.5648 123.99 44.1736 123.686 44.1476 123.251H44.5561C44.5778 123.482 44.7821 123.656 45.1167 123.656C45.4297 123.656 45.6035 123.499 45.6035 123.304C45.6035 122.773 44.1954 123.082 44.1954 122.195C44.1954 121.83 44.5387 121.53 45.0689 121.53C45.5948 121.53 45.9425 121.813 45.9686 122.278H45.5731C45.5557 122.039 45.3732 121.865 45.0559 121.865C44.7647 121.865 44.5909 122.004 44.5909 122.195C44.5909 122.76 45.9729 122.452 45.9903 123.304ZM46.5486 123.951V121.57H46.9441V123.951H46.5486ZM46.7529 121.183C46.6007 121.183 46.4834 121.065 46.4834 120.913C46.4834 120.761 46.6007 120.644 46.7529 120.644C46.8963 120.644 47.0136 120.761 47.0136 120.913C47.0136 121.065 46.8963 121.183 46.7529 121.183ZM49.8781 122.756C49.8781 123.512 49.3348 123.99 48.6568 123.99C47.9832 123.99 47.4704 123.512 47.4704 122.756C47.4704 122.004 48.0006 121.53 48.6742 121.53C49.3522 121.53 49.8781 122.004 49.8781 122.756ZM47.8745 122.756C47.8745 123.36 48.244 123.643 48.6568 123.643C49.0697 123.643 49.4739 123.36 49.4739 122.756C49.4739 122.156 49.0784 121.874 48.6699 121.874C48.2526 121.874 47.8745 122.156 47.8745 122.756ZM52.1408 123.951V122.604C52.1408 122.117 51.8757 121.869 51.4759 121.869C51.0717 121.869 50.7935 122.121 50.7935 122.634V123.951H50.3981V121.57H50.7935V121.909C50.95 121.661 51.2368 121.526 51.5584 121.526C52.1104 121.526 52.532 121.865 52.532 122.547V123.951H52.1408Z" fill="#BABABA"/>
<path d="M184.173 121.82L182.823 123.17C182.664 123.329 182.403 123.329 182.244 123.17L180.895 121.82" stroke="#292D32" stroke-width="0.465647" stroke-miterlimit="10" stroke-linecap="round" stroke-linejoin="round"/>
<line x1="9.93359" y1="139.145" x2="189.984" y2="139.145" stroke="#F2F4F7" stroke-width="0.310431"/>
<rect x="151.801" y="146.75" width="38.1831" height="14.9007" rx="2.48345" fill="#6200EE"/>
<path d="M168.053 155.122H166.844L166.644 155.7H166.006L167.096 152.662H167.805L168.896 155.7H168.252L168.053 155.122ZM167.887 154.635L167.448 153.366L167.01 154.635H167.887ZM169.147 154.488C169.147 154.244 169.195 154.028 169.29 153.84C169.389 153.652 169.522 153.507 169.69 153.405C169.858 153.304 170.045 153.253 170.251 153.253C170.407 153.253 170.557 153.288 170.699 153.358C170.84 153.424 170.953 153.514 171.038 153.627V152.484H171.655V155.7H171.038V155.344C170.962 155.463 170.856 155.558 170.72 155.631C170.584 155.703 170.426 155.739 170.247 155.739C170.044 155.739 169.858 155.687 169.69 155.583C169.522 155.479 169.389 155.332 169.29 155.144C169.195 154.953 169.147 154.734 169.147 154.488ZM171.042 154.496C171.042 154.349 171.013 154.223 170.955 154.118C170.897 154.011 170.819 153.93 170.72 153.875C170.622 153.817 170.516 153.788 170.403 153.788C170.29 153.788 170.186 153.815 170.09 153.871C169.994 153.926 169.916 154.007 169.855 154.114C169.797 154.218 169.768 154.343 169.768 154.488C169.768 154.633 169.797 154.76 169.855 154.87C169.916 154.977 169.994 155.06 170.09 155.118C170.189 155.176 170.293 155.205 170.403 155.205C170.516 155.205 170.622 155.177 170.72 155.122C170.819 155.064 170.897 154.983 170.955 154.879C171.013 154.772 171.042 154.644 171.042 154.496ZM172.092 154.488C172.092 154.244 172.14 154.028 172.236 153.84C172.334 153.652 172.468 153.507 172.636 153.405C172.804 153.304 172.991 153.253 173.196 153.253C173.353 153.253 173.502 153.288 173.644 153.358C173.786 153.424 173.899 153.514 173.983 153.627V152.484H174.6V155.7H173.983V155.344C173.908 155.463 173.802 155.558 173.666 155.631C173.53 155.703 173.372 155.739 173.192 155.739C172.989 155.739 172.804 155.687 172.636 155.583C172.468 155.479 172.334 155.332 172.236 155.144C172.14 154.953 172.092 154.734 172.092 154.488ZM173.987 154.496C173.987 154.349 173.958 154.223 173.9 154.118C173.842 154.011 173.764 153.93 173.666 153.875C173.567 153.817 173.461 153.788 173.348 153.788C173.235 153.788 173.131 153.815 173.036 153.871C172.94 153.926 172.862 154.007 172.801 154.114C172.743 154.218 172.714 154.343 172.714 154.488C172.714 154.633 172.743 154.76 172.801 154.87C172.862 154.977 172.94 155.06 173.036 155.118C173.134 155.176 173.238 155.205 173.348 155.205C173.461 155.205 173.567 155.177 173.666 155.122C173.764 155.064 173.842 154.983 173.9 154.879C173.958 154.772 173.987 154.644 173.987 154.496Z" fill="white"/>
</svg>
