<svg width="243" height="100" viewBox="0 0 243 100" fill="none" xmlns="http://www.w3.org/2000/svg">
<g filter="url(#filter0_d_1_11675)">
<rect x="11" y="8" width="221" height="78.3291" rx="11.1899" fill="white" shape-rendering="crispEdges"/>
<rect x="11.5" y="8.5" width="220" height="77.3291" rx="10.6899" stroke="#F4F4F4" shape-rendering="crispEdges"/>
<path opacity="0.7" d="M43.9289 30.5916V31.3161H42.0686V37.416H41.1776V31.3161H39.3075V30.5916H43.9289ZM47.3658 37.5041C46.8632 37.5041 46.4062 37.3899 45.995 37.1614C45.5903 36.933 45.2705 36.6099 45.0355 36.1921C44.807 35.7678 44.6928 35.2783 44.6928 34.7235C44.6928 34.1751 44.8103 33.6921 45.0453 33.2744C45.2868 32.8501 45.6132 32.527 46.0244 32.305C46.4356 32.0766 46.8958 31.9624 47.4049 31.9624C47.9141 31.9624 48.3743 32.0766 48.7855 32.305C49.1967 32.527 49.5198 32.8468 49.7548 33.2646C49.9963 33.6823 50.1171 34.1686 50.1171 34.7235C50.1171 35.2783 49.9931 35.7678 49.745 36.1921C49.5035 36.6099 49.1739 36.933 48.7561 37.1614C48.3384 37.3899 47.8749 37.5041 47.3658 37.5041ZM47.3658 36.7208C47.6856 36.7208 47.9859 36.6458 48.2666 36.4956C48.5472 36.3455 48.7724 36.1203 48.9421 35.8201C49.1184 35.5198 49.2065 35.1543 49.2065 34.7235C49.2065 34.2926 49.1216 33.9271 48.9519 33.6268C48.7822 33.3266 48.5603 33.1047 48.2861 32.961C48.012 32.8109 47.715 32.7359 47.3951 32.7359C47.0688 32.7359 46.7685 32.8109 46.4944 32.961C46.2267 33.1047 46.0113 33.3266 45.8481 33.6268C45.685 33.9271 45.6034 34.2926 45.6034 34.7235C45.6034 35.1608 45.6817 35.5296 45.8384 35.8299C46.0015 36.1301 46.2169 36.3553 46.4846 36.5054C46.7522 36.649 47.0459 36.7208 47.3658 36.7208ZM52.3754 32.7848V35.9473C52.3754 36.2084 52.4309 36.3945 52.5418 36.5054C52.6528 36.6099 52.8454 36.6621 53.1195 36.6621H53.7755V37.416H52.9727C52.4766 37.416 52.1045 37.3018 51.8565 37.0733C51.6084 36.8449 51.4844 36.4695 51.4844 35.9473V32.7848H50.7892V32.0505H51.4844V30.6993H52.3754V32.0505H53.7755V32.7848H52.3754ZM54.5222 34.7137C54.5222 34.1654 54.6331 33.6856 54.8551 33.2744C55.077 32.8566 55.3805 32.5335 55.7656 32.305C56.1573 32.0766 56.5914 31.9624 57.0679 31.9624C57.5378 31.9624 57.9458 32.0635 58.2918 32.2659C58.6377 32.4682 58.8956 32.7228 59.0653 33.0296V32.0505H59.966V37.416H59.0653V36.4173C58.889 36.7306 58.6247 36.9917 58.2722 37.2006C57.9262 37.403 57.5215 37.5041 57.0581 37.5041C56.5816 37.5041 56.1508 37.3866 55.7656 37.1517C55.3805 36.9167 55.077 36.587 54.8551 36.1627C54.6331 35.7385 54.5222 35.2554 54.5222 34.7137ZM59.0653 34.7235C59.0653 34.3188 58.9837 33.9663 58.8205 33.666C58.6573 33.3657 58.4354 33.1373 58.1547 32.9806C57.8805 32.8174 57.577 32.7359 57.2441 32.7359C56.9112 32.7359 56.6077 32.8142 56.3335 32.9708C56.0594 33.1275 55.8407 33.356 55.6775 33.6562C55.5143 33.9565 55.4328 34.309 55.4328 34.7137C55.4328 35.1249 55.5143 35.4839 55.6775 35.7907C55.8407 36.0909 56.0594 36.3227 56.3335 36.4859C56.6077 36.6425 56.9112 36.7208 57.2441 36.7208C57.577 36.7208 57.8805 36.6425 58.1547 36.4859C58.4354 36.3227 58.6573 36.0909 58.8205 35.7907C58.9837 35.4839 59.0653 35.1282 59.0653 34.7235ZM62.3627 30.1706V37.416H61.4717V30.1706H62.3627ZM68.6555 37.4846C68.2051 37.4846 67.8004 37.4062 67.4414 37.2496C67.0889 37.0864 66.8115 36.8644 66.6091 36.5838C66.4068 36.2966 66.3023 35.9669 66.2958 35.5949H67.2455C67.2782 35.9147 67.4087 36.1856 67.6372 36.4075C67.8722 36.6229 68.2116 36.7306 68.6555 36.7306C69.0797 36.7306 69.4126 36.6262 69.6542 36.4173C69.9022 36.2019 70.0262 35.9278 70.0262 35.5949C70.0262 35.3338 69.9544 35.1216 69.8108 34.9584C69.6672 34.7953 69.4877 34.6712 69.2723 34.5864C69.0569 34.5015 68.7664 34.4101 68.4009 34.3122C67.9505 34.1947 67.5882 34.0772 67.3141 33.9597C67.0464 33.8422 66.8147 33.6595 66.6189 33.4114C66.4296 33.1569 66.335 32.8174 66.335 32.3932C66.335 32.0211 66.4296 31.6915 66.6189 31.4043C66.8082 31.117 67.0726 30.8951 67.412 30.7385C67.7579 30.5818 68.1528 30.5035 68.5967 30.5035C69.2364 30.5035 69.7586 30.6634 70.1633 30.9832C70.5745 31.3031 70.8062 31.7274 70.8585 32.2561H69.8793C69.8467 31.995 69.7096 31.7665 69.4681 31.5707C69.2266 31.3684 68.9068 31.2672 68.5086 31.2672C68.1365 31.2672 67.833 31.3651 67.598 31.5609C67.363 31.7502 67.2455 32.0178 67.2455 32.3638C67.2455 32.6118 67.3141 32.8142 67.4511 32.9708C67.5947 33.1275 67.7677 33.2483 67.9701 33.3331C68.179 33.4114 68.4694 33.5028 68.8415 33.6073C69.2919 33.7313 69.6542 33.8553 69.9283 33.9793C70.2025 34.0968 70.4374 34.2829 70.6333 34.5374C70.8291 34.7855 70.927 35.1249 70.927 35.5557C70.927 35.8886 70.8389 36.2019 70.6626 36.4956C70.4864 36.7894 70.2253 37.0276 69.8793 37.2104C69.5334 37.3932 69.1254 37.4846 68.6555 37.4846ZM76.9967 32.0505V37.416H76.1057V36.6229C75.936 36.8971 75.6977 37.1125 75.3909 37.2691C75.0907 37.4193 74.7578 37.4943 74.3922 37.4943C73.9745 37.4943 73.5991 37.4095 73.2662 37.2398C72.9333 37.0635 72.669 36.8024 72.4732 36.4565C72.2839 36.1105 72.1892 35.6895 72.1892 35.1934V32.0505H73.0704V35.0759C73.0704 35.6047 73.2042 36.0126 73.4719 36.2998C73.7395 36.5805 74.105 36.7208 74.5685 36.7208C75.045 36.7208 75.4203 36.574 75.6944 36.2802C75.9686 35.9865 76.1057 35.559 76.1057 34.9976V32.0505H76.9967ZM79.3921 32.9219C79.5487 32.6151 79.7706 32.3768 80.0578 32.2071C80.3516 32.0374 80.7073 31.9526 81.1251 31.9526V32.8729H80.8901C79.8914 32.8729 79.3921 33.4147 79.3921 34.4983V37.416H78.5011V32.0505H79.3921V32.9219ZM84.151 36.5936L85.8155 32.0505H86.7652L84.6601 37.416H83.6223L81.5172 32.0505H82.4767L84.151 36.5936ZM92.5376 34.5276C92.5376 34.6973 92.5278 34.8768 92.5082 35.0661H88.2197C88.2523 35.5949 88.4318 36.0094 88.7582 36.3096C89.0911 36.6034 89.4925 36.7502 89.9625 36.7502C90.3476 36.7502 90.6675 36.6621 90.922 36.4859C91.1831 36.3031 91.3659 36.0616 91.4703 35.7613H92.4299C92.2863 36.277 91.9991 36.698 91.5683 37.0244C91.1374 37.3442 90.6022 37.5041 89.9625 37.5041C89.4534 37.5041 88.9964 37.3899 88.5917 37.1614C88.1936 36.933 87.8803 36.6099 87.6518 36.1921C87.4233 35.7678 87.3091 35.2783 87.3091 34.7235C87.3091 34.1686 87.4201 33.6823 87.642 33.2646C87.8639 32.8468 88.174 32.527 88.5722 32.305C88.9769 32.0766 89.4403 31.9624 89.9625 31.9624C90.4716 31.9624 90.922 32.0733 91.3137 32.2952C91.7053 32.5172 92.0056 32.824 92.2145 33.2156C92.4299 33.6007 92.5376 34.0381 92.5376 34.5276ZM91.6172 34.3416C91.6172 34.0022 91.5421 33.7117 91.392 33.4702C91.2419 33.2221 91.0363 33.0361 90.7752 32.9121C90.5206 32.7815 90.2367 32.7163 89.9233 32.7163C89.4729 32.7163 89.0878 32.8599 88.768 33.1471C88.4547 33.4343 88.2752 33.8325 88.2295 34.3416H91.6172ZM98.3351 32.0505L95.104 39.9421H94.1836L95.2411 37.3573L93.0772 32.0505H94.0661L95.7502 36.3977L97.4147 32.0505H98.3351ZM101.13 37.5041C100.719 37.5041 100.35 37.4356 100.024 37.2985C99.6974 37.1549 99.4396 36.9591 99.2503 36.7111C99.061 36.4565 98.9566 36.166 98.937 35.8396H99.8574C99.8835 36.1073 100.007 36.3259 100.229 36.4956C100.458 36.6654 100.755 36.7502 101.12 36.7502C101.46 36.7502 101.727 36.6752 101.923 36.525C102.119 36.3749 102.217 36.1856 102.217 35.9571C102.217 35.7221 102.113 35.5492 101.904 35.4382C101.695 35.3207 101.372 35.2065 100.934 35.0955C100.536 34.9911 100.21 34.8866 99.9553 34.7822C99.7072 34.6712 99.4918 34.5113 99.3091 34.3024C99.1328 34.087 99.0447 33.8063 99.0447 33.4604C99.0447 33.1862 99.1263 32.9349 99.2895 32.7065C99.4527 32.478 99.6844 32.2985 99.9847 32.168C100.285 32.0309 100.628 31.9624 101.013 31.9624C101.607 31.9624 102.086 32.1125 102.452 32.4127C102.818 32.713 103.013 33.1242 103.039 33.6464H102.148C102.129 33.3657 102.015 33.1406 101.806 32.9708C101.603 32.8011 101.329 32.7163 100.983 32.7163C100.664 32.7163 100.409 32.7848 100.22 32.9219C100.03 33.059 99.9357 33.2385 99.9357 33.4604C99.9357 33.6366 99.9912 33.7835 100.102 33.901C100.22 34.012 100.363 34.1033 100.533 34.1751C100.709 34.2404 100.951 34.3155 101.258 34.4003C101.643 34.5048 101.956 34.6092 102.197 34.7137C102.439 34.8116 102.645 34.9617 102.814 35.1641C102.991 35.3664 103.082 35.6308 103.088 35.9571C103.088 36.2509 103.007 36.5152 102.844 36.7502C102.68 36.9852 102.449 37.1712 102.148 37.3083C101.855 37.4389 101.515 37.5041 101.13 37.5041Z" fill="#11002A"/>
<path d="M39.7299 49.9395V45.4916H47.4789V65.9131H42.4994V49.9395H39.7299ZM50.7513 55.4226C50.7513 52.2148 51.3667 49.6878 52.5976 47.8414C53.8472 45.9951 55.852 45.0719 58.6122 45.0719C61.3724 45.0719 63.3679 45.9951 64.5988 47.8414C65.8483 49.6878 66.4731 52.2148 66.4731 55.4226C66.4731 58.6676 65.8483 61.2133 64.5988 63.0597C63.3679 64.906 61.3724 65.8292 58.6122 65.8292C55.852 65.8292 53.8472 64.906 52.5976 63.0597C51.3667 61.2133 50.7513 58.6676 50.7513 55.4226ZM61.7733 55.4226C61.7733 53.539 61.5682 52.0936 61.1579 51.0865C60.7476 50.0608 59.899 49.5479 58.6122 49.5479C57.3253 49.5479 56.4768 50.0608 56.0665 51.0865C55.6562 52.0936 55.451 53.539 55.451 55.4226C55.451 56.6908 55.5256 57.7445 55.6748 58.5837C55.824 59.4043 56.1224 60.0757 56.57 60.5979C57.0363 61.1014 57.717 61.3532 58.6122 61.3532C59.5074 61.3532 60.1788 61.1014 60.6264 60.5979C61.0926 60.0757 61.4003 59.4043 61.5495 58.5837C61.6987 57.7445 61.7733 56.6908 61.7733 55.4226ZM69.0004 55.4226C69.0004 52.2148 69.6158 49.6878 70.8467 47.8414C72.0963 45.9951 74.1011 45.0719 76.8613 45.0719C79.6215 45.0719 81.617 45.9951 82.8479 47.8414C84.0974 49.6878 84.7222 52.2148 84.7222 55.4226C84.7222 58.6676 84.0974 61.2133 82.8479 63.0597C81.617 64.906 79.6215 65.8292 76.8613 65.8292C74.1011 65.8292 72.0963 64.906 70.8467 63.0597C69.6158 61.2133 69.0004 58.6676 69.0004 55.4226ZM80.0224 55.4226C80.0224 53.539 79.8173 52.0936 79.407 51.0865C78.9967 50.0608 78.1481 49.5479 76.8613 49.5479C75.5745 49.5479 74.7259 50.0608 74.3156 51.0865C73.9053 52.0936 73.7002 53.539 73.7002 55.4226C73.7002 56.6908 73.7748 57.7445 73.9239 58.5837C74.0731 59.4043 74.3715 60.0757 74.8191 60.5979C75.2854 61.1014 75.9661 61.3532 76.8613 61.3532C77.7565 61.3532 78.4279 61.1014 78.8755 60.5979C79.3417 60.0757 79.6494 59.4043 79.7986 58.5837C79.9478 57.7445 80.0224 56.6908 80.0224 55.4226Z" fill="#11002A"/>
<rect x="161.014" y="25.8341" width="42.6614" height="42.6614" rx="21.3307" fill="#EFE6FD"/>
<rect x="161.014" y="25.8341" width="42.6614" height="42.6614" rx="21.3307" stroke="url(#paint0_linear_1_11675)" stroke-width="0.699367"/>
<path d="M191.669 45.2998V49.9622C191.669 54.6247 189.804 56.4896 185.142 56.4896H179.547C174.885 56.4896 173.02 54.6247 173.02 49.9622V44.3673C173.02 39.7048 174.885 37.8398 179.547 37.8398H184.209" fill="#B78AF7"/>
<path d="M191.669 45.2998V49.9622C191.669 54.6247 189.804 56.4896 185.142 56.4896H179.547C174.885 56.4896 173.02 54.6247 173.02 49.9622V44.3673C173.02 39.7048 174.885 37.8398 179.547 37.8398H184.209" stroke="#360083" stroke-width="1.04905" stroke-linecap="round" stroke-linejoin="round"/>
<path d="M191.669 45.2998H187.939C185.141 45.2998 184.209 44.3673 184.209 41.5698V37.8398L191.669 45.2998Z" fill="#B78AF7" stroke="#360083" stroke-width="1.04905" stroke-linecap="round" stroke-linejoin="round"/>
<path opacity="0.4" d="M177.682 48.0967H183.277" stroke="#360083" stroke-width="1.04905" stroke-linecap="round" stroke-linejoin="round"/>
<path opacity="0.4" d="M177.682 51.8271H181.412" stroke="#360083" stroke-width="1.04905" stroke-linecap="round" stroke-linejoin="round"/>
</g>
<defs>
<filter id="filter0_d_1_11675" x="0.2" y="-0.00253177" width="242.6" height="99.9291" filterUnits="userSpaceOnUse" color-interpolation-filters="sRGB">
<feFlood flood-opacity="0" result="BackgroundImageFix"/>
<feColorMatrix in="SourceAlpha" type="matrix" values="0 0 0 0 0 0 0 0 0 0 0 0 0 0 0 0 0 0 127 0" result="hardAlpha"/>
<feOffset dy="2.79747"/>
<feGaussianBlur stdDeviation="5.4"/>
<feComposite in2="hardAlpha" operator="out"/>
<feColorMatrix type="matrix" values="0 0 0 0 0.745833 0 0 0 0 0.745833 0 0 0 0 0.745833 0 0 0 0.25 0"/>
<feBlend mode="normal" in2="BackgroundImageFix" result="effect1_dropShadow_1_11675"/>
<feBlend mode="normal" in="SourceGraphic" in2="effect1_dropShadow_1_11675" result="shape"/>
</filter>
<linearGradient id="paint0_linear_1_11675" x1="101.46" y1="-10.7886" x2="195.197" y2="75.3706" gradientUnits="userSpaceOnUse">
<stop stop-color="#6100DD"/>
<stop offset="1" stop-color="#6100DD" stop-opacity="0"/>
</linearGradient>
</defs>
</svg>
