<svg width="70" height="70" viewBox="0 0 70 70" fill="none" xmlns="http://www.w3.org/2000/svg">
<rect x="0.5" y="0.5" width="69" height="69" rx="34.5" fill="white" fill-opacity="0.5" stroke="url(#paint0_linear_1_34767)"/>
<g clip-path="url(#clip0_1_34767)">
<path d="M26.7163 40.7216H51.9896C51.9896 39.7004 51.9304 38.6926 51.7217 37.7268C50.5859 32.4722 47.3645 27.9441 42.4757 25.5925C40.7626 24.7696 38.9219 24.2446 37.0324 24.04H33.3967C26.0654 24.8308 20.1489 30.3463 18.7539 37.4832L26.7163 40.7216Z" fill="#D2DCFD"/>
<path d="M16.6461 22.1462C17.5074 21.2846 18.9068 21.2846 19.7681 22.1462C20.6316 23.0079 20.6316 24.4078 19.7681 25.2695C18.9068 26.1333 17.5074 26.1333 16.6461 25.2695C15.7846 24.4078 15.7846 23.0079 16.6461 22.1462ZM53.7854 22.1462C52.9218 21.2846 51.5246 21.2846 50.661 22.1462C49.7997 23.0079 49.7997 24.4078 50.661 25.2695C51.5246 26.1333 52.9217 26.1333 53.7854 25.2695C54.6468 24.4078 54.6468 23.0079 53.7854 22.1462Z" fill="#6200EE"/>
<path d="M34.1671 22.1523H36.2617C36.6868 22.1523 37.0323 22.4979 37.0323 22.9232V25.6566C37.0323 26.0796 36.6869 26.4252 36.2617 26.4252H34.1671C33.7442 26.4252 33.3965 26.0796 33.3965 25.6566V22.9232C33.3966 22.4978 33.7442 22.1523 34.1671 22.1523Z" fill="#6200EE"/>
<path d="M29.1143 37.1045H41.3169V40.7217H29.1143V37.1045Z" fill="white"/>
<path d="M33.1816 37.1045H37.2492V40.7217H33.1816V37.1045Z" fill="#D2DCFD"/>
<path d="M29.5081 33.0117C30.5466 33.0117 31.3902 32.1656 31.3902 31.1289C31.3902 30.0922 30.5466 29.2461 29.5081 29.2461C28.4719 29.2461 27.626 30.0922 27.626 31.1289C27.626 32.1656 28.4719 33.0117 29.5081 33.0117ZM41.0155 33.0117C42.0517 33.0117 42.8976 32.1656 42.8976 31.1289C42.8976 30.0922 42.0518 29.2461 41.0155 29.2461C39.9792 29.2461 39.1334 30.0922 39.1334 31.1289C39.1334 32.1656 39.9792 33.0117 41.0155 33.0117Z" fill="#6200EE"/>
<path opacity="0.45" d="M25.2865 33.9736H19.8535C19.3584 35.0993 18.9896 36.2765 18.7539 37.4834L26.7163 40.7219H29.9194V38.6081C29.9194 36.0599 27.8339 33.9736 25.2865 33.9736Z" fill="#93B2F4"/>
<path d="M23.3552 28.8578L19.7681 25.2695M19.7681 25.2695C20.6316 24.4078 20.6316 23.0079 19.7681 22.1462C18.9068 21.2846 17.5074 21.2846 16.6461 22.1462C15.7846 23.0079 15.7846 24.4078 16.6461 25.2695C17.5074 26.1333 18.9068 26.1333 19.7681 25.2695ZM47.0763 28.8578L50.6611 25.2695M50.6611 25.2695C49.7998 24.4078 49.7997 23.0079 50.661 22.1462C51.5246 21.2846 52.9218 21.2846 53.7854 22.1462C54.6468 23.0079 54.6468 24.4078 53.7854 25.2695C52.9217 26.1333 51.5246 26.1333 50.6611 25.2695ZM41.317 40.7217V37.1044H29.1144V40.7217M29.5085 33.011C30.547 33.011 31.3906 32.1649 31.3906 31.1282C31.3906 30.0915 30.547 29.2454 29.5085 29.2454C28.4723 29.2454 27.6264 30.0915 27.6264 31.1282C27.6264 32.1649 28.4723 33.011 29.5085 33.011ZM41.0159 33.011C42.0521 33.011 42.898 32.1649 42.898 31.1282C42.898 30.0915 42.0522 29.2454 41.0159 29.2454C39.9795 29.2454 39.1337 30.0915 39.1337 31.1282C39.1337 32.1649 39.9796 33.011 41.0159 33.011Z" stroke="#290064" stroke-width="1.56863" stroke-miterlimit="10" stroke-linecap="round" stroke-linejoin="round"/>
<path d="M33.3967 24.04C26.0654 24.8308 20.1489 30.3463 18.7539 37.4832M26.7163 40.7216H51.9895C51.9895 39.7004 51.9303 38.6926 51.7216 37.7268C50.5858 32.4722 47.3644 27.9441 42.4756 25.5925C40.7626 24.7696 38.9218 24.2446 37.0323 24.04" stroke="#290064" stroke-width="1.56863" stroke-miterlimit="10" stroke-linecap="round" stroke-linejoin="round"/>
<path d="M41.6297 45.2165H34.2364L31.8029 48.1781L28.7118 43.2783L25.6208 48.1781L23.1873 45.2165H20.2158" stroke="#6200EE" stroke-width="1.56863" stroke-miterlimit="10" stroke-linecap="round" stroke-linejoin="round"/>
</g>
<defs>
<linearGradient id="paint0_linear_1_34767" x1="-49" y1="-46.5" x2="68" y2="70" gradientUnits="userSpaceOnUse">
<stop stop-color="#6100DD"/>
<stop offset="1" stop-color="#6100DD" stop-opacity="0"/>
</linearGradient>
<clipPath id="clip0_1_34767">
<rect width="40" height="40" fill="white" transform="translate(15 15)"/>
</clipPath>
</defs>
</svg>
