<svg width="23" height="23" viewBox="0 0 23 23" fill="none" xmlns="http://www.w3.org/2000/svg">
<path d="M15.0752 11.928H7.65734C7.27717 11.928 6.96191 11.6127 6.96191 11.2325C6.96191 10.8524 7.27717 10.5371 7.65734 10.5371H15.0752C15.4554 10.5371 15.7707 10.8524 15.7707 11.2325C15.7707 11.6127 15.4554 11.928 15.0752 11.928Z" fill="#8094AE"/>
<path d="M14.1479 21.1993H8.58452C3.54963 21.1993 1.39844 19.0481 1.39844 14.0132V8.44976C1.39844 3.41486 3.54963 1.26367 8.58452 1.26367H14.1479C19.1828 1.26367 21.334 3.41486 21.334 8.44976V14.0132C21.334 19.0481 19.1828 21.1993 14.1479 21.1993ZM8.58452 2.65453C4.30996 2.65453 2.78929 4.1752 2.78929 8.44976V14.0132C2.78929 18.2877 4.30996 19.8084 8.58452 19.8084H14.1479C18.4225 19.8084 19.9432 18.2877 19.9432 14.0132V8.44976C19.9432 4.1752 18.4225 2.65453 14.1479 2.65453H8.58452Z" fill="#8094AE"/>
</svg>
