<svg width="299" height="299" viewBox="0 0 299 299" fill="none" xmlns="http://www.w3.org/2000/svg">
<g clip-path="url(#clip0_1_10402)">
<path d="M155.723 0C152.286 0 149.5 2.78613 149.5 6.2227V143.118C149.5 146.555 152.286 149.341 155.723 149.341H292.618C296.055 149.341 298.841 146.555 298.841 143.118C298.751 64.113 234.727 0.0892541 155.723 0Z" fill="#FFC107"/>
<path d="M222.864 263.747L137.055 153.435V18.668C137.055 15.2314 134.269 12.4453 130.833 12.4453C58.7762 12.4453 0.160156 76.6493 0.160156 155.563C0.24941 234.568 64.2732 298.592 143.278 298.681C171.963 300.91 200.327 291.418 221.893 272.372C224.499 270.234 224.929 266.411 222.864 263.747Z" fill="#6200EE"/>
<path d="M292.617 161.785H168.167C164.731 161.786 161.945 164.572 161.946 168.009C161.946 169.431 162.433 170.809 163.327 171.915L244.219 272.06C245.304 273.406 246.9 274.24 248.625 274.363H249.061C250.635 274.364 252.152 273.768 253.305 272.695C282.292 245.587 298.773 207.695 298.841 168.007C298.84 164.571 296.054 161.785 292.617 161.785Z" fill="#00DDD0"/>
</g>
<defs>
<clipPath id="clip0_1_10402">
<rect width="299" height="299" fill="white"/>
</clipPath>
</defs>
</svg>
