<svg width="19" height="19" viewBox="0 0 19 19" fill="none" xmlns="http://www.w3.org/2000/svg">
<mask id="path-1-inside-1_1_10484" fill="white">
<path d="M5.69009 13.8115L1.62891 9.75027L2.65319 8.74396L5.70806 11.7988L6.71437 12.8051L5.69009 13.8115ZM9.75127 13.8115L5.69009 9.75027L6.6964 8.72599L9.75127 11.7809L16.3642 5.16797L17.3705 6.19225L9.75127 13.8115ZM9.75127 9.75027L8.72699 8.74396L12.285 5.18594L13.3093 6.19225L9.75127 9.75027Z"/>
</mask>
<path d="M5.69009 13.8115L1.62891 9.75027L2.65319 8.74396L5.70806 11.7988L6.71437 12.8051L5.69009 13.8115ZM9.75127 13.8115L5.69009 9.75027L6.6964 8.72599L9.75127 11.7809L16.3642 5.16797L17.3705 6.19225L9.75127 13.8115ZM9.75127 9.75027L8.72699 8.74396L12.285 5.18594L13.3093 6.19225L9.75127 9.75027Z" fill="#363E49"/>
<path d="M5.69009 13.8115L-10.5743 30.0759L5.54679 46.197L21.8099 30.2192L5.69009 13.8115ZM1.62891 9.75027L-14.491 -6.65744L-31.0445 9.60571L-14.6355 26.0147L1.62891 9.75027ZM2.65319 8.74396L18.9176 -7.52046L2.79648 -23.6416L-13.4667 -7.66375L2.65319 8.74396ZM5.70806 11.7988L-10.5564 28.0633H-10.5564L5.70806 11.7988ZM6.71437 12.8051L22.8342 29.2129L39.3878 12.9497L22.9788 -3.45928L6.71437 12.8051ZM9.75127 13.8115L-6.51316 30.0759L9.75127 46.3403L26.0157 30.0759L9.75127 13.8115ZM5.69009 9.75027L-10.7176 -6.36959L-26.6955 9.89357L-10.5743 26.0147L5.69009 9.75027ZM6.6964 8.72599L22.9608 -7.53843L6.55183 -23.9474L-9.71132 -7.39387L6.6964 8.72599ZM9.75127 11.7809L-6.51316 28.0453L9.75127 44.3097L26.0157 28.0453L9.75127 11.7809ZM16.3642 5.16797L32.7719 -10.9519L16.5087 -27.5054L0.0997339 -11.0965L16.3642 5.16797ZM17.3705 6.19225L33.6349 22.4567L49.756 6.33554L33.7782 -9.92762L17.3705 6.19225ZM9.75127 9.75027L-6.3686 26.158L9.89456 42.1358L26.0157 26.0147L9.75127 9.75027ZM8.72699 8.74396L-7.53744 -7.52046L-23.9464 8.88853L-7.39288 25.1517L8.72699 8.74396ZM12.285 5.18594L28.4049 -11.2218L12.1417 -27.1996L-3.97941 -11.0785L12.285 5.18594ZM13.3093 6.19225L29.5737 22.4567L45.9827 6.04768L29.4291 -10.2155L13.3093 6.19225ZM21.9545 -2.45298L17.8933 -6.51415L-14.6355 26.0147L-10.5743 30.0759L21.9545 -2.45298ZM17.7488 26.158L18.7731 25.1517L-13.4667 -7.66375L-14.491 -6.65744L17.7488 26.158ZM-13.6112 25.0084L-10.5564 28.0633L21.9725 -4.46559L18.9176 -7.52046L-13.6112 25.0084ZM-10.5564 28.0633L-9.55006 29.0696L22.9788 -3.45928L21.9725 -4.46559L-10.5564 28.0633ZM-9.40549 -3.60258L-10.4298 -2.59627L21.8099 30.2192L22.8342 29.2129L-9.40549 -3.60258ZM26.0157 -2.45298L21.9545 -6.51416L-10.5743 26.0147L-6.51316 30.0759L26.0157 -2.45298ZM22.0978 25.8701L23.1041 24.8459L-9.71132 -7.39387L-10.7176 -6.36959L22.0978 25.8701ZM-9.56803 24.9904L-6.51316 28.0453L26.0157 -4.48356L22.9608 -7.53843L-9.56803 24.9904ZM26.0157 28.0453L32.6286 21.4324L0.0997339 -11.0965L-6.51316 -4.48356L26.0157 28.0453ZM-0.043548 21.2878L0.962763 22.3121L33.7782 -9.92762L32.7719 -10.9519L-0.043548 21.2878ZM1.10605 -10.0722L-6.51316 -2.45298L26.0157 30.0759L33.6349 22.4567L1.10605 -10.0722ZM25.8711 -6.65744L24.8468 -7.66375L-7.39288 25.1517L-6.3686 26.158L25.8711 -6.65744ZM24.9914 25.0084L28.5494 21.4504L-3.97941 -11.0785L-7.53744 -7.52046L24.9914 25.0084ZM-3.83485 21.5937L-2.81057 22.6L29.4291 -10.2155L28.4049 -11.2218L-3.83485 21.5937ZM-2.95514 -10.0722L-6.51316 -6.51415L26.0157 26.0147L29.5737 22.4567L-2.95514 -10.0722Z" fill="#363E49" mask="url(#path-1-inside-1_1_10484)"/>
</svg>
