<svg width="27" height="27" viewBox="0 0 27 27" fill="none" xmlns="http://www.w3.org/2000/svg">
<path d="M7.10548 18.1185L7.10549 18.1185L7.10639 18.1145C7.19566 17.7168 7.15326 17.2821 7.04589 16.9063C6.93871 16.5312 6.7452 16.1393 6.45717 15.8513L3.83293 13.2271C3.09624 12.4904 2.95268 11.8583 3.08452 11.4321C3.227 11.0048 3.70686 10.5788 4.73507 10.404C4.73537 10.404 4.73566 10.4039 4.73596 10.4039L8.10339 9.84266L8.1034 9.8427L8.11028 9.84147C8.47726 9.77623 8.83797 9.59359 9.13047 9.3792C9.42273 9.16499 9.70789 8.87436 9.88029 8.53776L9.88033 8.53778L9.88347 8.53148L11.7394 4.80872C11.7397 4.8082 11.74 4.80769 11.7402 4.80717C12.2329 3.83254 12.7941 3.50147 13.2345 3.50147C13.6749 3.50147 14.2362 3.83254 14.7288 4.80718C14.7291 4.80769 14.7294 4.80821 14.7296 4.80872L16.5856 8.53148L16.5859 8.53215C16.6764 8.71304 16.8001 8.8801 16.9415 9.02953L6.88093 19.0901L7.10548 18.1185Z" fill="#11002A" stroke="#11002A" stroke-width="1.29592"/>
<path d="M20.108 21.3673L20.1084 21.3689C20.4063 22.6531 20.1456 23.3033 19.8092 23.5484C19.6643 23.6524 19.4776 23.7171 19.2169 23.7171C18.8209 23.7171 18.288 23.5666 17.6359 23.1814C17.6356 23.1812 17.6353 23.1811 17.635 23.1809L14.472 21.3025L14.472 21.3025L14.4692 21.3008C14.0969 21.0823 13.6466 20.993 13.234 20.993C12.8215 20.993 12.3712 21.0823 11.9989 21.3008L11.9989 21.3008L11.996 21.3025L8.83527 23.1796C8.83471 23.1799 8.83415 23.1802 8.83358 23.1806C7.69058 23.8494 6.99237 23.7944 6.66394 23.5521C6.61636 23.5169 6.57206 23.4771 6.53122 23.4312L19.3187 10.6438C19.67 10.2925 20.1608 10.1375 20.6281 10.2191L20.632 10.2198L21.7218 10.4032C21.722 10.4033 21.7221 10.4033 21.7223 10.4033C22.7508 10.5781 23.2307 11.0041 23.3733 11.4314C23.5051 11.8576 23.3615 12.4897 22.6248 13.2264L22.6239 13.2273L20.0114 15.8506C20.0113 15.8508 20.0111 15.8509 20.011 15.851C19.7211 16.1411 19.5235 16.5301 19.4148 16.909C19.3067 17.2856 19.267 17.7203 19.3638 18.1208L20.108 21.3673Z" fill="#11002A" stroke="#11002A" stroke-width="1.29592"/>
</svg>
