<svg width="18" height="19" viewBox="0 0 18 19" fill="none" xmlns="http://www.w3.org/2000/svg">
<mask id="path-1-inside-1_1_10509" fill="white">
<path d="M5.19009 13.8115L1.12891 9.75027L2.15319 8.74396L5.20806 11.7988L6.21437 12.8051L5.19009 13.8115ZM9.25127 13.8115L5.19009 9.75027L6.1964 8.72599L9.25127 11.7809L15.8642 5.16797L16.8705 6.19225L9.25127 13.8115ZM9.25127 9.75027L8.22699 8.74396L11.785 5.18594L12.8093 6.19225L9.25127 9.75027Z"/>
</mask>
<path d="M5.19009 13.8115L1.12891 9.75027L2.15319 8.74396L5.20806 11.7988L6.21437 12.8051L5.19009 13.8115ZM9.25127 13.8115L5.19009 9.75027L6.1964 8.72599L9.25127 11.7809L15.8642 5.16797L16.8705 6.19225L9.25127 13.8115ZM9.25127 9.75027L8.22699 8.74396L11.785 5.18594L12.8093 6.19225L9.25127 9.75027Z" fill="white"/>
<path d="M5.19009 13.8115L-11.0743 30.0759L5.04679 46.197L21.3099 30.2192L5.19009 13.8115ZM1.12891 9.75027L-14.991 -6.65744L-31.5445 9.60571L-15.1355 26.0147L1.12891 9.75027ZM2.15319 8.74396L18.4176 -7.52046L2.29648 -23.6416L-13.9667 -7.66375L2.15319 8.74396ZM5.20806 11.7988L-11.0564 28.0633H-11.0564L5.20806 11.7988ZM6.21437 12.8051L22.3342 29.2129L38.8878 12.9497L22.4788 -3.45928L6.21437 12.8051ZM9.25127 13.8115L-7.01316 30.0759L9.25127 46.3403L25.5157 30.0759L9.25127 13.8115ZM5.19009 9.75027L-11.2176 -6.36959L-27.1955 9.89357L-11.0743 26.0147L5.19009 9.75027ZM6.1964 8.72599L22.4608 -7.53843L6.05183 -23.9474L-10.2113 -7.39387L6.1964 8.72599ZM9.25127 11.7809L-7.01316 28.0453L9.25127 44.3097L25.5157 28.0453L9.25127 11.7809ZM15.8642 5.16797L32.2719 -10.9519L16.0087 -27.5054L-0.400266 -11.0965L15.8642 5.16797ZM16.8705 6.19225L33.1349 22.4567L49.256 6.33554L33.2782 -9.92762L16.8705 6.19225ZM9.25127 9.75027L-6.8686 26.158L9.39456 42.1358L25.5157 26.0147L9.25127 9.75027ZM8.22699 8.74396L-8.03744 -7.52046L-24.4464 8.88853L-7.89288 25.1517L8.22699 8.74396ZM11.785 5.18594L27.9049 -11.2218L11.6417 -27.1996L-4.47941 -11.0785L11.785 5.18594ZM12.8093 6.19225L29.0737 22.4567L45.4827 6.04768L28.9291 -10.2155L12.8093 6.19225ZM21.4545 -2.45298L17.3933 -6.51415L-15.1355 26.0147L-11.0743 30.0759L21.4545 -2.45298ZM17.2488 26.158L18.2731 25.1517L-13.9667 -7.66375L-14.991 -6.65744L17.2488 26.158ZM-14.1112 25.0084L-11.0564 28.0633L21.4725 -4.46559L18.4176 -7.52046L-14.1112 25.0084ZM-11.0564 28.0633L-10.0501 29.0696L22.4788 -3.45928L21.4725 -4.46559L-11.0564 28.0633ZM-9.90549 -3.60258L-10.9298 -2.59627L21.3099 30.2192L22.3342 29.2129L-9.90549 -3.60258ZM25.5157 -2.45298L21.4545 -6.51416L-11.0743 26.0147L-7.01316 30.0759L25.5157 -2.45298ZM21.5978 25.8701L22.6041 24.8459L-10.2113 -7.39387L-11.2176 -6.36959L21.5978 25.8701ZM-10.068 24.9904L-7.01316 28.0453L25.5157 -4.48356L22.4608 -7.53843L-10.068 24.9904ZM25.5157 28.0453L32.1286 21.4324L-0.400266 -11.0965L-7.01316 -4.48356L25.5157 28.0453ZM-0.543548 21.2878L0.462763 22.3121L33.2782 -9.92762L32.2719 -10.9519L-0.543548 21.2878ZM0.606047 -10.0722L-7.01316 -2.45298L25.5157 30.0759L33.1349 22.4567L0.606047 -10.0722ZM25.3711 -6.65744L24.3468 -7.66375L-7.89288 25.1517L-6.8686 26.158L25.3711 -6.65744ZM24.4914 25.0084L28.0494 21.4504L-4.47941 -11.0785L-8.03744 -7.52046L24.4914 25.0084ZM-4.33485 21.5937L-3.31057 22.6L28.9291 -10.2155L27.9049 -11.2218L-4.33485 21.5937ZM-3.45514 -10.0722L-7.01316 -6.51415L25.5157 26.0147L29.0737 22.4567L-3.45514 -10.0722Z" fill="white" mask="url(#path-1-inside-1_1_10509)"/>
</svg>
