<svg width="27" height="27" viewBox="0 0 27 27" fill="none" xmlns="http://www.w3.org/2000/svg">
<path d="M13.4537 4.45606L13.4537 4.45607L13.4564 4.452C13.5978 4.23823 13.8778 4.01635 14.2388 3.88872C14.5943 3.7631 14.9695 3.74949 15.2918 3.86993L15.3018 3.87364L15.3118 3.87703C16.075 4.13402 16.5726 5.01087 16.4185 5.72982L16.4149 5.74674L16.4122 5.76383L15.8506 9.29521L15.8494 9.30325L15.8483 9.31133C15.7821 9.80759 15.9154 10.2785 16.2137 10.647L16.2238 10.6594L16.2345 10.6714C16.5355 11.0078 16.9785 11.2221 17.4625 11.2221L21.901 11.2221C22.5795 11.2221 23.1006 11.4928 23.3919 11.8992C23.6613 12.2834 23.7373 12.813 23.5253 13.4151L23.5252 13.415L23.5209 13.4281L20.8642 21.5168L20.8569 21.5391L20.8512 21.5618C20.5937 22.5917 19.4118 23.5009 18.24 23.5009H14.0283C13.7322 23.5009 13.36 23.4488 13.015 23.3457C12.6567 23.2387 12.4055 23.1 12.2834 22.9779L12.2543 22.9488L12.2217 22.9235L10.8394 21.8544L10.8394 21.8544L10.8334 21.8498C10.4694 21.575 10.2485 21.1308 10.2485 20.6607L10.2485 9.68855C10.2485 9.38643 10.3392 9.09044 10.5062 8.83943C10.5065 8.8391 10.5067 8.83878 10.5069 8.83845L13.4537 4.45606Z" fill="#11002A" stroke="#11002A" stroke-width="1.29592"/>
<path d="M5.05542 8.22999H6.16775C6.94479 8.22999 7.32632 8.38483 7.52539 8.57469C7.71687 8.75732 7.87405 9.10225 7.87405 9.82829L7.87405 20.6924C7.87405 21.4184 7.71687 21.7634 7.52539 21.946C7.32632 22.1359 6.94479 22.2907 6.16775 22.2907H5.05542C4.27839 22.2907 3.89686 22.1359 3.69779 21.946C3.5063 21.7634 3.34913 21.4184 3.34913 20.6924L3.34913 9.82829C3.34913 9.10225 3.5063 8.75732 3.69779 8.57469C3.89686 8.38483 4.27839 8.22999 5.05542 8.22999Z" fill="#11002A" stroke="#11002A" stroke-width="1.29592"/>
</svg>
