<svg width="24" height="25" viewBox="0 0 24 25" fill="none" xmlns="http://www.w3.org/2000/svg">
<path d="M12.0065 17.2199C14.4667 17.2199 16.4612 15.2255 16.4612 12.7652C16.4612 10.305 14.4667 8.31055 12.0065 8.31055C9.54619 8.31055 7.55176 10.305 7.55176 12.7652C7.55176 15.2255 9.54619 17.2199 12.0065 17.2199Z" fill="white"/>
<path d="M10.0271 13.5074H2.10768C1.70181 13.5074 1.36523 13.1708 1.36523 12.7649C1.36523 12.359 1.70181 12.0225 2.10768 12.0225H10.0271C10.433 12.0225 10.7696 12.359 10.7696 12.7649C10.7696 13.1708 10.433 13.5074 10.0271 13.5074Z" fill="white"/>
<path d="M21.9061 13.5074H13.9866C13.5807 13.5074 13.2441 13.1708 13.2441 12.7649C13.2441 12.359 13.5807 12.0225 13.9866 12.0225H21.9061C22.3119 12.0225 22.6485 12.359 22.6485 12.7649C22.6485 13.1708 22.3119 13.5074 21.9061 13.5074Z" fill="white"/>
</svg>
