<svg width="21" height="20" viewBox="0 0 21 20" fill="none" xmlns="http://www.w3.org/2000/svg">
<path d="M10.5 13.75C12.5711 13.75 14.25 12.0711 14.25 10C14.25 7.92893 12.5711 6.25 10.5 6.25C8.42893 6.25 6.75 7.92893 6.75 10C6.75 12.0711 8.42893 13.75 10.5 13.75Z" fill="white"/>
<path d="M8.83366 10.625H2.16699C1.82533 10.625 1.54199 10.3417 1.54199 10C1.54199 9.65833 1.82533 9.375 2.16699 9.375H8.83366C9.17533 9.375 9.45866 9.65833 9.45866 10C9.45866 10.3417 9.17533 10.625 8.83366 10.625Z" fill="white"/>
<path d="M18.8337 10.625H12.167C11.8253 10.625 11.542 10.3417 11.542 10C11.542 9.65833 11.8253 9.375 12.167 9.375H18.8337C19.1753 9.375 19.4587 9.65833 19.4587 10C19.4587 10.3417 19.1753 10.625 18.8337 10.625Z" fill="white"/>
</svg>
