<svg width="21" height="21" viewBox="0 0 21 21" fill="none" xmlns="http://www.w3.org/2000/svg">
<path d="M5.28313 13.8327C5.3748 13.4243 5.20813 12.841 4.91647 12.5493L2.89147 10.5243C2.25813 9.89102 2.00813 9.21602 2.19147 8.63268C2.38313 8.04935 2.9748 7.64935 3.85813 7.49935L6.45813 7.06602C6.83313 6.99935 7.29147 6.66602 7.46647 6.32435L8.8998 3.44935C9.31647 2.62435 9.88313 2.16602 10.4998 2.16602C11.1165 2.16602 11.6831 2.62435 12.0998 3.44935L13.5331 6.32435C13.6415 6.54102 13.8665 6.74935 14.1081 6.89102L5.13313 15.866C5.01647 15.9827 4.81647 15.8743 4.8498 15.7077L5.28313 13.8327Z" fill="white"/>
<path d="M16.083 12.5496C15.783 12.8496 15.6163 13.4246 15.7163 13.8329L16.2913 16.3413C16.533 17.3829 16.383 18.1663 15.8663 18.5413C15.658 18.6913 15.408 18.7663 15.1163 18.7663C14.6913 18.7663 14.1913 18.6079 13.6413 18.2829L11.1997 16.8329C10.8163 16.6079 10.183 16.6079 9.79967 16.8329L7.35801 18.2829C6.43301 18.8246 5.64134 18.9163 5.13301 18.5413C4.94134 18.3996 4.79967 18.2079 4.70801 17.9579L14.8413 7.82459C15.2247 7.44126 15.7663 7.26626 16.2913 7.35792L17.133 7.49959C18.0163 7.64959 18.608 8.04959 18.7997 8.63292C18.983 9.21626 18.733 9.89126 18.0997 10.5246L16.083 12.5496Z" fill="white"/>
</svg>
