<svg width="234" height="234" viewBox="0 0 234 234" fill="none" xmlns="http://www.w3.org/2000/svg">
<g clip-path="url(#clip0_1_10408)">
<path d="M176.15 173.506L166.603 154.412L157.056 173.506H176.15Z" fill="#00DDD0"/>
<path d="M213.442 99.2055H203.73V78.656C203.73 76.7172 202.909 74.8695 201.47 73.5697C200.032 72.2699 198.109 71.6405 196.182 71.8357C195.091 71.9463 170.64 74.7113 158.467 99.2055H148.506V114.237C148.506 133.133 133.133 148.505 114.237 148.505H99.2061V213.442C99.2061 224.778 108.428 234 119.764 234H213.442C224.778 234 234 224.778 234 213.442V119.764C234 108.428 224.778 99.2055 213.442 99.2055ZM132.952 191.056L160.471 136.018C161.632 133.695 164.006 132.228 166.603 132.228C169.199 132.228 171.573 133.695 172.735 136.018L200.254 191.056C201.947 194.443 200.574 198.56 197.188 200.254C193.802 201.947 189.684 200.575 187.99 197.188L183.005 187.218H150.201L145.216 197.188C144.015 199.59 141.593 200.979 139.079 200.979C138.049 200.979 137.003 200.746 136.019 200.254C132.631 198.56 131.259 194.443 132.952 191.056Z" fill="#00DDD0"/>
<path d="M73.8934 57.7422H60.9014C61.7496 64.5341 63.9237 70.2447 67.3976 74.8461C70.871 70.2447 73.0451 64.5341 73.8934 57.7422Z" fill="#6200EE"/>
<path d="M114.237 134.795C125.573 134.795 134.795 125.572 134.795 114.237V20.5582C134.795 9.22243 125.572 0 114.237 0H20.5582C9.22243 0 0 9.22243 0 20.5582V114.237C0 125.573 9.22243 134.795 20.5577 134.795H30.2706V155.344C30.2706 157.283 31.0914 159.131 32.5297 160.43C33.7956 161.574 35.4355 162.199 37.1256 162.199C37.3554 162.199 37.5872 162.188 37.818 162.164C38.9094 162.054 63.3596 159.289 75.5326 134.795H114.237ZM71.051 95.4615C69.8517 94.8216 68.6269 94.0991 67.3975 93.2952C66.1676 94.0991 64.9432 94.8221 63.744 95.4615C52.0467 101.7 40.37 101.772 39.8787 101.772C36.0927 101.772 33.0232 98.7023 33.0232 94.9162C33.0232 91.1302 36.0927 88.0608 39.8787 88.0608C39.939 88.0603 48.3973 87.9374 56.8136 83.613C51.9983 77.4467 48.2031 69.0798 47.1067 57.7413H39.8783C36.0922 57.7413 33.0228 54.6719 33.0228 50.8859C33.0228 47.0998 36.0922 44.0304 39.8783 44.0304H60.542V39.8783C60.542 36.0922 63.6114 33.0228 67.3975 33.0228C71.1835 33.0228 74.253 36.0922 74.253 39.8783V44.0304H94.9162C98.7023 44.0304 101.772 47.0998 101.772 50.8859C101.772 54.6719 98.7023 57.7413 94.9162 57.7413H87.6888C86.5919 69.0798 82.7971 77.4467 77.9819 83.613C86.3976 87.9374 94.8573 88.0599 94.9446 88.0608C98.7306 88.0608 101.786 91.1302 101.786 94.9162C101.786 98.7023 98.7023 101.772 94.9162 101.772C94.4249 101.772 82.7483 101.7 71.051 95.4615Z" fill="#6200EE"/>
<path d="M167.122 39.222C168.46 40.5607 170.215 41.2302 171.969 41.2302C173.723 41.2302 175.478 40.5611 176.816 39.222C179.494 36.5447 179.494 32.2043 176.816 29.527L174.848 27.559C200.081 29.054 220.152 50.0518 220.152 75.6529C220.152 79.4389 223.221 82.5084 227.007 82.5084C230.793 82.5084 233.863 79.4389 233.863 75.6529C233.863 42.4391 207.564 15.2558 174.696 13.823L176.816 11.7028C179.494 9.02551 179.494 4.68508 176.816 2.0078C174.14 -0.669037 169.799 -0.669494 167.121 2.0078L153.362 15.7676C150.685 18.4449 150.685 22.7854 153.362 25.4626L167.122 39.222Z" fill="#6200EE"/>
<path d="M66.7412 194.642C64.0644 191.965 59.7235 191.965 57.0462 194.642C54.3689 197.319 54.3689 201.66 57.0462 204.337L59.0142 206.305C33.7819 204.81 13.7109 183.812 13.7109 158.211C13.7109 154.425 10.6415 151.355 6.85547 151.355C3.06942 151.355 0 154.425 0 158.211C0 191.425 26.2989 218.608 59.1663 220.041L57.0462 222.161C54.3689 224.838 54.3689 229.179 57.0462 231.856C58.3848 233.195 60.1394 233.864 61.8935 233.864C63.6475 233.864 65.4025 233.195 66.7407 231.856L80.5001 218.096C83.1774 215.419 83.1774 211.078 80.5001 208.401L66.7412 194.642Z" fill="#00DDD0"/>
</g>
<defs>
<clipPath id="clip0_1_10408">
<rect width="234" height="234" fill="white"/>
</clipPath>
</defs>
</svg>
