<svg width="984" height="669" viewBox="0 0 984 669" fill="none" xmlns="http://www.w3.org/2000/svg">
<path opacity="0.07" d="M901.496 431.68C908.968 314.683 918.714 195.53 929.029 78.6137C929.922 69.7491 928.785 74.1415 929.273 75.3394C930.247 80.0512 935.608 81.0894 939.344 78.3741C890.613 135.794 797.863 244.325 748.483 301.266C717.54 337.284 686.433 373.221 655.084 408.839C649.886 415.148 550.638 528.072 549.583 529.509C508.081 585.811 420.61 561.613 415.737 492.534C415.006 484.867 413.463 469.613 412.732 461.707C399.981 332.013 394.62 199.523 389.747 69.1901C390.966 77.3359 401.443 92.829 417.605 91.9505C425.889 92.5095 437.747 85.1623 440.102 79.4922C437.503 83.4852 353.525 200.961 348.57 208.068C238.359 362.52 126.035 515.613 10.4635 666.711C8.51431 669.266 4.85954 669.745 2.34181 667.829C-0.0134818 666.072 -0.663219 662.957 0.717472 660.561C115.64 450.048 238.602 238.895 361.484 32.6936C383.331 -6.99734 443.27 -11.7091 471.695 24.9471C481.848 37.1658 485.421 51.7804 486.558 66.7943C501.096 194.971 515.228 325.305 521.888 454.041C522.375 462.506 523.187 478.238 523.674 486.784C521.725 458.832 484.284 445.735 465.117 467.377C469.259 463.145 480.548 451.884 485.015 447.332C578.334 352.777 693.012 238.096 787.468 144.659L889.314 44.6728C895.974 37.9644 903.446 30.3776 912.867 26.7839C945.76 12.0895 985.881 38.4436 983.932 73.7422C984.581 79.1727 969.8 147.933 968.825 155.44C950.633 248.079 932.278 340.718 912.136 433.117C910.593 439.426 901.171 438.148 901.496 431.68Z" fill="url(#paint0_linear_1_36109)"/>
<defs>
<linearGradient id="paint0_linear_1_36109" x1="34.533" y1="308.218" x2="1089.08" y2="48.7383" gradientUnits="userSpaceOnUse">
<stop stop-color="#00DDD0"/>
<stop offset="1" stop-color="#6100DD"/>
</linearGradient>
</defs>
</svg>
