<svg width="1497" height="1035" viewBox="0 0 1497 1035" fill="none" xmlns="http://www.w3.org/2000/svg">
<path d="M1371.48 667.845C1382.85 486.841 1397.68 302.502 1413.37 121.622C1414.73 107.908 1413 114.703 1413.74 116.556C1415.22 123.846 1423.38 125.452 1429.06 121.251C1354.93 210.085 1213.82 377.992 1138.7 466.085C1091.62 521.807 1044.3 577.405 996.606 632.509C988.698 642.27 837.709 816.972 836.103 819.196C772.964 906.3 639.891 868.864 632.478 761.991C631.366 750.13 629.018 726.532 627.906 714.3C608.507 513.652 600.352 308.68 592.939 107.043C594.792 119.645 610.731 143.614 635.32 142.255C647.923 143.12 665.962 131.753 669.545 122.981C665.592 129.159 537.832 310.904 530.294 321.9C362.625 560.849 191.743 797.698 15.9186 1031.46C12.9532 1035.41 7.39303 1036.15 3.5627 1033.19C-0.0205104 1030.47 -1.00898 1025.65 1.09152 1021.94C175.927 696.262 362.996 369.591 549.94 50.5798C583.178 -10.8255 674.364 -18.115 717.61 38.5953C733.055 57.4987 738.491 80.1087 740.221 103.336C762.338 301.637 783.837 503.274 793.969 702.439C794.711 715.536 795.946 739.876 796.688 753.096C793.722 709.852 736.761 689.59 707.602 723.073C713.903 716.524 731.078 699.103 737.874 692.061C879.843 545.776 1054.31 368.355 1198.01 223.799L1352.95 69.1126C1363.08 58.7342 1374.45 46.9968 1388.78 41.437C1438.82 18.7034 1499.86 59.4755 1496.9 114.085C1497.88 122.487 1475.4 228.865 1473.91 240.479C1446.24 383.799 1418.31 527.119 1387.67 670.069C1385.32 679.829 1370.99 677.853 1371.48 667.845Z" fill="white" fill-opacity="0.06"/>
</svg>
