<svg width="1138" height="773" viewBox="0 0 1138 773" fill="none" xmlns="http://www.w3.org/2000/svg">
<path opacity="0.3" d="M1042.58 498.787C1051.23 363.602 1062.5 225.927 1074.43 90.8347C1075.46 80.5921 1074.14 85.6672 1074.71 87.0514C1075.83 92.4957 1082.03 93.6952 1086.35 90.5579C1030 156.904 922.732 282.307 865.624 348.1C829.837 389.716 793.863 431.241 757.607 472.396C751.596 479.685 636.816 610.164 635.595 611.825C587.597 676.879 486.437 648.92 480.801 569.101C479.956 560.242 478.171 542.618 477.326 533.482C462.579 383.626 456.38 230.54 450.744 79.9461C452.153 89.3583 464.27 107.26 482.962 106.245C492.542 106.891 506.256 98.4013 508.98 91.8497C505.974 96.4635 408.853 232.201 403.123 240.414C275.663 418.876 145.761 595.769 12.1011 770.355C9.84684 773.308 5.62008 773.861 2.70832 771.647C-0.0155918 769.617 -0.767015 766.018 0.829759 763.249C133.738 520.01 275.945 276.032 418.057 37.776C443.324 -8.08511 512.643 -13.5294 545.518 28.8253C557.259 42.9435 561.391 59.83 562.706 77.1778C579.52 225.281 595.863 375.875 603.565 524.624C604.129 534.405 605.068 552.583 605.632 562.457C603.377 530.16 560.077 515.027 537.91 540.034C542.7 535.143 555.756 522.132 560.922 516.873C668.845 407.618 801.471 275.11 910.709 167.147L1028.49 51.6174C1036.2 43.8662 1044.84 35.1 1055.73 30.9476C1093.77 13.9688 1140.18 44.4199 1137.92 85.2058C1138.67 91.4806 1121.58 170.93 1120.45 179.604C1099.41 286.644 1078.18 393.684 1054.89 500.448C1053.1 507.737 1042.21 506.261 1042.58 498.787Z" fill="white"/>
</svg>
