<svg width="49" height="34" viewBox="0 0 49 34" fill="none" xmlns="http://www.w3.org/2000/svg">
<path d="M1.60149 32.9682C7.12271 25.7395 12.4886 18.4154 17.7534 11.0267L17.7542 11.0256C17.8478 10.8911 18.5543 9.8994 19.3733 8.74971C19.4629 8.62389 19.5539 8.49619 19.6456 8.3675C19.848 13.2819 20.1086 18.2302 20.5864 23.0968C20.6066 23.3158 20.64 23.6539 20.6712 23.9703C20.6938 24.1991 20.7152 24.4166 20.7298 24.5697C20.9726 27.9975 25.3044 29.1874 27.3535 26.4037L27.3536 26.4035C27.3533 26.4039 27.3551 26.4018 27.3595 26.3967C27.3673 26.3875 27.3832 26.3689 27.4094 26.3387C27.4468 26.2955 27.5003 26.2339 27.5677 26.1565C27.7026 26.0017 27.8928 25.784 28.1205 25.5236C28.4651 25.1295 28.8954 24.6379 29.3492 24.1194C29.4951 23.9528 29.6434 23.7833 29.7921 23.6135C31.0088 22.2233 32.2539 20.8 32.387 20.6388C33.8844 18.9351 35.3701 17.2162 36.8479 15.4937C38.9562 13.059 42.7186 8.65399 45.1561 5.78448C44.6972 11.0443 44.2665 16.3875 43.9315 21.6402L43.9315 21.6419C43.9198 21.875 44.0896 22.0153 44.2627 22.0387C44.4355 22.0622 44.6367 21.973 44.6918 21.7475L44.6918 21.7475L44.6925 21.7443C45.6549 17.3232 46.5318 12.8909 47.4008 8.45973L47.401 8.45978L47.4021 8.45155C47.4181 8.32826 47.5164 7.83814 47.6363 7.24059C47.6855 6.99545 47.7383 6.73223 47.7906 6.46884C47.8798 6.01895 47.9668 5.57123 48.0296 5.21945C48.061 5.04369 48.0865 4.89078 48.1033 4.77306C48.1116 4.7143 48.118 4.66308 48.1217 4.62156C48.1247 4.58875 48.1269 4.55416 48.125 4.52527C48.1707 3.63183 47.6868 2.85803 46.9941 2.40068C46.3001 1.94242 45.3836 1.79289 44.5534 2.16287C44.0834 2.34349 43.7135 2.71679 43.4039 3.02915L43.3877 3.04556L43.3865 3.04672L38.5231 7.82815L38.5227 7.82849C34.617 11.6976 29.9875 16.3282 25.9225 20.4367C25.5708 15.0186 24.9765 9.55973 24.3675 4.18289C24.3121 3.45336 24.1373 2.72555 23.63 2.11324C22.2168 0.290698 19.2441 0.522034 18.1549 2.50023C12.2858 12.363 6.41233 22.4635 0.922614 32.5338M1.60149 32.9682L1.49978 32.8905L1.60159 32.968C1.60155 32.9681 1.60152 32.9681 1.60149 32.9682ZM1.60149 32.9682C1.46563 33.1464 1.21085 33.1804 1.03427 33.0457L1.11185 32.944L1.03527 33.0465C0.873443 32.9256 0.823998 32.7067 0.922614 32.5338M0.922614 32.5338C0.922379 32.5342 0.922141 32.5347 0.921905 32.5351L1.03427 32.5964L0.923349 32.5325C0.923103 32.5329 0.922858 32.5334 0.922614 32.5338Z" fill="url(#paint0_linear_1_10516)" stroke="url(#paint1_linear_1_10516)" stroke-width="0.25595"/>
<defs>
<linearGradient id="paint0_linear_1_10516" x1="2.64944" y1="15.7429" x2="53.0273" y2="3.36471" gradientUnits="userSpaceOnUse">
<stop stop-color="#00DDD0"/>
<stop offset="1" stop-color="#6100DD"/>
</linearGradient>
<linearGradient id="paint1_linear_1_10516" x1="2.64944" y1="15.7429" x2="53.0273" y2="3.36471" gradientUnits="userSpaceOnUse">
<stop stop-color="#00DDD0"/>
<stop offset="1" stop-color="#6100DD"/>
</linearGradient>
</defs>
</svg>
