<svg width="510" height="604" viewBox="0 0 510 604" fill="none" xmlns="http://www.w3.org/2000/svg">
<path d="M0 4C0 1.79086 1.79086 0 4 0H195C197.209 0 199 1.79086 199 4V24C199 26.2091 197.209 28 195 28H3.99999C1.79086 28 0 26.2091 0 24V4Z" fill="white" fill-opacity="0.06"/>
<path d="M0 64C0 61.7909 1.79086 60 4 60H564C566.209 60 568 61.7909 568 64V140C568 142.209 566.209 144 564 144H3.99999C1.79085 144 0 142.209 0 140V64Z" fill="white" fill-opacity="0.06"/>
<path d="M0 204C0 201.791 1.79086 200 4 200H195C197.209 200 199 201.791 199 204V224C199 226.209 197.209 228 195 228H3.99999C1.79086 228 0 226.209 0 224V204Z" fill="white" fill-opacity="0.06"/>
<path d="M0 264C0 261.791 1.79086 260 4 260H564C566.209 260 568 261.791 568 264V288C568 290.209 566.209 292 564 292H3.99999C1.79085 292 0 290.209 0 288V264Z" fill="white" fill-opacity="0.06"/>
<path d="M0 313C0 310.791 1.79086 309 4 309H564C566.209 309 568 310.791 568 313V337C568 339.209 566.209 341 564 341H3.99999C1.79085 341 0 339.209 0 337V313Z" fill="white" fill-opacity="0.06"/>
<path d="M0 362C0 359.791 1.79086 358 4 358H564C566.209 358 568 359.791 568 362V386C568 388.209 566.209 390 564 390H3.99999C1.79085 390 0 388.209 0 386V362Z" fill="white" fill-opacity="0.06"/>
<path d="M0 411C0 408.791 1.79086 407 4 407H564C566.209 407 568 408.791 568 411V435C568 437.209 566.209 439 564 439H3.99999C1.79085 439 0 437.209 0 435V411Z" fill="white" fill-opacity="0.06"/>
<path d="M0 499C0 496.791 1.79086 495 4 495H195C197.209 495 199 496.791 199 499V519C199 521.209 197.209 523 195 523H3.99999C1.79086 523 0 521.209 0 519V499Z" fill="white" fill-opacity="0.06"/>
<path d="M0 563C0 558.582 3.58172 555 8 555H59.4286C63.8468 555 67.4286 558.582 67.4286 563V596C67.4286 600.418 63.8469 604 59.4286 604H8C3.58173 604 0 600.418 0 596V563Z" fill="white" fill-opacity="0.06"/>
<path d="M83.4286 563C83.4286 558.582 87.0103 555 91.4286 555H142.857C147.275 555 150.857 558.582 150.857 563V596C150.857 600.418 147.275 604 142.857 604H91.4286C87.0103 604 83.4286 600.418 83.4286 596V563Z" fill="white" fill-opacity="0.06"/>
<path d="M166.857 563C166.857 558.582 170.439 555 174.857 555H226.286C230.704 555 234.286 558.582 234.286 563V596C234.286 600.418 230.704 604 226.286 604H174.857C170.439 604 166.857 600.418 166.857 596V563Z" fill="white" fill-opacity="0.06"/>
<path d="M250.286 563C250.286 558.582 253.867 555 258.286 555H309.714C314.133 555 317.714 558.582 317.714 563V596C317.714 600.418 314.133 604 309.714 604H258.286C253.867 604 250.286 600.418 250.286 596V563Z" fill="white" fill-opacity="0.06"/>
<path d="M333.714 563C333.714 558.582 337.296 555 341.714 555H393.143C397.561 555 401.143 558.582 401.143 563V596C401.143 600.418 397.561 604 393.143 604H341.714C337.296 604 333.714 600.418 333.714 596V563Z" fill="white" fill-opacity="0.06"/>
<path d="M417.143 563C417.143 558.582 420.725 555 425.143 555H476.571C480.99 555 484.571 558.582 484.571 563V596C484.571 600.418 480.99 604 476.571 604H425.143C420.725 604 417.143 600.418 417.143 596V563Z" fill="white" fill-opacity="0.06"/>
<path d="M500.571 563C500.571 558.582 504.153 555 508.571 555H560C564.418 555 568 558.582 568 563V596C568 600.418 564.418 604 560 604H508.571C504.153 604 500.571 600.418 500.571 596V563Z" fill="white" fill-opacity="0.06"/>
</svg>
